<svg width="116" height="40" viewBox="0 0 116 40" fill="none" xmlns="http://www.w3.org/2000/svg">
<path d="M10.4102 9.86415H14.4284L12.4193 4.75L10.4102 9.86415Z" fill="#56E20A"/>
<path d="M60.2743 5.4805C59.909 5.29785 59.3611 5.29785 58.8131 5.29785H55.1602V8.22023H58.8131C59.3611 8.22023 59.909 8.22023 60.2743 8.03758C60.6396 7.85493 60.8223 7.30698 60.8223 6.75904C61.0049 6.02844 60.6396 5.66315 60.2743 5.4805Z" fill="#C3FFA3"/>
<path d="M99.3616 0V2.19178L98.2657 0H89.6812V2.19178L88.5854 0H76.8959C74.8867 0 73.2429 0.365297 71.7817 1.09589V0H63.5625V1.09589C62.6493 0.365297 61.5534 0 60.0922 0H30.6858L28.6767 4.56621L26.6675 0H17.3525V2.19178L16.2566 0H8.40271L4.74974 8.58447L0.548828 18.0822H9.8639L10.9598 15.1598H13.5169L14.6128 18.0822H25.2064V15.8904L26.1196 18.0822H31.4164L32.3296 15.8904V18.0822H57.7178V13.3333H58.0831C58.4484 13.3333 58.4484 13.3333 58.4484 13.8813V17.8995H71.5991V16.8037C72.6949 17.3516 74.3388 17.8995 76.5306 17.8995H82.01L83.1059 14.9772H85.663L86.7589 17.8995H97.3525V15.1598L98.9963 17.8995H107.581V0H99.3616ZM37.6264 15.3425H34.5214V5.2968L30.1379 15.3425H27.3981L23.0146 5.2968V15.3425H16.8045L15.526 12.6027H9.31595L8.22006 15.5251H4.74974L10.2292 2.55708H14.7954L19.9096 14.7945V2.55708H24.8411L28.8593 11.3242L32.5123 2.55708H37.6264V15.3425ZM50.0465 5.2968H42.9233V7.67123H49.8639V10.2283H42.9233V12.7854H50.0465V15.5251H39.8182V2.55708H50.0465V5.2968ZM63.7452 10.5936C64.1105 11.3242 64.2931 11.8721 64.2931 12.968V15.5251H61.1881V13.8813C61.1881 13.1507 61.1881 12.0548 60.6402 11.3242C60.0922 10.7763 59.5443 10.7763 58.4484 10.7763H55.1607V15.5251H52.0557V2.55708H58.9963C60.6402 2.55708 61.736 2.55708 62.6493 3.10502C63.5625 3.65297 64.1105 4.56621 64.1105 6.0274C64.1105 8.03653 62.8319 9.13242 61.9187 9.49771C62.8319 9.68036 63.3799 10.2283 63.7452 10.5936ZM69.2246 15.3425H66.1196V2.37443H69.2246V15.3425ZM105.206 15.3425H100.823L94.9781 5.6621V15.3425H88.768L87.6721 12.6027H81.2794L80.1835 15.5251H76.7132C75.252 15.5251 73.4255 15.1598 72.3296 14.0639C71.2338 12.968 70.6858 11.5068 70.6858 9.13242C70.6858 7.30594 71.0511 5.47945 72.3296 4.01826C73.2429 2.92237 74.8867 2.55708 76.8959 2.55708H79.8182V5.2968H76.8959C75.8 5.2968 75.252 5.47945 74.5214 6.0274C73.9735 6.57534 73.6082 7.67123 73.6082 8.94977C73.6082 10.411 73.7908 11.3242 74.5214 12.0548C75.0694 12.6027 75.8 12.7854 76.7132 12.7854H77.9918L82.1927 2.73973H86.7589L91.873 14.9772V2.73973H96.4392L101.736 11.6895V2.73973H104.841V15.3425H105.206Z" fill="#3BA900"/>
<path d="M82.3753 9.86415H86.5762L84.567 4.75L82.3753 9.86415ZM51.325 36.1655V25.7546L46.5762 30.8687L51.325 36.1655Z" fill="#C3FFA3"/>
<path d="M31.7812 27.0332V29.4076H38.5392V31.9647H31.7812V34.7044H39.2698L42.7402 30.8688L39.4525 27.0332H31.7812Z" fill="#56E20A"/>
<path d="M58.2653 27.0332H54.4297V30.3209H58.448C59.5438 30.3209 60.2744 29.7729 60.2744 28.677C60.0918 27.5811 59.3612 27.0332 58.2653 27.0332Z" fill="#C3FFA3"/>
<path d="M114.705 30.1371V21.918H107.033C105.39 21.918 104.111 22.2833 103.198 23.0139V21.918H94.7959C93.5174 21.918 91.8736 22.2833 91.143 23.0139V21.918H76.3485V23.0139C75.2526 22.1006 73.2434 21.918 72.3302 21.918H62.4672V23.0139C61.5539 22.1006 59.3622 21.918 58.2663 21.918H47.3074L44.7503 24.6577L42.3759 21.918H25.9375V39.8175H42.0106L44.5676 37.0778L46.9421 39.8175H56.8051V35.6166H58.0836C59.3622 35.6166 61.006 35.6166 62.2845 35.0687V40.0002H70.5037V35.2513H70.869C71.417 35.2513 71.417 35.2513 71.417 35.7993V40.0002H96.2571C97.901 40.0002 99.5448 39.6349 100.458 38.9043V40.0002H108.312C109.956 40.0002 111.6 39.8175 112.695 39.0869C114.522 37.991 115.618 35.9819 115.618 33.6075C115.618 32.3289 115.253 31.0504 114.705 30.1371ZM58.0836 33.0595H54.4307V37.4431H48.5859L44.9329 33.2422L41.0973 37.4431H29.0425V24.475H41.28L44.9329 28.676L48.7685 24.475H58.4489C60.8233 24.475 63.5631 25.2056 63.5631 28.676C63.3804 32.3289 60.8233 33.0595 58.0836 33.0595ZM76.3485 32.3289C76.7138 32.8769 76.8964 33.6075 76.8964 34.7034V37.2604H73.7914V35.6166C73.7914 34.886 73.7914 33.6075 73.2434 33.0595C72.8781 32.5116 72.1475 32.5116 71.0517 32.5116H67.764V37.2604H64.659V24.2924H71.5996C73.0608 24.2924 74.3393 24.2924 75.2526 24.8403C76.1658 25.3883 76.8964 26.3015 76.8964 27.7627C76.8964 29.7719 75.6179 30.8677 74.7046 31.233C75.6179 31.5983 76.1658 31.9636 76.3485 32.3289ZM88.9512 27.0321H81.8279V29.4066H88.7686V31.9636H81.8279V34.5207H88.9512V37.2604H78.7229V24.2924H88.9512V27.0321ZM96.6224 37.2604H90.7777V34.5207H96.6224C97.1704 34.5207 97.5357 34.5207 97.901 34.1554C98.0836 33.9728 98.2663 33.6075 98.2663 33.2422C98.2663 32.8769 98.0836 32.5116 97.901 32.3289C97.7183 32.1463 97.353 31.9636 96.8051 31.9636C93.8827 31.781 90.4124 31.9636 90.4124 27.9454C90.4124 26.1189 91.5083 24.1098 94.7959 24.1098H100.823V27.2148H95.1612C94.6133 27.2148 94.248 27.2148 93.8827 27.3974C93.5174 27.5801 93.5174 27.9454 93.5174 28.3107C93.5174 28.8586 93.8827 29.0413 94.248 29.2239C94.6133 29.4066 94.9786 29.4066 95.3439 29.4066H96.9877C98.6316 29.4066 99.7275 29.7719 100.458 30.5024C101.006 31.0504 101.371 31.9636 101.371 33.2422C101.371 35.9819 99.7274 37.2604 96.6224 37.2604ZM112.33 35.9819C111.6 36.7125 110.321 37.2604 108.495 37.2604H102.65V34.5207H108.495C109.043 34.5207 109.408 34.5207 109.773 34.1554C109.956 33.9728 110.138 33.6075 110.138 33.2422C110.138 32.8769 109.956 32.5116 109.773 32.3289C109.59 32.1463 109.225 31.9636 108.677 31.9636C105.755 31.781 102.285 31.9636 102.285 27.9454C102.285 26.1189 103.38 24.1098 106.668 24.1098H112.695V27.2148H107.216C106.668 27.2148 106.303 27.2148 105.938 27.3974C105.572 27.5801 105.572 27.9454 105.572 28.3107C105.572 28.8586 105.755 29.0413 106.303 29.2239C106.668 29.4066 107.033 29.4066 107.399 29.4066H109.043C110.686 29.4066 111.782 29.7719 112.513 30.5024C112.695 30.5024 112.695 30.6851 112.695 30.6851C113.243 31.4157 113.426 32.3289 113.426 33.2422C113.426 34.3381 113.061 35.2513 112.33 35.9819Z" fill="#3BA900"/>
<path d="M73.0595 27.3975C72.6942 27.2148 72.1462 27.2148 71.5983 27.2148H67.9453V30.1372H71.5983C72.1462 30.1372 72.6942 30.1372 73.0595 29.9546C73.4248 29.7719 73.6074 29.224 73.6074 28.676C73.7901 27.9454 73.4248 27.5801 73.0595 27.3975Z" fill="#C3FFA3"/>
<path d="M60.2748 5.48059C59.9095 5.29794 59.3616 5.29794 58.8136 5.29794H55.1606V8.22032H58.8136C59.3616 8.22032 59.9095 8.22032 60.2748 8.03767C60.6401 7.85502 60.8227 7.30707 60.8227 6.75913C61.0054 6.02854 60.6401 5.66324 60.2748 5.48059ZM82.3753 9.86415H86.5762L84.567 4.75L82.3753 9.86415ZM51.325 36.1655V25.7546L46.5762 30.8687L51.325 36.1655ZM58.2657 27.0331H54.4301V30.3208H58.4483C59.5442 30.3208 60.2748 29.7728 60.2748 28.6769C60.0922 27.581 59.3616 27.0331 58.2657 27.0331ZM73.0602 27.3984C72.6949 27.2157 72.1469 27.2158 71.599 27.2158H67.946V30.1381H71.599C72.1469 30.1381 72.6949 30.1381 73.0602 29.9555C73.4255 29.7728 73.6081 29.2249 73.6081 28.6769C73.7908 27.9463 73.4255 27.581 73.0602 27.3984Z" fill="#C3FFA3"/>
<path d="M56.9877 36.8951L54.4306 34.1554V37.2604H48.4033L44.7503 33.0595L40.732 37.2604H28.6772V24.475H40.9147L44.7503 28.676L46.5768 26.4842L42.0106 21.918H25.9375V39.8175H42.0106L44.7503 37.0778L47.1247 39.8175H56.9877V36.8951Z" fill="#56E20A"/>
<path d="M37.9917 17.8995L35.6173 15.3425H34.5214V14.2466L31.7817 11.5068L29.9552 15.3425H27.3981L23.0146 5.2968V15.3425H16.8045L15.526 12.6027H9.31595L8.03741 15.3425H4.74974L10.2292 2.55708H14.7954L19.9096 14.7945V2.55708H22.6493L20.0922 0H17.3525V2.19178L16.4392 0H8.40271L4.74974 8.58447L0.548828 17.8995H10.0465L11.1424 15.1598H13.6995L14.9781 17.8995H25.2064V15.7078L26.1196 17.8995H31.4164L32.3296 15.7078V17.8995H37.9917Z" fill="#56E20A"/>
<path d="M29.5903 9.49708L26.668 6.57471L28.8597 11.3236L29.5903 9.49708Z" fill="#56E20A"/>
<path d="M112.694 38.9044C114.338 37.8085 115.434 35.982 115.616 33.9729L113.059 31.4158C113.242 31.9637 113.425 32.5117 113.425 33.2423C113.425 34.3382 113.059 35.2514 112.329 35.982C111.598 36.7126 110.32 37.2605 108.493 37.2605H102.648V34.5208H108.493C109.041 34.5208 109.406 34.5208 109.772 34.1555C109.954 33.9729 110.137 33.6076 110.137 33.2423C110.137 32.877 109.954 32.5117 109.772 32.329C109.589 32.1464 109.224 31.9637 108.676 31.9637C105.753 31.7811 102.283 31.9637 102.283 27.9455C102.283 26.119 103.379 24.4751 106.119 24.1098L104.11 22.1007C103.744 22.2834 103.562 22.466 103.379 22.466V21.3701H94.9771C93.6986 21.3701 92.0547 21.7354 91.3241 22.466V21.3701H76.347V22.466C75.2511 21.5528 73.2419 21.3701 72.3287 21.3701H62.4657V22.466C61.5525 21.5528 59.3607 21.3701 58.2648 21.3701H47.3059L44.7488 24.1098L42.3744 21.3701H40.3652L45.8447 26.8496L48.5844 23.9272H58.2648C60.6392 23.9272 63.3789 24.6578 63.3789 28.1281C63.3789 31.7811 60.8219 32.5117 58.0821 32.5117H54.4292V35.2514L57.1689 37.9911V35.2514H58.0821C59.3607 35.2514 61.0045 35.2514 62.283 34.7034V39.635H70.5022V34.8861H70.8675C71.4155 34.8861 71.4155 34.8861 71.4155 35.434V39.635H96.2556C97.8995 39.635 99.5433 39.2697 100.457 38.5391V39.635H108.31C109.772 39.8176 111.415 39.635 112.694 38.9044ZM76.347 32.329C76.7123 32.877 76.8949 33.6076 76.8949 34.7034V37.2605H73.7899V35.6167C73.7899 34.8861 73.7899 33.6076 73.2419 33.0596C72.8766 32.5117 72.1461 32.5117 71.0502 32.5117H67.7625V37.2605H64.6575V24.2925H71.5981C73.0593 24.2925 74.3378 24.2925 75.2511 24.8404C76.1643 25.3884 76.8949 26.3016 76.8949 27.7628C76.8949 29.7719 75.6164 30.8678 74.7031 31.2331C75.6164 31.5984 76.1643 31.9637 76.347 32.329ZM88.9497 27.0322H81.8264V29.4066H88.7671V31.9637H81.8264V34.5208H88.9497V37.2605H78.7214V24.2925H88.9497V27.0322ZM96.6209 37.2605H90.7762V34.5208H96.6209C97.1689 34.5208 97.5342 34.5208 97.8995 34.1555C98.0821 33.9729 98.2648 33.6076 98.2648 33.2423C98.2648 32.877 98.0821 32.5117 97.8995 32.329C97.7168 32.1464 97.3515 31.9637 96.8036 31.9637C93.8812 31.7811 90.4109 31.9637 90.4109 27.9455C90.4109 26.119 91.5068 24.1098 94.7945 24.1098H100.822V27.2149H95.1597C94.6118 27.2149 94.2465 27.2149 93.8812 27.3975C93.5159 27.5802 93.5159 27.9455 93.5159 28.3108C93.5159 28.8587 93.8812 29.0413 94.2465 29.224C94.6118 29.4066 94.9771 29.4066 95.3424 29.4066H96.9862C98.6301 29.4066 99.726 29.7719 100.457 30.5025C101.005 31.0505 101.37 31.9637 101.37 33.2423C101.37 35.982 99.726 37.2605 96.6209 37.2605Z" fill="#C3FFA3"/>
<path d="M105.389 28.3102C105.389 28.8582 105.571 29.0408 106.119 29.2235C106.485 29.4061 106.85 29.4061 107.215 29.4061H108.859C109.955 29.4061 110.685 29.5888 111.416 29.9541L108.676 27.2144H107.033C106.485 27.2144 106.119 27.2144 105.754 27.397C105.571 27.5796 105.389 27.9449 105.389 28.3102Z" fill="#C3FFA3"/>
<path d="M98.9968 17.3528L99.3621 17.9007H99.5448L98.9968 17.3528ZM88.9512 7.30713L92.0562 14.7957V10.4121L88.9512 7.30713Z" fill="#C3FFA3"/>
<path d="M57.7176 13.3333H58.0829C58.4482 13.3333 58.4482 13.3333 58.4482 13.8812V17.8995H71.5989V16.8036C72.6948 17.3516 74.3386 17.8995 76.5304 17.8995H82.0098L83.1058 14.9771H85.6628L86.7587 17.8995H97.3523V16.073L94.7952 13.5159V15.5251H88.5852L87.672 12.6027H81.2793L80.1834 15.5251H76.7131C75.2519 15.5251 73.4254 15.1598 72.3295 14.0639C71.2336 12.968 70.6857 11.5068 70.6857 9.13239C70.6857 7.3059 71.0509 5.47942 72.3295 4.01823C73.2427 2.92234 74.8866 2.55704 76.8957 2.55704H79.8181V5.29677H76.8957C75.7998 5.29677 75.2519 5.47942 74.5213 6.02736C73.9733 6.57531 73.608 7.6712 73.608 8.94974C73.608 10.4109 73.7907 11.3242 74.5213 12.0548C75.0692 12.6027 75.7998 12.7854 76.7131 12.7854H77.9916L82.1925 2.73969H84.019L81.4619 0.182617H76.7131C74.7039 0.182617 73.0601 0.547911 71.5989 1.2785V0.182617H63.5624V1.2785C62.6491 0.547911 61.5532 0.182617 60.092 0.182617H30.6857L28.6765 4.74883L26.6674 0.182617H18.6309L21.1879 2.73969H24.8409L27.9459 9.49768L29.0418 10.5936L32.3295 2.55704H37.4436V15.5251H34.3386V5.47942L31.2336 12.7854L36.5304 18.0822H57.535L57.7176 13.3333ZM66.1194 2.55704H69.2245V15.5251H66.1194V2.55704ZM50.0464 5.29677H42.9231V7.6712H49.8637V10.2283H42.9231V12.7854H50.0464V15.5251H39.8181V2.55704H50.0464V5.29677ZM55.1605 15.3424H52.0555V2.3744H58.9962C60.64 2.3744 61.7359 2.3744 62.6491 2.92234C63.5624 3.47029 64.1103 4.38353 64.1103 5.84471C64.1103 7.85385 62.8318 8.94974 61.9185 9.31504C62.6491 9.49769 63.1971 10.0456 63.3797 10.4109C63.745 11.1415 63.9277 11.6895 63.9277 12.7854V15.3424H60.8226V13.6986C60.8226 12.968 60.8226 11.8721 60.2747 11.1415C60.092 10.7762 59.5441 10.7762 58.4482 10.7762H55.1605V15.3424Z" fill="#C3FFA3"/>
</svg>
