<svg width="97" height="40" viewBox="0 0 97 40" fill="none" xmlns="http://www.w3.org/2000/svg">
<g clip-path="url(#clip0_82_6595)">
<path d="M46.026 8.968H52.718V32.188H46.026V8.968ZM17.654 25.42C17.654 17.4 7.466 18.844 7.466 15.808L7.47 15.816C7.47 14.768 8.342 14.36 9.738 14.344C12.0534 14.3932 14.325 14.985 16.37 16.072V9.736C14.2642 8.90497 12.0178 8.48802 9.754 8.508C4.35 8.508 0.75 11.356 0.75 16.116C0.75 23.572 10.878 22.36 10.878 25.576C10.878 26.816 9.814 27.228 8.326 27.228C6.122 27.228 3.27 26.304 1.034 25.076V31.14C3.32978 32.1401 5.80585 32.6601 8.31 32.668C13.846 32.664 17.654 30.268 17.654 25.42ZM46.006 6.928L52.698 5.488V0L46.006 1.44V6.928ZM66.622 8.516C64.6731 8.50784 62.7987 9.26475 61.402 10.624L61.058 8.956H55.19V40L61.85 38.572L61.866 30.964C62.826 31.676 64.25 32.664 66.578 32.664C71.35 32.664 75.698 29.148 75.698 20.6C75.714 12.776 71.306 8.516 66.622 8.516ZM65.034 27.08C63.47 27.084 62.546 26.508 61.898 25.808L61.854 15.804C62.546 15.032 63.506 14.468 65.034 14.468C67.462 14.468 69.142 17.228 69.142 20.744C69.162 24.368 67.51 27.08 65.034 27.08ZM87.118 8.516C80.786 8.516 76.93 13.956 76.93 20.812C76.93 28.92 81.474 32.668 87.958 32.668C91.138 32.668 93.522 31.94 95.338 30.924V25.86C93.522 26.784 91.438 27.344 88.798 27.344C86.202 27.344 83.922 26.42 83.622 23.268H96.658C96.686 22.92 96.746 21.508 96.746 20.86C96.746 13.96 93.45 8.516 87.118 8.516ZM83.562 18.308C83.562 15.276 85.41 14.004 87.074 14.004C88.71 14.004 90.45 15.28 90.45 18.308H83.562ZM30.558 14.7V8.968H25.502L25.486 3.132L18.986 4.528L18.958 26.112C18.958 30.1 21.93 32.676 25.874 32.676C28.066 32.676 29.67 32.264 30.558 31.78V26.656C29.702 27.004 25.502 28.248 25.502 24.276V14.696H30.558V14.7ZM44.418 15.156V8.972C43.518 8.652 40.414 8.064 38.854 10.956L38.446 8.972H32.686V32.192H39.334V16.564C40.91 14.472 43.566 14.884 44.418 15.156Z" fill="#56E20A"/>
</g>
<defs>
<clipPath id="clip0_82_6595">
<rect width="96" height="40" fill="white" transform="translate(0.617188)"/>
</clipPath>
</defs>
</svg>
