<svg width="89" height="40" viewBox="0 0 89 40" fill="none" xmlns="http://www.w3.org/2000/svg">
<path d="M9.03849 29.2448H9.57927L9.07283 31.3478C8.99557 31.6568 9.01274 31.8971 9.11575 32.0516C9.21875 32.2061 9.40759 32.2834 9.69085 32.2834C9.96553 32.2834 10.1973 32.2061 10.3775 32.0516C10.5578 31.8971 10.678 31.6568 10.7552 31.3478L11.2617 29.2448H11.811L11.296 31.3993C11.1844 31.8628 10.987 32.2147 10.6951 32.4465C10.4119 32.6782 10.0342 32.7984 9.57068 32.7984C9.10716 32.7984 8.78957 32.6868 8.61789 32.4551C8.44622 32.2233 8.41188 31.8714 8.52347 31.4079L9.03849 29.2448ZM11.7338 32.704L12.5921 29.1074L14.223 31.219C14.266 31.2791 14.3089 31.3392 14.3518 31.4079C14.3947 31.4765 14.4376 31.5538 14.4891 31.6396L15.0642 29.2448H15.5707L14.7123 32.8327L13.0471 30.6782L12.9183 30.498C12.8754 30.4293 12.8411 30.3692 12.8153 30.292L12.2402 32.6954H11.7338V32.704ZM15.5278 32.704L16.3518 29.2448H16.9012L16.0771 32.704H15.5278ZM16.8582 32.704L17.6823 29.2448H19.5621L19.4505 29.7254H18.12L17.914 30.5838H19.2445L19.1243 31.0731H17.7939L17.4076 32.6954H16.8582V32.704ZM19.3475 32.704L20.1715 29.2448H20.7209L19.8969 32.704H19.3475ZM20.678 32.704L21.502 29.2448H23.3818L23.2703 29.7254H21.9398L21.7338 30.5924H23.0642L22.9441 31.0817H21.6136L21.3475 32.1976H22.678L22.5578 32.704H20.678ZM23.193 32.704L24.017 29.2448H24.7552C25.2359 29.2448 25.5707 29.2705 25.7509 29.322C25.9312 29.3735 26.0857 29.4508 26.2059 29.5709C26.3604 29.7254 26.4634 29.9229 26.5063 30.1546C26.5492 30.395 26.5321 30.6697 26.4634 30.9701C26.3861 31.2791 26.2745 31.5452 26.12 31.7855C25.9655 32.0259 25.7681 32.2147 25.5363 32.3692C25.3647 32.4894 25.1758 32.5666 24.9698 32.6182C24.7724 32.6697 24.472 32.6954 24.0771 32.6954H23.193V32.704ZM23.8625 32.189H24.326C24.575 32.189 24.7724 32.1718 24.9097 32.1375C25.0471 32.1031 25.1672 32.043 25.2788 31.9658C25.4333 31.8542 25.5621 31.7169 25.6651 31.5452C25.7681 31.3821 25.8454 31.1847 25.8969 30.9615C25.9484 30.7383 25.9655 30.5495 25.9398 30.3864C25.914 30.2233 25.8539 30.0774 25.7509 29.9658C25.6737 29.88 25.5793 29.8285 25.4505 29.7941C25.3218 29.7598 25.1243 29.7426 24.8411 29.7426H24.4462L23.8625 32.189ZM28.987 31.1503L28.6179 32.704H28.1029L28.9269 29.2448H29.7595C30.0084 29.2448 30.1801 29.2619 30.2917 29.2877C30.4033 29.3134 30.4891 29.3563 30.5578 29.425C30.6436 29.5023 30.7037 29.6139 30.7295 29.7512C30.7552 29.8885 30.7466 30.0345 30.7123 30.1975C30.6694 30.3606 30.6093 30.5151 30.5149 30.6525C30.4205 30.7898 30.3089 30.9014 30.1887 30.9787C30.0857 31.0388 29.9741 31.0903 29.8539 31.116C29.7338 31.1418 29.5449 31.1589 29.3046 31.1589H28.987V31.1503ZM29.1329 30.6868H29.2703C29.5707 30.6868 29.7853 30.6525 29.9054 30.5838C30.0256 30.5151 30.1029 30.395 30.1458 30.2233C30.1887 30.043 30.163 29.9057 30.0771 29.837C29.9827 29.7598 29.7939 29.7254 29.5106 29.7254H29.3733L29.1329 30.6868ZM32.575 32.704L32.4033 31.8113H31.0642L30.4634 32.704H29.8883L32.3775 29.1074L33.1501 32.704H32.575ZM31.3904 31.3392H32.326L32.1715 30.5495C32.163 30.498 32.1544 30.4379 32.1544 30.3778C32.1458 30.3091 32.1458 30.2405 32.1458 30.1632C32.1115 30.2405 32.0771 30.3091 32.0342 30.3778C31.9999 30.4465 31.9655 30.5066 31.9312 30.5581L31.3904 31.3392ZM33.9398 32.704L34.3175 31.1246L33.6308 29.2533H34.2059L34.6351 30.4293C34.6436 30.4636 34.6522 30.498 34.6694 30.5495C34.6866 30.601 34.6951 30.6525 34.7123 30.704L34.8153 30.5495C34.8497 30.498 34.884 30.4551 34.9183 30.4121L35.9226 29.2533H36.472L34.8668 31.116L34.4891 32.6954H33.9398V32.704ZM39.1672 30.9958C39.1672 30.9701 39.1758 30.8928 39.193 30.7727C39.2016 30.6697 39.2102 30.5924 39.2188 30.5237C39.1844 30.601 39.1501 30.6782 39.1072 30.7641C39.0642 30.8413 39.0127 30.9272 38.9527 31.0044L37.6308 32.8499L37.2016 30.9701C37.1844 30.8928 37.1672 30.8156 37.1587 30.7469C37.1501 30.6782 37.1415 30.601 37.1415 30.5323C37.1243 30.601 37.0986 30.6782 37.0728 30.7641C37.0471 30.8413 37.0127 30.9272 36.9698 31.013L36.1973 32.7126H35.6909L37.3475 29.1074L37.8196 31.2877C37.8282 31.322 37.8368 31.3821 37.8454 31.4594C37.8539 31.5366 37.8711 31.6396 37.8883 31.7598C37.9484 31.6568 38.0256 31.5366 38.1286 31.3821C38.1544 31.3392 38.1801 31.3134 38.1887 31.2877L39.6823 29.1074L39.6308 32.7126H39.1243L39.1672 30.9958ZM40.0771 32.704L40.9012 29.2448H42.781L42.6694 29.7254H41.3389L41.1329 30.5924H42.4634L42.3432 31.0817H41.0127L40.7466 32.1976H42.0771L41.9569 32.704H40.0771ZM42.5836 32.704L43.4419 29.1074L45.0728 31.219C45.1157 31.2791 45.1587 31.3392 45.2016 31.4079C45.2445 31.4765 45.2874 31.5538 45.3389 31.6396L45.914 29.2448H46.4205L45.5621 32.8327L43.8969 30.6782L43.7681 30.498C43.7252 30.4293 43.6909 30.3692 43.6651 30.292L43.09 32.6954H42.5836V32.704ZM48.1715 29.7169L47.4591 32.6954H46.9097L47.6222 29.7169H46.7295L46.8411 29.2362H49.1758L49.0642 29.7169H48.1715ZM48.7466 32.0087L49.2359 31.8027C49.2445 31.9572 49.2874 32.0774 49.3818 32.1546C49.4763 32.2319 49.605 32.2748 49.7767 32.2748C49.9398 32.2748 50.0771 32.2319 50.1973 32.1375C50.3175 32.043 50.3947 31.9229 50.4291 31.7684C50.4806 31.5624 50.3604 31.3821 50.0685 31.2276C50.0256 31.2018 49.9999 31.1847 49.9741 31.1761C49.6479 30.9873 49.4419 30.8242 49.3561 30.6697C49.2703 30.5151 49.2531 30.3349 49.3046 30.1203C49.3733 29.837 49.5192 29.6139 49.7509 29.4336C49.9827 29.2619 50.2402 29.1675 50.5492 29.1675C50.7981 29.1675 50.9956 29.219 51.1415 29.3134C51.2874 29.4079 51.3647 29.5538 51.3904 29.734L50.9097 29.9572C50.8668 29.8456 50.8153 29.7684 50.7466 29.7169C50.678 29.6654 50.5921 29.6396 50.4891 29.6396C50.3432 29.6396 50.2145 29.6825 50.1115 29.7598C50.0084 29.837 49.9398 29.94 49.9054 30.0774C49.8539 30.2834 49.9999 30.4808 50.3346 30.6611C50.3604 30.6782 50.3776 30.6868 50.3947 30.6954C50.6866 30.8499 50.884 31.0044 50.9698 31.1589C51.0557 31.3134 51.0728 31.4937 51.0213 31.7254C50.9441 32.0516 50.781 32.3091 50.5321 32.5066C50.2831 32.6954 49.9913 32.7984 49.6479 32.7984C49.3647 32.7984 49.1415 32.7297 48.987 32.5924C48.8153 32.4551 48.7381 32.2576 48.7466 32.0087ZM52.7896 32.704L53.6136 29.2448H54.163L53.3389 32.704H52.7896ZM54.1286 32.704L54.987 29.1074L56.6179 31.219C56.6608 31.2791 56.7037 31.3392 56.7467 31.4079C56.7896 31.4765 56.8325 31.5538 56.884 31.6396L57.4591 29.2448H57.9655L57.1072 32.8327L55.4419 30.6782L55.3132 30.498C55.2703 30.4293 55.2359 30.3692 55.2102 30.292L54.6351 32.6954H54.1286V32.704ZM59.7166 29.7169L59.0042 32.6954H58.4548L59.1672 29.7169H58.2745L58.3861 29.2362H60.7209L60.6093 29.7169H59.7166ZM60.3089 32.704L61.1329 29.2448H63.0213L62.9097 29.7254H61.5793L61.3733 30.5924H62.7037L62.5836 31.0817H61.2531L60.987 32.1976H62.3175L62.1973 32.704H60.3089ZM63.6994 31.1503L63.3303 32.6954H62.8153L63.6394 29.2362H64.4033C64.6265 29.2362 64.7982 29.2533 64.9097 29.2791C65.0299 29.3048 65.1243 29.3563 65.193 29.425C65.2788 29.5109 65.3303 29.6139 65.3561 29.7512C65.3818 29.88 65.3733 30.0259 65.3389 30.189C65.2703 30.4636 65.1587 30.6868 64.987 30.8413C64.8153 30.9958 64.6007 31.0903 64.3432 31.1246L65.1243 32.6954H64.5063L63.7595 31.1503H63.6994ZM63.8368 30.7126H63.9398C64.2316 30.7126 64.4291 30.6782 64.5406 30.6096C64.6522 30.5409 64.7295 30.4207 64.7724 30.2405C64.8153 30.0516 64.7982 29.9143 64.7123 29.837C64.6265 29.7598 64.4462 29.7169 64.1715 29.7169H64.0685L63.8368 30.7126ZM65.4591 32.704L66.2831 29.2448H68.163L68.0514 29.7254H66.7209L66.5149 30.5838H67.8454L67.7252 31.0731H66.3947L66.0085 32.6954H65.4591V32.704ZM69.9913 32.704L69.8196 31.8113H68.4806L67.8797 32.704H67.3046L69.7939 29.1074L70.5664 32.704H69.9913ZM68.7982 31.3392H69.7338L69.5793 30.5495C69.5707 30.498 69.5621 30.4379 69.5621 30.3778C69.5535 30.3091 69.5535 30.2405 69.5535 30.1632C69.5192 30.2405 69.4848 30.3091 69.4419 30.3778C69.4076 30.4465 69.3733 30.5066 69.3389 30.5581L68.7982 31.3392ZM74.1372 30.086C74.017 29.9486 73.8711 29.8456 73.7166 29.7855C73.5621 29.7169 73.3904 29.6825 73.193 29.6825C72.8239 29.6825 72.4977 29.8027 72.2059 30.043C71.914 30.2834 71.7252 30.601 71.6308 30.9872C71.5449 31.3563 71.5793 31.6654 71.7509 31.9143C71.914 32.1546 72.1715 32.2748 72.5149 32.2748C72.7123 32.2748 72.9097 32.2405 73.1072 32.1632C73.3046 32.0945 73.502 31.983 73.708 31.837L73.5535 32.4722C73.3818 32.5838 73.2016 32.6611 73.0127 32.7126C72.8239 32.7641 72.6351 32.7898 72.4291 32.7898C72.1715 32.7898 71.9398 32.7469 71.7424 32.6611C71.5449 32.5752 71.3818 32.4465 71.2531 32.2748C71.1243 32.1117 71.0471 31.9143 71.0127 31.6911C70.9784 31.4679 70.987 31.2276 71.0557 30.9701C71.1157 30.7126 71.2188 30.4808 71.3561 30.2576C71.4934 30.0345 71.6737 29.837 71.8797 29.6739C72.0857 29.5023 72.3089 29.3735 72.5492 29.2877C72.7896 29.2018 73.0299 29.1589 73.2788 29.1589C73.4763 29.1589 73.6565 29.1847 73.8282 29.2448C73.9913 29.3048 74.1458 29.3907 74.2831 29.5109L74.1372 30.086ZM74.1887 32.704L75.0127 29.2448H76.8926L76.781 29.7254H75.4505L75.2445 30.5924H76.575L76.4548 31.0817H75.1243L74.8582 32.1976H76.1887L76.0685 32.704H74.1887Z" fill="#56E20A"/>
<path d="M64.1967 26.2316H60.4284L65.6645 7.32178H69.4327L64.1967 26.2316ZM62.2396 7.91405C61.9821 7.55354 61.5786 7.37328 61.0293 7.37328H40.3254L39.3039 11.0814H58.1366L57.0379 15.0385H41.9735V15.0299H38.2052L35.0808 26.3175H38.849L40.9434 18.7467H57.8791C58.4112 18.7467 58.9091 18.5664 59.3726 18.2059C59.8361 17.8454 60.1452 17.399 60.2911 16.8668L62.3855 9.29603C62.5486 8.7295 62.4971 8.27457 62.2396 7.91405ZM32.8833 25.0471C32.6773 25.7939 31.9906 26.3175 31.2181 26.3175H11.7932C11.261 26.3175 10.8662 26.1372 10.6087 25.7767C10.3512 25.4162 10.2911 24.9698 10.4456 24.4377L15.1838 7.37328H18.952L14.7203 22.6179H29.7932L34.025 7.37328H37.7932L32.8833 25.0471Z" fill="#C3FFA3"/>
<path d="M75.9388 7.35645L80.7027 16.8328L70.6855 26.3092L75.9388 7.35645Z" fill="#56E20A"/>
<path d="M72.5919 7.35645L77.3558 16.8328L67.3301 26.3092L72.5919 7.35645Z" fill="#3BA900"/>
</svg>
