<svg width="107" height="40" viewBox="0 0 107 40" fill="none" xmlns="http://www.w3.org/2000/svg">
<path d="M82.1313 10.6941C82.5458 10.3625 82.753 10.1967 82.9603 10.0309C85.8411 7.58533 89.5302 7.85476 91.9966 10.7563C92.2453 11.0465 92.3696 11.0672 92.6183 10.8185C92.7841 10.632 92.9707 10.4869 93.1365 10.3004C95.0639 8.41434 97.6131 7.85476 99.9966 8.91175C102.504 10.0309 103.851 11.9998 103.872 14.7563C103.914 20.7045 103.893 26.632 103.893 32.5801C103.893 34.6941 102.587 36.0206 100.494 36.0206C99.665 36.0206 98.8359 35.9584 98.0069 36.0413C97.1572 36.1242 96.9085 35.8548 96.9085 34.9636C96.9499 29.1605 96.9292 23.3573 96.9292 17.5542C96.9292 17.3055 96.9292 17.0776 96.9292 16.8288C96.9085 15.4817 96.3696 14.9221 95.0846 14.8599C93.924 14.7978 93.1157 15.5024 92.9914 16.6838C92.9707 16.9532 92.9914 17.2434 92.9914 17.5128C92.9914 22.5283 92.9914 27.5232 92.9914 32.5387C92.9914 34.7356 91.7271 36.0206 89.5302 35.9998C88.4111 35.9791 86.8981 36.4972 86.2556 35.7719C85.696 35.1501 86.0691 33.6786 86.0691 32.5801C86.0691 27.4402 86.0691 22.2796 86.0691 17.1397C86.0691 15.3159 84.8878 14.3833 83.3541 15.005C82.4007 15.3988 82.0898 16.1656 82.0898 17.1605C82.1106 21.9687 82.0898 26.7563 82.0898 31.5646C82.0898 31.9377 82.0898 32.3314 82.0898 32.7045C82.0277 34.7149 80.7427 35.9791 78.753 35.9998C77.924 36.0206 77.095 35.9377 76.266 36.0206C75.3748 36.1035 75.1054 35.8548 75.1261 34.9014C75.1675 26.7563 75.1468 18.6112 75.1468 10.4454C75.1468 10.0931 75.1675 9.76149 75.1468 9.40916C75.1054 8.9532 75.2919 8.80813 75.7479 8.80813C77.6546 8.82885 79.5406 8.82885 81.4473 8.80813C81.924 8.80813 82.152 8.93248 82.1106 9.45061C82.0691 9.82367 82.1106 10.1553 82.1313 10.6941Z" fill="#C3FFA3"/>
<path d="M38.194 21.9273C38.194 24.7667 38.194 27.5853 38.194 30.4247C38.1733 34.1138 36.2458 36.0205 32.5567 36.0413C30.9401 36.0413 29.3028 36.062 27.6863 36.0413C24.4116 35.9998 22.0075 33.8237 21.8417 30.549C21.7173 28.2071 21.6966 25.8444 21.821 23.5024C21.9868 20.1449 24.5567 17.7822 27.9557 17.7408C28.8469 17.72 29.7588 17.7408 30.65 17.7408C31.5204 17.72 31.8521 17.2226 31.8313 16.3936C31.8313 15.5646 31.4583 15.1915 30.6293 15.233C29.6966 15.2537 28.764 15.2537 27.8313 15.233C25.5515 15.1915 24.2873 13.948 24.308 11.7097C24.308 10.7978 23.8935 9.57495 24.4945 9.03609C25.0127 8.58013 26.194 8.87029 27.0852 8.87029C29.4065 8.84956 31.707 8.87029 34.0282 8.87029C36.4945 8.87029 38.1733 10.549 38.194 13.0361C38.2148 15.9791 38.194 18.9636 38.194 21.9273ZM31.8521 26.632C31.8521 26.2796 31.8521 25.948 31.8521 25.5957C31.8521 23.4817 31.8521 23.4817 29.7381 23.5646C28.6811 23.606 28.1008 24.1449 28.08 25.2433C28.0593 26.1138 28.0593 26.9636 28.08 27.834C28.1008 29.3262 28.764 29.72 30.9194 29.7822C32.5153 29.8237 31.707 28.7045 31.8521 28.0827C31.935 27.6268 31.8313 27.1086 31.8521 26.632ZM56.6396 19.6682C56.6396 22.8392 56.6811 26.0309 56.6189 29.2019C56.5774 31.6475 55.9971 33.8651 53.6344 35.1708C52.6811 35.6889 51.6448 35.9791 50.5671 35.9998C48.1837 36.0413 45.8002 35.9998 43.4168 36.0413C42.8365 36.0413 42.7122 35.834 42.7329 35.3159C42.7743 34.4454 42.7122 33.5957 42.7536 32.7252C42.7951 31.0672 44.0593 29.8029 45.7173 29.7408C46.7951 29.6993 47.8521 29.72 48.9298 29.7408C49.8002 29.7408 50.2769 29.3884 50.2769 28.4558C50.2769 27.5024 49.821 27.1708 48.9505 27.1501C47.4997 27.1086 46.0489 27.3159 44.6189 26.9014C42.1526 26.176 40.3495 24.1242 40.2873 21.575C40.1629 17.5335 40.2458 13.4921 40.2251 9.4506C40.2251 8.99464 40.3702 8.84956 40.8261 8.87029C42.5256 8.89101 44.2044 8.91174 45.9039 8.87029C46.65 8.84956 46.5464 9.26407 46.5464 9.72003C46.5464 12.7667 46.5464 15.7926 46.5464 18.8392C46.5464 20.1656 47.1681 20.8703 48.3287 20.9117C49.6966 20.9532 50.2976 20.3936 50.2976 19.005C50.2976 15.9376 50.3184 12.8496 50.2769 9.78221C50.2769 9.05682 50.4635 8.84956 51.1888 8.87029C52.7018 8.93247 54.2355 8.95319 55.7484 8.87029C56.5774 8.82884 56.7018 9.13972 56.6811 9.86511C56.6189 13.119 56.6396 16.3936 56.6396 19.6682ZM3.83133 24.3729C3.83133 20.9946 3.83133 17.5957 3.83133 14.2174C3.83133 10.9014 5.86242 8.82884 9.19921 8.87029C11.3754 8.89101 13.5515 8.62159 15.707 9.03609C18.4635 9.57495 20.2044 11.7097 20.2251 14.549C20.2458 17.5542 20.2251 20.5594 20.2251 23.5646C20.2251 27.3366 18.0075 29.6371 14.2355 29.7408C13.0956 29.7822 11.9557 29.7615 10.8158 29.7408C10.2977 29.72 10.0697 29.8858 10.0904 30.4454C10.1318 31.2744 10.1111 32.1035 10.0904 32.9325C10.0489 34.7149 8.7847 35.9998 7.02304 36.0205C5.98677 36.0413 4.68107 36.4558 4.01786 35.8547C3.3961 35.2952 3.85206 33.9687 3.83133 32.9739C3.8106 30.1138 3.83133 27.233 3.83133 24.3729ZM10.0904 19.2952C10.0904 19.9584 10.0904 20.6009 10.0904 21.2641C10.0904 23.606 10.0904 23.606 12.4324 23.3988C13.4479 23.3159 13.9246 22.8185 13.9453 21.8029C13.966 20.6423 13.9039 19.461 13.966 18.3003C14.0904 14.9428 13.4686 15.2744 10.7329 15.2537C10.2355 15.2537 10.0697 15.3988 10.0697 15.8962C10.1111 17.0154 10.0904 18.1553 10.0904 19.2952Z" fill="#56E20A"/>
<path d="M62.5058 24.4144C62.5058 21.6579 62.4851 18.8807 62.5265 16.1242C62.5265 15.4817 62.3814 15.2123 61.6768 15.233C60.7441 15.2745 59.5006 15.5439 58.9825 15.0879C58.34 14.4869 58.8374 13.2019 58.7545 12.2071C58.7545 12.1449 58.7545 12.062 58.7545 11.9999C58.7545 11.0258 58.4436 9.88587 58.8581 9.16049C59.2726 8.4351 60.5369 8.89105 61.4281 8.66307C63.1897 8.20712 64.5162 7.19157 65.5939 5.78225C66.34 4.82888 67.2726 4.14494 68.4747 3.91696C69.1172 3.79261 69.511 3.87551 69.4695 4.70453C69.4073 5.86515 69.4695 7.0465 69.4488 8.22784C69.4281 8.72525 69.6146 8.89105 70.112 8.87033C70.941 8.8496 71.77 8.89106 72.5991 8.8496C73.0965 8.82888 73.2623 9.01541 73.2415 9.51282C73.2208 11.2123 73.2208 12.8911 73.2415 14.5905C73.2415 15.0672 73.1172 15.3159 72.5991 15.2538C72.4954 15.233 72.3918 15.2538 72.2882 15.2538C71.3763 15.3367 70.112 14.8392 69.6353 15.461C69.1794 16.0413 69.4695 17.2434 69.4695 18.176C69.4695 23.8133 69.4488 29.4299 69.4902 35.0672C69.4902 35.8548 69.283 36.1035 68.4954 36.0413C67.7493 35.9791 66.9825 36.0413 66.2156 36.0206C63.9773 35.9377 62.5058 34.4247 62.5058 32.1864C62.5058 29.5957 62.5058 27.005 62.5058 24.4144Z" fill="#C3FFA3"/>
</svg>
