<svg width="65" height="40" viewBox="0 0 65 40" fill="none" xmlns="http://www.w3.org/2000/svg">
<g clip-path="url(#clip0_82_6598)">
<path d="M60.6992 -0.0756836H4.5586C2.38829 -0.0756836 0.628906 1.646 0.628906 3.76981V36.1189C0.628906 38.2427 2.38829 39.9644 4.5586 39.9644H60.6992C62.8695 39.9644 64.6289 38.2427 64.6289 36.1189V3.76981C64.6289 1.646 62.8695 -0.0756836 60.6992 -0.0756836Z" fill="#C3FFA3"/>
<path fill-rule="evenodd" clip-rule="evenodd" d="M17.9153 19.5631L18.1955 18.4623C19.2722 18.1394 21.4698 17.9926 21.8828 19.1521C22.1188 19.8273 21.4403 22.6307 21.3076 23.4526L20.2604 23.4673C20.0244 23.1737 20.2162 23.7168 20.0539 22.9976C19.051 23.8929 16.9124 23.7461 17.0746 21.9408C17.2369 20.1502 18.8003 20.385 20.4964 20.1208C20.4669 18.976 19.0215 19.2842 17.9006 19.5484L17.9153 19.5631ZM25.8061 19.3869C24.8474 19.3869 24.6999 19.1815 23.8592 19.5484C23.9624 20.5905 24.5081 20.1795 25.2603 20.6786C26.691 21.6179 25.1571 24.5241 21.7501 23.2765L21.9418 22.2197C22.9005 22.4105 23.3872 22.6013 24.1247 22.1903C24.3017 20.7079 21.6616 21.6766 22.399 19.2989C22.7973 18.0073 24.5524 18.1834 25.9978 18.3155L25.7913 19.3869H25.8061ZM11.116 17.1413L13.3726 17.2147L13.6086 20.7373L14.8328 17.9192C15.2457 16.9065 14.9655 17.1266 17.5613 17.156L16.3962 23.4526L15.1277 23.4379L15.821 18.9173L13.9478 23.4673L12.4287 23.4232C12.3844 22.5426 12.3107 19.4457 12.0747 18.8586L11.3077 23.4379L9.98032 23.4232L11.116 17.1413ZM32.6349 30.5125L33.2543 29.7786C32.0154 29.6171 31.7942 29.9694 31.2337 28.9713L34.0803 28.942C34.2573 28.6484 34.5523 28.3695 34.6997 28.032C31.455 27.8118 30.5405 28.6337 30.0243 27.2247H35.2307L35.8059 26.3294L29.3753 26.3L29.0804 25.5515L36.0124 25.5221C36.4106 25.302 36.4106 25.0524 36.5139 24.5974L29.9505 24.5828C28.7706 24.5974 28.6969 24.8616 28.4756 23.7902H36.7351L37.0006 22.8802L34.5818 22.8508L34.4638 23.4673L33.0773 23.4086L33.9475 18.2861L35.2602 18.4623C35.2602 18.4916 35.2897 18.5944 35.2897 18.6384C35.2897 18.6677 35.3045 18.7118 35.3045 18.7265L35.3782 18.9907C35.7469 18.5503 35.9829 18.2274 36.8384 18.2568L36.3959 19.4457C36.1452 19.7686 35.4077 19.4016 35.098 20.2823L36.5434 20.341C36.7056 19.4163 36.8826 19.1374 37.1481 18.3889L37.1628 17.9486L28.1217 17.9632L28.0922 18.2861C28.5789 18.2861 28.5641 18.1981 28.8444 18.4329L28.7116 19.2989C27.7972 19.519 27.8267 18.976 27.7382 20.1648C27.8709 20.385 27.7087 20.2676 27.9889 20.341L28.5641 20.3557C29.4933 17.3468 32.2662 18.0073 32.9004 18.9466C33.2396 19.4457 33.5788 21.0895 32.7381 21.2216L29.9211 21.251C30.0538 22.7334 31.7647 22.4252 32.8709 22.0582C32.8266 22.6747 32.8709 23.1737 32.2956 23.3792C31.8384 23.5407 30.8797 23.4966 30.3783 23.3792C29.1394 23.1003 28.6084 22.4839 28.5199 21.1482L27.9889 21.1336C27.5022 20.9134 27.8857 21.1336 27.6349 20.5318C27.4285 21.7647 26.868 22.5573 28.4019 22.3811C28.3134 23.115 28.4166 23.3645 27.6054 23.4526C25.2456 23.7315 26.0126 22.161 26.396 20.0621C27.0007 16.7156 26.5288 17.1266 28.2397 17.156L37.0301 17.1706L36.8531 16.2606L28.3577 16.2313L28.5199 15.4974L36.5581 15.4534C36.3516 14.2058 36.3074 14.514 33.3871 14.514H28.9329C29.2426 13.4426 29.0804 13.7361 31.9712 13.7361H35.8797L35.4667 12.8114L29.8031 12.7968L30.1865 12.0335L34.921 12.0042C34.3163 10.7713 34.3458 11.1235 30.9977 11.0648C31.4255 10.008 32.1777 10.2722 33.4903 10.2722C33.1216 9.68514 32.8561 9.72917 32.6349 9.23014C32.0892 8.95127 31.6024 8.45223 31.0567 8.07062C26.8827 5.13513 21.2191 4.8269 16.6764 7.02852C12.5909 8.9953 8.57916 13.5453 8.62341 19.8419C8.68241 28.8392 16.6174 35.4001 25.5996 33.8736C29.8178 33.1544 30.8797 31.4518 32.6201 30.4978L32.6349 30.5125Z" fill="#3BA900"/>
<path fill-rule="evenodd" clip-rule="evenodd" d="M42.2663 18.4183C46.8385 17.4936 46.0863 19.7393 45.7176 21.5593C45.5996 22.1024 45.5996 23.1738 45.1719 23.4674C45.0686 23.4674 44.4639 23.482 44.4049 23.4527C43.992 23.2912 44.1837 23.7756 44.1247 23.027C42.8858 23.7316 40.9242 23.893 41.1601 21.9262C41.3519 20.3557 42.9448 20.1062 44.5672 20.1796C44.5082 19.0201 43.4462 19.2109 41.9713 19.5778L42.2811 18.4183H42.2663ZM46.7795 18.2862L48.0037 18.3009C48.0184 18.3302 48.0332 18.3743 48.0332 18.4036L48.2249 18.9467C48.4462 18.6091 48.8591 18.3156 49.5081 18.3009L49.3311 19.343L48.7264 19.5778C47.517 19.9741 47.5907 21.4859 47.2662 23.4674H45.8946L46.7795 18.2862ZM53.2839 17.1707H54.5375L53.4609 23.482C52.0597 23.4967 52.3989 23.5701 51.9564 23.0417C51.042 24.392 48.2987 23.1445 49.1394 20.3557C49.7588 18.2715 51.8532 17.7138 52.8856 18.9467L53.2986 17.1561L53.2839 17.1707ZM32.6499 9.2449C32.8712 9.74394 33.1514 9.6999 33.5054 10.287C32.1927 10.287 31.4405 10.0081 31.0128 11.0796C34.3608 11.1383 34.3313 10.786 34.936 12.0189L30.2016 12.0483L29.8181 12.8115L35.4818 12.8262L35.8947 13.7509H31.9862C29.1102 13.7509 29.2576 13.472 28.9479 14.5288H33.4021C36.3224 14.5288 36.3667 14.2206 36.5732 15.4681L28.5349 15.5122L28.3727 16.2461L36.8682 16.2754L37.0451 17.1854L28.2547 17.1707L28.1367 17.9927L37.1779 17.978L37.1631 18.4183C37.8416 17.7725 37.7236 17.4349 38.992 17.068C40.0392 16.7744 40.7029 16.9946 41.7354 17.2148L41.5141 18.5651C39.7442 18.0367 38.5938 18.1688 38.1808 19.9888C37.7236 21.9409 39.2723 22.6748 40.9094 21.8969C40.7619 23.3206 40.5259 23.6728 38.8445 23.4527C37.6794 23.3059 37.3254 22.7482 36.8092 22.0583H34.7L34.5821 22.8656L37.0009 22.8949L36.7354 23.8049H28.4759C28.6972 24.8764 28.7709 24.6122 29.9509 24.5975L36.5142 24.6122C36.3962 25.0525 36.4109 25.3167 36.0127 25.5369L29.0807 25.5662L29.3756 26.3148L35.8062 26.3441L35.231 27.2395H30.0246C30.5408 28.6338 31.4553 27.8266 34.7 28.0467C34.5526 28.3843 34.2576 28.6632 34.0806 28.9567L31.234 28.9861C31.7797 29.9695 32.0157 29.6319 33.2546 29.7933L32.6352 30.5272C34.7443 32.0684 36.3814 33.36 39.7885 33.9471C42.8858 34.4755 46.1158 33.8884 48.6084 32.6701C59.4047 27.3716 59.1097 12.107 48.5199 7.05796C44.7147 5.25263 39.6705 5.09118 35.7325 7.14602C33.8299 8.12941 33.3726 8.83393 32.6647 9.25958L32.6499 9.2449Z" fill="#56E20A"/>
<path fill-rule="evenodd" clip-rule="evenodd" d="M9.98047 23.4376L11.3079 23.4523L12.0748 18.8729C12.3108 19.46 12.3846 22.557 12.4288 23.4376L13.948 23.4816L15.8211 18.9316L15.1279 23.4523L16.3963 23.467L17.5615 17.1703C14.9657 17.141 15.2459 16.9208 14.8329 17.9336L13.6087 20.7516L13.3728 17.229L11.1161 17.1556L9.98047 23.4376ZM51.0714 22.2781C49.9652 21.1479 50.9091 19.2692 51.9415 19.5187C52.9592 19.7682 52.7675 22.2487 51.0714 22.2781ZM52.8707 18.9463C51.8383 17.7134 49.7587 18.2711 49.1245 20.3553C48.2838 23.1294 51.0271 24.3916 51.9415 23.0413C52.384 23.5697 52.0448 23.4816 53.4459 23.4816L54.5226 17.1703H53.269L52.856 18.961L52.8707 18.9463ZM42.7381 22.2928C42.5316 21.3094 43.4461 20.9278 44.3163 21.1039C44.3605 22.102 43.6526 22.645 42.7381 22.2928ZM42.2662 18.4326L41.9564 19.5921C43.4313 19.2398 44.508 19.049 44.5523 20.1939C42.9299 20.1205 41.337 20.37 41.1452 21.9405C40.8945 23.9073 42.8709 23.7458 44.1098 23.0413C44.1688 23.7899 43.9771 23.3055 44.39 23.467C44.449 23.4963 45.0537 23.4816 45.157 23.4816C45.5994 23.2028 45.5994 22.1166 45.7027 21.5736C46.0862 19.7389 46.8236 17.5079 42.2514 18.4326H42.2662ZM20.2606 21.0599C20.2901 21.5589 20.2016 21.9405 19.8771 22.19C19.6559 22.3515 18.9921 22.5423 18.7267 22.2928C17.9007 21.5442 19.4494 21.0452 20.2458 21.0599H20.2606ZM17.9155 19.5628C19.0364 19.2986 20.4818 18.9903 20.5113 20.1352C18.8152 20.3994 17.2518 20.1645 17.0895 21.9552C16.9125 23.7605 19.0511 23.9073 20.0688 23.012C20.2311 23.7312 20.0393 23.1881 20.2753 23.4816L21.3225 23.467C21.4552 22.6303 22.1337 19.8416 21.8977 19.1665C21.4847 17.9923 19.3019 18.139 18.2104 18.4766L17.9302 19.5774L17.9155 19.5628ZM30.1424 20.2966C30.3342 19.5481 30.6586 19.2398 31.5288 19.3573C31.8386 19.7976 31.8386 19.6655 31.8976 20.2966H30.1424ZM28.579 20.37L28.52 21.1626C28.6085 22.4982 29.1542 23.1 30.3784 23.3936C30.8799 23.511 31.8386 23.555 32.2958 23.3936C32.871 23.2028 32.8268 22.6891 32.871 22.0726C31.7648 22.4395 30.0539 22.7478 29.9212 21.2653L32.7383 21.236C33.579 21.1039 33.2397 19.4747 32.9005 18.961C32.2663 18.0216 29.4935 17.3611 28.5643 20.37H28.579ZM37.163 18.4179C36.8975 19.1665 36.7205 19.4453 36.5583 20.37V21.1773L36.809 22.0726C37.3252 22.7624 37.6792 23.3202 38.8444 23.467C40.5258 23.6871 40.7618 23.3349 40.9092 21.9111C39.2574 22.6891 37.7234 21.9552 38.1807 20.0031C38.6084 18.1684 39.7588 18.051 41.514 18.5794L41.7352 17.229C40.7028 17.0236 40.0391 16.8034 38.9919 17.0823C37.7234 17.4345 37.8414 17.7868 37.163 18.4326V18.4179ZM25.9979 18.3152C24.5525 18.1977 22.7974 18.0069 22.3992 19.2986C21.6617 21.6763 24.2871 20.7076 24.1248 22.19C23.3726 22.601 22.9006 22.4102 21.942 22.2194L21.7502 23.2761C25.1573 24.5237 26.6764 21.6323 25.2605 20.6782C24.5083 20.1792 23.9626 20.6049 23.8593 19.5481C24.7 19.1665 24.8328 19.3866 25.8062 19.3866L26.0127 18.3152H25.9979Z" fill="white"/>
<path fill-rule="evenodd" clip-rule="evenodd" d="M27.6484 20.5462L27.7517 20.1939C27.8402 19.0051 27.8107 19.5481 28.7251 19.328L28.8578 18.462C28.5776 18.2272 28.5924 18.3152 28.1056 18.3152L28.1351 17.9923L28.2531 17.1704C26.5422 17.141 27.0142 16.7301 26.4095 20.0765C26.026 22.1754 25.2591 23.7459 27.6189 23.467C28.4154 23.3789 28.3269 23.1294 28.4154 22.3956C26.8962 22.5717 27.4567 21.7791 27.6484 20.5462ZM34.5805 22.8799L34.6985 22.0726L34.846 21.192L35.1114 20.3114C35.4359 19.4307 36.1734 19.7976 36.4094 19.4747L36.8518 18.2859C35.9816 18.2565 35.7456 18.5794 35.3917 19.0197L35.3179 18.7555C35.3179 18.7409 35.3032 18.6968 35.3032 18.6675C35.3032 18.6381 35.2737 18.5207 35.2737 18.4913L33.961 18.3152L33.0908 23.4376L34.4772 23.4964L34.5952 22.8799H34.5805ZM45.893 23.467H47.2647C47.5891 21.4855 47.5154 19.9738 48.7248 19.5775L49.3295 19.3426L49.5065 18.3005C48.8576 18.3152 48.4446 18.6088 48.2233 18.9463L48.0316 18.4033C48.0169 18.3739 48.0169 18.3299 48.0021 18.3005L46.7779 18.2859L45.893 23.467Z" fill="white"/>
<path fill-rule="evenodd" clip-rule="evenodd" d="M51.0698 22.2785C52.7807 22.2491 52.9724 19.7687 51.94 19.5191C50.8928 19.2696 49.9636 21.1483 51.0698 22.2785Z" fill="#56E20A"/>
<path fill-rule="evenodd" clip-rule="evenodd" d="M20.2606 21.0599C19.4642 21.0452 17.9155 21.5442 18.7415 22.2928C19.007 22.5276 19.6707 22.3368 19.8919 22.1901C20.2164 21.9552 20.2901 21.5589 20.2754 21.0599H20.2606ZM34.7 22.058L36.8091 22.0726L36.5584 21.1773H34.8475L34.7 22.058Z" fill="#3BA900"/>
<path fill-rule="evenodd" clip-rule="evenodd" d="M42.7384 22.293C43.6676 22.6306 44.3608 22.1022 44.3166 21.1041C43.4316 20.9427 42.5319 21.3243 42.7384 22.293ZM34.8477 21.1775H36.5585V20.3703L35.1131 20.2969L34.8477 21.1775Z" fill="#56E20A"/>
<path fill-rule="evenodd" clip-rule="evenodd" d="M30.1426 20.2971H31.8977C31.8535 19.6807 31.8387 19.7981 31.529 19.3578C30.6588 19.2403 30.3343 19.5486 30.1426 20.2971Z" fill="#3BA900"/>
<path fill-rule="evenodd" clip-rule="evenodd" d="M27.6484 20.5461C27.8992 21.1479 27.5157 20.9277 28.0024 21.1479L28.5334 21.1626L28.5924 20.37L28.0172 20.3553C27.7222 20.2966 27.8844 20.3994 27.7664 20.1792L27.6632 20.5315L27.6484 20.5461Z" fill="#56E20A"/>
</g>
<defs>
<clipPath id="clip0_82_6598">
<rect width="64" height="40" fill="white" transform="translate(0.628906)"/>
</clipPath>
</defs>
</svg>
