<svg width="65" height="40" viewBox="0 0 65 40" fill="none" xmlns="http://www.w3.org/2000/svg">
<g clip-path="url(#clip0_82_6599)">
<path fill-rule="evenodd" clip-rule="evenodd" d="M60.3617 0H4.89557C2.53931 0 0.628906 1.88947 0.628906 4.21474V35.7853C0.628906 38.1132 2.54411 40 4.89611 40H60.3622C62.719 40 64.6294 38.1105 64.6294 35.7853V4.21474C64.6289 1.88684 62.7137 0 60.3617 0Z" fill="#C3FFA3"/>
<path fill-rule="evenodd" clip-rule="evenodd" d="M48.5187 14.6852H47.8659C47.5487 14.6853 47.2445 14.8098 47.0203 15.0311C46.7961 15.2525 46.6701 15.5527 46.6701 15.8657V23.2736C46.6701 23.2736 46.6083 24.5615 44.4403 24.5615C42.2717 24.5615 42.2104 23.2736 42.2104 23.2736V15.8657C42.2104 15.5527 42.0844 15.2525 41.8602 15.0311C41.636 14.8098 41.3318 14.6853 41.0147 14.6852H39.7075C39.3904 14.6853 39.0863 14.8097 38.8621 15.031C38.6379 15.2522 38.5119 15.5523 38.5117 15.8652V22.9526C38.5117 25.5005 40.6061 27.5673 43.1891 27.5673H45.6909C46.9312 27.5673 48.1208 27.0811 48.9979 26.2157C49.8751 25.3503 50.368 24.1766 50.3683 22.9526V17.5841H51.7832C51.9273 17.584 52.0654 17.5274 52.1673 17.4269C52.2692 17.3263 52.3265 17.19 52.3266 17.0478V14.3636C52.3266 14.2213 52.2694 14.0849 52.1675 13.9842C52.0656 13.8835 51.9274 13.8269 51.7832 13.8268H49.0632C48.9189 13.8268 48.7805 13.8833 48.6785 13.984C48.5765 14.0847 48.5192 14.2212 48.5192 14.3636V14.6857L48.5187 14.6852ZM48.5187 14.6852H49.1725C49.4896 14.6855 49.7935 14.8099 50.0177 15.0311C50.2419 15.2523 50.368 15.5523 50.3683 15.8652V17.5841L49.0621 17.5836C48.918 17.5835 48.7799 17.5269 48.678 17.4264C48.5761 17.3258 48.5188 17.1895 48.5187 17.0473V14.6852ZM52.2173 11.4652C52.2173 11.2283 52.412 11.0352 52.653 11.0352H54.6104C54.8504 11.0352 55.0456 11.2273 55.0456 11.4652V13.3968C55.0456 13.4532 55.0343 13.5091 55.0124 13.5612C54.9905 13.6134 54.9584 13.6607 54.9179 13.7006C54.8775 13.7405 54.8294 13.7721 54.7766 13.7937C54.7237 13.8153 54.667 13.8263 54.6098 13.8262H52.653C52.5958 13.8263 52.5391 13.8152 52.4862 13.7936C52.4333 13.7721 52.3853 13.7404 52.3448 13.7004C52.3043 13.6605 52.2722 13.6131 52.2503 13.5609C52.2285 13.5087 52.2172 13.4527 52.2173 13.3962V11.4652ZM50.3683 9.5315C50.3683 9.35413 50.5155 9.21045 50.6936 9.21045H52.0003C52.1805 9.21045 52.3261 9.35571 52.3261 9.5315V10.821C52.3261 10.9989 52.1789 11.1426 52.0008 11.1426H50.6941C50.6078 11.1424 50.5251 11.1086 50.464 11.0484C50.403 10.9882 50.3685 10.9067 50.3683 10.8215V9.5315ZM33.2093 27.5694C33.1271 27.5827 33.0448 27.5955 32.9624 27.6078C30.8557 27.8778 30.4381 26.3336 30.0723 25.1552L28.2376 18.421C28.1442 18.0768 28.3597 17.7983 28.7213 17.7983H29.156C29.5165 17.7983 29.8845 18.0762 29.9784 18.4205L31.8146 25.162C32.0136 25.6594 32.268 26.1199 32.8189 26.1199C33.3709 26.1199 33.66 26.0073 33.9123 25.0794L35.5048 18.4252C35.588 18.0789 35.9475 17.7983 36.3085 17.7983H36.7363C37.0973 17.7983 37.3203 18.0794 37.2349 18.4247L35.1293 26.9352C34.1603 30.6904 32.9144 31.2368 30.9016 31.3157C30.2872 31.2368 29.9709 30.0062 30.4722 29.8073C30.4722 29.8073 31.4867 29.8141 32.0733 29.3947C32.7069 28.941 32.9762 28.2157 33.1229 27.802C33.1314 27.8005 33.1992 27.5931 33.2093 27.5694ZM25.8925 21.7699H22.5763C22.193 21.7626 21.8122 21.8309 21.456 21.9705C21.0998 22.1102 20.7754 22.3186 20.5018 22.5835C20.2281 22.8484 20.0108 23.1644 19.8624 23.5132C19.714 23.862 19.6376 24.2364 19.6376 24.6147C19.6376 24.9929 19.714 25.3674 19.8624 25.7161C20.0108 26.0649 20.2281 26.3809 20.5018 26.6458C20.7754 26.9107 21.0998 27.1191 21.456 27.2588C21.8122 27.3985 22.193 27.4667 22.5763 27.4594H24.7496C25.1282 27.4595 25.5031 27.3859 25.853 27.243C26.2028 27.1001 26.5207 26.8906 26.7885 26.6264C27.0562 26.3623 27.2687 26.0486 27.4136 25.7035C27.5586 25.3583 27.6332 24.9883 27.6333 24.6147V20.482C27.6333 17.5836 24.476 17.5836 23.6083 17.5836C22.4861 17.5836 21.1032 17.751 21.1032 17.751C20.9854 17.7661 20.877 17.8224 20.7977 17.9097C20.7184 17.997 20.6735 18.1095 20.6712 18.2268V18.8726C20.6712 19.1094 20.8648 19.281 21.1032 19.2562C21.1032 19.2562 22.62 19.0868 23.524 19.0868C24.388 19.0868 25.8925 19.0868 25.8925 20.4815V21.7699ZM21.4328 24.561C21.4324 24.3636 21.4716 24.1681 21.5479 23.9857C21.6243 23.8032 21.7364 23.6375 21.8778 23.4979C22.0192 23.3583 22.1871 23.2476 22.372 23.1722C22.5568 23.0967 22.7549 23.0581 22.9549 23.0583H25.8925V24.561C25.8929 24.7584 25.8539 24.954 25.7775 25.1365C25.7012 25.3189 25.5891 25.4848 25.4477 25.6244C25.3063 25.7641 25.1383 25.8748 24.9535 25.9503C24.7686 26.0257 24.5704 26.0644 24.3704 26.0641H22.9549C22.5512 26.0637 22.1641 25.9052 21.8787 25.6233C21.5933 25.3415 21.4329 24.9594 21.4328 24.561ZM10.2285 16.5104C10.2284 16.2707 10.2763 16.0333 10.3692 15.8117C10.4622 15.5902 10.5985 15.389 10.7703 15.2195C10.9421 15.0499 11.1461 14.9155 11.3706 14.8238C11.5951 14.7322 11.8357 14.685 12.0786 14.6852H16.1026C17.0545 14.6852 17.9674 15.0583 18.6405 15.7225C19.3136 16.3866 19.6918 17.2874 19.692 18.2268V19.4094C19.692 20.3488 19.3138 21.2498 18.6407 21.914C17.9676 22.5783 17.0546 22.9515 16.1026 22.9515H12.0776V26.9226C12.0776 26.9931 12.0635 27.063 12.0361 27.1281C12.0087 27.1933 11.9686 27.2525 11.9181 27.3023C11.8675 27.3522 11.8075 27.3917 11.7414 27.4187C11.6753 27.4456 11.6045 27.4595 11.533 27.4594H10.7736C10.7021 27.4595 10.6313 27.4456 10.5652 27.4187C10.4991 27.3918 10.439 27.3522 10.3884 27.3024C10.3378 27.2525 10.2976 27.1933 10.2702 27.1282C10.2427 27.063 10.2286 26.9931 10.2285 26.9226V16.5104ZM12.0776 16.9289C12.0776 16.6383 12.3154 16.4026 12.612 16.4026H15.5032C15.8277 16.3978 16.1499 16.4568 16.451 16.5761C16.7522 16.6954 17.0263 16.8725 17.2575 17.0973C17.4886 17.3221 17.6722 17.59 17.7975 17.8854C17.9228 18.1808 17.9873 18.4978 17.9873 18.8181C17.9873 19.1383 17.9228 19.4554 17.7975 19.7508C17.6722 20.0462 17.4886 20.3141 17.2575 20.5389C17.0263 20.7636 16.7522 20.9408 16.451 21.0601C16.1499 21.1793 15.8277 21.2383 15.5032 21.2336H12.0776V16.9289Z" fill="#56E20A"/>
</g>
<defs>
<clipPath id="clip0_82_6599">
<rect width="64" height="40" fill="white" transform="translate(0.628906)"/>
</clipPath>
</defs>
</svg>
