<svg width="65" height="40" viewBox="0 0 65 40" fill="none" xmlns="http://www.w3.org/2000/svg">
<g clip-path="url(#clip0_82_6600)">
<path fill-rule="evenodd" clip-rule="evenodd" d="M32.6289 33.9996C36.4289 30.5996 38.8289 25.5996 38.8289 19.9996C38.8289 14.3996 36.4289 9.49961 32.6289 5.99961C29.3289 2.99961 24.8289 1.09961 20.0289 1.09961C9.62891 1.09961 1.12891 9.59961 1.12891 19.9996C1.12891 30.3996 9.62891 38.7996 20.0289 38.7996C24.8289 38.8996 29.3289 36.9996 32.6289 33.9996Z" fill="#C3FFA3"/>
<path fill-rule="evenodd" clip-rule="evenodd" d="M1.12891 19.9996C1.12891 30.3996 9.62891 38.7996 20.0289 38.7996C24.9289 38.7996 29.3289 36.9996 32.6289 33.8996C36.4289 30.4996 38.8289 25.4996 38.8289 19.8996C38.8289 14.2996 36.4289 9.49961 32.6289 5.99961C29.3289 2.99961 24.8289 1.09961 20.0289 1.09961" fill="#C3FFA3"/>
<path fill-rule="evenodd" clip-rule="evenodd" d="M32.6297 5.99961C29.3297 2.99961 24.8297 1.09961 20.0297 1.09961H19.1297C13.2297 5.39961 9.42969 12.2996 9.42969 19.9996C9.42969 27.6996 13.2297 34.5996 19.0297 38.7996H19.9297C24.8297 38.7996 29.2297 36.9996 32.5297 33.8996C36.3297 30.4996 38.7297 25.4996 38.7297 19.8996C38.7297 14.2996 36.4297 9.49961 32.6297 5.99961Z" fill="#C3FFA3"/>
<path fill-rule="evenodd" clip-rule="evenodd" d="M45.3281 1.09961C40.4281 1.09961 36.0281 2.89961 32.6281 5.99961C31.9281 6.59961 31.3281 7.29961 30.7281 7.99961H34.5281C35.0281 8.59961 35.5281 9.29961 35.9281 9.99961H29.2281C28.8281 10.6996 28.4281 11.2996 28.1281 11.9996H37.0281C37.3281 12.6996 37.6281 13.2996 37.8281 13.9996H27.4281C27.2281 14.6996 27.0281 15.2996 26.8281 15.9996H38.4281C38.7281 17.2996 38.8281 18.5996 38.8281 19.9996C38.8281 22.0996 38.5281 24.0996 37.8281 25.9996H27.4281C27.6281 26.6996 27.9281 27.2996 28.2281 27.9996H37.1281C36.8281 28.6996 36.4281 29.3996 36.0281 29.9996H29.3281C29.7281 30.6996 30.2281 31.3996 30.7281 31.9996H34.5281C33.9281 32.6996 33.3281 33.3996 32.6281 33.9996C36.0281 36.9996 40.4281 38.8996 45.3281 38.8996C55.7281 38.8996 64.1281 30.4996 64.1281 20.0996C64.1281 9.59961 55.7281 1.09961 45.3281 1.09961Z" fill="#56E20A"/>
<path fill-rule="evenodd" clip-rule="evenodd" d="M45.3281 1.09961C40.4281 1.09961 36.0281 2.89961 32.6281 5.99961C31.9281 6.59961 31.3281 7.29961 30.7281 7.99961H34.5281C35.0281 8.59961 35.5281 9.29961 35.9281 9.99961H29.2281C28.8281 10.6996 28.4281 11.2996 28.1281 11.9996H37.0281C37.3281 12.6996 37.6281 13.2996 37.8281 13.9996H27.4281C27.2281 14.6996 27.0281 15.2996 26.8281 15.9996H38.4281C38.7281 17.2996 38.8281 18.5996 38.8281 19.9996C38.8281 22.0996 38.5281 24.0996 37.8281 25.9996H27.4281C27.6281 26.6996 27.9281 27.2996 28.2281 27.9996H37.1281C36.8281 28.6996 36.4281 29.3996 36.0281 29.9996H29.3281C29.7281 30.6996 30.2281 31.3996 30.7281 31.9996H34.5281C33.9281 32.6996 33.3281 33.3996 32.6281 33.9996C36.0281 36.9996 40.4281 38.8996 45.3281 38.8996C55.7281 38.8996 64.1281 30.4996 64.1281 20.0996" fill="#56E20A"/>
<path fill-rule="evenodd" clip-rule="evenodd" d="M32.6289 34C36.4289 30.6 38.8289 25.6 38.8289 20C38.8289 14.4 36.4289 9.5 32.6289 6V34Z" fill="#C3FFA3"/>
<path fill-rule="evenodd" clip-rule="evenodd" d="M57.6289 24.1C57.6289 23.8 57.9289 23.5 58.2289 23.5C58.5289 23.5 58.8289 23.8 58.8289 24.1C58.8289 24.4 58.5289 24.7 58.2289 24.7C57.9289 24.7 57.6289 24.4 57.6289 24.1ZM58.2289 24.6C58.5289 24.6 58.6289 24.4 58.6289 24.1C58.6289 23.8 58.4289 23.7 58.2289 23.7C57.9289 23.7 57.7289 23.9 57.7289 24.1C57.7289 24.3 58.0289 24.6 58.2289 24.6ZM58.2289 24.3H58.1289V23.8H58.4289L58.5289 23.9C58.5289 24 58.5289 24 58.4289 24L58.5289 24.2H58.4289L58.3289 24H58.2289V24.3ZM58.2289 24H58.3289V23.9H58.2289V24Z" fill="white"/>
<path fill-rule="evenodd" clip-rule="evenodd" d="M32.6281 5.99955C31.9281 6.59955 31.3281 7.29955 30.7281 7.99955H34.5281C35.0281 8.59955 35.5281 9.29955 35.9281 9.99955H29.2281C28.8281 10.6996 28.4281 11.2996 28.1281 11.9996H37.0281C37.3281 12.6996 37.6281 13.2996 37.8281 13.9996H27.4281C27.2281 14.6996 27.0281 15.2996 26.8281 15.9996H38.4281C38.7281 17.2996 38.8281 18.5996 38.8281 19.9996C38.8281 22.0996 38.5281 24.0996 37.8281 25.9996H27.4281C27.6281 26.6996 27.9281 27.2996 28.2281 27.9996H37.1281C36.8281 28.6996 36.4281 29.3996 36.0281 29.9996H29.3281C29.7281 30.6996 30.2281 31.3996 30.7281 31.9996H34.5281C33.9281 32.6996 33.3281 33.3996 32.6281 33.9995C36.0281 36.9995 40.4281 38.8996 45.3281 38.8996H46.2281C52.0281 34.6996 55.8281 27.7995 55.8281 20.0996C55.8281 12.3996 52.0281 5.49955 46.2281 1.29955H45.3281C40.4281 1.09955 36.0281 2.99955 32.6281 5.99955Z" fill="#56E20A"/>
<path fill-rule="evenodd" clip-rule="evenodd" d="M17.6297 24.6996H15.2297L16.6297 17.3996L13.4297 24.6996H11.3297L10.9297 17.3996L9.52969 24.6996H7.42969L9.22969 15.0996H12.9297L13.1297 21.0996L15.7297 15.0996H19.5297L17.6297 24.6996Z" fill="white"/>
<path fill-rule="evenodd" clip-rule="evenodd" d="M15.3285 20.5002L16.7285 17.4002L15.6285 23.2002C15.7285 23.7002 15.8285 24.3002 16.0285 24.8002H17.6285L19.4285 15.2002H15.9285C15.5285 16.7002 15.2285 18.4002 15.2285 20.1002C15.3285 20.2002 15.3285 20.3002 15.3285 20.5002ZM43.8285 24.6002C43.1285 24.8002 42.7285 24.9002 42.1285 24.9002C40.9285 24.9002 40.3285 24.3002 40.3285 23.2002C40.3285 23.0002 40.3285 22.8002 40.4285 22.5002L40.5285 21.7002L40.6285 21.1002L41.7285 15.2002H44.0285L43.7285 17.0002H44.9285L44.6285 18.8002H43.4285L42.8285 22.0002C42.8285 22.1002 42.7285 22.3002 42.7285 22.3002C42.7285 22.7002 43.0285 22.9002 43.5285 22.9002C43.8285 22.9002 44.0285 22.9002 44.1285 22.8002L43.8285 24.6002ZM50.7285 17.0002C50.5285 16.9002 50.5285 16.9002 50.4285 16.9002C50.3285 16.9002 50.2285 16.9002 50.2285 16.8002H49.9285C49.1285 16.8002 48.6285 17.1002 47.9285 18.1002L48.1285 16.9002H46.0285L44.6285 24.7002H47.0285C47.8285 19.9002 48.2285 19.1002 49.3285 19.1002H49.6285L49.9285 19.2002L50.7285 17.0002ZM34.5285 19.4002C34.5285 20.4002 35.1285 21.1002 36.3285 21.5002C37.3285 21.9002 37.4285 22.0002 37.4285 22.4002C37.4285 22.9002 37.0285 23.1002 36.0285 23.1002C35.3285 23.1002 34.6285 23.0002 33.9285 22.8002L33.6285 24.6002H33.7285L34.1285 24.7002H34.7285C35.3285 24.8002 35.7285 24.8002 36.0285 24.8002C38.5285 24.8002 39.7285 24.0002 39.7285 22.2002C39.7285 21.1002 39.2285 20.5002 38.0285 20.0002C37.0285 19.6002 36.9285 19.5002 36.9285 19.2002C36.9285 18.8002 37.3285 18.6002 38.1285 18.6002C38.5285 18.6002 39.2285 18.6002 39.8285 18.7002L40.1285 16.9002C39.5285 16.8002 38.6285 16.8002 38.0285 16.8002C35.4285 16.8002 34.5285 18.0002 34.5285 19.4002ZM25.2285 24.7002H23.3285V23.9002C22.7285 24.5002 21.9285 24.8002 20.8285 24.8002C19.5285 24.8002 18.7285 23.9002 18.7285 22.7002C18.7285 20.8002 20.2285 19.7002 22.8285 19.7002H23.8285C23.9285 19.4002 23.9285 19.3002 23.9285 19.2002C23.9285 18.7002 23.5285 18.5002 22.4285 18.5002C21.7285 18.5002 21.0285 18.6002 20.5285 18.7002L20.2285 18.8002H20.0285L20.3285 17.1002C21.5285 16.8002 22.2285 16.7002 23.1285 16.7002C25.1285 16.7002 26.2285 17.5002 26.2285 19.0002C26.2285 19.4002 26.2285 19.7002 26.0285 20.6002L25.5285 23.4002L25.4285 23.9002L25.3285 24.3002V24.6002L25.2285 24.7002ZM23.5285 21.2002H23.0285C21.7285 21.2002 21.0285 21.6002 21.0285 22.4002C21.0285 22.9002 21.3285 23.2002 21.8285 23.2002C22.8285 23.2002 23.5285 22.4002 23.5285 21.2002ZM32.9285 24.5002C32.1285 24.7002 31.3285 24.8002 30.5285 24.8002C27.9285 24.8002 26.5285 23.6002 26.5285 21.3002C26.5285 18.6002 28.2285 16.7002 30.6285 16.7002C32.5285 16.7002 33.7285 17.8002 33.7285 19.5002C33.7285 20.1002 33.6285 20.6002 33.4285 21.4002H28.7285V21.7002C28.7285 22.6002 29.4285 23.1002 30.7285 23.1002C31.6285 23.1002 32.3285 23.0002 33.1285 22.6002L32.9285 24.5002ZM31.7285 19.9002V19.5002C31.7285 18.9002 31.3285 18.5002 30.6285 18.5002C29.9285 18.5002 29.3285 19.0002 29.1285 19.9002H31.7285Z" fill="white"/>
<path fill-rule="evenodd" clip-rule="evenodd" d="M58.0285 21.2002C57.6285 23.8002 55.8285 24.9002 53.4285 24.9002C50.8285 24.9002 49.7285 23.3002 49.7285 21.3002C49.7285 18.6002 51.5285 16.7002 54.3285 16.7002C56.7285 16.7002 58.0285 18.3002 58.0285 20.2002V21.2002ZM55.5285 20.2002C55.5285 19.4002 55.2285 18.7002 54.2285 18.7002C53.0285 18.7002 52.3285 20.1002 52.3285 21.4002C52.3285 22.4002 52.8285 23.1002 53.6285 23.1002C54.1285 23.1002 55.2285 22.4002 55.4285 21.2002C55.5285 20.8002 55.5285 20.5002 55.5285 20.2002Z" fill="white"/>
<path fill-rule="evenodd" clip-rule="evenodd" d="M49.8289 22.1998C49.9289 21.4998 50.0289 20.6998 50.0289 19.9998V19.7998C49.9289 20.2998 49.8289 20.7998 49.8289 21.3998C49.7289 21.5998 49.7289 21.8998 49.8289 22.1998Z" fill="white"/>
</g>
<defs>
<clipPath id="clip0_82_6600">
<rect width="64" height="40" fill="white" transform="translate(0.628906)"/>
</clipPath>
</defs>
</svg>
