<svg width="102" height="48" viewBox="0 0 102 48" fill="none" xmlns="http://www.w3.org/2000/svg">
<rect width="102" height="48" rx="5" fill="#17469C" fill-opacity="0.05"/>
<path d="M26.516 31.3417C26.2327 31.4417 25.766 31.4417 25.4827 31.3417C23.066 30.5167 17.666 27.075 17.666 21.2417C17.666 18.6667 19.741 16.5833 22.2993 16.5833C23.816 16.5833 25.1577 17.3167 25.9993 18.45C26.841 17.3167 28.191 16.5833 29.6993 16.5833C32.2577 16.5833 34.3327 18.6667 34.3327 21.2417C34.3327 27.075 28.9327 30.5167 26.516 31.3417Z" stroke="white" stroke-width="1.5" stroke-linecap="round" stroke-linejoin="round"/>
<path d="M51.436 19.636L49.012 28H47.788L45.844 21.268L43.828 28L42.616 28.012L40.276 19.636H41.44L43.264 26.728L45.28 19.636H46.504L48.424 26.704L50.26 19.636H51.436ZM53.195 20.356C52.987 20.356 52.811 20.284 52.667 20.14C52.523 19.996 52.451 19.82 52.451 19.612C52.451 19.404 52.523 19.228 52.667 19.084C52.811 18.94 52.987 18.868 53.195 18.868C53.395 18.868 53.563 18.94 53.699 19.084C53.843 19.228 53.915 19.404 53.915 19.612C53.915 19.82 53.843 19.996 53.699 20.14C53.563 20.284 53.395 20.356 53.195 20.356ZM53.723 21.424V28H52.631V21.424H53.723ZM57.9122 28.108C57.4082 28.108 56.9562 28.024 56.5562 27.856C56.1562 27.68 55.8402 27.44 55.6082 27.136C55.3762 26.824 55.2482 26.468 55.2242 26.068H56.3522C56.3842 26.396 56.5362 26.664 56.8082 26.872C57.0882 27.08 57.4522 27.184 57.9002 27.184C58.3162 27.184 58.6442 27.092 58.8842 26.908C59.1242 26.724 59.2442 26.492 59.2442 26.212C59.2442 25.924 59.1162 25.712 58.8602 25.576C58.6042 25.432 58.2082 25.292 57.6722 25.156C57.1842 25.028 56.7842 24.9 56.4722 24.772C56.1682 24.636 55.9042 24.44 55.6802 24.184C55.4642 23.92 55.3562 23.576 55.3562 23.152C55.3562 22.816 55.4562 22.508 55.6562 22.228C55.8562 21.948 56.1402 21.728 56.5082 21.568C56.8762 21.4 57.2962 21.316 57.7682 21.316C58.4962 21.316 59.0842 21.5 59.5322 21.868C59.9802 22.236 60.2202 22.74 60.2522 23.38H59.1602C59.1362 23.036 58.9962 22.76 58.7402 22.552C58.4922 22.344 58.1562 22.24 57.7322 22.24C57.3402 22.24 57.0282 22.324 56.7962 22.492C56.5642 22.66 56.4482 22.88 56.4482 23.152C56.4482 23.368 56.5162 23.548 56.6522 23.692C56.7962 23.828 56.9722 23.94 57.1802 24.028C57.3962 24.108 57.6922 24.2 58.0682 24.304C58.5402 24.432 58.9242 24.56 59.2202 24.688C59.5162 24.808 59.7682 24.992 59.9762 25.24C60.1922 25.488 60.3042 25.812 60.3122 26.212C60.3122 26.572 60.2122 26.896 60.0122 27.184C59.8122 27.472 59.5282 27.7 59.1602 27.868C58.8002 28.028 58.3842 28.108 57.9122 28.108ZM65.1177 21.304C65.6137 21.304 66.0617 21.412 66.4617 21.628C66.8617 21.836 67.1737 22.152 67.3977 22.576C67.6297 23 67.7457 23.516 67.7457 24.124V28H66.6657V24.28C66.6657 23.624 66.5017 23.124 66.1737 22.78C65.8457 22.428 65.3977 22.252 64.8297 22.252C64.2537 22.252 63.7937 22.432 63.4497 22.792C63.1137 23.152 62.9457 23.676 62.9457 24.364V28H61.8537V19.12H62.9457V22.36C63.1617 22.024 63.4577 21.764 63.8337 21.58C64.2177 21.396 64.6457 21.304 65.1177 21.304ZM70.6215 19.12V28H69.5295V19.12H70.6215ZM73.0466 20.356C72.8386 20.356 72.6626 20.284 72.5186 20.14C72.3746 19.996 72.3026 19.82 72.3026 19.612C72.3026 19.404 72.3746 19.228 72.5186 19.084C72.6626 18.94 72.8386 18.868 73.0466 18.868C73.2466 18.868 73.4146 18.94 73.5506 19.084C73.6946 19.228 73.7666 19.404 73.7666 19.612C73.7666 19.82 73.6946 19.996 73.5506 20.14C73.4146 20.284 73.2466 20.356 73.0466 20.356ZM73.5746 21.424V28H72.4826V21.424H73.5746ZM77.7637 28.108C77.2597 28.108 76.8077 28.024 76.4077 27.856C76.0077 27.68 75.6917 27.44 75.4597 27.136C75.2277 26.824 75.0997 26.468 75.0757 26.068H76.2037C76.2357 26.396 76.3877 26.664 76.6597 26.872C76.9397 27.08 77.3037 27.184 77.7517 27.184C78.1677 27.184 78.4957 27.092 78.7357 26.908C78.9757 26.724 79.0957 26.492 79.0957 26.212C79.0957 25.924 78.9677 25.712 78.7117 25.576C78.4557 25.432 78.0597 25.292 77.5237 25.156C77.0357 25.028 76.6357 24.9 76.3237 24.772C76.0197 24.636 75.7557 24.44 75.5317 24.184C75.3157 23.92 75.2077 23.576 75.2077 23.152C75.2077 22.816 75.3077 22.508 75.5077 22.228C75.7077 21.948 75.9917 21.728 76.3597 21.568C76.7277 21.4 77.1477 21.316 77.6197 21.316C78.3477 21.316 78.9357 21.5 79.3837 21.868C79.8317 22.236 80.0717 22.74 80.1037 23.38H79.0117C78.9877 23.036 78.8477 22.76 78.5917 22.552C78.3437 22.344 78.0077 22.24 77.5837 22.24C77.1917 22.24 76.8797 22.324 76.6477 22.492C76.4157 22.66 76.2997 22.88 76.2997 23.152C76.2997 23.368 76.3677 23.548 76.5037 23.692C76.6477 23.828 76.8237 23.94 77.0317 24.028C77.2477 24.108 77.5437 24.2 77.9197 24.304C78.3917 24.432 78.7757 24.56 79.0717 24.688C79.3677 24.808 79.6197 24.992 79.8277 25.24C80.0437 25.488 80.1557 25.812 80.1637 26.212C80.1637 26.572 80.0637 26.896 79.8637 27.184C79.6637 27.472 79.3797 27.7 79.0117 27.868C78.6517 28.028 78.2357 28.108 77.7637 28.108ZM83.0373 22.324V26.2C83.0373 26.52 83.1053 26.748 83.2413 26.884C83.3773 27.012 83.6133 27.076 83.9492 27.076H84.7533V28H83.7693C83.1613 28 82.7053 27.86 82.4013 27.58C82.0973 27.3 81.9453 26.84 81.9453 26.2V22.324H81.0933V21.424H81.9453V19.768H83.0373V21.424H84.7533V22.324H83.0373Z" fill="white"/>
</svg>
