<svg width="800" height="48" viewBox="0 0 800 48" fill="none" xmlns="http://www.w3.org/2000/svg">
<rect width="800" height="48" rx="5" fill="white"/>
<path d="M0 10C0 5.28595 0 2.92893 1.46447 1.46447C2.92893 0 5.28595 0 10 0H149V48H10C5.28596 48 2.92893 48 1.46447 46.5355C0 45.0711 0 42.714 0 38V10Z" fill="#56E20A"/>
<path d="M21.928 26.296H18.436L17.836 28H16.408L19.396 19.648H20.98L23.968 28H22.528L21.928 26.296ZM21.544 25.18L20.188 21.304L18.82 25.18H21.544ZM26.6352 19.12V28H25.2672V19.12H26.6352ZM29.7993 19.12V28H28.4313V19.12H29.7993ZM34.2565 23.812C34.2565 22.996 34.4445 22.264 34.8205 21.616C35.2045 20.968 35.7205 20.464 36.3685 20.104C37.0245 19.736 37.7405 19.552 38.5165 19.552C39.4045 19.552 40.1925 19.772 40.8805 20.212C41.5765 20.644 42.0805 21.26 42.3925 22.06H40.7485C40.5325 21.62 40.2325 21.292 39.8485 21.076C39.4645 20.86 39.0205 20.752 38.5165 20.752C37.9645 20.752 37.4725 20.876 37.0405 21.124C36.6085 21.372 36.2685 21.728 36.0205 22.192C35.7805 22.656 35.6605 23.196 35.6605 23.812C35.6605 24.428 35.7805 24.968 36.0205 25.432C36.2685 25.896 36.6085 26.256 37.0405 26.512C37.4725 26.76 37.9645 26.884 38.5165 26.884C39.0205 26.884 39.4645 26.776 39.8485 26.56C40.2325 26.344 40.5325 26.016 40.7485 25.576H42.3925C42.0805 26.376 41.5765 26.992 40.8805 27.424C40.1925 27.856 39.4045 28.072 38.5165 28.072C37.7325 28.072 37.0165 27.892 36.3685 27.532C35.7205 27.164 35.2045 26.656 34.8205 26.008C34.4445 25.36 34.2565 24.628 34.2565 23.812ZM43.5378 24.664C43.5378 24 43.6738 23.412 43.9458 22.9C44.2258 22.388 44.6018 21.992 45.0738 21.712C45.5538 21.424 46.0818 21.28 46.6578 21.28C47.1778 21.28 47.6298 21.384 48.0138 21.592C48.4058 21.792 48.7178 22.044 48.9498 22.348V21.388H50.3298V28H48.9498V27.016C48.7178 27.328 48.4018 27.588 48.0018 27.796C47.6018 28.004 47.1458 28.108 46.6338 28.108C46.0658 28.108 45.5458 27.964 45.0738 27.676C44.6018 27.38 44.2258 26.972 43.9458 26.452C43.6738 25.924 43.5378 25.328 43.5378 24.664ZM48.9498 24.688C48.9498 24.232 48.8538 23.836 48.6618 23.5C48.4778 23.164 48.2338 22.908 47.9298 22.732C47.6258 22.556 47.2978 22.468 46.9458 22.468C46.5938 22.468 46.2658 22.556 45.9618 22.732C45.6578 22.9 45.4098 23.152 45.2178 23.488C45.0338 23.816 44.9418 24.208 44.9418 24.664C44.9418 25.12 45.0338 25.52 45.2178 25.864C45.4098 26.208 45.6578 26.472 45.9618 26.656C46.2738 26.832 46.6018 26.92 46.9458 26.92C47.2978 26.92 47.6258 26.832 47.9298 26.656C48.2338 26.48 48.4778 26.224 48.6618 25.888C48.8538 25.544 48.9498 25.144 48.9498 24.688ZM53.7226 22.504V26.164C53.7226 26.412 53.7786 26.592 53.8906 26.704C54.0106 26.808 54.2106 26.86 54.4906 26.86H55.3306V28H54.2506C53.6346 28 53.1626 27.856 52.8346 27.568C52.5066 27.28 52.3426 26.812 52.3426 26.164V22.504H51.5626V21.388H52.3426V19.744H53.7226V21.388H55.3306V22.504H53.7226ZM62.6514 24.532C62.6514 24.78 62.6354 25.004 62.6034 25.204H57.5514C57.5914 25.732 57.7874 26.156 58.1394 26.476C58.4914 26.796 58.9234 26.956 59.4354 26.956C60.1714 26.956 60.6914 26.648 60.9954 26.032H62.4714C62.2714 26.64 61.9074 27.14 61.3794 27.532C60.8594 27.916 60.2114 28.108 59.4354 28.108C58.8034 28.108 58.2354 27.968 57.7314 27.688C57.2354 27.4 56.8434 27 56.5554 26.488C56.2754 25.968 56.1354 25.368 56.1354 24.688C56.1354 24.008 56.2714 23.412 56.5434 22.9C56.8234 22.38 57.2114 21.98 57.7074 21.7C58.2114 21.42 58.7874 21.28 59.4354 21.28C60.0594 21.28 60.6154 21.416 61.1034 21.688C61.5914 21.96 61.9714 22.344 62.2434 22.84C62.5154 23.328 62.6514 23.892 62.6514 24.532ZM61.2234 24.1C61.2154 23.596 61.0354 23.192 60.6834 22.888C60.3314 22.584 59.8954 22.432 59.3754 22.432C58.9034 22.432 58.4994 22.584 58.1634 22.888C57.8274 23.184 57.6274 23.588 57.5634 24.1H61.2234ZM66.6617 21.28C67.1737 21.28 67.6257 21.384 68.0177 21.592C68.4177 21.792 68.7297 22.044 68.9537 22.348V21.388H70.3337V28.108C70.3337 28.716 70.2057 29.256 69.9497 29.728C69.6937 30.208 69.3217 30.584 68.8337 30.856C68.3537 31.128 67.7777 31.264 67.1057 31.264C66.2097 31.264 65.4657 31.052 64.8737 30.628C64.2817 30.212 63.9457 29.644 63.8657 28.924H65.2217C65.3257 29.268 65.5457 29.544 65.8817 29.752C66.2257 29.968 66.6337 30.076 67.1057 30.076C67.6577 30.076 68.1017 29.908 68.4377 29.572C68.7817 29.236 68.9537 28.748 68.9537 28.108V27.004C68.7217 27.316 68.4057 27.58 68.0057 27.796C67.6137 28.004 67.1657 28.108 66.6617 28.108C66.0857 28.108 65.5577 27.964 65.0777 27.676C64.6057 27.38 64.2297 26.972 63.9497 26.452C63.6777 25.924 63.5417 25.328 63.5417 24.664C63.5417 24 63.6777 23.412 63.9497 22.9C64.2297 22.388 64.6057 21.992 65.0777 21.712C65.5577 21.424 66.0857 21.28 66.6617 21.28ZM68.9537 24.688C68.9537 24.232 68.8577 23.836 68.6657 23.5C68.4817 23.164 68.2377 22.908 67.9337 22.732C67.6297 22.556 67.3017 22.468 66.9497 22.468C66.5977 22.468 66.2697 22.556 65.9657 22.732C65.6617 22.9 65.4137 23.152 65.2217 23.488C65.0377 23.816 64.9457 24.208 64.9457 24.664C64.9457 25.12 65.0377 25.52 65.2217 25.864C65.4137 26.208 65.6617 26.472 65.9657 26.656C66.2777 26.832 66.6057 26.92 66.9497 26.92C67.3017 26.92 67.6297 26.832 67.9337 26.656C68.2377 26.48 68.4817 26.224 68.6657 25.888C68.8577 25.544 68.9537 25.144 68.9537 24.688ZM74.9985 28.108C74.3745 28.108 73.8105 27.968 73.3065 27.688C72.8025 27.4 72.4065 27 72.1185 26.488C71.8305 25.968 71.6865 25.368 71.6865 24.688C71.6865 24.016 71.8345 23.42 72.1305 22.9C72.4265 22.38 72.8305 21.98 73.3425 21.7C73.8545 21.42 74.4265 21.28 75.0585 21.28C75.6905 21.28 76.2625 21.42 76.7745 21.7C77.2865 21.98 77.6905 22.38 77.9865 22.9C78.2825 23.42 78.4305 24.016 78.4305 24.688C78.4305 25.36 78.2785 25.956 77.9745 26.476C77.6705 26.996 77.2545 27.4 76.7265 27.688C76.2065 27.968 75.6305 28.108 74.9985 28.108ZM74.9985 26.92C75.3505 26.92 75.6785 26.836 75.9825 26.668C76.2945 26.5 76.5465 26.248 76.7385 25.912C76.9305 25.576 77.0265 25.168 77.0265 24.688C77.0265 24.208 76.9345 23.804 76.7505 23.476C76.5665 23.14 76.3225 22.888 76.0185 22.72C75.7145 22.552 75.3865 22.468 75.0345 22.468C74.6825 22.468 74.3545 22.552 74.0505 22.72C73.7545 22.888 73.5185 23.14 73.3425 23.476C73.1665 23.804 73.0785 24.208 73.0785 24.688C73.0785 25.4 73.2585 25.952 73.6185 26.344C73.9865 26.728 74.4465 26.92 74.9985 26.92ZM81.1508 22.348C81.3508 22.012 81.6148 21.752 81.9428 21.568C82.2788 21.376 82.6748 21.28 83.1308 21.28V22.696H82.7828C82.2468 22.696 81.8388 22.832 81.5588 23.104C81.2868 23.376 81.1508 23.848 81.1508 24.52V28H79.7828V21.388H81.1508V22.348ZM85.0843 20.512C84.8363 20.512 84.6283 20.428 84.4603 20.26C84.2923 20.092 84.2083 19.884 84.2083 19.636C84.2083 19.388 84.2923 19.18 84.4603 19.012C84.6283 18.844 84.8363 18.76 85.0843 18.76C85.3243 18.76 85.5283 18.844 85.6963 19.012C85.8643 19.18 85.9483 19.388 85.9483 19.636C85.9483 19.884 85.8643 20.092 85.6963 20.26C85.5283 20.428 85.3243 20.512 85.0843 20.512ZM85.7563 21.388V28H84.3883V21.388H85.7563ZM93.6123 24.532C93.6123 24.78 93.5963 25.004 93.5643 25.204H88.5123C88.5523 25.732 88.7483 26.156 89.1003 26.476C89.4523 26.796 89.8843 26.956 90.3963 26.956C91.1323 26.956 91.6523 26.648 91.9563 26.032H93.4323C93.2323 26.64 92.8683 27.14 92.3403 27.532C91.8203 27.916 91.1723 28.108 90.3963 28.108C89.7643 28.108 89.1963 27.968 88.6923 27.688C88.1963 27.4 87.8043 27 87.5163 26.488C87.2363 25.968 87.0963 25.368 87.0963 24.688C87.0963 24.008 87.2323 23.412 87.5043 22.9C87.7843 22.38 88.1723 21.98 88.6683 21.7C89.1723 21.42 89.7483 21.28 90.3963 21.28C91.0203 21.28 91.5763 21.416 92.0643 21.688C92.5523 21.96 92.9323 22.344 93.2043 22.84C93.4763 23.328 93.6123 23.892 93.6123 24.532ZM92.1843 24.1C92.1763 23.596 91.9963 23.192 91.6443 22.888C91.2923 22.584 90.8563 22.432 90.3363 22.432C89.8643 22.432 89.4603 22.584 89.1243 22.888C88.7883 23.184 88.5883 23.588 88.5243 24.1H92.1843ZM97.3586 28.108C96.8386 28.108 96.3706 28.016 95.9546 27.832C95.5466 27.64 95.2226 27.384 94.9826 27.064C94.7426 26.736 94.6146 26.372 94.5986 25.972H96.0146C96.0386 26.252 96.1706 26.488 96.4106 26.68C96.6586 26.864 96.9666 26.956 97.3346 26.956C97.7186 26.956 98.0146 26.884 98.2226 26.74C98.4386 26.588 98.5466 26.396 98.5466 26.164C98.5466 25.916 98.4266 25.732 98.1866 25.612C97.9546 25.492 97.5826 25.36 97.0706 25.216C96.5746 25.08 96.1706 24.948 95.8586 24.82C95.5466 24.692 95.2746 24.496 95.0426 24.232C94.8186 23.968 94.7066 23.62 94.7066 23.188C94.7066 22.836 94.8106 22.516 95.0186 22.228C95.2266 21.932 95.5226 21.7 95.9066 21.532C96.2986 21.364 96.7466 21.28 97.2506 21.28C98.0026 21.28 98.6066 21.472 99.0626 21.856C99.5266 22.232 99.7746 22.748 99.8066 23.404H98.4386C98.4146 23.108 98.2946 22.872 98.0786 22.696C97.8626 22.52 97.5706 22.432 97.2026 22.432C96.8426 22.432 96.5666 22.5 96.3746 22.636C96.1826 22.772 96.0866 22.952 96.0866 23.176C96.0866 23.352 96.1506 23.5 96.2786 23.62C96.4066 23.74 96.5626 23.836 96.7466 23.908C96.9306 23.972 97.2026 24.056 97.5626 24.16C98.0426 24.288 98.4346 24.42 98.7386 24.556C99.0506 24.684 99.3186 24.876 99.5426 25.132C99.7666 25.388 99.8826 25.728 99.8906 26.152C99.8906 26.528 99.7866 26.864 99.5786 27.16C99.3706 27.456 99.0746 27.688 98.6906 27.856C98.3146 28.024 97.8706 28.108 97.3586 28.108Z" fill="white"/>
<path d="M129.6 21.4583L124.167 26.8917C123.525 27.5333 122.475 27.5333 121.834 26.8917L116.4 21.4583" stroke="white" stroke-width="1.5" stroke-miterlimit="10" stroke-linecap="round" stroke-linejoin="round"/>
<path d="M168.576 28.084C168.024 28.084 167.528 27.988 167.088 27.796C166.656 27.596 166.316 27.324 166.068 26.98C165.82 26.628 165.692 26.224 165.684 25.768H166.848C166.888 26.16 167.048 26.492 167.328 26.764C167.616 27.028 168.032 27.16 168.576 27.16C169.096 27.16 169.504 27.032 169.8 26.776C170.104 26.512 170.256 26.176 170.256 25.768C170.256 25.448 170.168 25.188 169.992 24.988C169.816 24.788 169.596 24.636 169.332 24.532C169.068 24.428 168.712 24.316 168.264 24.196C167.712 24.052 167.268 23.908 166.932 23.764C166.604 23.62 166.32 23.396 166.08 23.092C165.848 22.78 165.732 22.364 165.732 21.844C165.732 21.388 165.848 20.984 166.08 20.632C166.312 20.28 166.636 20.008 167.052 19.816C167.476 19.624 167.96 19.528 168.504 19.528C169.288 19.528 169.928 19.724 170.424 20.116C170.928 20.508 171.212 21.028 171.276 21.676H170.076C170.036 21.356 169.868 21.076 169.572 20.836C169.276 20.588 168.884 20.464 168.396 20.464C167.94 20.464 167.568 20.584 167.28 20.824C166.992 21.056 166.848 21.384 166.848 21.808C166.848 22.112 166.932 22.36 167.1 22.552C167.276 22.744 167.488 22.892 167.736 22.996C167.992 23.092 168.348 23.204 168.804 23.332C169.356 23.484 169.8 23.636 170.136 23.788C170.472 23.932 170.76 24.16 171 24.472C171.24 24.776 171.36 25.192 171.36 25.72C171.36 26.128 171.252 26.512 171.036 26.872C170.82 27.232 170.5 27.524 170.076 27.748C169.652 27.972 169.152 28.084 168.576 28.084ZM178.967 24.46C178.967 24.668 178.955 24.888 178.931 25.12H173.675C173.715 25.768 173.935 26.276 174.335 26.644C174.743 27.004 175.235 27.184 175.811 27.184C176.283 27.184 176.675 27.076 176.987 26.86C177.307 26.636 177.531 26.34 177.659 25.972H178.835C178.659 26.604 178.307 27.12 177.779 27.52C177.251 27.912 176.595 28.108 175.811 28.108C175.187 28.108 174.627 27.968 174.131 27.688C173.643 27.408 173.259 27.012 172.979 26.5C172.699 25.98 172.559 25.38 172.559 24.7C172.559 24.02 172.695 23.424 172.967 22.912C173.239 22.4 173.619 22.008 174.107 21.736C174.603 21.456 175.171 21.316 175.811 21.316C176.435 21.316 176.987 21.452 177.467 21.724C177.947 21.996 178.315 22.372 178.571 22.852C178.835 23.324 178.967 23.86 178.967 24.46ZM177.839 24.232C177.839 23.816 177.747 23.46 177.563 23.164C177.379 22.86 177.127 22.632 176.807 22.48C176.495 22.32 176.147 22.24 175.763 22.24C175.211 22.24 174.739 22.416 174.347 22.768C173.963 23.12 173.743 23.608 173.687 24.232H177.839ZM180 24.688C180 24.016 180.136 23.428 180.408 22.924C180.68 22.412 181.052 22.016 181.524 21.736C182.004 21.456 182.536 21.316 183.12 21.316C183.696 21.316 184.196 21.44 184.62 21.688C185.044 21.936 185.36 22.248 185.568 22.624V21.424H186.672V28H185.568V26.776C185.352 27.16 185.028 27.48 184.596 27.736C184.172 27.984 183.676 28.108 183.108 28.108C182.524 28.108 181.996 27.964 181.524 27.676C181.052 27.388 180.68 26.984 180.408 26.464C180.136 25.944 180 25.352 180 24.688ZM185.568 24.7C185.568 24.204 185.468 23.772 185.268 23.404C185.068 23.036 184.796 22.756 184.452 22.564C184.116 22.364 183.744 22.264 183.336 22.264C182.928 22.264 182.556 22.36 182.22 22.552C181.884 22.744 181.616 23.024 181.416 23.392C181.216 23.76 181.116 24.192 181.116 24.688C181.116 25.192 181.216 25.632 181.416 26.008C181.616 26.376 181.884 26.66 182.22 26.86C182.556 27.052 182.928 27.148 183.336 27.148C183.744 27.148 184.116 27.052 184.452 26.86C184.796 26.66 185.068 26.376 185.268 26.008C185.468 25.632 185.568 25.196 185.568 24.7ZM189.61 22.492C189.802 22.116 190.074 21.824 190.426 21.616C190.786 21.408 191.222 21.304 191.734 21.304V22.432H191.446C190.222 22.432 189.61 23.096 189.61 24.424V28H188.518V21.424H189.61V22.492ZM192.586 24.7C192.586 24.02 192.722 23.428 192.994 22.924C193.266 22.412 193.642 22.016 194.122 21.736C194.61 21.456 195.166 21.316 195.79 21.316C196.598 21.316 197.262 21.512 197.782 21.904C198.31 22.296 198.658 22.84 198.826 23.536H197.65C197.538 23.136 197.318 22.82 196.99 22.588C196.67 22.356 196.27 22.24 195.79 22.24C195.166 22.24 194.662 22.456 194.278 22.888C193.894 23.312 193.702 23.916 193.702 24.7C193.702 25.492 193.894 26.104 194.278 26.536C194.662 26.968 195.166 27.184 195.79 27.184C196.27 27.184 196.67 27.072 196.99 26.848C197.31 26.624 197.53 26.304 197.65 25.888H198.826C198.65 26.56 198.298 27.1 197.77 27.508C197.242 27.908 196.582 28.108 195.79 28.108C195.166 28.108 194.61 27.968 194.122 27.688C193.642 27.408 193.266 27.012 192.994 26.5C192.722 25.988 192.586 25.388 192.586 24.7ZM203.547 21.304C204.043 21.304 204.491 21.412 204.891 21.628C205.291 21.836 205.603 22.152 205.827 22.576C206.059 23 206.175 23.516 206.175 24.124V28H205.095V24.28C205.095 23.624 204.931 23.124 204.603 22.78C204.275 22.428 203.827 22.252 203.259 22.252C202.683 22.252 202.223 22.432 201.879 22.792C201.543 23.152 201.375 23.676 201.375 24.364V28H200.283V19.12H201.375V22.36C201.591 22.024 201.887 21.764 202.263 21.58C202.647 21.396 203.075 21.304 203.547 21.304ZM216.75 22.084C216.75 22.78 216.51 23.36 216.03 23.824C215.558 24.28 214.834 24.508 213.858 24.508H212.25V28H211.158V19.636H213.858C214.802 19.636 215.518 19.864 216.006 20.32C216.502 20.776 216.75 21.364 216.75 22.084ZM213.858 23.608C214.466 23.608 214.914 23.476 215.202 23.212C215.49 22.948 215.634 22.572 215.634 22.084C215.634 21.052 215.042 20.536 213.858 20.536H212.25V23.608H213.858ZM219.2 22.492C219.392 22.116 219.664 21.824 220.016 21.616C220.376 21.408 220.812 21.304 221.324 21.304V22.432H221.036C219.812 22.432 219.2 23.096 219.2 24.424V28H218.108V21.424H219.2V22.492ZM225.452 28.108C224.836 28.108 224.276 27.968 223.772 27.688C223.276 27.408 222.884 27.012 222.596 26.5C222.316 25.98 222.176 25.38 222.176 24.7C222.176 24.028 222.32 23.436 222.608 22.924C222.904 22.404 223.304 22.008 223.808 21.736C224.312 21.456 224.876 21.316 225.5 21.316C226.124 21.316 226.688 21.456 227.192 21.736C227.696 22.008 228.092 22.4 228.38 22.912C228.676 23.424 228.824 24.02 228.824 24.7C228.824 25.38 228.672 25.98 228.368 26.5C228.072 27.012 227.668 27.408 227.156 27.688C226.644 27.968 226.076 28.108 225.452 28.108ZM225.452 27.148C225.844 27.148 226.212 27.056 226.556 26.872C226.9 26.688 227.176 26.412 227.384 26.044C227.6 25.676 227.708 25.228 227.708 24.7C227.708 24.172 227.604 23.724 227.396 23.356C227.188 22.988 226.916 22.716 226.58 22.54C226.244 22.356 225.88 22.264 225.488 22.264C225.088 22.264 224.72 22.356 224.384 22.54C224.056 22.716 223.792 22.988 223.592 23.356C223.392 23.724 223.292 24.172 223.292 24.7C223.292 25.236 223.388 25.688 223.58 26.056C223.78 26.424 224.044 26.7 224.372 26.884C224.7 27.06 225.06 27.148 225.452 27.148ZM229.852 24.688C229.852 24.016 229.988 23.428 230.26 22.924C230.532 22.412 230.904 22.016 231.376 21.736C231.856 21.456 232.392 21.316 232.984 21.316C233.496 21.316 233.972 21.436 234.412 21.676C234.852 21.908 235.188 22.216 235.42 22.6V19.12H236.524V28H235.42V26.764C235.204 27.156 234.884 27.48 234.46 27.736C234.036 27.984 233.54 28.108 232.972 28.108C232.388 28.108 231.856 27.964 231.376 27.676C230.904 27.388 230.532 26.984 230.26 26.464C229.988 25.944 229.852 25.352 229.852 24.688ZM235.42 24.7C235.42 24.204 235.32 23.772 235.12 23.404C234.92 23.036 234.648 22.756 234.304 22.564C233.968 22.364 233.596 22.264 233.188 22.264C232.78 22.264 232.408 22.36 232.072 22.552C231.736 22.744 231.468 23.024 231.268 23.392C231.068 23.76 230.968 24.192 230.968 24.688C230.968 25.192 231.068 25.632 231.268 26.008C231.468 26.376 231.736 26.66 232.072 26.86C232.408 27.052 232.78 27.148 233.188 27.148C233.596 27.148 233.968 27.052 234.304 26.86C234.648 26.66 234.92 26.376 235.12 26.008C235.32 25.632 235.42 25.196 235.42 24.7ZM244.201 21.424V28H243.109V27.028C242.901 27.364 242.609 27.628 242.233 27.82C241.865 28.004 241.457 28.096 241.009 28.096C240.497 28.096 240.037 27.992 239.629 27.784C239.221 27.568 238.897 27.248 238.657 26.824C238.425 26.4 238.309 25.884 238.309 25.276V21.424H239.389V25.132C239.389 25.78 239.553 26.28 239.881 26.632C240.209 26.976 240.657 27.148 241.225 27.148C241.809 27.148 242.269 26.968 242.605 26.608C242.941 26.248 243.109 25.724 243.109 25.036V21.424H244.201ZM245.637 24.7C245.637 24.02 245.773 23.428 246.045 22.924C246.317 22.412 246.693 22.016 247.173 21.736C247.661 21.456 248.217 21.316 248.841 21.316C249.649 21.316 250.313 21.512 250.833 21.904C251.361 22.296 251.709 22.84 251.877 23.536H250.701C250.589 23.136 250.369 22.82 250.041 22.588C249.721 22.356 249.321 22.24 248.841 22.24C248.217 22.24 247.713 22.456 247.329 22.888C246.945 23.312 246.753 23.916 246.753 24.7C246.753 25.492 246.945 26.104 247.329 26.536C247.713 26.968 248.217 27.184 248.841 27.184C249.321 27.184 249.721 27.072 250.041 26.848C250.361 26.624 250.581 26.304 250.701 25.888H251.877C251.701 26.56 251.349 27.1 250.821 27.508C250.293 27.908 249.633 28.108 248.841 28.108C248.217 28.108 247.661 27.968 247.173 27.688C246.693 27.408 246.317 27.012 246.045 26.5C245.773 25.988 245.637 25.388 245.637 24.7ZM254.666 22.324V26.2C254.666 26.52 254.734 26.748 254.87 26.884C255.006 27.012 255.242 27.076 255.578 27.076H256.382V28H255.398C254.79 28 254.334 27.86 254.03 27.58C253.726 27.3 253.574 26.84 253.574 26.2V22.324H252.722V21.424H253.574V19.768H254.666V21.424H256.382V22.324H254.666ZM260.033 28.108C259.529 28.108 259.077 28.024 258.677 27.856C258.277 27.68 257.961 27.44 257.729 27.136C257.497 26.824 257.369 26.468 257.345 26.068H258.473C258.505 26.396 258.657 26.664 258.929 26.872C259.209 27.08 259.573 27.184 260.021 27.184C260.437 27.184 260.765 27.092 261.005 26.908C261.245 26.724 261.365 26.492 261.365 26.212C261.365 25.924 261.237 25.712 260.981 25.576C260.725 25.432 260.329 25.292 259.793 25.156C259.305 25.028 258.905 24.9 258.593 24.772C258.289 24.636 258.025 24.44 257.801 24.184C257.585 23.92 257.477 23.576 257.477 23.152C257.477 22.816 257.577 22.508 257.777 22.228C257.977 21.948 258.261 21.728 258.629 21.568C258.997 21.4 259.417 21.316 259.889 21.316C260.617 21.316 261.205 21.5 261.653 21.868C262.101 22.236 262.341 22.74 262.373 23.38H261.281C261.257 23.036 261.117 22.76 260.861 22.552C260.613 22.344 260.277 22.24 259.853 22.24C259.461 22.24 259.149 22.324 258.917 22.492C258.685 22.66 258.569 22.88 258.569 23.152C258.569 23.368 258.637 23.548 258.773 23.692C258.917 23.828 259.093 23.94 259.301 24.028C259.517 24.108 259.813 24.2 260.189 24.304C260.661 24.432 261.045 24.56 261.341 24.688C261.637 24.808 261.889 24.992 262.097 25.24C262.313 25.488 262.425 25.812 262.433 26.212C262.433 26.572 262.333 26.896 262.133 27.184C261.933 27.472 261.649 27.7 261.281 27.868C260.921 28.028 260.505 28.108 260.033 28.108Z" fill="#A7A8AB"/>
<path d="M773.166 30.6667C777.308 30.6667 780.666 27.3088 780.666 23.1667C780.666 19.0245 777.308 15.6667 773.166 15.6667C769.024 15.6667 765.666 19.0245 765.666 23.1667C765.666 27.3088 769.024 30.6667 773.166 30.6667Z" stroke="black" stroke-width="1.5" stroke-linecap="round" stroke-linejoin="round"/>
<path d="M779.775 31.2415C780.217 32.5748 781.225 32.7082 782 31.5415C782.708 30.4748 782.242 29.5998 780.958 29.5998C780.008 29.5915 779.475 30.3332 779.775 31.2415Z" stroke="black" stroke-width="1.5" stroke-linecap="round" stroke-linejoin="round"/>
</svg>
