<svg width="32" height="32" viewBox="0 0 32 32" fill="none" xmlns="http://www.w3.org/2000/svg">
<path d="M16 20C18.2091 20 20 18.2091 20 16C20 13.7909 18.2091 12 16 12C13.7909 12 12 13.7909 12 16C12 18.2091 13.7909 20 16 20Z" stroke="#56E20A" stroke-width="1.5" stroke-miterlimit="10" stroke-linecap="round" stroke-linejoin="round"/>
<path d="M2.66602 17.1733V14.8267C2.66602 13.44 3.79935 12.2933 5.19935 12.2933C7.61268 12.2933 8.59935 10.5867 7.38602 8.49333C6.69268 7.29333 7.10602 5.73333 8.31935 5.04L10.626 3.72C11.6793 3.09333 13.0393 3.46666 13.666 4.52L13.8127 4.77333C15.0127 6.86666 16.986 6.86666 18.1993 4.77333L18.346 4.52C18.9727 3.46666 20.3327 3.09333 21.386 3.72L23.6927 5.04C24.906 5.73333 25.3193 7.29333 24.626 8.49333C23.4127 10.5867 24.3994 12.2933 26.8127 12.2933C28.1994 12.2933 29.346 13.4267 29.346 14.8267V17.1733C29.346 18.56 28.2127 19.7067 26.8127 19.7067C24.3994 19.7067 23.4127 21.4133 24.626 23.5067C25.3193 24.72 24.906 26.2667 23.6927 26.96L21.386 28.28C20.3327 28.9067 18.9727 28.5333 18.346 27.48L18.1993 27.2267C16.9993 25.1333 15.026 25.1333 13.8127 27.2267L13.666 27.48C13.0393 28.5333 11.6793 28.9067 10.626 28.28L8.31935 26.96C7.10602 26.2667 6.69268 24.7067 7.38602 23.5067C8.59935 21.4133 7.61268 19.7067 5.19935 19.7067C3.79935 19.7067 2.66602 18.56 2.66602 17.1733Z" stroke="white" stroke-width="1.5" stroke-miterlimit="10" stroke-linecap="round" stroke-linejoin="round"/>
</svg>
