<svg width="33" height="32" viewBox="0 0 33 32" fill="none" xmlns="http://www.w3.org/2000/svg">
<path d="M3.16602 12V9.33329C3.16602 5.33329 5.83268 2.66663 9.83268 2.66663H23.166C27.166 2.66663 29.8327 5.33329 29.8327 9.33329V12" stroke="white" stroke-width="1.5" stroke-miterlimit="10" stroke-linecap="round" stroke-linejoin="round"/>
<path d="M3.16602 20V22.6667C3.16602 26.6667 5.83268 29.3333 9.83268 29.3333H23.166C27.166 29.3333 29.8327 26.6667 29.8327 22.6667V20" stroke="white" stroke-width="1.5" stroke-miterlimit="10" stroke-linecap="round" stroke-linejoin="round"/>
<path d="M9.43359 12.3467L16.5003 16.44L23.5136 12.3734" stroke="#56E20A" stroke-width="1.5" stroke-linecap="round" stroke-linejoin="round"/>
<path d="M16.5 23.6933V16.4266" stroke="#56E20A" stroke-width="1.5" stroke-linecap="round" stroke-linejoin="round"/>
<path d="M14.847 8.3867L10.5803 10.7601C9.6203 11.2934 8.82031 12.6401 8.82031 13.7467V18.2668C8.82031 19.3734 9.60697 20.7201 10.5803 21.2534L14.847 23.6267C15.7536 24.1334 17.247 24.1334 18.167 23.6267L22.4336 21.2534C23.3936 20.7201 24.1936 19.3734 24.1936 18.2668V13.7467C24.1936 12.6401 23.407 11.2934 22.4336 10.7601L18.167 8.3867C17.247 7.8667 15.7536 7.8667 14.847 8.3867Z" stroke="#56E20A" stroke-width="1.5" stroke-linecap="round" stroke-linejoin="round"/>
</svg>
