<svg width="124" height="41" viewBox="0 0 124 41" fill="none" xmlns="http://www.w3.org/2000/svg">
<path d="M0 0H108C115.542 0 119.314 0 121.657 2.34315C124 4.68629 124 8.45753 124 16V25C124 32.5425 124 36.3137 121.657 38.6569C119.314 41 115.542 41 108 41H0V0Z" fill="#17469C"/>
<path d="M38.358 22.788C39.254 22.0413 39.968 21.4207 40.5 20.926C41.032 20.422 41.4753 19.8993 41.83 19.358C42.1847 18.8167 42.362 18.2847 42.362 17.762C42.362 17.286 42.25 16.9127 42.026 16.642C41.802 16.3713 41.4567 16.236 40.99 16.236C40.5233 16.236 40.164 16.3947 39.912 16.712C39.66 17.02 39.5293 17.4447 39.52 17.986H37.616C37.6533 16.866 37.9847 16.0167 38.61 15.438C39.2447 14.8593 40.0473 14.57 41.018 14.57C42.082 14.57 42.8987 14.8547 43.468 15.424C44.0373 15.984 44.322 16.726 44.322 17.65C44.322 18.378 44.126 19.0733 43.734 19.736C43.342 20.3987 42.894 20.9773 42.39 21.472C41.886 21.9573 41.228 22.5453 40.416 23.236H44.546V24.86H37.63V23.404L38.358 22.788ZM52.2771 16.278L48.5531 25H46.5651L50.3171 16.502H45.5291V14.822H52.2771V16.278ZM53.227 17.3C53.227 16.5907 53.4323 16.0353 53.843 15.634C54.263 15.2327 54.7997 15.032 55.453 15.032C56.1063 15.032 56.6383 15.2327 57.049 15.634C57.469 16.0353 57.679 16.5907 57.679 17.3C57.679 18.0187 57.469 18.5787 57.049 18.98C56.6383 19.3813 56.1063 19.582 55.453 19.582C54.7997 19.582 54.263 19.3813 53.843 18.98C53.4323 18.5787 53.227 18.0187 53.227 17.3ZM62.215 15.2L56.713 25H54.809L60.297 15.2H62.215ZM55.439 16.208C54.9257 16.208 54.669 16.572 54.669 17.3C54.669 18.0373 54.9257 18.406 55.439 18.406C55.691 18.406 55.887 18.3173 56.027 18.14C56.167 17.9533 56.237 17.6733 56.237 17.3C56.237 16.572 55.971 16.208 55.439 16.208ZM59.373 22.886C59.373 22.1673 59.5783 21.612 59.989 21.22C60.409 20.8187 60.9457 20.618 61.599 20.618C62.2523 20.618 62.7797 20.8187 63.181 21.22C63.5917 21.612 63.797 22.1673 63.797 22.886C63.797 23.6047 63.5917 24.1647 63.181 24.566C62.7797 24.9673 62.2523 25.168 61.599 25.168C60.9363 25.168 60.3997 24.9673 59.989 24.566C59.5783 24.1647 59.373 23.6047 59.373 22.886ZM61.585 21.794C61.053 21.794 60.787 22.158 60.787 22.886C60.787 23.6233 61.053 23.992 61.585 23.992C62.1077 23.992 62.369 23.6233 62.369 22.886C62.369 22.158 62.1077 21.794 61.585 21.794ZM72.0623 25.126C71.3157 25.126 70.6437 24.9627 70.0463 24.636C69.449 24.3 68.9777 23.8287 68.6323 23.222C68.2963 22.6153 68.1283 21.9153 68.1283 21.122C68.1283 20.3287 68.301 19.6287 68.6463 19.022C69.001 18.4153 69.4817 17.9487 70.0883 17.622C70.695 17.286 71.3717 17.118 72.1183 17.118C72.865 17.118 73.5417 17.286 74.1483 17.622C74.755 17.9487 75.231 18.4153 75.5763 19.022C75.931 19.6287 76.1083 20.3287 76.1083 21.122C76.1083 21.9153 75.9263 22.6153 75.5623 23.222C75.2077 23.8287 74.7223 24.3 74.1063 24.636C73.4997 24.9627 72.8183 25.126 72.0623 25.126ZM72.0623 23.418C72.417 23.418 72.7483 23.334 73.0563 23.166C73.3737 22.9887 73.6257 22.7273 73.8123 22.382C73.999 22.0367 74.0923 21.6167 74.0923 21.122C74.0923 20.3847 73.8963 19.82 73.5043 19.428C73.1217 19.0267 72.6503 18.826 72.0903 18.826C71.5303 18.826 71.059 19.0267 70.6763 19.428C70.303 19.82 70.1163 20.3847 70.1163 21.122C70.1163 21.8593 70.2983 22.4287 70.6623 22.83C71.0357 23.222 71.5023 23.418 72.0623 23.418ZM81.1021 18.854H79.7441V25H77.7561V18.854H76.8741V17.244H77.7561V16.852C77.7561 15.9 78.0267 15.2 78.5681 14.752C79.1094 14.304 79.9261 14.094 81.0181 14.122V15.774C80.5421 15.7647 80.2107 15.844 80.0241 16.012C79.8374 16.18 79.7441 16.4833 79.7441 16.922V17.244H81.1021V18.854ZM85.9283 18.854H84.5703V25H82.5823V18.854H81.7003V17.244H82.5823V16.852C82.5823 15.9 82.8529 15.2 83.3943 14.752C83.9356 14.304 84.7523 14.094 85.8443 14.122V15.774C85.3683 15.7647 85.0369 15.844 84.8503 16.012C84.6636 16.18 84.5703 16.4833 84.5703 16.922V17.244H85.9283V18.854Z" fill="white"/>
</svg>
