<svg width="331" height="62" viewBox="0 0 331 62" fill="none" xmlns="http://www.w3.org/2000/svg">
<path d="M6.916 13.012H2.842L2.142 15H0.476L3.962 5.256H5.81L9.296 15H7.616L6.916 13.012ZM6.468 11.71L4.886 7.188L3.29 11.71H6.468ZM13.9197 7.16C14.5171 7.16 15.0444 7.28133 15.5017 7.524C15.9684 7.75733 16.3324 8.05133 16.5937 8.406V7.286H18.2037V15.126C18.2037 15.8353 18.0544 16.4653 17.7557 17.016C17.4571 17.576 17.0231 18.0147 16.4537 18.332C15.8937 18.6493 15.2217 18.808 14.4377 18.808C13.3924 18.808 12.5244 18.5607 11.8337 18.066C11.1431 17.5807 10.7511 16.918 10.6577 16.078H12.2397C12.3611 16.4793 12.6177 16.8013 13.0097 17.044C13.4111 17.296 13.8871 17.422 14.4377 17.422C15.0817 17.422 15.5997 17.226 15.9917 16.834C16.3931 16.442 16.5937 15.8727 16.5937 15.126V13.838C16.3231 14.202 15.9544 14.51 15.4877 14.762C15.0304 15.0047 14.5077 15.126 13.9197 15.126C13.2477 15.126 12.6317 14.958 12.0717 14.622C11.5211 14.2767 11.0824 13.8007 10.7557 13.194C10.4384 12.578 10.2797 11.8827 10.2797 11.108C10.2797 10.3333 10.4384 9.64733 10.7557 9.05C11.0824 8.45267 11.5211 7.99067 12.0717 7.664C12.6317 7.328 13.2477 7.16 13.9197 7.16ZM16.5937 11.136C16.5937 10.604 16.4817 10.142 16.2577 9.75C16.0431 9.358 15.7584 9.05933 15.4037 8.854C15.0491 8.64867 14.6664 8.546 14.2557 8.546C13.8451 8.546 13.4624 8.64867 13.1077 8.854C12.7531 9.05 12.4637 9.344 12.2397 9.736C12.0251 10.1187 11.9177 10.576 11.9177 11.108C11.9177 11.64 12.0251 12.1067 12.2397 12.508C12.4637 12.9093 12.7531 13.2173 13.1077 13.432C13.4717 13.6373 13.8544 13.74 14.2557 13.74C14.6664 13.74 15.0491 13.6373 15.4037 13.432C15.7584 13.2267 16.0431 12.928 16.2577 12.536C16.4817 12.1347 16.5937 11.668 16.5937 11.136ZM21.896 8.406C22.1293 8.014 22.4373 7.71067 22.82 7.496C23.212 7.272 23.674 7.16 24.206 7.16V8.812H23.8C23.1747 8.812 22.6987 8.97067 22.372 9.288C22.0547 9.60533 21.896 10.156 21.896 10.94V15H20.3V7.286H21.896V8.406ZM26.485 6.264C26.1957 6.264 25.953 6.166 25.757 5.97C25.561 5.774 25.463 5.53133 25.463 5.242C25.463 4.95267 25.561 4.71 25.757 4.514C25.953 4.318 26.1957 4.22 26.485 4.22C26.765 4.22 27.003 4.318 27.199 4.514C27.395 4.71 27.493 4.95267 27.493 5.242C27.493 5.53133 27.395 5.774 27.199 5.97C27.003 6.166 26.765 6.264 26.485 6.264ZM27.269 7.286V15H25.673V7.286H27.269ZM30.9605 8.42C31.2311 8.06533 31.5998 7.76667 32.0665 7.524C32.5331 7.28133 33.0605 7.16 33.6485 7.16C34.3205 7.16 34.9318 7.328 35.4825 7.664C36.0425 7.99067 36.4811 8.45267 36.7985 9.05C37.1158 9.64733 37.2745 10.3333 37.2745 11.108C37.2745 11.8827 37.1158 12.578 36.7985 13.194C36.4811 13.8007 36.0425 14.2767 35.4825 14.622C34.9318 14.958 34.3205 15.126 33.6485 15.126C33.0605 15.126 32.5378 15.0093 32.0805 14.776C31.6231 14.5333 31.2498 14.2347 30.9605 13.88V18.668H29.3645V7.286H30.9605V8.42ZM35.6505 11.108C35.6505 10.576 35.5385 10.1187 35.3145 9.736C35.0998 9.344 34.8105 9.05 34.4465 8.854C34.0918 8.64867 33.7091 8.546 33.2985 8.546C32.8971 8.546 32.5145 8.64867 32.1505 8.854C31.7958 9.05933 31.5065 9.358 31.2825 9.75C31.0678 10.142 30.9605 10.604 30.9605 11.136C30.9605 11.668 31.0678 12.1347 31.2825 12.536C31.5065 12.928 31.7958 13.2267 32.1505 13.432C32.5145 13.6373 32.8971 13.74 33.2985 13.74C33.7091 13.74 34.0918 13.6373 34.4465 13.432C34.8105 13.2173 35.0998 12.9093 35.3145 12.508C35.5385 12.1067 35.6505 11.64 35.6505 11.108ZM40.4487 8.406C40.6821 8.014 40.9901 7.71067 41.3727 7.496C41.7647 7.272 42.2267 7.16 42.7587 7.16V8.812H42.3527C41.7274 8.812 41.2514 8.97067 40.9247 9.288C40.6074 9.60533 40.4487 10.156 40.4487 10.94V15H38.8527V7.286H40.4487V8.406ZM47.5718 15.126C46.8438 15.126 46.1858 14.9627 45.5978 14.636C45.0098 14.3 44.5478 13.8333 44.2118 13.236C43.8758 12.6293 43.7078 11.9293 43.7078 11.136C43.7078 10.352 43.8804 9.65667 44.2258 9.05C44.5711 8.44333 45.0424 7.97667 45.6398 7.65C46.2371 7.32333 46.9044 7.16 47.6418 7.16C48.3791 7.16 49.0464 7.32333 49.6438 7.65C50.2411 7.97667 50.7124 8.44333 51.0578 9.05C51.4031 9.65667 51.5758 10.352 51.5758 11.136C51.5758 11.92 51.3984 12.6153 51.0438 13.222C50.6891 13.8287 50.2038 14.3 49.5878 14.636C48.9811 14.9627 48.3091 15.126 47.5718 15.126ZM47.5718 13.74C47.9824 13.74 48.3651 13.642 48.7198 13.446C49.0838 13.25 49.3778 12.956 49.6018 12.564C49.8258 12.172 49.9378 11.696 49.9378 11.136C49.9378 10.576 49.8304 10.1047 49.6158 9.722C49.4011 9.33 49.1164 9.036 48.7618 8.84C48.4071 8.644 48.0244 8.546 47.6138 8.546C47.2031 8.546 46.8204 8.644 46.4658 8.84C46.1204 9.036 45.8451 9.33 45.6398 9.722C45.4344 10.1047 45.3318 10.576 45.3318 11.136C45.3318 11.9667 45.5418 12.6107 45.9618 13.068C46.3911 13.516 46.9278 13.74 47.5718 13.74ZM63.5942 8.168C63.5942 8.66267 63.4776 9.12933 63.2442 9.568C63.0109 10.0067 62.6376 10.366 62.1242 10.646C61.6109 10.9167 60.9529 11.052 60.1502 11.052H58.3862V15H56.7902V5.27H60.1502C60.8969 5.27 61.5269 5.40067 62.0402 5.662C62.5629 5.914 62.9502 6.25933 63.2022 6.698C63.4636 7.13667 63.5942 7.62667 63.5942 8.168ZM60.1502 9.75C60.7569 9.75 61.2096 9.61467 61.5082 9.344C61.8069 9.064 61.9562 8.672 61.9562 8.168C61.9562 7.104 61.3542 6.572 60.1502 6.572H58.3862V9.75H60.1502ZM68.4624 15.126C67.7344 15.126 67.0764 14.9627 66.4884 14.636C65.9004 14.3 65.4384 13.8333 65.1024 13.236C64.7664 12.6293 64.5984 11.9293 64.5984 11.136C64.5984 10.352 64.7711 9.65667 65.1164 9.05C65.4617 8.44333 65.9331 7.97667 66.5304 7.65C67.1277 7.32333 67.7951 7.16 68.5324 7.16C69.2697 7.16 69.9371 7.32333 70.5344 7.65C71.1317 7.97667 71.6031 8.44333 71.9484 9.05C72.2937 9.65667 72.4664 10.352 72.4664 11.136C72.4664 11.92 72.2891 12.6153 71.9344 13.222C71.5797 13.8287 71.0944 14.3 70.4784 14.636C69.8717 14.9627 69.1997 15.126 68.4624 15.126ZM68.4624 13.74C68.8731 13.74 69.2557 13.642 69.6104 13.446C69.9744 13.25 70.2684 12.956 70.4924 12.564C70.7164 12.172 70.8284 11.696 70.8284 11.136C70.8284 10.576 70.7211 10.1047 70.5064 9.722C70.2917 9.33 70.0071 9.036 69.6524 8.84C69.2977 8.644 68.9151 8.546 68.5044 8.546C68.0937 8.546 67.7111 8.644 67.3564 8.84C67.0111 9.036 66.7357 9.33 66.5304 9.722C66.3251 10.1047 66.2224 10.576 66.2224 11.136C66.2224 11.9667 66.4324 12.6107 66.8524 13.068C67.2817 13.516 67.8184 13.74 68.4624 13.74ZM84.4041 7.286L82.0101 15H80.3301L78.7761 9.302L77.2221 15H75.5421L73.1341 7.286H74.7581L76.3681 13.488L78.0061 7.286H79.6721L81.2401 13.46L82.8361 7.286H84.4041ZM92.6669 10.954C92.6669 11.2433 92.6482 11.5047 92.6109 11.738H86.7169C86.7635 12.354 86.9922 12.8487 87.4029 13.222C87.8135 13.5953 88.3175 13.782 88.9149 13.782C89.7735 13.782 90.3802 13.4227 90.7349 12.704H92.4569C92.2235 13.4133 91.7989 13.9967 91.1829 14.454C90.5762 14.902 89.8202 15.126 88.9149 15.126C88.1775 15.126 87.5149 14.9627 86.9269 14.636C86.3482 14.3 85.8909 13.8333 85.5549 13.236C85.2282 12.6293 85.0649 11.9293 85.0649 11.136C85.0649 10.3427 85.2235 9.64733 85.5409 9.05C85.8675 8.44333 86.3202 7.97667 86.8989 7.65C87.4869 7.32333 88.1589 7.16 88.9149 7.16C89.6429 7.16 90.2915 7.31867 90.8609 7.636C91.4302 7.95333 91.8735 8.40133 92.1909 8.98C92.5082 9.54933 92.6669 10.2073 92.6669 10.954ZM91.0009 10.45C90.9915 9.862 90.7815 9.39067 90.3709 9.036C89.9602 8.68133 89.4515 8.504 88.8449 8.504C88.2942 8.504 87.8229 8.68133 87.4309 9.036C87.0389 9.38133 86.8055 9.85267 86.7309 10.45H91.0009ZM95.8335 8.406C96.0668 8.014 96.3748 7.71067 96.7575 7.496C97.1495 7.272 97.6115 7.16 98.1435 7.16V8.812H97.7375C97.1122 8.812 96.6362 8.97067 96.3095 9.288C95.9922 9.60533 95.8335 10.156 95.8335 10.94V15H94.2375V7.286H95.8335V8.406ZM102.715 10.114C102.715 9.162 102.935 8.308 103.373 7.552C103.821 6.796 104.423 6.208 105.179 5.788C105.945 5.35867 106.78 5.144 107.685 5.144C108.721 5.144 109.641 5.40067 110.443 5.914C111.255 6.418 111.843 7.13667 112.207 8.07H110.289C110.037 7.55667 109.687 7.174 109.239 6.922C108.791 6.67 108.273 6.544 107.685 6.544C107.041 6.544 106.467 6.68867 105.963 6.978C105.459 7.26733 105.063 7.68267 104.773 8.224C104.493 8.76533 104.353 9.39533 104.353 10.114C104.353 10.8327 104.493 11.4627 104.773 12.004C105.063 12.5453 105.459 12.9653 105.963 13.264C106.467 13.5533 107.041 13.698 107.685 13.698C108.273 13.698 108.791 13.572 109.239 13.32C109.687 13.068 110.037 12.6853 110.289 12.172H112.207C111.843 13.1053 111.255 13.824 110.443 14.328C109.641 14.832 108.721 15.084 107.685 15.084C106.771 15.084 105.935 14.874 105.179 14.454C104.423 14.0247 103.821 13.432 103.373 12.676C102.935 11.92 102.715 11.066 102.715 10.114ZM121.061 7.286V15H119.465V14.09C119.213 14.4073 118.882 14.6593 118.471 14.846C118.07 15.0233 117.641 15.112 117.183 15.112C116.577 15.112 116.031 14.986 115.545 14.734C115.069 14.482 114.691 14.1087 114.411 13.614C114.141 13.1193 114.005 12.522 114.005 11.822V7.286H115.587V11.584C115.587 12.2747 115.76 12.8067 116.105 13.18C116.451 13.544 116.922 13.726 117.519 13.726C118.117 13.726 118.588 13.544 118.933 13.18C119.288 12.8067 119.465 12.2747 119.465 11.584V7.286H121.061ZM124.763 4.64V15H123.167V4.64H124.763ZM128.721 8.588V12.858C128.721 13.1473 128.786 13.3573 128.917 13.488C129.057 13.6093 129.29 13.67 129.617 13.67H130.597V15H129.337C128.618 15 128.067 14.832 127.685 14.496C127.302 14.16 127.111 13.614 127.111 12.858V8.588H126.201V7.286H127.111V5.368H128.721V7.286H130.597V8.588H128.721ZM132.88 6.264C132.59 6.264 132.348 6.166 132.152 5.97C131.956 5.774 131.858 5.53133 131.858 5.242C131.858 4.95267 131.956 4.71 132.152 4.514C132.348 4.318 132.59 4.22 132.88 4.22C133.16 4.22 133.398 4.318 133.594 4.514C133.79 4.71 133.888 4.95267 133.888 5.242C133.888 5.53133 133.79 5.774 133.594 5.97C133.398 6.166 133.16 6.264 132.88 6.264ZM133.664 7.286V15H132.068V7.286H133.664ZM138.741 13.572L140.925 7.286H142.619L139.679 15H137.775L134.849 7.286H136.557L138.741 13.572ZM143.293 11.108C143.293 10.3333 143.452 9.64733 143.769 9.05C144.096 8.45267 144.535 7.99067 145.085 7.664C145.645 7.328 146.261 7.16 146.933 7.16C147.54 7.16 148.067 7.28133 148.515 7.524C148.973 7.75733 149.337 8.05133 149.607 8.406V7.286H151.217V15H149.607V13.852C149.337 14.216 148.968 14.5193 148.501 14.762C148.035 15.0047 147.503 15.126 146.905 15.126C146.243 15.126 145.636 14.958 145.085 14.622C144.535 14.2767 144.096 13.8007 143.769 13.194C143.452 12.578 143.293 11.8827 143.293 11.108ZM149.607 11.136C149.607 10.604 149.495 10.142 149.271 9.75C149.057 9.358 148.772 9.05933 148.417 8.854C148.063 8.64867 147.68 8.546 147.269 8.546C146.859 8.546 146.476 8.64867 146.121 8.854C145.767 9.05 145.477 9.344 145.253 9.736C145.039 10.1187 144.931 10.576 144.931 11.108C144.931 11.64 145.039 12.1067 145.253 12.508C145.477 12.9093 145.767 13.2173 146.121 13.432C146.485 13.6373 146.868 13.74 147.269 13.74C147.68 13.74 148.063 13.6373 148.417 13.432C148.772 13.2267 149.057 12.928 149.271 12.536C149.495 12.1347 149.607 11.668 149.607 11.136ZM155.176 8.588V12.858C155.176 13.1473 155.241 13.3573 155.372 13.488C155.512 13.6093 155.745 13.67 156.072 13.67H157.052V15H155.792C155.073 15 154.522 14.832 154.14 14.496C153.757 14.16 153.566 13.614 153.566 12.858V8.588H152.656V7.286H153.566V5.368H155.176V7.286H157.052V8.588H155.176ZM161.869 15.126C161.141 15.126 160.483 14.9627 159.895 14.636C159.307 14.3 158.845 13.8333 158.509 13.236C158.173 12.6293 158.005 11.9293 158.005 11.136C158.005 10.352 158.177 9.65667 158.523 9.05C158.868 8.44333 159.339 7.97667 159.937 7.65C160.534 7.32333 161.201 7.16 161.939 7.16C162.676 7.16 163.343 7.32333 163.941 7.65C164.538 7.97667 165.009 8.44333 165.355 9.05C165.7 9.65667 165.873 10.352 165.873 11.136C165.873 11.92 165.695 12.6153 165.341 13.222C164.986 13.8287 164.501 14.3 163.885 14.636C163.278 14.9627 162.606 15.126 161.869 15.126ZM161.869 13.74C162.279 13.74 162.662 13.642 163.017 13.446C163.381 13.25 163.675 12.956 163.899 12.564C164.123 12.172 164.235 11.696 164.235 11.136C164.235 10.576 164.127 10.1047 163.913 9.722C163.698 9.33 163.413 9.036 163.059 8.84C162.704 8.644 162.321 8.546 161.911 8.546C161.5 8.546 161.117 8.644 160.763 8.84C160.417 9.036 160.142 9.33 159.937 9.722C159.731 10.1047 159.629 10.576 159.629 11.136C159.629 11.9667 159.839 12.6107 160.259 13.068C160.688 13.516 161.225 13.74 161.869 13.74ZM169.046 8.406C169.28 8.014 169.588 7.71067 169.97 7.496C170.362 7.272 170.824 7.16 171.356 7.16V8.812H170.95C170.325 8.812 169.849 8.97067 169.522 9.288C169.205 9.60533 169.046 10.156 169.046 10.94V15H167.45V7.286H169.046V8.406ZM182.718 6.026L178.826 15H177.216L181.15 6.194H175.97V4.836H182.718V6.026ZM195.701 5.27V15H194.105V10.744H189.527V15H187.931V5.27H189.527V9.442H194.105V5.27H195.701ZM204.606 8.168C204.606 8.66267 204.489 9.12933 204.256 9.568C204.023 10.0067 203.649 10.366 203.136 10.646C202.623 10.9167 201.965 11.052 201.162 11.052H199.398V15H197.802V5.27H201.162C201.909 5.27 202.539 5.40067 203.052 5.662C203.575 5.914 203.962 6.25933 204.214 6.698C204.475 7.13667 204.606 7.62667 204.606 8.168ZM201.162 9.75C201.769 9.75 202.221 9.61467 202.52 9.344C202.819 9.064 202.968 8.672 202.968 8.168C202.968 7.104 202.366 6.572 201.162 6.572H199.398V9.75H201.162ZM216.807 8.07C216.555 7.58467 216.205 7.22067 215.757 6.978C215.309 6.726 214.791 6.6 214.203 6.6C213.559 6.6 212.985 6.74467 212.481 7.034C211.977 7.32333 211.58 7.734 211.291 8.266C211.011 8.798 210.871 9.414 210.871 10.114C210.871 10.814 211.011 11.4347 211.291 11.976C211.58 12.508 211.977 12.9187 212.481 13.208C212.985 13.4973 213.559 13.642 214.203 13.642C215.071 13.642 215.776 13.3993 216.317 12.914C216.858 12.4287 217.19 11.7707 217.311 10.94H213.657V9.666H219.019V10.912C218.916 11.668 218.646 12.3633 218.207 12.998C217.778 13.6327 217.213 14.1413 216.513 14.524C215.822 14.8973 215.052 15.084 214.203 15.084C213.288 15.084 212.453 14.874 211.697 14.454C210.941 14.0247 210.339 13.432 209.891 12.676C209.452 11.92 209.233 11.066 209.233 10.114C209.233 9.162 209.452 8.308 209.891 7.552C210.339 6.796 210.941 6.208 211.697 5.788C212.462 5.35867 213.298 5.144 214.203 5.144C215.239 5.144 216.158 5.40067 216.961 5.914C217.773 6.418 218.361 7.13667 218.725 8.07H216.807ZM227.663 10.954C227.663 11.2433 227.644 11.5047 227.607 11.738H221.713C221.76 12.354 221.988 12.8487 222.399 13.222C222.81 13.5953 223.314 13.782 223.911 13.782C224.77 13.782 225.376 13.4227 225.731 12.704H227.453C227.22 13.4133 226.795 13.9967 226.179 14.454C225.572 14.902 224.816 15.126 223.911 15.126C223.174 15.126 222.511 14.9627 221.923 14.636C221.344 14.3 220.887 13.8333 220.551 13.236C220.224 12.6293 220.061 11.9293 220.061 11.136C220.061 10.3427 220.22 9.64733 220.537 9.05C220.864 8.44333 221.316 7.97667 221.895 7.65C222.483 7.32333 223.155 7.16 223.911 7.16C224.639 7.16 225.288 7.31867 225.857 7.636C226.426 7.95333 226.87 8.40133 227.187 8.98C227.504 9.54933 227.663 10.2073 227.663 10.954ZM225.997 10.45C225.988 9.862 225.778 9.39067 225.367 9.036C224.956 8.68133 224.448 8.504 223.841 8.504C223.29 8.504 222.819 8.68133 222.427 9.036C222.035 9.38133 221.802 9.85267 221.727 10.45H225.997ZM228.702 11.108C228.702 10.3333 228.86 9.64733 229.178 9.05C229.504 8.45267 229.943 7.99067 230.494 7.664C231.054 7.328 231.67 7.16 232.342 7.16C232.948 7.16 233.476 7.28133 233.924 7.524C234.381 7.75733 234.745 8.05133 235.016 8.406V7.286H236.626V15H235.016V13.852C234.745 14.216 234.376 14.5193 233.91 14.762C233.443 15.0047 232.911 15.126 232.314 15.126C231.651 15.126 231.044 14.958 230.494 14.622C229.943 14.2767 229.504 13.8007 229.178 13.194C228.86 12.578 228.702 11.8827 228.702 11.108ZM235.016 11.136C235.016 10.604 234.904 10.142 234.68 9.75C234.465 9.358 234.18 9.05933 233.826 8.854C233.471 8.64867 233.088 8.546 232.678 8.546C232.267 8.546 231.884 8.64867 231.53 8.854C231.175 9.05 230.886 9.344 230.662 9.736C230.447 10.1187 230.34 10.576 230.34 11.108C230.34 11.64 230.447 12.1067 230.662 12.508C230.886 12.9093 231.175 13.2173 231.53 13.432C231.894 13.6373 232.276 13.74 232.678 13.74C233.088 13.74 233.471 13.6373 233.826 13.432C234.18 13.2267 234.465 12.928 234.68 12.536C234.904 12.1347 235.016 11.668 235.016 11.136ZM240.318 8.406C240.551 8.014 240.859 7.71067 241.242 7.496C241.634 7.272 242.096 7.16 242.628 7.16V8.812H242.222C241.597 8.812 241.121 8.97067 240.794 9.288C240.477 9.60533 240.318 10.156 240.318 10.94V15H238.722V7.286H240.318V8.406ZM7.336 26.27V27.572H4.746V36H3.15V27.572H0.546V26.27H7.336ZM10.5483 29.406C10.7817 29.014 11.0897 28.7107 11.4723 28.496C11.8643 28.272 12.3263 28.16 12.8583 28.16V29.812H12.4523C11.827 29.812 11.351 29.9707 11.0243 30.288C10.707 30.6053 10.5483 31.156 10.5483 31.94V36H8.95234V28.286H10.5483V29.406ZM13.7934 32.108C13.7934 31.3333 13.9521 30.6473 14.2694 30.05C14.5961 29.4527 15.0347 28.9907 15.5854 28.664C16.1454 28.328 16.7614 28.16 17.4334 28.16C18.0401 28.16 18.5674 28.2813 19.0154 28.524C19.4727 28.7573 19.8367 29.0513 20.1074 29.406V28.286H21.7174V36H20.1074V34.852C19.8367 35.216 19.4681 35.5193 19.0014 35.762C18.5347 36.0047 18.0027 36.126 17.4054 36.126C16.7427 36.126 16.1361 35.958 15.5854 35.622C15.0347 35.2767 14.5961 34.8007 14.2694 34.194C13.9521 33.578 13.7934 32.8827 13.7934 32.108ZM20.1074 32.136C20.1074 31.604 19.9954 31.142 19.7714 30.75C19.5567 30.358 19.2721 30.0593 18.9174 29.854C18.5627 29.6487 18.1801 29.546 17.7694 29.546C17.3587 29.546 16.9761 29.6487 16.6214 29.854C16.2667 30.05 15.9774 30.344 15.7534 30.736C15.5387 31.1187 15.4314 31.576 15.4314 32.108C15.4314 32.64 15.5387 33.1067 15.7534 33.508C15.9774 33.9093 16.2667 34.2173 16.6214 34.432C16.9854 34.6373 17.3681 34.74 17.7694 34.74C18.1801 34.74 18.5627 34.6373 18.9174 34.432C19.2721 34.2267 19.5567 33.928 19.7714 33.536C19.9954 33.1347 20.1074 32.668 20.1074 32.136ZM27.7057 28.16C28.3123 28.16 28.8537 28.286 29.3297 28.538C29.815 28.79 30.193 29.1633 30.4637 29.658C30.7343 30.1527 30.8697 30.75 30.8697 31.45V36H29.2877V31.688C29.2877 30.9973 29.115 30.47 28.7697 30.106C28.4243 29.7327 27.953 29.546 27.3557 29.546C26.7583 29.546 26.2823 29.7327 25.9277 30.106C25.5823 30.47 25.4097 30.9973 25.4097 31.688V36H23.8137V28.286H25.4097V29.168C25.671 28.8507 26.0023 28.6033 26.4037 28.426C26.8143 28.2487 27.2483 28.16 27.7057 28.16ZM35.7055 36.126C35.0988 36.126 34.5528 36.0187 34.0675 35.804C33.5915 35.58 33.2135 35.2813 32.9335 34.908C32.6535 34.5253 32.5041 34.1007 32.4855 33.634H34.1375C34.1655 33.9607 34.3195 34.236 34.5995 34.46C34.8888 34.6747 35.2481 34.782 35.6775 34.782C36.1255 34.782 36.4708 34.698 36.7135 34.53C36.9655 34.3527 37.0915 34.1287 37.0915 33.858C37.0915 33.5687 36.9515 33.354 36.6715 33.214C36.4008 33.074 35.9668 32.92 35.3695 32.752C34.7908 32.5933 34.3195 32.4393 33.9555 32.29C33.5915 32.1407 33.2741 31.912 33.0035 31.604C32.7421 31.296 32.6115 30.89 32.6115 30.386C32.6115 29.9753 32.7328 29.602 32.9755 29.266C33.2181 28.9207 33.5635 28.65 34.0115 28.454C34.4688 28.258 34.9915 28.16 35.5795 28.16C36.4568 28.16 37.1615 28.384 37.6935 28.832C38.2348 29.2707 38.5241 29.8727 38.5615 30.638H36.9655C36.9375 30.2927 36.7975 30.0173 36.5455 29.812C36.2935 29.6067 35.9528 29.504 35.5235 29.504C35.1035 29.504 34.7815 29.5833 34.5575 29.742C34.3335 29.9007 34.2215 30.1107 34.2215 30.372C34.2215 30.5773 34.2961 30.75 34.4455 30.89C34.5948 31.03 34.7768 31.142 34.9915 31.226C35.2061 31.3007 35.5235 31.3987 35.9435 31.52C36.5035 31.6693 36.9608 31.8233 37.3155 31.982C37.6795 32.1313 37.9921 32.3553 38.2535 32.654C38.5148 32.9527 38.6501 33.3493 38.6595 33.844C38.6595 34.2827 38.5381 34.6747 38.2955 35.02C38.0528 35.3653 37.7075 35.636 37.2595 35.832C36.8208 36.028 36.3028 36.126 35.7055 36.126ZM49.722 28.16C50.3287 28.16 50.87 28.286 51.346 28.538C51.8313 28.79 52.2093 29.1633 52.48 29.658C52.76 30.1527 52.9 30.75 52.9 31.45V36H51.318V31.688C51.318 30.9973 51.1453 30.47 50.8 30.106C50.4547 29.7327 49.9833 29.546 49.386 29.546C48.7887 29.546 48.3127 29.7327 47.958 30.106C47.6127 30.47 47.44 30.9973 47.44 31.688V36H45.858V31.688C45.858 30.9973 45.6853 30.47 45.34 30.106C44.9947 29.7327 44.5233 29.546 43.926 29.546C43.3287 29.546 42.8527 29.7327 42.498 30.106C42.1527 30.47 41.98 30.9973 41.98 31.688V36H40.384V28.286H41.98V29.168C42.2413 28.8507 42.5727 28.6033 42.974 28.426C43.3753 28.2487 43.8047 28.16 44.262 28.16C44.878 28.16 45.4287 28.2907 45.914 28.552C46.3993 28.8133 46.7727 29.1913 47.034 29.686C47.2673 29.2193 47.6313 28.8507 48.126 28.58C48.6207 28.3 49.1527 28.16 49.722 28.16ZM55.7429 27.264C55.4535 27.264 55.2109 27.166 55.0149 26.97C54.8189 26.774 54.7209 26.5313 54.7209 26.242C54.7209 25.9527 54.8189 25.71 55.0149 25.514C55.2109 25.318 55.4535 25.22 55.7429 25.22C56.0229 25.22 56.2609 25.318 56.4569 25.514C56.6529 25.71 56.7509 25.9527 56.7509 26.242C56.7509 26.5313 56.6529 26.774 56.4569 26.97C56.2609 27.166 56.0229 27.264 55.7429 27.264ZM56.5269 28.286V36H54.9309V28.286H56.5269ZM61.4223 36.126C60.8156 36.126 60.2696 36.0187 59.7843 35.804C59.3083 35.58 58.9303 35.2813 58.6503 34.908C58.3703 34.5253 58.2209 34.1007 58.2023 33.634H59.8543C59.8823 33.9607 60.0363 34.236 60.3163 34.46C60.6056 34.6747 60.9649 34.782 61.3943 34.782C61.8423 34.782 62.1876 34.698 62.4303 34.53C62.6823 34.3527 62.8083 34.1287 62.8083 33.858C62.8083 33.5687 62.6683 33.354 62.3883 33.214C62.1176 33.074 61.6836 32.92 61.0863 32.752C60.5076 32.5933 60.0363 32.4393 59.6723 32.29C59.3083 32.1407 58.9909 31.912 58.7203 31.604C58.4589 31.296 58.3283 30.89 58.3283 30.386C58.3283 29.9753 58.4496 29.602 58.6923 29.266C58.9349 28.9207 59.2803 28.65 59.7283 28.454C60.1856 28.258 60.7083 28.16 61.2963 28.16C62.1736 28.16 62.8783 28.384 63.4103 28.832C63.9516 29.2707 64.2409 29.8727 64.2783 30.638H62.6823C62.6543 30.2927 62.5143 30.0173 62.2623 29.812C62.0103 29.6067 61.6696 29.504 61.2403 29.504C60.8203 29.504 60.4983 29.5833 60.2743 29.742C60.0503 29.9007 59.9383 30.1107 59.9383 30.372C59.9383 30.5773 60.0129 30.75 60.1623 30.89C60.3116 31.03 60.4936 31.142 60.7083 31.226C60.9229 31.3007 61.2403 31.3987 61.6603 31.52C62.2203 31.6693 62.6776 31.8233 63.0323 31.982C63.3963 32.1313 63.7089 32.3553 63.9703 32.654C64.2316 32.9527 64.3669 33.3493 64.3763 33.844C64.3763 34.2827 64.2549 34.6747 64.0123 35.02C63.7696 35.3653 63.4243 35.636 62.9763 35.832C62.5376 36.028 62.0196 36.126 61.4223 36.126ZM68.9008 36.126C68.2941 36.126 67.7481 36.0187 67.2628 35.804C66.7868 35.58 66.4088 35.2813 66.1288 34.908C65.8488 34.5253 65.6994 34.1007 65.6808 33.634H67.3328C67.3608 33.9607 67.5148 34.236 67.7948 34.46C68.0841 34.6747 68.4434 34.782 68.8728 34.782C69.3208 34.782 69.6661 34.698 69.9088 34.53C70.1608 34.3527 70.2868 34.1287 70.2868 33.858C70.2868 33.5687 70.1468 33.354 69.8668 33.214C69.5961 33.074 69.1621 32.92 68.5648 32.752C67.9861 32.5933 67.5148 32.4393 67.1508 32.29C66.7868 32.1407 66.4694 31.912 66.1988 31.604C65.9374 31.296 65.8068 30.89 65.8068 30.386C65.8068 29.9753 65.9281 29.602 66.1708 29.266C66.4134 28.9207 66.7588 28.65 67.2068 28.454C67.6641 28.258 68.1868 28.16 68.7748 28.16C69.6521 28.16 70.3568 28.384 70.8888 28.832C71.4301 29.2707 71.7194 29.8727 71.7568 30.638H70.1608C70.1328 30.2927 69.9928 30.0173 69.7408 29.812C69.4888 29.6067 69.1481 29.504 68.7188 29.504C68.2988 29.504 67.9768 29.5833 67.7528 29.742C67.5288 29.9007 67.4168 30.1107 67.4168 30.372C67.4168 30.5773 67.4914 30.75 67.6408 30.89C67.7901 31.03 67.9721 31.142 68.1868 31.226C68.4014 31.3007 68.7188 31.3987 69.1388 31.52C69.6988 31.6693 70.1561 31.8233 70.5108 31.982C70.8748 32.1313 71.1874 32.3553 71.4488 32.654C71.7101 32.9527 71.8454 33.3493 71.8548 33.844C71.8548 34.2827 71.7334 34.6747 71.4908 35.02C71.2481 35.3653 70.9028 35.636 70.4548 35.832C70.0161 36.028 69.4981 36.126 68.9008 36.126ZM74.3913 27.264C74.102 27.264 73.8593 27.166 73.6633 26.97C73.4673 26.774 73.3693 26.5313 73.3693 26.242C73.3693 25.9527 73.4673 25.71 73.6633 25.514C73.8593 25.318 74.102 25.22 74.3913 25.22C74.6713 25.22 74.9093 25.318 75.1053 25.514C75.3013 25.71 75.3993 25.9527 75.3993 26.242C75.3993 26.5313 75.3013 26.774 75.1053 26.97C74.9093 27.166 74.6713 27.264 74.3913 27.264ZM75.1753 28.286V36H73.5793V28.286H75.1753ZM80.6167 36.126C79.8887 36.126 79.2307 35.9627 78.6427 35.636C78.0547 35.3 77.5927 34.8333 77.2567 34.236C76.9207 33.6293 76.7527 32.9293 76.7527 32.136C76.7527 31.352 76.9254 30.6567 77.2707 30.05C77.616 29.4433 78.0874 28.9767 78.6847 28.65C79.282 28.3233 79.9494 28.16 80.6867 28.16C81.424 28.16 82.0914 28.3233 82.6887 28.65C83.286 28.9767 83.7574 29.4433 84.1027 30.05C84.448 30.6567 84.6207 31.352 84.6207 32.136C84.6207 32.92 84.4434 33.6153 84.0887 34.222C83.734 34.8287 83.2487 35.3 82.6327 35.636C82.026 35.9627 81.354 36.126 80.6167 36.126ZM80.6167 34.74C81.0274 34.74 81.41 34.642 81.7647 34.446C82.1287 34.25 82.4227 33.956 82.6467 33.564C82.8707 33.172 82.9827 32.696 82.9827 32.136C82.9827 31.576 82.8754 31.1047 82.6607 30.722C82.446 30.33 82.1614 30.036 81.8067 29.84C81.452 29.644 81.0694 29.546 80.6587 29.546C80.248 29.546 79.8654 29.644 79.5107 29.84C79.1654 30.036 78.89 30.33 78.6847 30.722C78.4794 31.1047 78.3767 31.576 78.3767 32.136C78.3767 32.9667 78.5867 33.6107 79.0067 34.068C79.436 34.516 79.9727 34.74 80.6167 34.74ZM90.0904 28.16C90.6971 28.16 91.2384 28.286 91.7144 28.538C92.1998 28.79 92.5778 29.1633 92.8484 29.658C93.1191 30.1527 93.2544 30.75 93.2544 31.45V36H91.6724V31.688C91.6724 30.9973 91.4998 30.47 91.1544 30.106C90.8091 29.7327 90.3378 29.546 89.7404 29.546C89.1431 29.546 88.6671 29.7327 88.3124 30.106C87.9671 30.47 87.7944 30.9973 87.7944 31.688V36H86.1984V28.286H87.7944V29.168C88.0558 28.8507 88.3871 28.6033 88.7884 28.426C89.1991 28.2487 89.6331 28.16 90.0904 28.16ZM104.793 34.012H100.719L100.019 36H98.353L101.839 26.256H103.687L107.173 36H105.493L104.793 34.012ZM104.345 32.71L102.763 28.188L101.167 32.71H104.345ZM115.493 29.168C115.493 29.6627 115.376 30.1293 115.143 30.568C114.909 31.0067 114.536 31.366 114.023 31.646C113.509 31.9167 112.851 32.052 112.049 32.052H110.285V36H108.689V26.27H112.049C112.795 26.27 113.425 26.4007 113.939 26.662C114.461 26.914 114.849 27.2593 115.101 27.698C115.362 28.1367 115.493 28.6267 115.493 29.168ZM112.049 30.75C112.655 30.75 113.108 30.6147 113.407 30.344C113.705 30.064 113.855 29.672 113.855 29.168C113.855 28.104 113.253 27.572 112.049 27.572H110.285V30.75H112.049ZM116.483 31.114C116.483 30.162 116.702 29.308 117.141 28.552C117.589 27.796 118.191 27.208 118.947 26.788C119.712 26.3587 120.548 26.144 121.453 26.144C122.489 26.144 123.408 26.4007 124.211 26.914C125.023 27.418 125.611 28.1367 125.975 29.07H124.057C123.805 28.5567 123.455 28.174 123.007 27.922C122.559 27.67 122.041 27.544 121.453 27.544C120.809 27.544 120.235 27.6887 119.731 27.978C119.227 28.2673 118.83 28.6827 118.541 29.224C118.261 29.7653 118.121 30.3953 118.121 31.114C118.121 31.8327 118.261 32.4627 118.541 33.004C118.83 33.5453 119.227 33.9653 119.731 34.264C120.235 34.5533 120.809 34.698 121.453 34.698C122.041 34.698 122.559 34.572 123.007 34.32C123.455 34.068 123.805 33.6853 124.057 33.172H125.975C125.611 34.1053 125.023 34.824 124.211 35.328C123.408 35.832 122.489 36.084 121.453 36.084C120.538 36.084 119.703 35.874 118.947 35.454C118.191 35.0247 117.589 34.432 117.141 33.676C116.702 32.92 116.483 32.066 116.483 31.114ZM127.423 27.25V25.794H130.335V36H128.725V27.25H127.423ZM132.528 30.764C132.528 29.1493 132.798 27.8893 133.34 26.984C133.89 26.0693 134.833 25.612 136.168 25.612C137.502 25.612 138.44 26.0693 138.982 26.984C139.532 27.8893 139.808 29.1493 139.808 30.764C139.808 32.3973 139.532 33.676 138.982 34.6C138.44 35.5147 137.502 35.972 136.168 35.972C134.833 35.972 133.89 35.5147 133.34 34.6C132.798 33.676 132.528 32.3973 132.528 30.764ZM138.24 30.764C138.24 30.008 138.188 29.3687 138.086 28.846C137.992 28.3233 137.796 27.8987 137.498 27.572C137.199 27.236 136.756 27.068 136.168 27.068C135.58 27.068 135.136 27.236 134.838 27.572C134.539 27.8987 134.338 28.3233 134.236 28.846C134.142 29.3687 134.096 30.008 134.096 30.764C134.096 31.548 134.142 32.206 134.236 32.738C134.329 33.27 134.525 33.6993 134.824 34.026C135.132 34.3527 135.58 34.516 136.168 34.516C136.756 34.516 137.199 34.3527 137.498 34.026C137.806 33.6993 138.006 33.27 138.1 32.738C138.193 32.206 138.24 31.548 138.24 30.764ZM141.496 30.764C141.496 29.1493 141.767 27.8893 142.308 26.984C142.859 26.0693 143.802 25.612 145.136 25.612C146.471 25.612 147.409 26.0693 147.95 26.984C148.501 27.8893 148.776 29.1493 148.776 30.764C148.776 32.3973 148.501 33.676 147.95 34.6C147.409 35.5147 146.471 35.972 145.136 35.972C143.802 35.972 142.859 35.5147 142.308 34.6C141.767 33.676 141.496 32.3973 141.496 30.764ZM147.208 30.764C147.208 30.008 147.157 29.3687 147.054 28.846C146.961 28.3233 146.765 27.8987 146.466 27.572C146.168 27.236 145.724 27.068 145.136 27.068C144.548 27.068 144.105 27.236 143.806 27.572C143.508 27.8987 143.307 28.3233 143.204 28.846C143.111 29.3687 143.064 30.008 143.064 30.764C143.064 31.548 143.111 32.206 143.204 32.738C143.298 33.27 143.494 33.6993 143.792 34.026C144.1 34.3527 144.548 34.516 145.136 34.516C145.724 34.516 146.168 34.3527 146.466 34.026C146.774 33.6993 146.975 33.27 147.068 32.738C147.162 32.206 147.208 31.548 147.208 30.764ZM156.401 26.27V27.572H152.271V30.442H155.491V31.744H152.271V36H150.675V26.27H156.401ZM165.412 37.764L163.704 35.916C163.284 36.0373 162.822 36.098 162.318 36.098C161.413 36.098 160.577 35.888 159.812 35.468C159.056 35.0387 158.454 34.446 158.006 33.69C157.567 32.9247 157.348 32.066 157.348 31.114C157.348 30.162 157.567 29.308 158.006 28.552C158.454 27.796 159.056 27.208 159.812 26.788C160.577 26.3587 161.413 26.144 162.318 26.144C163.233 26.144 164.068 26.3587 164.824 26.788C165.589 27.208 166.191 27.796 166.63 28.552C167.069 29.308 167.288 30.162 167.288 31.114C167.288 32.01 167.092 32.822 166.7 33.55C166.317 34.2687 165.785 34.8473 165.104 35.286L167.442 37.764H165.412ZM158.986 31.114C158.986 31.8327 159.126 32.4673 159.406 33.018C159.695 33.5593 160.092 33.9793 160.596 34.278C161.1 34.5673 161.674 34.712 162.318 34.712C162.962 34.712 163.536 34.5673 164.04 34.278C164.544 33.9793 164.936 33.5593 165.216 33.018C165.505 32.4673 165.65 31.8327 165.65 31.114C165.65 30.3953 165.505 29.7653 165.216 29.224C164.936 28.6827 164.544 28.2673 164.04 27.978C163.536 27.6887 162.962 27.544 162.318 27.544C161.674 27.544 161.1 27.6887 160.596 27.978C160.092 28.2673 159.695 28.6827 159.406 29.224C159.126 29.7653 158.986 30.3953 158.986 31.114Z" fill="black"/>
<path d="M2.016 51.648C2.24 51.256 2.568 50.936 3 50.688C3.432 50.44 3.924 50.316 4.476 50.316C5.068 50.316 5.6 50.456 6.072 50.736C6.544 51.016 6.916 51.412 7.188 51.924C7.46 52.428 7.596 53.016 7.596 53.688C7.596 54.352 7.46 54.944 7.188 55.464C6.916 55.984 6.54 56.388 6.06 56.676C5.588 56.964 5.06 57.108 4.476 57.108C3.908 57.108 3.408 56.984 2.976 56.736C2.552 56.488 2.232 56.172 2.016 55.788V57H0.924V48.12H2.016V51.648ZM6.48 53.688C6.48 53.192 6.38 52.76 6.18 52.392C5.98 52.024 5.708 51.744 5.364 51.552C5.028 51.36 4.656 51.264 4.248 51.264C3.848 51.264 3.476 51.364 3.132 51.564C2.796 51.756 2.524 52.04 2.316 52.416C2.116 52.784 2.016 53.212 2.016 53.7C2.016 54.196 2.116 54.632 2.316 55.008C2.524 55.376 2.796 55.66 3.132 55.86C3.476 56.052 3.848 56.148 4.248 56.148C4.656 56.148 5.028 56.052 5.364 55.86C5.708 55.66 5.98 55.376 6.18 55.008C6.38 54.632 6.48 54.192 6.48 53.688ZM14.6974 50.424L10.7374 60.096H9.60938L10.9054 56.928L8.25338 50.424H9.46538L11.5294 55.752L13.5694 50.424H14.6974Z" fill="black"/>
<path d="M20.576 57.084C20.024 57.084 19.528 56.988 19.088 56.796C18.656 56.596 18.316 56.324 18.068 55.98C17.82 55.628 17.692 55.224 17.684 54.768H18.848C18.888 55.16 19.048 55.492 19.328 55.764C19.616 56.028 20.032 56.16 20.576 56.16C21.096 56.16 21.504 56.032 21.8 55.776C22.104 55.512 22.256 55.176 22.256 54.768C22.256 54.448 22.168 54.188 21.992 53.988C21.816 53.788 21.596 53.636 21.332 53.532C21.068 53.428 20.712 53.316 20.264 53.196C19.712 53.052 19.268 52.908 18.932 52.764C18.604 52.62 18.32 52.396 18.08 52.092C17.848 51.78 17.732 51.364 17.732 50.844C17.732 50.388 17.848 49.984 18.08 49.632C18.312 49.28 18.636 49.008 19.052 48.816C19.476 48.624 19.96 48.528 20.504 48.528C21.288 48.528 21.928 48.724 22.424 49.116C22.928 49.508 23.212 50.028 23.276 50.676H22.076C22.036 50.356 21.868 50.076 21.572 49.836C21.276 49.588 20.884 49.464 20.396 49.464C19.94 49.464 19.568 49.584 19.28 49.824C18.992 50.056 18.848 50.384 18.848 50.808C18.848 51.112 18.932 51.36 19.1 51.552C19.276 51.744 19.488 51.892 19.736 51.996C19.992 52.092 20.348 52.204 20.804 52.332C21.356 52.484 21.8 52.636 22.136 52.788C22.472 52.932 22.76 53.16 23 53.472C23.24 53.776 23.36 54.192 23.36 54.72C23.36 55.128 23.252 55.512 23.036 55.872C22.82 56.232 22.5 56.524 22.076 56.748C21.652 56.972 21.152 57.084 20.576 57.084ZM30.799 50.424V57H29.707V56.028C29.499 56.364 29.207 56.628 28.831 56.82C28.463 57.004 28.055 57.096 27.607 57.096C27.095 57.096 26.635 56.992 26.227 56.784C25.819 56.568 25.495 56.248 25.255 55.824C25.023 55.4 24.907 54.884 24.907 54.276V50.424H25.987V54.132C25.987 54.78 26.151 55.28 26.479 55.632C26.807 55.976 27.255 56.148 27.823 56.148C28.407 56.148 28.867 55.968 29.203 55.608C29.539 55.248 29.707 54.724 29.707 54.036V50.424H30.799ZM33.7348 51.636C33.9508 51.26 34.2708 50.948 34.6948 50.7C35.1268 50.444 35.6268 50.316 36.1948 50.316C36.7788 50.316 37.3068 50.456 37.7787 50.736C38.2587 51.016 38.6348 51.412 38.9068 51.924C39.1788 52.428 39.3148 53.016 39.3148 53.688C39.3148 54.352 39.1788 54.944 38.9068 55.464C38.6348 55.984 38.2587 56.388 37.7787 56.676C37.3068 56.964 36.7788 57.108 36.1948 57.108C35.6348 57.108 35.1388 56.984 34.7068 56.736C34.2828 56.48 33.9588 56.164 33.7348 55.788V60.12H32.6428V50.424H33.7348V51.636ZM38.1988 53.688C38.1988 53.192 38.0988 52.76 37.8988 52.392C37.6988 52.024 37.4268 51.744 37.0828 51.552C36.7468 51.36 36.3748 51.264 35.9668 51.264C35.5668 51.264 35.1948 51.364 34.8508 51.564C34.5148 51.756 34.2428 52.04 34.0348 52.416C33.8348 52.784 33.7348 53.212 33.7348 53.7C33.7348 54.196 33.8348 54.632 34.0348 55.008C34.2428 55.376 34.5148 55.66 34.8508 55.86C35.1948 56.052 35.5668 56.148 35.9668 56.148C36.3748 56.148 36.7468 56.052 37.0828 55.86C37.4268 55.66 37.6988 55.376 37.8988 55.008C38.0988 54.632 38.1988 54.192 38.1988 53.688ZM41.8441 51.636C42.0601 51.26 42.3801 50.948 42.8041 50.7C43.2361 50.444 43.7361 50.316 44.3041 50.316C44.8881 50.316 45.4161 50.456 45.8881 50.736C46.3681 51.016 46.7441 51.412 47.0161 51.924C47.2881 52.428 47.4241 53.016 47.4241 53.688C47.4241 54.352 47.2881 54.944 47.0161 55.464C46.7441 55.984 46.3681 56.388 45.8881 56.676C45.4161 56.964 44.8881 57.108 44.3041 57.108C43.7441 57.108 43.2481 56.984 42.8161 56.736C42.3921 56.48 42.0681 56.164 41.8441 55.788V60.12H40.7521V50.424H41.8441V51.636ZM46.3081 53.688C46.3081 53.192 46.2081 52.76 46.0081 52.392C45.8081 52.024 45.5361 51.744 45.1921 51.552C44.8561 51.36 44.4841 51.264 44.0761 51.264C43.6761 51.264 43.3041 51.364 42.9601 51.564C42.6241 51.756 42.3521 52.04 42.1441 52.416C41.9441 52.784 41.8441 53.212 41.8441 53.7C41.8441 54.196 41.9441 54.632 42.1441 55.008C42.3521 55.376 42.6241 55.66 42.9601 55.86C43.3041 56.052 43.6761 56.148 44.0761 56.148C44.4841 56.148 44.8561 56.052 45.1921 55.86C45.5361 55.66 45.8081 55.376 46.0081 55.008C46.2081 54.632 46.3081 54.192 46.3081 53.688ZM49.9535 48.12V57H48.8615V48.12H49.9535ZM52.3786 49.356C52.1706 49.356 51.9946 49.284 51.8506 49.14C51.7066 48.996 51.6346 48.82 51.6346 48.612C51.6346 48.404 51.7066 48.228 51.8506 48.084C51.9946 47.94 52.1706 47.868 52.3786 47.868C52.5786 47.868 52.7466 47.94 52.8826 48.084C53.0266 48.228 53.0986 48.404 53.0986 48.612C53.0986 48.82 53.0266 48.996 52.8826 49.14C52.7466 49.284 52.5786 49.356 52.3786 49.356ZM52.9066 50.424V57H51.8146V50.424H52.9066ZM60.7678 53.46C60.7678 53.668 60.7558 53.888 60.7318 54.12H55.4758C55.5158 54.768 55.7358 55.276 56.1358 55.644C56.5438 56.004 57.0358 56.184 57.6118 56.184C58.0838 56.184 58.4758 56.076 58.7878 55.86C59.1078 55.636 59.3318 55.34 59.4598 54.972H60.6358C60.4598 55.604 60.1078 56.12 59.5798 56.52C59.0518 56.912 58.3958 57.108 57.6118 57.108C56.9878 57.108 56.4278 56.968 55.9318 56.688C55.4438 56.408 55.0598 56.012 54.7798 55.5C54.4998 54.98 54.3598 54.38 54.3598 53.7C54.3598 53.02 54.4958 52.424 54.7678 51.912C55.0398 51.4 55.4198 51.008 55.9078 50.736C56.4038 50.456 56.9718 50.316 57.6118 50.316C58.2358 50.316 58.7878 50.452 59.2678 50.724C59.7478 50.996 60.1158 51.372 60.3718 51.852C60.6358 52.324 60.7678 52.86 60.7678 53.46ZM59.6398 53.232C59.6398 52.816 59.5478 52.46 59.3638 52.164C59.1798 51.86 58.9278 51.632 58.6078 51.48C58.2958 51.32 57.9478 51.24 57.5638 51.24C57.0118 51.24 56.5398 51.416 56.1478 51.768C55.7638 52.12 55.5438 52.608 55.4878 53.232H59.6398ZM63.3012 51.492C63.4932 51.116 63.7652 50.824 64.1172 50.616C64.4772 50.408 64.9132 50.304 65.4252 50.304V51.432H65.1372C63.9132 51.432 63.3012 52.096 63.3012 53.424V57H62.2092V50.424H63.3012V51.492ZM76.4609 57H75.3689L70.9769 50.34V57H69.8849V48.624H70.9769L75.3689 55.272V48.624H76.4609V57ZM77.9144 53.688C77.9144 53.016 78.0504 52.428 78.3224 51.924C78.5944 51.412 78.9664 51.016 79.4384 50.736C79.9184 50.456 80.4504 50.316 81.0344 50.316C81.6104 50.316 82.1104 50.44 82.5344 50.688C82.9584 50.936 83.2744 51.248 83.4824 51.624V50.424H84.5864V57H83.4824V55.776C83.2664 56.16 82.9424 56.48 82.5104 56.736C82.0864 56.984 81.5904 57.108 81.0224 57.108C80.4384 57.108 79.9104 56.964 79.4384 56.676C78.9664 56.388 78.5944 55.984 78.3224 55.464C78.0504 54.944 77.9144 54.352 77.9144 53.688ZM83.4824 53.7C83.4824 53.204 83.3824 52.772 83.1824 52.404C82.9824 52.036 82.7104 51.756 82.3664 51.564C82.0304 51.364 81.6584 51.264 81.2504 51.264C80.8424 51.264 80.4704 51.36 80.1344 51.552C79.7984 51.744 79.5304 52.024 79.3304 52.392C79.1304 52.76 79.0304 53.192 79.0304 53.688C79.0304 54.192 79.1304 54.632 79.3304 55.008C79.5304 55.376 79.7984 55.66 80.1344 55.86C80.4704 56.052 80.8424 56.148 81.2504 56.148C81.6584 56.148 82.0304 56.052 82.3664 55.86C82.7104 55.66 82.9824 55.376 83.1824 55.008C83.3824 54.632 83.4824 54.196 83.4824 53.7ZM94.3398 50.304C94.8518 50.304 95.3078 50.412 95.7078 50.628C96.1078 50.836 96.4238 51.152 96.6558 51.576C96.8878 52 97.0038 52.516 97.0038 53.124V57H95.9238V53.28C95.9238 52.624 95.7598 52.124 95.4318 51.78C95.1118 51.428 94.6758 51.252 94.1238 51.252C93.5558 51.252 93.1038 51.436 92.7678 51.804C92.4318 52.164 92.2638 52.688 92.2638 53.376V57H91.1838V53.28C91.1838 52.624 91.0198 52.124 90.6918 51.78C90.3718 51.428 89.9358 51.252 89.3838 51.252C88.8158 51.252 88.3638 51.436 88.0278 51.804C87.6918 52.164 87.5238 52.688 87.5238 53.376V57H86.4318V50.424H87.5238V51.372C87.7398 51.028 88.0278 50.764 88.3878 50.58C88.7558 50.396 89.1598 50.304 89.5998 50.304C90.1518 50.304 90.6398 50.428 91.0638 50.676C91.4878 50.924 91.8038 51.288 92.0118 51.768C92.1958 51.304 92.4998 50.944 92.9238 50.688C93.3478 50.432 93.8198 50.304 94.3398 50.304ZM104.795 53.46C104.795 53.668 104.783 53.888 104.759 54.12H99.5031C99.5431 54.768 99.7631 55.276 100.163 55.644C100.571 56.004 101.063 56.184 101.639 56.184C102.111 56.184 102.503 56.076 102.815 55.86C103.135 55.636 103.359 55.34 103.487 54.972H104.663C104.487 55.604 104.135 56.12 103.607 56.52C103.079 56.912 102.423 57.108 101.639 57.108C101.015 57.108 100.455 56.968 99.9591 56.688C99.4711 56.408 99.0871 56.012 98.8071 55.5C98.5271 54.98 98.3871 54.38 98.3871 53.7C98.3871 53.02 98.5231 52.424 98.7951 51.912C99.0671 51.4 99.4471 51.008 99.9351 50.736C100.431 50.456 100.999 50.316 101.639 50.316C102.263 50.316 102.815 50.452 103.295 50.724C103.775 50.996 104.143 51.372 104.399 51.852C104.663 52.324 104.795 52.86 104.795 53.46ZM103.667 53.232C103.667 52.816 103.575 52.46 103.391 52.164C103.207 51.86 102.955 51.632 102.635 51.48C102.323 51.32 101.975 51.24 101.591 51.24C101.039 51.24 100.567 51.416 100.175 51.768C99.7911 52.12 99.5711 52.608 99.5151 53.232H103.667Z" fill="#A7A8AB"/>
</svg>
