<svg width="331" height="21" viewBox="0 0 331 21" fill="none" xmlns="http://www.w3.org/2000/svg">
<path d="M5.232 14.5L3.312 11.164H2.268V14.5H0.9V6.16H3.78C4.42 6.16 4.96 6.272 5.4 6.496C5.848 6.72 6.18 7.02 6.396 7.396C6.62 7.772 6.732 8.192 6.732 8.656C6.732 9.2 6.572 9.696 6.252 10.144C5.94 10.584 5.456 10.884 4.8 11.044L6.864 14.5H5.232ZM2.268 10.072H3.78C4.292 10.072 4.676 9.944 4.932 9.688C5.196 9.432 5.328 9.088 5.328 8.656C5.328 8.224 5.2 7.888 4.944 7.648C4.688 7.4 4.3 7.276 3.78 7.276H2.268V10.072ZM10.882 14.608C10.362 14.608 9.89403 14.516 9.47803 14.332C9.07003 14.14 8.74603 13.884 8.50603 13.564C8.26603 13.236 8.13803 12.872 8.12203 12.472H9.53803C9.56203 12.752 9.69403 12.988 9.93403 13.18C10.182 13.364 10.49 13.456 10.858 13.456C11.242 13.456 11.538 13.384 11.746 13.24C11.962 13.088 12.07 12.896 12.07 12.664C12.07 12.416 11.95 12.232 11.71 12.112C11.478 11.992 11.106 11.86 10.594 11.716C10.098 11.58 9.69403 11.448 9.38203 11.32C9.07003 11.192 8.79803 10.996 8.56603 10.732C8.34203 10.468 8.23003 10.12 8.23003 9.688C8.23003 9.336 8.33403 9.016 8.54203 8.728C8.75003 8.432 9.04603 8.2 9.43003 8.032C9.82203 7.864 10.27 7.78 10.774 7.78C11.526 7.78 12.13 7.972 12.586 8.356C13.05 8.732 13.298 9.248 13.33 9.904H11.962C11.938 9.608 11.818 9.372 11.602 9.196C11.386 9.02 11.094 8.932 10.726 8.932C10.366 8.932 10.09 9 9.89803 9.136C9.70603 9.272 9.61003 9.452 9.61003 9.676C9.61003 9.852 9.67403 10 9.80203 10.12C9.93003 10.24 10.086 10.336 10.27 10.408C10.454 10.472 10.726 10.556 11.086 10.66C11.566 10.788 11.958 10.92 12.262 11.056C12.574 11.184 12.842 11.376 13.066 11.632C13.29 11.888 13.406 12.228 13.414 12.652C13.414 13.028 13.31 13.364 13.102 13.66C12.894 13.956 12.598 14.188 12.214 14.356C11.838 14.524 11.394 14.608 10.882 14.608ZM15.4442 14.584C15.1962 14.584 14.9882 14.5 14.8202 14.332C14.6522 14.164 14.5682 13.956 14.5682 13.708C14.5682 13.46 14.6522 13.252 14.8202 13.084C14.9882 12.916 15.1962 12.832 15.4442 12.832C15.6842 12.832 15.8882 12.916 16.0562 13.084C16.2242 13.252 16.3082 13.46 16.3082 13.708C16.3082 13.956 16.2242 14.164 16.0562 14.332C15.8882 14.5 15.6842 14.584 15.4442 14.584ZM26.3639 6.928H22.3439V9.316C22.5119 9.092 22.7599 8.904 23.0879 8.752C23.4239 8.6 23.7799 8.524 24.1559 8.524C24.8279 8.524 25.3719 8.668 25.7879 8.956C26.2119 9.244 26.5119 9.608 26.6879 10.048C26.8719 10.488 26.9639 10.952 26.9639 11.44C26.9639 12.032 26.8479 12.56 26.6159 13.024C26.3919 13.48 26.0519 13.84 25.5959 14.104C25.1479 14.368 24.5959 14.5 23.9399 14.5C23.0679 14.5 22.3679 14.284 21.8399 13.852C21.3119 13.42 20.9959 12.848 20.8919 12.136H22.2239C22.3119 12.512 22.5079 12.812 22.8119 13.036C23.1159 13.252 23.4959 13.36 23.9519 13.36C24.5199 13.36 24.9439 13.188 25.2239 12.844C25.5119 12.5 25.6559 12.044 25.6559 11.476C25.6559 10.9 25.5119 10.46 25.2239 10.156C24.9359 9.844 24.5119 9.688 23.9519 9.688C23.5599 9.688 23.2279 9.788 22.9559 9.988C22.6919 10.18 22.4999 10.444 22.3799 10.78H21.0839V5.728H26.3639V6.928ZM34.028 6.928H30.008V9.316C30.176 9.092 30.424 8.904 30.752 8.752C31.088 8.6 31.444 8.524 31.82 8.524C32.492 8.524 33.036 8.668 33.452 8.956C33.876 9.244 34.176 9.608 34.352 10.048C34.536 10.488 34.628 10.952 34.628 11.44C34.628 12.032 34.512 12.56 34.28 13.024C34.056 13.48 33.716 13.84 33.26 14.104C32.812 14.368 32.26 14.5 31.604 14.5C30.732 14.5 30.032 14.284 29.504 13.852C28.976 13.42 28.66 12.848 28.556 12.136H29.888C29.976 12.512 30.172 12.812 30.476 13.036C30.78 13.252 31.16 13.36 31.616 13.36C32.184 13.36 32.608 13.188 32.888 12.844C33.176 12.5 33.32 12.044 33.32 11.476C33.32 10.9 33.176 10.46 32.888 10.156C32.6 9.844 32.176 9.688 31.616 9.688C31.224 9.688 30.892 9.788 30.62 9.988C30.356 10.18 30.164 10.444 30.044 10.78H28.748V5.728H34.028V6.928ZM37.732 12.856L36.28 16.168H35.392L36.244 12.856H37.732ZM38.7473 10.012C38.7473 8.628 38.9793 7.548 39.4433 6.772C39.9153 5.988 40.7233 5.596 41.8673 5.596C43.0113 5.596 43.8153 5.988 44.2793 6.772C44.7513 7.548 44.9873 8.628 44.9873 10.012C44.9873 11.412 44.7513 12.508 44.2793 13.3C43.8153 14.084 43.0113 14.476 41.8673 14.476C40.7233 14.476 39.9153 14.084 39.4433 13.3C38.9793 12.508 38.7473 11.412 38.7473 10.012ZM43.6433 10.012C43.6433 9.364 43.5993 8.816 43.5113 8.368C43.4313 7.92 43.2633 7.556 43.0073 7.276C42.7513 6.988 42.3713 6.844 41.8673 6.844C41.3633 6.844 40.9833 6.988 40.7273 7.276C40.4713 7.556 40.2993 7.92 40.2113 8.368C40.1313 8.816 40.0913 9.364 40.0913 10.012C40.0913 10.684 40.1313 11.248 40.2113 11.704C40.2913 12.16 40.4593 12.528 40.7153 12.808C40.9793 13.088 41.3633 13.228 41.8673 13.228C42.3713 13.228 42.7513 13.088 43.0073 12.808C43.2713 12.528 43.4433 12.16 43.5233 11.704C43.6033 11.248 43.6433 10.684 43.6433 10.012ZM46.4348 10.012C46.4348 8.628 46.6668 7.548 47.1308 6.772C47.6028 5.988 48.4108 5.596 49.5548 5.596C50.6988 5.596 51.5028 5.988 51.9668 6.772C52.4388 7.548 52.6748 8.628 52.6748 10.012C52.6748 11.412 52.4388 12.508 51.9668 13.3C51.5028 14.084 50.6988 14.476 49.5548 14.476C48.4108 14.476 47.6028 14.084 47.1308 13.3C46.6668 12.508 46.4348 11.412 46.4348 10.012ZM51.3308 10.012C51.3308 9.364 51.2868 8.816 51.1988 8.368C51.1188 7.92 50.9508 7.556 50.6948 7.276C50.4388 6.988 50.0588 6.844 49.5548 6.844C49.0508 6.844 48.6708 6.988 48.4148 7.276C48.1588 7.556 47.9868 7.92 47.8988 8.368C47.8188 8.816 47.7788 9.364 47.7788 10.012C47.7788 10.684 47.8188 11.248 47.8988 11.704C47.9788 12.16 48.1468 12.528 48.4028 12.808C48.6668 13.088 49.0508 13.228 49.5548 13.228C50.0588 13.228 50.4388 13.088 50.6948 12.808C50.9588 12.528 51.1308 12.16 51.2108 11.704C51.2908 11.248 51.3308 10.684 51.3308 10.012ZM54.1223 10.012C54.1223 8.628 54.3543 7.548 54.8183 6.772C55.2903 5.988 56.0983 5.596 57.2423 5.596C58.3863 5.596 59.1903 5.988 59.6543 6.772C60.1263 7.548 60.3623 8.628 60.3623 10.012C60.3623 11.412 60.1263 12.508 59.6543 13.3C59.1903 14.084 58.3863 14.476 57.2423 14.476C56.0983 14.476 55.2903 14.084 54.8183 13.3C54.3543 12.508 54.1223 11.412 54.1223 10.012ZM59.0183 10.012C59.0183 9.364 58.9743 8.816 58.8863 8.368C58.8063 7.92 58.6383 7.556 58.3823 7.276C58.1263 6.988 57.7463 6.844 57.2423 6.844C56.7383 6.844 56.3583 6.988 56.1023 7.276C55.8463 7.556 55.6743 7.92 55.5863 8.368C55.5063 8.816 55.4663 9.364 55.4663 10.012C55.4663 10.684 55.5063 11.248 55.5863 11.704C55.6663 12.16 55.8343 12.528 56.0903 12.808C56.3543 13.088 56.7383 13.228 57.2423 13.228C57.7463 13.228 58.1263 13.088 58.3823 12.808C58.6463 12.528 58.8183 12.16 58.8983 11.704C58.9783 11.248 59.0183 10.684 59.0183 10.012Z" fill="#A7A8AB"/>
<path d="M0 10.54H61.0943V11.14H0V10.54Z" fill="#A7A8AB"/>
<path d="M264.006 15L261.85 11.192H260.926V15H258.966V5.228H262.634C263.39 5.228 264.034 5.36333 264.566 5.634C265.098 5.89533 265.495 6.25467 265.756 6.712C266.027 7.16 266.162 7.664 266.162 8.224C266.162 8.868 265.975 9.45133 265.602 9.974C265.229 10.4873 264.673 10.842 263.936 11.038L266.274 15H264.006ZM260.926 9.722H262.564C263.096 9.722 263.493 9.596 263.754 9.344C264.015 9.08267 264.146 8.72333 264.146 8.266C264.146 7.818 264.015 7.47267 263.754 7.23C263.493 6.978 263.096 6.852 262.564 6.852H260.926V9.722ZM270.903 15.126C270.268 15.126 269.699 15.014 269.195 14.79C268.691 14.5567 268.289 14.244 267.991 13.852C267.701 13.46 267.543 13.026 267.515 12.55H269.489C269.526 12.8487 269.671 13.096 269.923 13.292C270.184 13.488 270.506 13.586 270.889 13.586C271.262 13.586 271.551 13.5113 271.757 13.362C271.971 13.2127 272.079 13.0213 272.079 12.788C272.079 12.536 271.948 12.3493 271.687 12.228C271.435 12.0973 271.029 11.9573 270.469 11.808C269.89 11.668 269.414 11.5233 269.041 11.374C268.677 11.2247 268.359 10.996 268.089 10.688C267.827 10.38 267.697 9.96467 267.697 9.442C267.697 9.01267 267.818 8.62067 268.061 8.266C268.313 7.91133 268.667 7.63133 269.125 7.426C269.591 7.22067 270.137 7.118 270.763 7.118C271.687 7.118 272.424 7.35133 272.975 7.818C273.525 8.27533 273.829 8.896 273.885 9.68H272.009C271.981 9.372 271.85 9.12933 271.617 8.952C271.393 8.76533 271.089 8.672 270.707 8.672C270.352 8.672 270.077 8.73733 269.881 8.868C269.694 8.99867 269.601 9.18067 269.601 9.414C269.601 9.67533 269.731 9.876 269.993 10.016C270.254 10.1467 270.66 10.282 271.211 10.422C271.771 10.562 272.233 10.7067 272.597 10.856C272.961 11.0053 273.273 11.2387 273.535 11.556C273.805 11.864 273.945 12.2747 273.955 12.788C273.955 13.236 273.829 13.6373 273.577 13.992C273.334 14.3467 272.979 14.6267 272.513 14.832C272.055 15.028 271.519 15.126 270.903 15.126ZM276.432 15.098C276.077 15.098 275.783 14.9907 275.55 14.776C275.326 14.552 275.214 14.2767 275.214 13.95C275.214 13.6233 275.326 13.3527 275.55 13.138C275.783 12.914 276.077 12.802 276.432 12.802C276.777 12.802 277.062 12.914 277.286 13.138C277.51 13.3527 277.622 13.6233 277.622 13.95C277.622 14.2767 277.51 14.552 277.286 14.776C277.062 14.9907 276.777 15.098 276.432 15.098ZM282.228 13.012V11.472L286.806 4.92H289.088V11.304H290.32V13.012H289.088V15H287.128V13.012H282.228ZM287.254 7.02L284.384 11.304H287.254V7.02ZM291.568 9.764C291.568 8.14933 291.858 6.88467 292.436 5.97C293.024 5.05533 293.995 4.598 295.348 4.598C296.702 4.598 297.668 5.05533 298.246 5.97C298.834 6.88467 299.128 8.14933 299.128 9.764C299.128 11.388 298.834 12.662 298.246 13.586C297.668 14.51 296.702 14.972 295.348 14.972C293.995 14.972 293.024 14.51 292.436 13.586C291.858 12.662 291.568 11.388 291.568 9.764ZM297.196 9.764C297.196 9.07333 297.15 8.49467 297.056 8.028C296.972 7.552 296.795 7.16467 296.524 6.866C296.263 6.56733 295.871 6.418 295.348 6.418C294.826 6.418 294.429 6.56733 294.158 6.866C293.897 7.16467 293.72 7.552 293.626 8.028C293.542 8.49467 293.5 9.07333 293.5 9.764C293.5 10.4733 293.542 11.0707 293.626 11.556C293.71 12.032 293.888 12.4193 294.158 12.718C294.429 13.0073 294.826 13.152 295.348 13.152C295.871 13.152 296.268 13.0073 296.538 12.718C296.809 12.4193 296.986 12.032 297.07 11.556C297.154 11.0707 297.196 10.4733 297.196 9.764ZM302.985 12.942L301.347 16.876H300.087L300.997 12.942H302.985ZM304.174 9.764C304.174 8.14933 304.463 6.88467 305.042 5.97C305.63 5.05533 306.6 4.598 307.954 4.598C309.307 4.598 310.273 5.05533 310.852 5.97C311.44 6.88467 311.734 8.14933 311.734 9.764C311.734 11.388 311.44 12.662 310.852 13.586C310.273 14.51 309.307 14.972 307.954 14.972C306.6 14.972 305.63 14.51 305.042 13.586C304.463 12.662 304.174 11.388 304.174 9.764ZM309.802 9.764C309.802 9.07333 309.755 8.49467 309.662 8.028C309.578 7.552 309.4 7.16467 309.13 6.866C308.868 6.56733 308.476 6.418 307.954 6.418C307.431 6.418 307.034 6.56733 306.764 6.866C306.502 7.16467 306.325 7.552 306.232 8.028C306.148 8.49467 306.106 9.07333 306.106 9.764C306.106 10.4733 306.148 11.0707 306.232 11.556C306.316 12.032 306.493 12.4193 306.764 12.718C307.034 13.0073 307.431 13.152 307.954 13.152C308.476 13.152 308.873 13.0073 309.144 12.718C309.414 12.4193 309.592 12.032 309.676 11.556C309.76 11.0707 309.802 10.4733 309.802 9.764ZM313.224 9.764C313.224 8.14933 313.514 6.88467 314.092 5.97C314.68 5.05533 315.651 4.598 317.004 4.598C318.358 4.598 319.324 5.05533 319.902 5.97C320.49 6.88467 320.784 8.14933 320.784 9.764C320.784 11.388 320.49 12.662 319.902 13.586C319.324 14.51 318.358 14.972 317.004 14.972C315.651 14.972 314.68 14.51 314.092 13.586C313.514 12.662 313.224 11.388 313.224 9.764ZM318.852 9.764C318.852 9.07333 318.806 8.49467 318.712 8.028C318.628 7.552 318.451 7.16467 318.18 6.866C317.919 6.56733 317.527 6.418 317.004 6.418C316.482 6.418 316.085 6.56733 315.814 6.866C315.553 7.16467 315.376 7.552 315.282 8.028C315.198 8.49467 315.156 9.07333 315.156 9.764C315.156 10.4733 315.198 11.0707 315.282 11.556C315.366 12.032 315.544 12.4193 315.814 12.718C316.085 13.0073 316.482 13.152 317.004 13.152C317.527 13.152 317.924 13.0073 318.194 12.718C318.465 12.4193 318.642 12.032 318.726 11.556C318.81 11.0707 318.852 10.4733 318.852 9.764ZM322.275 9.764C322.275 8.14933 322.565 6.88467 323.143 5.97C323.731 5.05533 324.702 4.598 326.055 4.598C327.409 4.598 328.375 5.05533 328.953 5.97C329.541 6.88467 329.835 8.14933 329.835 9.764C329.835 11.388 329.541 12.662 328.953 13.586C328.375 14.51 327.409 14.972 326.055 14.972C324.702 14.972 323.731 14.51 323.143 13.586C322.565 12.662 322.275 11.388 322.275 9.764ZM327.903 9.764C327.903 9.07333 327.857 8.49467 327.763 8.028C327.679 7.552 327.502 7.16467 327.231 6.866C326.97 6.56733 326.578 6.418 326.055 6.418C325.533 6.418 325.136 6.56733 324.865 6.866C324.604 7.16467 324.427 7.552 324.333 8.028C324.249 8.49467 324.207 9.07333 324.207 9.764C324.207 10.4733 324.249 11.0707 324.333 11.556C324.417 12.032 324.595 12.4193 324.865 12.718C325.136 13.0073 325.533 13.152 326.055 13.152C326.578 13.152 326.975 13.0073 327.245 12.718C327.516 12.4193 327.693 12.032 327.777 11.556C327.861 11.0707 327.903 10.4733 327.903 9.764Z" fill="#FF9D21"/>
</svg>
