<svg width="332" height="38" viewBox="0 0 332 38" fill="none" xmlns="http://www.w3.org/2000/svg">
<rect x="0.5" width="331" height="38" rx="5" fill="#56E20A"/>
<path d="M127.166 10.6667H128.616C129.516 10.6667 130.224 11.4417 130.149 12.3334L129.458 20.6333C129.341 21.9917 130.416 23.1583 131.783 23.1583H140.658C141.858 23.1583 142.908 22.175 142.999 20.9834L143.449 14.7334C143.549 13.35 142.499 12.225 141.108 12.225H130.349" stroke="white" stroke-width="1.5" stroke-miterlimit="10" stroke-linecap="round" stroke-linejoin="round"/>
<path d="M139.042 27.3333C139.617 27.3333 140.083 26.867 140.083 26.2917C140.083 25.7164 139.617 25.25 139.042 25.25C138.466 25.25 138 25.7164 138 26.2917C138 26.867 138.466 27.3333 139.042 27.3333Z" stroke="white" stroke-width="1.5" stroke-miterlimit="10" stroke-linecap="round" stroke-linejoin="round"/>
<path d="M132.376 27.3333C132.951 27.3333 133.417 26.867 133.417 26.2917C133.417 25.7164 132.951 25.25 132.376 25.25C131.8 25.25 131.334 25.7164 131.334 26.2917C131.334 26.867 131.8 27.3333 132.376 27.3333Z" stroke="white" stroke-width="1.5" stroke-miterlimit="10" stroke-linecap="round" stroke-linejoin="round"/>
<path d="M133 15.6667H143" stroke="white" stroke-width="1.5" stroke-miterlimit="10" stroke-linecap="round" stroke-linejoin="round"/>
<path d="M156.28 14.636L153.556 19.844V23H152.464V19.844L149.728 14.636H150.94L153.004 18.872L155.068 14.636H156.28ZM160.3 23.108C159.684 23.108 159.124 22.968 158.62 22.688C158.124 22.408 157.732 22.012 157.444 21.5C157.164 20.98 157.024 20.38 157.024 19.7C157.024 19.028 157.168 18.436 157.456 17.924C157.752 17.404 158.152 17.008 158.656 16.736C159.16 16.456 159.724 16.316 160.348 16.316C160.972 16.316 161.536 16.456 162.04 16.736C162.544 17.008 162.94 17.4 163.228 17.912C163.524 18.424 163.672 19.02 163.672 19.7C163.672 20.38 163.52 20.98 163.216 21.5C162.92 22.012 162.516 22.408 162.004 22.688C161.492 22.968 160.924 23.108 160.3 23.108ZM160.3 22.148C160.692 22.148 161.06 22.056 161.404 21.872C161.748 21.688 162.024 21.412 162.232 21.044C162.448 20.676 162.556 20.228 162.556 19.7C162.556 19.172 162.452 18.724 162.244 18.356C162.036 17.988 161.764 17.716 161.428 17.54C161.092 17.356 160.728 17.264 160.336 17.264C159.936 17.264 159.568 17.356 159.232 17.54C158.904 17.716 158.64 17.988 158.44 18.356C158.24 18.724 158.14 19.172 158.14 19.7C158.14 20.236 158.236 20.688 158.428 21.056C158.628 21.424 158.892 21.7 159.22 21.884C159.548 22.06 159.908 22.148 160.3 22.148ZM170.94 16.424V23H169.848V22.028C169.64 22.364 169.348 22.628 168.972 22.82C168.604 23.004 168.196 23.096 167.748 23.096C167.236 23.096 166.776 22.992 166.368 22.784C165.96 22.568 165.636 22.248 165.396 21.824C165.164 21.4 165.048 20.884 165.048 20.276V16.424H166.128V20.132C166.128 20.78 166.292 21.28 166.62 21.632C166.948 21.976 167.396 22.148 167.964 22.148C168.548 22.148 169.008 21.968 169.344 21.608C169.68 21.248 169.848 20.724 169.848 20.036V16.424H170.94ZM173.875 17.492C174.067 17.116 174.339 16.824 174.691 16.616C175.051 16.408 175.487 16.304 175.999 16.304V17.432H175.711C174.487 17.432 173.875 18.096 173.875 19.424V23H172.783V16.424H173.875V17.492ZM180.051 18.812C180.051 17.996 180.235 17.264 180.603 16.616C180.971 15.96 181.471 15.448 182.103 15.08C182.743 14.712 183.451 14.528 184.227 14.528C185.139 14.528 185.935 14.748 186.615 15.188C187.295 15.628 187.791 16.252 188.103 17.06H186.795C186.563 16.556 186.227 16.168 185.787 15.896C185.355 15.624 184.835 15.488 184.227 15.488C183.643 15.488 183.119 15.624 182.655 15.896C182.191 16.168 181.827 16.556 181.563 17.06C181.299 17.556 181.167 18.14 181.167 18.812C181.167 19.476 181.299 20.06 181.563 20.564C181.827 21.06 182.191 21.444 182.655 21.716C183.119 21.988 183.643 22.124 184.227 22.124C184.835 22.124 185.355 21.992 185.787 21.728C186.227 21.456 186.563 21.068 186.795 20.564H188.103C187.791 21.364 187.295 21.984 186.615 22.424C185.935 22.856 185.139 23.072 184.227 23.072C183.451 23.072 182.743 22.892 182.103 22.532C181.471 22.164 180.971 21.656 180.603 21.008C180.235 20.36 180.051 19.628 180.051 18.812ZM189.321 19.688C189.321 19.016 189.457 18.428 189.729 17.924C190.001 17.412 190.373 17.016 190.845 16.736C191.325 16.456 191.857 16.316 192.441 16.316C193.017 16.316 193.517 16.44 193.941 16.688C194.365 16.936 194.681 17.248 194.889 17.624V16.424H195.993V23H194.889V21.776C194.673 22.16 194.349 22.48 193.917 22.736C193.493 22.984 192.997 23.108 192.429 23.108C191.845 23.108 191.317 22.964 190.845 22.676C190.373 22.388 190.001 21.984 189.729 21.464C189.457 20.944 189.321 20.352 189.321 19.688ZM194.889 19.7C194.889 19.204 194.789 18.772 194.589 18.404C194.389 18.036 194.117 17.756 193.773 17.564C193.437 17.364 193.065 17.264 192.657 17.264C192.249 17.264 191.877 17.36 191.541 17.552C191.205 17.744 190.937 18.024 190.737 18.392C190.537 18.76 190.437 19.192 190.437 19.688C190.437 20.192 190.537 20.632 190.737 21.008C190.937 21.376 191.205 21.66 191.541 21.86C191.877 22.052 192.249 22.148 192.657 22.148C193.065 22.148 193.437 22.052 193.773 21.86C194.117 21.66 194.389 21.376 194.589 21.008C194.789 20.632 194.889 20.196 194.889 19.7ZM198.93 17.492C199.122 17.116 199.394 16.824 199.746 16.616C200.106 16.408 200.542 16.304 201.054 16.304V17.432H200.766C199.542 17.432 198.93 18.096 198.93 19.424V23H197.838V16.424H198.93V17.492ZM203.647 17.324V21.2C203.647 21.52 203.715 21.748 203.851 21.884C203.987 22.012 204.223 22.076 204.559 22.076H205.363V23H204.379C203.771 23 203.315 22.86 203.011 22.58C202.707 22.3 202.555 21.84 202.555 21.2V17.324H201.703V16.424H202.555V14.768H203.647V16.424H205.363V17.324H203.647Z" fill="white"/>
</svg>
