<svg width="331" height="41" viewBox="0 0 331 41" fill="none" xmlns="http://www.w3.org/2000/svg">
<path d="M7.854 8.168C7.854 8.66267 7.73733 9.12933 7.504 9.568C7.27067 10.0067 6.89733 10.366 6.384 10.646C5.87067 10.9167 5.21267 11.052 4.41 11.052H2.646V15H1.05V5.27H4.41C5.15667 5.27 5.78667 5.40067 6.3 5.662C6.82267 5.914 7.21 6.25933 7.462 6.698C7.72333 7.13667 7.854 7.62667 7.854 8.168ZM4.41 9.75C5.01667 9.75 5.46933 9.61467 5.768 9.344C6.06667 9.064 6.216 8.672 6.216 8.168C6.216 7.104 5.614 6.572 4.41 6.572H2.646V9.75H4.41ZM10.9722 8.406C11.2055 8.014 11.5135 7.71067 11.8962 7.496C12.2882 7.272 12.7502 7.16 13.2822 7.16V8.812H12.8762C12.2508 8.812 11.7748 8.97067 11.4482 9.288C11.1308 9.60533 10.9722 10.156 10.9722 10.94V15H9.37617V7.286H10.9722V8.406ZM18.0952 15.126C17.3672 15.126 16.7092 14.9627 16.1212 14.636C15.5332 14.3 15.0712 13.8333 14.7352 13.236C14.3992 12.6293 14.2312 11.9293 14.2312 11.136C14.2312 10.352 14.4039 9.65667 14.7492 9.05C15.0946 8.44333 15.5659 7.97667 16.1632 7.65C16.7606 7.32333 17.4279 7.16 18.1652 7.16C18.9026 7.16 19.5699 7.32333 20.1672 7.65C20.7646 7.97667 21.2359 8.44333 21.5812 9.05C21.9266 9.65667 22.0992 10.352 22.0992 11.136C22.0992 11.92 21.9219 12.6153 21.5672 13.222C21.2126 13.8287 20.7272 14.3 20.1112 14.636C19.5046 14.9627 18.8326 15.126 18.0952 15.126ZM18.0952 13.74C18.5059 13.74 18.8886 13.642 19.2432 13.446C19.6072 13.25 19.9012 12.956 20.1252 12.564C20.3492 12.172 20.4612 11.696 20.4612 11.136C20.4612 10.576 20.3539 10.1047 20.1392 9.722C19.9246 9.33 19.6399 9.036 19.2852 8.84C18.9306 8.644 18.5479 8.546 18.1372 8.546C17.7266 8.546 17.3439 8.644 16.9892 8.84C16.6439 9.036 16.3686 9.33 16.1632 9.722C15.9579 10.1047 15.8552 10.576 15.8552 11.136C15.8552 11.9667 16.0652 12.6107 16.4852 13.068C16.9146 13.516 17.4512 13.74 18.0952 13.74ZM23.145 11.108C23.145 10.3333 23.3036 9.64733 23.621 9.05C23.9476 8.45267 24.3863 7.99067 24.937 7.664C25.497 7.328 26.1176 7.16 26.799 7.16C27.303 7.16 27.7976 7.272 28.283 7.496C28.7776 7.71067 29.1696 8 29.459 8.364V4.64H31.069V15H29.459V13.838C29.1976 14.2113 28.8336 14.5193 28.367 14.762C27.9096 15.0047 27.3823 15.126 26.785 15.126C26.113 15.126 25.497 14.958 24.937 14.622C24.3863 14.2767 23.9476 13.8007 23.621 13.194C23.3036 12.578 23.145 11.8827 23.145 11.108ZM29.459 11.136C29.459 10.604 29.347 10.142 29.123 9.75C28.9083 9.358 28.6236 9.05933 28.269 8.854C27.9143 8.64867 27.5316 8.546 27.121 8.546C26.7103 8.546 26.3276 8.64867 25.973 8.854C25.6183 9.05 25.329 9.344 25.105 9.736C24.8903 10.1187 24.783 10.576 24.783 11.108C24.783 11.64 24.8903 12.1067 25.105 12.508C25.329 12.9093 25.6183 13.2173 25.973 13.432C26.337 13.6373 26.7196 13.74 27.121 13.74C27.5316 13.74 27.9143 13.6373 28.269 13.432C28.6236 13.2267 28.9083 12.928 29.123 12.536C29.347 12.1347 29.459 11.668 29.459 11.136ZM40.1512 7.286V15H38.5552V14.09C38.3032 14.4073 37.9719 14.6593 37.5612 14.846C37.1599 15.0233 36.7306 15.112 36.2732 15.112C35.6666 15.112 35.1206 14.986 34.6352 14.734C34.1592 14.482 33.7812 14.1087 33.5012 13.614C33.2306 13.1193 33.0952 12.522 33.0952 11.822V7.286H34.6772V11.584C34.6772 12.2747 34.8499 12.8067 35.1952 13.18C35.5406 13.544 36.0119 13.726 36.6092 13.726C37.2066 13.726 37.6779 13.544 38.0232 13.18C38.3779 12.8067 38.5552 12.2747 38.5552 11.584V7.286H40.1512ZM41.725 11.136C41.725 10.3427 41.8837 9.64733 42.201 9.05C42.5277 8.44333 42.9757 7.97667 43.545 7.65C44.1144 7.32333 44.7677 7.16 45.505 7.16C46.4384 7.16 47.2084 7.384 47.815 7.832C48.431 8.27067 48.8464 8.90067 49.061 9.722H47.339C47.199 9.33933 46.975 9.04067 46.667 8.826C46.359 8.61133 45.9717 8.504 45.505 8.504C44.8517 8.504 44.329 8.73733 43.937 9.204C43.5544 9.66133 43.363 10.3053 43.363 11.136C43.363 11.9667 43.5544 12.6153 43.937 13.082C44.329 13.5487 44.8517 13.782 45.505 13.782C46.429 13.782 47.0404 13.376 47.339 12.564H49.061C48.837 13.348 48.417 13.9733 47.801 14.44C47.185 14.8973 46.4197 15.126 45.505 15.126C44.7677 15.126 44.1144 14.9627 43.545 14.636C42.9757 14.3 42.5277 13.8333 42.201 13.236C41.8837 12.6293 41.725 11.9293 41.725 11.136ZM52.5136 8.588V12.858C52.5136 13.1473 52.5789 13.3573 52.7096 13.488C52.8496 13.6093 53.0829 13.67 53.4096 13.67H54.3896V15H53.1296C52.4109 15 51.8602 14.832 51.4776 14.496C51.0949 14.16 50.9036 13.614 50.9036 12.858V8.588H49.9936V7.286H50.9036V5.368H52.5136V7.286H54.3896V8.588H52.5136ZM67.4913 15H65.8953L61.0933 7.734V15H59.4973V5.256H61.0933L65.8953 12.508V5.256H67.4913V15ZM69.0551 11.108C69.0551 10.3333 69.2138 9.64733 69.5311 9.05C69.8578 8.45267 70.2964 7.99067 70.8471 7.664C71.4071 7.328 72.0231 7.16 72.6951 7.16C73.3018 7.16 73.8291 7.28133 74.2771 7.524C74.7344 7.75733 75.0984 8.05133 75.3691 8.406V7.286H76.9791V15H75.3691V13.852C75.0984 14.216 74.7298 14.5193 74.2631 14.762C73.7964 15.0047 73.2644 15.126 72.6671 15.126C72.0044 15.126 71.3978 14.958 70.8471 14.622C70.2964 14.2767 69.8578 13.8007 69.5311 13.194C69.2138 12.578 69.0551 11.8827 69.0551 11.108ZM75.3691 11.136C75.3691 10.604 75.2571 10.142 75.0331 9.75C74.8184 9.358 74.5338 9.05933 74.1791 8.854C73.8244 8.64867 73.4418 8.546 73.0311 8.546C72.6204 8.546 72.2378 8.64867 71.8831 8.854C71.5284 9.05 71.2391 9.344 71.0151 9.736C70.8004 10.1187 70.6931 10.576 70.6931 11.108C70.6931 11.64 70.8004 12.1067 71.0151 12.508C71.2391 12.9093 71.5284 13.2173 71.8831 13.432C72.2471 13.6373 72.6298 13.74 73.0311 13.74C73.4418 13.74 73.8244 13.6373 74.1791 13.432C74.5338 13.2267 74.8184 12.928 75.0331 12.536C75.2571 12.1347 75.3691 11.668 75.3691 11.136ZM88.4134 7.16C89.0201 7.16 89.5614 7.286 90.0374 7.538C90.5227 7.79 90.9007 8.16333 91.1714 8.658C91.4514 9.15267 91.5914 9.75 91.5914 10.45V15H90.0094V10.688C90.0094 9.99733 89.8367 9.47 89.4914 9.106C89.1461 8.73267 88.6747 8.546 88.0774 8.546C87.4801 8.546 87.0041 8.73267 86.6494 9.106C86.3041 9.47 86.1314 9.99733 86.1314 10.688V15H84.5494V10.688C84.5494 9.99733 84.3767 9.47 84.0314 9.106C83.6861 8.73267 83.2147 8.546 82.6174 8.546C82.0201 8.546 81.5441 8.73267 81.1894 9.106C80.8441 9.47 80.6714 9.99733 80.6714 10.688V15H79.0754V7.286H80.6714V8.168C80.9327 7.85067 81.2641 7.60333 81.6654 7.426C82.0667 7.24867 82.4961 7.16 82.9534 7.16C83.5694 7.16 84.1201 7.29067 84.6054 7.552C85.0907 7.81333 85.4641 8.19133 85.7254 8.686C85.9587 8.21933 86.3227 7.85067 86.8174 7.58C87.3121 7.3 87.8441 7.16 88.4134 7.16ZM100.692 10.954C100.692 11.2433 100.674 11.5047 100.636 11.738H94.7423C94.7889 12.354 95.0176 12.8487 95.4283 13.222C95.8389 13.5953 96.3429 13.782 96.9403 13.782C97.7989 13.782 98.4056 13.4227 98.7603 12.704H100.482C100.249 13.4133 99.8243 13.9967 99.2083 14.454C98.6016 14.902 97.8456 15.126 96.9403 15.126C96.2029 15.126 95.5403 14.9627 94.9523 14.636C94.3736 14.3 93.9163 13.8333 93.5803 13.236C93.2536 12.6293 93.0903 11.9293 93.0903 11.136C93.0903 10.3427 93.2489 9.64733 93.5663 9.05C93.8929 8.44333 94.3456 7.97667 94.9243 7.65C95.5123 7.32333 96.1843 7.16 96.9403 7.16C97.6683 7.16 98.3169 7.31867 98.8863 7.636C99.4556 7.95333 99.8989 8.40133 100.216 8.98C100.534 9.54933 100.692 10.2073 100.692 10.954ZM99.0263 10.45C99.0169 9.862 98.8069 9.39067 98.3963 9.036C97.9856 8.68133 97.4769 8.504 96.8703 8.504C96.3196 8.504 95.8483 8.68133 95.4563 9.036C95.0643 9.38133 94.8309 9.85267 94.7563 10.45H99.0263Z" fill="black"/>
<path d="M2.016 30.648C2.24 30.256 2.568 29.936 3 29.688C3.432 29.44 3.924 29.316 4.476 29.316C5.068 29.316 5.6 29.456 6.072 29.736C6.544 30.016 6.916 30.412 7.188 30.924C7.46 31.428 7.596 32.016 7.596 32.688C7.596 33.352 7.46 33.944 7.188 34.464C6.916 34.984 6.54 35.388 6.06 35.676C5.588 35.964 5.06 36.108 4.476 36.108C3.908 36.108 3.408 35.984 2.976 35.736C2.552 35.488 2.232 35.172 2.016 34.788V36H0.924V27.12H2.016V30.648ZM6.48 32.688C6.48 32.192 6.38 31.76 6.18 31.392C5.98 31.024 5.708 30.744 5.364 30.552C5.028 30.36 4.656 30.264 4.248 30.264C3.848 30.264 3.476 30.364 3.132 30.564C2.796 30.756 2.524 31.04 2.316 31.416C2.116 31.784 2.016 32.212 2.016 32.7C2.016 33.196 2.116 33.632 2.316 34.008C2.524 34.376 2.796 34.66 3.132 34.86C3.476 35.052 3.848 35.148 4.248 35.148C4.656 35.148 5.028 35.052 5.364 34.86C5.708 34.66 5.98 34.376 6.18 34.008C6.38 33.632 6.48 33.192 6.48 32.688ZM14.6974 29.424L10.7374 39.096H9.60938L10.9054 35.928L8.25338 29.424H9.46538L11.5294 34.752L13.5694 29.424H14.6974Z" fill="black"/>
<path d="M20.576 36.084C20.024 36.084 19.528 35.988 19.088 35.796C18.656 35.596 18.316 35.324 18.068 34.98C17.82 34.628 17.692 34.224 17.684 33.768H18.848C18.888 34.16 19.048 34.492 19.328 34.764C19.616 35.028 20.032 35.16 20.576 35.16C21.096 35.16 21.504 35.032 21.8 34.776C22.104 34.512 22.256 34.176 22.256 33.768C22.256 33.448 22.168 33.188 21.992 32.988C21.816 32.788 21.596 32.636 21.332 32.532C21.068 32.428 20.712 32.316 20.264 32.196C19.712 32.052 19.268 31.908 18.932 31.764C18.604 31.62 18.32 31.396 18.08 31.092C17.848 30.78 17.732 30.364 17.732 29.844C17.732 29.388 17.848 28.984 18.08 28.632C18.312 28.28 18.636 28.008 19.052 27.816C19.476 27.624 19.96 27.528 20.504 27.528C21.288 27.528 21.928 27.724 22.424 28.116C22.928 28.508 23.212 29.028 23.276 29.676H22.076C22.036 29.356 21.868 29.076 21.572 28.836C21.276 28.588 20.884 28.464 20.396 28.464C19.94 28.464 19.568 28.584 19.28 28.824C18.992 29.056 18.848 29.384 18.848 29.808C18.848 30.112 18.932 30.36 19.1 30.552C19.276 30.744 19.488 30.892 19.736 30.996C19.992 31.092 20.348 31.204 20.804 31.332C21.356 31.484 21.8 31.636 22.136 31.788C22.472 31.932 22.76 32.16 23 32.472C23.24 32.776 23.36 33.192 23.36 33.72C23.36 34.128 23.252 34.512 23.036 34.872C22.82 35.232 22.5 35.524 22.076 35.748C21.652 35.972 21.152 36.084 20.576 36.084ZM30.799 29.424V36H29.707V35.028C29.499 35.364 29.207 35.628 28.831 35.82C28.463 36.004 28.055 36.096 27.607 36.096C27.095 36.096 26.635 35.992 26.227 35.784C25.819 35.568 25.495 35.248 25.255 34.824C25.023 34.4 24.907 33.884 24.907 33.276V29.424H25.987V33.132C25.987 33.78 26.151 34.28 26.479 34.632C26.807 34.976 27.255 35.148 27.823 35.148C28.407 35.148 28.867 34.968 29.203 34.608C29.539 34.248 29.707 33.724 29.707 33.036V29.424H30.799ZM33.7348 30.636C33.9508 30.26 34.2708 29.948 34.6948 29.7C35.1268 29.444 35.6268 29.316 36.1948 29.316C36.7788 29.316 37.3068 29.456 37.7787 29.736C38.2587 30.016 38.6348 30.412 38.9068 30.924C39.1788 31.428 39.3148 32.016 39.3148 32.688C39.3148 33.352 39.1788 33.944 38.9068 34.464C38.6348 34.984 38.2587 35.388 37.7787 35.676C37.3068 35.964 36.7788 36.108 36.1948 36.108C35.6348 36.108 35.1388 35.984 34.7068 35.736C34.2828 35.48 33.9588 35.164 33.7348 34.788V39.12H32.6428V29.424H33.7348V30.636ZM38.1988 32.688C38.1988 32.192 38.0988 31.76 37.8988 31.392C37.6988 31.024 37.4268 30.744 37.0828 30.552C36.7468 30.36 36.3748 30.264 35.9668 30.264C35.5668 30.264 35.1948 30.364 34.8508 30.564C34.5148 30.756 34.2428 31.04 34.0348 31.416C33.8348 31.784 33.7348 32.212 33.7348 32.7C33.7348 33.196 33.8348 33.632 34.0348 34.008C34.2428 34.376 34.5148 34.66 34.8508 34.86C35.1948 35.052 35.5668 35.148 35.9668 35.148C36.3748 35.148 36.7468 35.052 37.0828 34.86C37.4268 34.66 37.6988 34.376 37.8988 34.008C38.0988 33.632 38.1988 33.192 38.1988 32.688ZM41.8441 30.636C42.0601 30.26 42.3801 29.948 42.8041 29.7C43.2361 29.444 43.7361 29.316 44.3041 29.316C44.8881 29.316 45.4161 29.456 45.8881 29.736C46.3681 30.016 46.7441 30.412 47.0161 30.924C47.2881 31.428 47.4241 32.016 47.4241 32.688C47.4241 33.352 47.2881 33.944 47.0161 34.464C46.7441 34.984 46.3681 35.388 45.8881 35.676C45.4161 35.964 44.8881 36.108 44.3041 36.108C43.7441 36.108 43.2481 35.984 42.8161 35.736C42.3921 35.48 42.0681 35.164 41.8441 34.788V39.12H40.7521V29.424H41.8441V30.636ZM46.3081 32.688C46.3081 32.192 46.2081 31.76 46.0081 31.392C45.8081 31.024 45.5361 30.744 45.1921 30.552C44.8561 30.36 44.4841 30.264 44.0761 30.264C43.6761 30.264 43.3041 30.364 42.9601 30.564C42.6241 30.756 42.3521 31.04 42.1441 31.416C41.9441 31.784 41.8441 32.212 41.8441 32.7C41.8441 33.196 41.9441 33.632 42.1441 34.008C42.3521 34.376 42.6241 34.66 42.9601 34.86C43.3041 35.052 43.6761 35.148 44.0761 35.148C44.4841 35.148 44.8561 35.052 45.1921 34.86C45.5361 34.66 45.8081 34.376 46.0081 34.008C46.2081 33.632 46.3081 33.192 46.3081 32.688ZM49.9535 27.12V36H48.8615V27.12H49.9535ZM52.3786 28.356C52.1706 28.356 51.9946 28.284 51.8506 28.14C51.7066 27.996 51.6346 27.82 51.6346 27.612C51.6346 27.404 51.7066 27.228 51.8506 27.084C51.9946 26.94 52.1706 26.868 52.3786 26.868C52.5786 26.868 52.7466 26.94 52.8826 27.084C53.0266 27.228 53.0986 27.404 53.0986 27.612C53.0986 27.82 53.0266 27.996 52.8826 28.14C52.7466 28.284 52.5786 28.356 52.3786 28.356ZM52.9066 29.424V36H51.8146V29.424H52.9066ZM60.7678 32.46C60.7678 32.668 60.7558 32.888 60.7318 33.12H55.4758C55.5158 33.768 55.7358 34.276 56.1358 34.644C56.5438 35.004 57.0358 35.184 57.6118 35.184C58.0838 35.184 58.4758 35.076 58.7878 34.86C59.1078 34.636 59.3318 34.34 59.4598 33.972H60.6358C60.4598 34.604 60.1078 35.12 59.5798 35.52C59.0518 35.912 58.3958 36.108 57.6118 36.108C56.9878 36.108 56.4278 35.968 55.9318 35.688C55.4438 35.408 55.0598 35.012 54.7798 34.5C54.4998 33.98 54.3598 33.38 54.3598 32.7C54.3598 32.02 54.4958 31.424 54.7678 30.912C55.0398 30.4 55.4198 30.008 55.9078 29.736C56.4038 29.456 56.9718 29.316 57.6118 29.316C58.2358 29.316 58.7878 29.452 59.2678 29.724C59.7478 29.996 60.1158 30.372 60.3718 30.852C60.6358 31.324 60.7678 31.86 60.7678 32.46ZM59.6398 32.232C59.6398 31.816 59.5478 31.46 59.3638 31.164C59.1798 30.86 58.9278 30.632 58.6078 30.48C58.2958 30.32 57.9478 30.24 57.5638 30.24C57.0118 30.24 56.5398 30.416 56.1478 30.768C55.7638 31.12 55.5438 31.608 55.4878 32.232H59.6398ZM63.3012 30.492C63.4932 30.116 63.7652 29.824 64.1172 29.616C64.4772 29.408 64.9132 29.304 65.4252 29.304V30.432H65.1372C63.9132 30.432 63.3012 31.096 63.3012 32.424V36H62.2092V29.424H63.3012V30.492ZM76.4609 36H75.3689L70.9769 29.34V36H69.8849V27.624H70.9769L75.3689 34.272V27.624H76.4609V36ZM77.9144 32.688C77.9144 32.016 78.0504 31.428 78.3224 30.924C78.5944 30.412 78.9664 30.016 79.4384 29.736C79.9184 29.456 80.4504 29.316 81.0344 29.316C81.6104 29.316 82.1104 29.44 82.5344 29.688C82.9584 29.936 83.2744 30.248 83.4824 30.624V29.424H84.5864V36H83.4824V34.776C83.2664 35.16 82.9424 35.48 82.5104 35.736C82.0864 35.984 81.5904 36.108 81.0224 36.108C80.4384 36.108 79.9104 35.964 79.4384 35.676C78.9664 35.388 78.5944 34.984 78.3224 34.464C78.0504 33.944 77.9144 33.352 77.9144 32.688ZM83.4824 32.7C83.4824 32.204 83.3824 31.772 83.1824 31.404C82.9824 31.036 82.7104 30.756 82.3664 30.564C82.0304 30.364 81.6584 30.264 81.2504 30.264C80.8424 30.264 80.4704 30.36 80.1344 30.552C79.7984 30.744 79.5304 31.024 79.3304 31.392C79.1304 31.76 79.0304 32.192 79.0304 32.688C79.0304 33.192 79.1304 33.632 79.3304 34.008C79.5304 34.376 79.7984 34.66 80.1344 34.86C80.4704 35.052 80.8424 35.148 81.2504 35.148C81.6584 35.148 82.0304 35.052 82.3664 34.86C82.7104 34.66 82.9824 34.376 83.1824 34.008C83.3824 33.632 83.4824 33.196 83.4824 32.7ZM94.3398 29.304C94.8518 29.304 95.3078 29.412 95.7078 29.628C96.1078 29.836 96.4238 30.152 96.6558 30.576C96.8878 31 97.0038 31.516 97.0038 32.124V36H95.9238V32.28C95.9238 31.624 95.7598 31.124 95.4318 30.78C95.1118 30.428 94.6758 30.252 94.1238 30.252C93.5558 30.252 93.1038 30.436 92.7678 30.804C92.4318 31.164 92.2638 31.688 92.2638 32.376V36H91.1838V32.28C91.1838 31.624 91.0198 31.124 90.6918 30.78C90.3718 30.428 89.9358 30.252 89.3838 30.252C88.8158 30.252 88.3638 30.436 88.0278 30.804C87.6918 31.164 87.5238 31.688 87.5238 32.376V36H86.4318V29.424H87.5238V30.372C87.7398 30.028 88.0278 29.764 88.3878 29.58C88.7558 29.396 89.1598 29.304 89.5998 29.304C90.1518 29.304 90.6398 29.428 91.0638 29.676C91.4878 29.924 91.8038 30.288 92.0118 30.768C92.1958 30.304 92.4998 29.944 92.9238 29.688C93.3478 29.432 93.8198 29.304 94.3398 29.304ZM104.795 32.46C104.795 32.668 104.783 32.888 104.759 33.12H99.5031C99.5431 33.768 99.7631 34.276 100.163 34.644C100.571 35.004 101.063 35.184 101.639 35.184C102.111 35.184 102.503 35.076 102.815 34.86C103.135 34.636 103.359 34.34 103.487 33.972H104.663C104.487 34.604 104.135 35.12 103.607 35.52C103.079 35.912 102.423 36.108 101.639 36.108C101.015 36.108 100.455 35.968 99.9591 35.688C99.4711 35.408 99.0871 35.012 98.8071 34.5C98.5271 33.98 98.3871 33.38 98.3871 32.7C98.3871 32.02 98.5231 31.424 98.7951 30.912C99.0671 30.4 99.4471 30.008 99.9351 29.736C100.431 29.456 100.999 29.316 101.639 29.316C102.263 29.316 102.815 29.452 103.295 29.724C103.775 29.996 104.143 30.372 104.399 30.852C104.663 31.324 104.795 31.86 104.795 32.46ZM103.667 32.232C103.667 31.816 103.575 31.46 103.391 31.164C103.207 30.86 102.955 30.632 102.635 30.48C102.323 30.32 101.975 30.24 101.591 30.24C101.039 30.24 100.567 30.416 100.175 30.768C99.7911 31.12 99.5711 31.608 99.5151 32.232H103.667Z" fill="#A7A8AB"/>
</svg>
