<svg width="269" height="36" viewBox="0 0 269 36" fill="none" xmlns="http://www.w3.org/2000/svg">
<path d="M15.12 9.32V26H12.384V18.704H4.536V26H1.8V9.32H4.536V16.472H12.384V9.32H15.12ZM18.5299 19.328C18.5299 18 18.8019 16.824 19.3459 15.8C19.9059 14.776 20.6579 13.984 21.6019 13.424C22.5619 12.848 23.6179 12.56 24.7699 12.56C25.8099 12.56 26.7139 12.768 27.4819 13.184C28.2659 13.584 28.8899 14.088 29.3539 14.696V12.776H32.1139V26H29.3539V24.032C28.8899 24.656 28.2579 25.176 27.4579 25.592C26.6579 26.008 25.7459 26.216 24.7219 26.216C23.5859 26.216 22.5459 25.928 21.6019 25.352C20.6579 24.76 19.9059 23.944 19.3459 22.904C18.8019 21.848 18.5299 20.656 18.5299 19.328ZM29.3539 19.376C29.3539 18.464 29.1619 17.672 28.7779 17C28.4099 16.328 27.9219 15.816 27.3139 15.464C26.7059 15.112 26.0499 14.936 25.3459 14.936C24.6419 14.936 23.9859 15.112 23.3779 15.464C22.7699 15.8 22.2739 16.304 21.8899 16.976C21.5219 17.632 21.3379 18.416 21.3379 19.328C21.3379 20.24 21.5219 21.04 21.8899 21.728C22.2739 22.416 22.7699 22.944 23.3779 23.312C24.0019 23.664 24.6579 23.84 25.3459 23.84C26.0499 23.84 26.7059 23.664 27.3139 23.312C27.9219 22.96 28.4099 22.448 28.7779 21.776C29.1619 21.088 29.3539 20.288 29.3539 19.376ZM39.1635 14.696C39.5635 14.024 40.0915 13.504 40.7475 13.136C41.4195 12.752 42.2115 12.56 43.1235 12.56V15.392H42.4275C41.3555 15.392 40.5395 15.664 39.9795 16.208C39.4355 16.752 39.1635 17.696 39.1635 19.04V26H36.4275V12.776H39.1635V14.696ZM51.4704 23.552L55.2144 12.776H58.1184L53.0784 26H49.8144L44.7984 12.776H47.7264L51.4704 23.552ZM73.0266 19.064C73.0266 19.56 72.9946 20.008 72.9306 20.408H62.8266C62.9066 21.464 63.2986 22.312 64.0026 22.952C64.7066 23.592 65.5706 23.912 66.5946 23.912C68.0666 23.912 69.1066 23.296 69.7146 22.064H72.6666C72.2666 23.28 71.5386 24.28 70.4826 25.064C69.4426 25.832 68.1466 26.216 66.5946 26.216C65.3306 26.216 64.1946 25.936 63.1866 25.376C62.1946 24.8 61.4106 24 60.8346 22.976C60.2746 21.936 59.9946 20.736 59.9946 19.376C59.9946 18.016 60.2666 16.824 60.8106 15.8C61.3706 14.76 62.1466 13.96 63.1386 13.4C64.1466 12.84 65.2986 12.56 66.5946 12.56C67.8426 12.56 68.9546 12.832 69.9306 13.376C70.9066 13.92 71.6666 14.688 72.2106 15.68C72.7546 16.656 73.0266 17.784 73.0266 19.064ZM70.1706 18.2C70.1546 17.192 69.7946 16.384 69.0906 15.776C68.3866 15.168 67.5146 14.864 66.4746 14.864C65.5306 14.864 64.7226 15.168 64.0506 15.776C63.3786 16.368 62.9786 17.176 62.8506 18.2H70.1706ZM81.2391 26.216C80.1991 26.216 79.2631 26.032 78.4311 25.664C77.6151 25.28 76.9671 24.768 76.4871 24.128C76.0071 23.472 75.7511 22.744 75.7191 21.944H78.5511C78.5991 22.504 78.8631 22.976 79.3431 23.36C79.8391 23.728 80.4551 23.912 81.1911 23.912C81.9591 23.912 82.5511 23.768 82.9671 23.48C83.3991 23.176 83.6151 22.792 83.6151 22.328C83.6151 21.832 83.3751 21.464 82.8951 21.224C82.4311 20.984 81.6871 20.72 80.6631 20.432C79.6711 20.16 78.8631 19.896 78.2391 19.64C77.6151 19.384 77.0711 18.992 76.6071 18.464C76.1591 17.936 75.9351 17.24 75.9351 16.376C75.9351 15.672 76.1431 15.032 76.5591 14.456C76.9751 13.864 77.5671 13.4 78.3351 13.064C79.1191 12.728 80.0151 12.56 81.0231 12.56C82.5271 12.56 83.7351 12.944 84.6471 13.712C85.5751 14.464 86.0711 15.496 86.1351 16.808H83.3991C83.3511 16.216 83.1111 15.744 82.6791 15.392C82.2471 15.04 81.6631 14.864 80.9271 14.864C80.2071 14.864 79.6551 15 79.2711 15.272C78.8871 15.544 78.6951 15.904 78.6951 16.352C78.6951 16.704 78.8231 17 79.0791 17.24C79.3351 17.48 79.6471 17.672 80.0151 17.816C80.3831 17.944 80.9271 18.112 81.6471 18.32C82.6071 18.576 83.3911 18.84 83.9991 19.112C84.6231 19.368 85.1591 19.752 85.6071 20.264C86.0551 20.776 86.2871 21.456 86.3031 22.304C86.3031 23.056 86.0951 23.728 85.6791 24.32C85.2631 24.912 84.6711 25.376 83.9031 25.712C83.1511 26.048 82.2631 26.216 81.2391 26.216ZM93.1714 15.008V22.328C93.1714 22.824 93.2834 23.184 93.5074 23.408C93.7474 23.616 94.1474 23.72 94.7074 23.72H96.3874V26H94.2274C92.9954 26 92.0514 25.712 91.3954 25.136C90.7394 24.56 90.4114 23.624 90.4114 22.328V15.008H88.8514V12.776H90.4114V9.488H93.1714V12.776H96.3874V15.008H93.1714ZM111.749 19.064C111.749 19.56 111.717 20.008 111.653 20.408H101.549C101.629 21.464 102.021 22.312 102.725 22.952C103.429 23.592 104.293 23.912 105.317 23.912C106.789 23.912 107.829 23.296 108.437 22.064H111.389C110.989 23.28 110.261 24.28 109.205 25.064C108.165 25.832 106.869 26.216 105.317 26.216C104.053 26.216 102.917 25.936 101.909 25.376C100.917 24.8 100.133 24 99.5571 22.976C98.9971 21.936 98.7171 20.736 98.7171 19.376C98.7171 18.016 98.9891 16.824 99.5331 15.8C100.093 14.76 100.869 13.96 101.861 13.4C102.869 12.84 104.021 12.56 105.317 12.56C106.565 12.56 107.677 12.832 108.653 13.376C109.629 13.92 110.389 14.688 110.933 15.68C111.477 16.656 111.749 17.784 111.749 19.064ZM108.893 18.2C108.877 17.192 108.517 16.384 107.813 15.776C107.109 15.168 106.237 14.864 105.197 14.864C104.253 14.864 103.445 15.168 102.773 15.776C102.101 16.368 101.701 17.176 101.573 18.2H108.893ZM117.898 14.696C118.298 14.024 118.826 13.504 119.482 13.136C120.154 12.752 120.946 12.56 121.858 12.56V15.392H121.162C120.09 15.392 119.274 15.664 118.714 16.208C118.17 16.752 117.898 17.696 117.898 19.04V26H115.162V12.776H117.898V14.696ZM129.893 26.216C128.853 26.216 127.917 26.032 127.085 25.664C126.269 25.28 125.621 24.768 125.141 24.128C124.661 23.472 124.405 22.744 124.373 21.944H127.205C127.253 22.504 127.517 22.976 127.997 23.36C128.493 23.728 129.109 23.912 129.845 23.912C130.613 23.912 131.205 23.768 131.621 23.48C132.053 23.176 132.269 22.792 132.269 22.328C132.269 21.832 132.029 21.464 131.549 21.224C131.085 20.984 130.341 20.72 129.317 20.432C128.325 20.16 127.517 19.896 126.893 19.64C126.269 19.384 125.725 18.992 125.261 18.464C124.813 17.936 124.589 17.24 124.589 16.376C124.589 15.672 124.797 15.032 125.213 14.456C125.629 13.864 126.221 13.4 126.989 13.064C127.773 12.728 128.669 12.56 129.677 12.56C131.181 12.56 132.389 12.944 133.301 13.712C134.229 14.464 134.725 15.496 134.789 16.808H132.053C132.005 16.216 131.765 15.744 131.333 15.392C130.901 15.04 130.317 14.864 129.581 14.864C128.861 14.864 128.309 15 127.925 15.272C127.541 15.544 127.349 15.904 127.349 16.352C127.349 16.704 127.477 17 127.733 17.24C127.989 17.48 128.301 17.672 128.669 17.816C129.037 17.944 129.581 18.112 130.301 18.32C131.261 18.576 132.045 18.84 132.653 19.112C133.277 19.368 133.813 19.752 134.261 20.264C134.709 20.776 134.941 21.456 134.957 22.304C134.957 23.056 134.749 23.728 134.333 24.32C133.917 24.912 133.325 25.376 132.557 25.712C131.805 26.048 130.917 26.216 129.893 26.216Z" fill="black"/>
<path d="M148.732 24.232C147.964 23.48 147.364 22.524 146.932 21.364C146.508 20.204 146.296 18.952 146.296 17.608C146.296 16.232 146.52 14.948 146.968 13.756C147.424 12.556 148.072 11.568 148.912 10.792H150.052V10.9C149.156 11.74 148.48 12.752 148.024 13.936C147.576 15.112 147.352 16.336 147.352 17.608C147.352 18.848 147.564 20.032 147.988 21.16C148.42 22.288 149.048 23.276 149.872 24.124V24.232H148.732ZM150.905 14.32V13.324H153.161V22H152.057V14.32H150.905ZM159.777 17.14V18.064H154.989V17.14H159.777ZM161.646 17.572C161.646 16.196 161.87 15.124 162.318 14.356C162.766 13.58 163.55 13.192 164.67 13.192C165.782 13.192 166.562 13.58 167.01 14.356C167.458 15.124 167.682 16.196 167.682 17.572C167.682 18.972 167.458 20.06 167.01 20.836C166.562 21.612 165.782 22 164.67 22C163.55 22 162.766 21.612 162.318 20.836C161.87 20.06 161.646 18.972 161.646 17.572ZM166.602 17.572C166.602 16.876 166.554 16.288 166.458 15.808C166.37 15.32 166.182 14.928 165.894 14.632C165.614 14.336 165.206 14.188 164.67 14.188C164.126 14.188 163.71 14.336 163.422 14.632C163.142 14.928 162.954 15.32 162.858 15.808C162.77 16.288 162.726 16.876 162.726 17.572C162.726 18.292 162.77 18.896 162.858 19.384C162.954 19.872 163.142 20.264 163.422 20.56C163.71 20.856 164.126 21.004 164.67 21.004C165.206 21.004 165.614 20.856 165.894 20.56C166.182 20.264 166.37 19.872 166.458 19.384C166.554 18.896 166.602 18.292 166.602 17.572ZM170.766 17.488C170.318 17.312 169.974 17.056 169.734 16.72C169.494 16.384 169.374 15.976 169.374 15.496C169.374 15.064 169.482 14.676 169.698 14.332C169.914 13.98 170.234 13.704 170.658 13.504C171.09 13.296 171.61 13.192 172.218 13.192C172.826 13.192 173.342 13.296 173.766 13.504C174.198 13.704 174.522 13.98 174.738 14.332C174.962 14.676 175.074 15.064 175.074 15.496C175.074 15.96 174.95 16.368 174.702 16.72C174.454 17.064 174.114 17.32 173.682 17.488C174.178 17.64 174.57 17.908 174.858 18.292C175.154 18.668 175.302 19.124 175.302 19.66C175.302 20.18 175.174 20.636 174.918 21.028C174.662 21.412 174.298 21.712 173.826 21.928C173.362 22.136 172.826 22.24 172.218 22.24C171.61 22.24 171.074 22.136 170.61 21.928C170.154 21.712 169.798 21.412 169.542 21.028C169.286 20.636 169.158 20.18 169.158 19.66C169.158 19.124 169.302 18.664 169.59 18.28C169.877 17.896 170.27 17.632 170.766 17.488ZM174.018 15.628C174.018 15.14 173.858 14.764 173.538 14.5C173.218 14.236 172.778 14.104 172.218 14.104C171.666 14.104 171.23 14.236 170.91 14.5C170.59 14.764 170.43 15.144 170.43 15.64C170.43 16.088 170.594 16.448 170.922 16.72C171.258 16.992 171.69 17.128 172.218 17.128C172.754 17.128 173.186 16.992 173.514 16.72C173.85 16.44 174.018 16.076 174.018 15.628ZM172.218 17.968C171.626 17.968 171.142 18.108 170.766 18.388C170.39 18.66 170.201 19.072 170.201 19.624C170.201 20.136 170.382 20.548 170.742 20.86C171.11 21.172 171.602 21.328 172.218 21.328C172.834 21.328 173.322 21.172 173.682 20.86C174.042 20.548 174.222 20.136 174.222 19.624C174.222 19.088 174.038 18.68 173.67 18.4C173.302 18.112 172.818 17.968 172.218 17.968ZM181.223 16.636C181.439 16.26 181.759 15.948 182.183 15.7C182.615 15.444 183.115 15.316 183.683 15.316C184.267 15.316 184.795 15.456 185.267 15.736C185.747 16.016 186.123 16.412 186.395 16.924C186.667 17.428 186.803 18.016 186.803 18.688C186.803 19.352 186.667 19.944 186.395 20.464C186.123 20.984 185.747 21.388 185.267 21.676C184.795 21.964 184.267 22.108 183.683 22.108C183.123 22.108 182.627 21.984 182.195 21.736C181.771 21.48 181.447 21.164 181.223 20.788V25.12H180.131V15.424H181.223V16.636ZM185.687 18.688C185.687 18.192 185.587 17.76 185.387 17.392C185.187 17.024 184.915 16.744 184.571 16.552C184.235 16.36 183.863 16.264 183.455 16.264C183.055 16.264 182.683 16.364 182.339 16.564C182.003 16.756 181.731 17.04 181.523 17.416C181.323 17.784 181.223 18.212 181.223 18.7C181.223 19.196 181.323 19.632 181.523 20.008C181.731 20.376 182.003 20.66 182.339 20.86C182.683 21.052 183.055 21.148 183.455 21.148C183.863 21.148 184.235 21.052 184.571 20.86C184.915 20.66 185.187 20.376 185.387 20.008C185.587 19.632 185.687 19.192 185.687 18.688ZM189.332 16.492C189.524 16.116 189.796 15.824 190.148 15.616C190.508 15.408 190.944 15.304 191.456 15.304V16.432H191.168C189.944 16.432 189.332 17.096 189.332 18.424V22H188.24V15.424H189.332V16.492ZM195.585 22.108C194.969 22.108 194.409 21.968 193.905 21.688C193.409 21.408 193.017 21.012 192.729 20.5C192.449 19.98 192.309 19.38 192.309 18.7C192.309 18.028 192.453 17.436 192.741 16.924C193.037 16.404 193.437 16.008 193.941 15.736C194.445 15.456 195.009 15.316 195.633 15.316C196.257 15.316 196.821 15.456 197.325 15.736C197.829 16.008 198.225 16.4 198.513 16.912C198.809 17.424 198.957 18.02 198.957 18.7C198.957 19.38 198.805 19.98 198.501 20.5C198.205 21.012 197.801 21.408 197.289 21.688C196.777 21.968 196.209 22.108 195.585 22.108ZM195.585 21.148C195.977 21.148 196.345 21.056 196.689 20.872C197.033 20.688 197.309 20.412 197.517 20.044C197.733 19.676 197.841 19.228 197.841 18.7C197.841 18.172 197.737 17.724 197.529 17.356C197.321 16.988 197.049 16.716 196.713 16.54C196.377 16.356 196.013 16.264 195.621 16.264C195.221 16.264 194.853 16.356 194.517 16.54C194.189 16.716 193.925 16.988 193.725 17.356C193.525 17.724 193.425 18.172 193.425 18.7C193.425 19.236 193.521 19.688 193.713 20.056C193.913 20.424 194.177 20.7 194.505 20.884C194.833 21.06 195.193 21.148 195.585 21.148ZM199.985 18.688C199.985 18.016 200.121 17.428 200.393 16.924C200.665 16.412 201.037 16.016 201.509 15.736C201.989 15.456 202.525 15.316 203.117 15.316C203.629 15.316 204.105 15.436 204.545 15.676C204.985 15.908 205.321 16.216 205.553 16.6V13.12H206.657V22H205.553V20.764C205.337 21.156 205.017 21.48 204.593 21.736C204.169 21.984 203.673 22.108 203.105 22.108C202.521 22.108 201.989 21.964 201.509 21.676C201.037 21.388 200.665 20.984 200.393 20.464C200.121 19.944 199.985 19.352 199.985 18.688ZM205.553 18.7C205.553 18.204 205.453 17.772 205.253 17.404C205.053 17.036 204.781 16.756 204.437 16.564C204.101 16.364 203.729 16.264 203.321 16.264C202.913 16.264 202.541 16.36 202.205 16.552C201.869 16.744 201.601 17.024 201.401 17.392C201.201 17.76 201.101 18.192 201.101 18.688C201.101 19.192 201.201 19.632 201.401 20.008C201.601 20.376 201.869 20.66 202.205 20.86C202.541 21.052 202.913 21.148 203.321 21.148C203.729 21.148 204.101 21.052 204.437 20.86C204.781 20.66 205.053 20.376 205.253 20.008C205.453 19.632 205.553 19.196 205.553 18.7ZM214.334 15.424V22H213.242V21.028C213.034 21.364 212.742 21.628 212.366 21.82C211.998 22.004 211.59 22.096 211.142 22.096C210.63 22.096 210.17 21.992 209.762 21.784C209.354 21.568 209.03 21.248 208.79 20.824C208.558 20.4 208.442 19.884 208.442 19.276V15.424H209.522V19.132C209.522 19.78 209.686 20.28 210.014 20.632C210.342 20.976 210.79 21.148 211.358 21.148C211.942 21.148 212.402 20.968 212.738 20.608C213.074 20.248 213.242 19.724 213.242 19.036V15.424H214.334ZM215.77 18.7C215.77 18.02 215.906 17.428 216.178 16.924C216.45 16.412 216.826 16.016 217.306 15.736C217.794 15.456 218.35 15.316 218.974 15.316C219.782 15.316 220.446 15.512 220.966 15.904C221.494 16.296 221.842 16.84 222.01 17.536H220.834C220.722 17.136 220.502 16.82 220.174 16.588C219.854 16.356 219.454 16.24 218.974 16.24C218.35 16.24 217.846 16.456 217.462 16.888C217.078 17.312 216.886 17.916 216.886 18.7C216.886 19.492 217.078 20.104 217.462 20.536C217.846 20.968 218.35 21.184 218.974 21.184C219.454 21.184 219.854 21.072 220.174 20.848C220.494 20.624 220.714 20.304 220.834 19.888H222.01C221.834 20.56 221.482 21.1 220.954 21.508C220.426 21.908 219.766 22.108 218.974 22.108C218.35 22.108 217.794 21.968 217.306 21.688C216.826 21.408 216.45 21.012 216.178 20.5C215.906 19.988 215.77 19.388 215.77 18.7ZM224.799 16.324V20.2C224.799 20.52 224.867 20.748 225.003 20.884C225.139 21.012 225.375 21.076 225.711 21.076H226.515V22H225.531C224.923 22 224.467 21.86 224.163 21.58C223.859 21.3 223.707 20.84 223.707 20.2V16.324H222.855V15.424H223.707V13.768H224.799V15.424H226.515V16.324H224.799ZM233.905 22.108C233.289 22.108 232.729 21.968 232.225 21.688C231.729 21.408 231.337 21.012 231.049 20.5C230.769 19.98 230.629 19.38 230.629 18.7C230.629 18.028 230.773 17.436 231.061 16.924C231.357 16.404 231.757 16.008 232.261 15.736C232.765 15.456 233.329 15.316 233.953 15.316C234.577 15.316 235.141 15.456 235.645 15.736C236.149 16.008 236.545 16.4 236.833 16.912C237.129 17.424 237.277 18.02 237.277 18.7C237.277 19.38 237.125 19.98 236.821 20.5C236.525 21.012 236.121 21.408 235.609 21.688C235.097 21.968 234.529 22.108 233.905 22.108ZM233.905 21.148C234.297 21.148 234.665 21.056 235.009 20.872C235.353 20.688 235.629 20.412 235.837 20.044C236.053 19.676 236.161 19.228 236.161 18.7C236.161 18.172 236.057 17.724 235.849 17.356C235.641 16.988 235.369 16.716 235.033 16.54C234.697 16.356 234.333 16.264 233.941 16.264C233.541 16.264 233.173 16.356 232.837 16.54C232.509 16.716 232.245 16.988 232.045 17.356C231.845 17.724 231.745 18.172 231.745 18.7C231.745 19.236 231.841 19.688 232.033 20.056C232.233 20.424 232.497 20.7 232.825 20.884C233.153 21.06 233.513 21.148 233.905 21.148ZM241.389 16.324H240.009V22H238.917V16.324H238.065V15.424H238.917V14.956C238.917 14.22 239.105 13.684 239.481 13.348C239.865 13.004 240.477 12.832 241.317 12.832V13.744C240.837 13.744 240.497 13.84 240.297 14.032C240.105 14.216 240.009 14.524 240.009 14.956V15.424H241.389V16.324ZM245.55 21.124C246.566 20.308 247.362 19.64 247.938 19.12C248.514 18.592 248.998 18.044 249.39 17.476C249.79 16.9 249.99 16.336 249.99 15.784C249.99 15.264 249.862 14.856 249.606 14.56C249.358 14.256 248.954 14.104 248.394 14.104C247.85 14.104 247.426 14.276 247.122 14.62C246.826 14.956 246.666 15.408 246.642 15.976H245.586C245.618 15.08 245.89 14.388 246.402 13.9C246.914 13.412 247.574 13.168 248.382 13.168C249.206 13.168 249.858 13.396 250.338 13.852C250.826 14.308 251.07 14.936 251.07 15.736C251.07 16.4 250.87 17.048 250.47 17.68C250.078 18.304 249.63 18.856 249.126 19.336C248.622 19.808 247.978 20.36 247.194 20.992H251.322V21.904H245.55V21.124ZM252.584 17.572C252.584 16.196 252.808 15.124 253.256 14.356C253.704 13.58 254.488 13.192 255.608 13.192C256.72 13.192 257.5 13.58 257.948 14.356C258.396 15.124 258.62 16.196 258.62 17.572C258.62 18.972 258.396 20.06 257.948 20.836C257.5 21.612 256.72 22 255.608 22C254.488 22 253.704 21.612 253.256 20.836C252.808 20.06 252.584 18.972 252.584 17.572ZM257.54 17.572C257.54 16.876 257.492 16.288 257.396 15.808C257.308 15.32 257.12 14.928 256.832 14.632C256.552 14.336 256.144 14.188 255.608 14.188C255.064 14.188 254.648 14.336 254.36 14.632C254.08 14.928 253.892 15.32 253.796 15.808C253.708 16.288 253.664 16.876 253.664 17.572C253.664 18.292 253.708 18.896 253.796 19.384C253.892 19.872 254.08 20.264 254.36 20.56C254.648 20.856 255.064 21.004 255.608 21.004C256.144 21.004 256.552 20.856 256.832 20.56C257.12 20.264 257.308 19.872 257.396 19.384C257.492 18.896 257.54 18.292 257.54 17.572ZM263.15 24.232V24.124C263.974 23.276 264.598 22.288 265.022 21.16C265.454 20.032 265.67 18.848 265.67 17.608C265.67 16.336 265.442 15.112 264.986 13.936C264.538 12.752 263.866 11.74 262.97 10.9V10.792H264.11C264.95 11.568 265.594 12.556 266.042 13.756C266.498 14.948 266.726 16.232 266.726 17.608C266.726 18.952 266.51 20.204 266.078 21.364C265.654 22.524 265.058 23.48 264.29 24.232H263.15Z" fill="#A7A8AB"/>
</svg>
