<svg width="565" height="14" viewBox="0 0 565 14" fill="none" xmlns="http://www.w3.org/2000/svg">
<path d="M7.368 1.636V10H6.276V6.208H2.016V10H0.924V1.636H2.016V5.308H6.276V1.636H7.368ZM12.1006 10.108C11.4846 10.108 10.9246 9.968 10.4206 9.688C9.92459 9.408 9.53259 9.012 9.24459 8.5C8.96459 7.98 8.82459 7.38 8.82459 6.7C8.82459 6.028 8.96859 5.436 9.25659 4.924C9.55259 4.404 9.95259 4.008 10.4566 3.736C10.9606 3.456 11.5246 3.316 12.1486 3.316C12.7726 3.316 13.3366 3.456 13.8406 3.736C14.3446 4.008 14.7406 4.4 15.0286 4.912C15.3246 5.424 15.4726 6.02 15.4726 6.7C15.4726 7.38 15.3206 7.98 15.0166 8.5C14.7206 9.012 14.3166 9.408 13.8046 9.688C13.2926 9.968 12.7246 10.108 12.1006 10.108ZM12.1006 9.148C12.4926 9.148 12.8606 9.056 13.2046 8.872C13.5486 8.688 13.8246 8.412 14.0326 8.044C14.2486 7.676 14.3566 7.228 14.3566 6.7C14.3566 6.172 14.2526 5.724 14.0446 5.356C13.8366 4.988 13.5646 4.716 13.2286 4.54C12.8926 4.356 12.5286 4.264 12.1366 4.264C11.7366 4.264 11.3686 4.356 11.0326 4.54C10.7046 4.716 10.4406 4.988 10.2406 5.356C10.0406 5.724 9.94059 6.172 9.94059 6.7C9.94059 7.236 10.0366 7.688 10.2286 8.056C10.4286 8.424 10.6926 8.7 11.0206 8.884C11.3486 9.06 11.7086 9.148 12.1006 9.148ZM24.8164 3.304C25.3284 3.304 25.7844 3.412 26.1844 3.628C26.5844 3.836 26.9004 4.152 27.1324 4.576C27.3644 5 27.4804 5.516 27.4804 6.124V10H26.4004V6.28C26.4004 5.624 26.2364 5.124 25.9084 4.78C25.5884 4.428 25.1524 4.252 24.6004 4.252C24.0324 4.252 23.5804 4.436 23.2444 4.804C22.9084 5.164 22.7404 5.688 22.7404 6.376V10H21.6604V6.28C21.6604 5.624 21.4964 5.124 21.1684 4.78C20.8484 4.428 20.4124 4.252 19.8604 4.252C19.2924 4.252 18.8404 4.436 18.5044 4.804C18.1684 5.164 18.0004 5.688 18.0004 6.376V10H16.9084V3.424H18.0004V4.372C18.2164 4.028 18.5044 3.764 18.8644 3.58C19.2324 3.396 19.6364 3.304 20.0764 3.304C20.6284 3.304 21.1164 3.428 21.5404 3.676C21.9644 3.924 22.2804 4.288 22.4884 4.768C22.6724 4.304 22.9764 3.944 23.4004 3.688C23.8244 3.432 24.2964 3.304 24.8164 3.304ZM35.2717 6.46C35.2717 6.668 35.2597 6.888 35.2357 7.12H29.9797C30.0197 7.768 30.2397 8.276 30.6397 8.644C31.0477 9.004 31.5397 9.184 32.1157 9.184C32.5877 9.184 32.9797 9.076 33.2917 8.86C33.6117 8.636 33.8357 8.34 33.9637 7.972H35.1397C34.9637 8.604 34.6117 9.12 34.0837 9.52C33.5557 9.912 32.8997 10.108 32.1157 10.108C31.4917 10.108 30.9317 9.968 30.4357 9.688C29.9477 9.408 29.5637 9.012 29.2837 8.5C29.0037 7.98 28.8637 7.38 28.8637 6.7C28.8637 6.02 28.9997 5.424 29.2717 4.912C29.5437 4.4 29.9237 4.008 30.4117 3.736C30.9077 3.456 31.4757 3.316 32.1157 3.316C32.7397 3.316 33.2917 3.452 33.7717 3.724C34.2517 3.996 34.6197 4.372 34.8757 4.852C35.1397 5.324 35.2717 5.86 35.2717 6.46ZM34.1437 6.232C34.1437 5.816 34.0517 5.46 33.8677 5.164C33.6837 4.86 33.4317 4.632 33.1117 4.48C32.7997 4.32 32.4517 4.24 32.0677 4.24C31.5157 4.24 31.0437 4.416 30.6517 4.768C30.2677 5.12 30.0477 5.608 29.9917 6.232H34.1437ZM46.6323 10.456V11.464H40.2483V10.456H46.6323ZM56.8563 8.14H53.2083L52.5363 10H51.3843L54.4083 1.684H55.6683L58.6803 10H57.5283L56.8563 8.14ZM56.5443 7.252L55.0323 3.028L53.5203 7.252H56.5443ZM62.7102 3.316C63.2782 3.316 63.7742 3.44 64.1982 3.688C64.6302 3.936 64.9502 4.248 65.1582 4.624V3.424H66.2622V10.144C66.2622 10.744 66.1342 11.276 65.8782 11.74C65.6222 12.212 65.2542 12.58 64.7742 12.844C64.3022 13.108 63.7502 13.24 63.1182 13.24C62.2542 13.24 61.5342 13.036 60.9582 12.628C60.3822 12.22 60.0422 11.664 59.9382 10.96H61.0182C61.1382 11.36 61.3862 11.68 61.7622 11.92C62.1382 12.168 62.5902 12.292 63.1182 12.292C63.7182 12.292 64.2062 12.104 64.5822 11.728C64.9662 11.352 65.1582 10.824 65.1582 10.144V8.764C64.9422 9.148 64.6222 9.468 64.1982 9.724C63.7742 9.98 63.2782 10.108 62.7102 10.108C62.1262 10.108 61.5942 9.964 61.1142 9.676C60.6422 9.388 60.2702 8.984 59.9982 8.464C59.7262 7.944 59.5902 7.352 59.5902 6.688C59.5902 6.016 59.7262 5.428 59.9982 4.924C60.2702 4.412 60.6422 4.016 61.1142 3.736C61.5942 3.456 62.1262 3.316 62.7102 3.316ZM65.1582 6.7C65.1582 6.204 65.0582 5.772 64.8582 5.404C64.6582 5.036 64.3862 4.756 64.0422 4.564C63.7062 4.364 63.3342 4.264 62.9262 4.264C62.5182 4.264 62.1462 4.36 61.8102 4.552C61.4742 4.744 61.2062 5.024 61.0062 5.392C60.8062 5.76 60.7062 6.192 60.7062 6.688C60.7062 7.192 60.8062 7.632 61.0062 8.008C61.2062 8.376 61.4742 8.66 61.8102 8.86C62.1462 9.052 62.5182 9.148 62.9262 9.148C63.3342 9.148 63.7062 9.052 64.0422 8.86C64.3862 8.66 64.6582 8.376 64.8582 8.008C65.0582 7.632 65.1582 7.196 65.1582 6.7ZM69.1996 4.492C69.3916 4.116 69.6636 3.824 70.0156 3.616C70.3756 3.408 70.8116 3.304 71.3236 3.304V4.432H71.0356C69.8116 4.432 69.1996 5.096 69.1996 6.424V10H68.1076V3.424H69.1996V4.492ZM73.1482 2.356C72.9402 2.356 72.7642 2.284 72.6202 2.14C72.4762 1.996 72.4042 1.82 72.4042 1.612C72.4042 1.404 72.4762 1.228 72.6202 1.084C72.7642 0.94 72.9402 0.868 73.1482 0.868C73.3482 0.868 73.5162 0.94 73.6522 1.084C73.7962 1.228 73.8682 1.404 73.8682 1.612C73.8682 1.82 73.7962 1.996 73.6522 2.14C73.5162 2.284 73.3482 2.356 73.1482 2.356ZM73.6762 3.424V10H72.5842V3.424H73.6762ZM75.1293 6.7C75.1293 6.02 75.2653 5.428 75.5373 4.924C75.8093 4.412 76.1853 4.016 76.6653 3.736C77.1533 3.456 77.7093 3.316 78.3333 3.316C79.1413 3.316 79.8053 3.512 80.3253 3.904C80.8533 4.296 81.2013 4.84 81.3693 5.536H80.1933C80.0813 5.136 79.8613 4.82 79.5333 4.588C79.2133 4.356 78.8133 4.24 78.3333 4.24C77.7093 4.24 77.2053 4.456 76.8213 4.888C76.4373 5.312 76.2453 5.916 76.2453 6.7C76.2453 7.492 76.4373 8.104 76.8213 8.536C77.2053 8.968 77.7093 9.184 78.3333 9.184C78.8133 9.184 79.2133 9.072 79.5333 8.848C79.8533 8.624 80.0733 8.304 80.1933 7.888H81.3693C81.1933 8.56 80.8413 9.1 80.3133 9.508C79.7853 9.908 79.1253 10.108 78.3333 10.108C77.7093 10.108 77.1533 9.968 76.6653 9.688C76.1853 9.408 75.8093 9.012 75.5373 8.5C75.2653 7.988 75.1293 7.388 75.1293 6.7ZM88.6583 3.424V10H87.5663V9.028C87.3583 9.364 87.0663 9.628 86.6903 9.82C86.3223 10.004 85.9143 10.096 85.4663 10.096C84.9543 10.096 84.4943 9.992 84.0863 9.784C83.6783 9.568 83.3543 9.248 83.1143 8.824C82.8823 8.4 82.7663 7.884 82.7663 7.276V3.424H83.8463V7.132C83.8463 7.78 84.0103 8.28 84.3383 8.632C84.6663 8.976 85.1143 9.148 85.6823 9.148C86.2663 9.148 86.7263 8.968 87.0623 8.608C87.3983 8.248 87.5663 7.724 87.5663 7.036V3.424H88.6583ZM91.5941 1.12V10H90.5021V1.12H91.5941ZM94.7873 4.324V8.2C94.7873 8.52 94.8553 8.748 94.9913 8.884C95.1273 9.012 95.3633 9.076 95.6992 9.076H96.5033V10H95.5193C94.9113 10 94.4553 9.86 94.1513 9.58C93.8473 9.3 93.6953 8.84 93.6953 8.2V4.324H92.8433V3.424H93.6953V1.768H94.7873V3.424H96.5033V4.324H94.7873ZM103.658 3.424V10H102.566V9.028C102.358 9.364 102.066 9.628 101.69 9.82C101.322 10.004 100.914 10.096 100.466 10.096C99.9543 10.096 99.4943 9.992 99.0863 9.784C98.6783 9.568 98.3543 9.248 98.1143 8.824C97.8823 8.4 97.7663 7.884 97.7663 7.276V3.424H98.8463V7.132C98.8463 7.78 99.0103 8.28 99.3383 8.632C99.6663 8.976 100.114 9.148 100.682 9.148C101.266 9.148 101.726 8.968 102.062 8.608C102.398 8.248 102.566 7.724 102.566 7.036V3.424H103.658ZM106.594 4.492C106.786 4.116 107.058 3.824 107.41 3.616C107.77 3.408 108.206 3.304 108.718 3.304V4.432H108.43C107.206 4.432 106.594 5.096 106.594 6.424V10H105.502V3.424H106.594V4.492ZM115.979 6.46C115.979 6.668 115.967 6.888 115.943 7.12H110.687C110.727 7.768 110.947 8.276 111.347 8.644C111.755 9.004 112.247 9.184 112.823 9.184C113.295 9.184 113.687 9.076 113.999 8.86C114.319 8.636 114.543 8.34 114.671 7.972H115.847C115.671 8.604 115.319 9.12 114.791 9.52C114.263 9.912 113.607 10.108 112.823 10.108C112.199 10.108 111.639 9.968 111.143 9.688C110.655 9.408 110.271 9.012 109.991 8.5C109.711 7.98 109.571 7.38 109.571 6.7C109.571 6.02 109.707 5.424 109.979 4.912C110.251 4.4 110.631 4.008 111.119 3.736C111.615 3.456 112.183 3.316 112.823 3.316C113.447 3.316 113.999 3.452 114.479 3.724C114.959 3.996 115.327 4.372 115.583 4.852C115.847 5.324 115.979 5.86 115.979 6.46ZM114.851 6.232C114.851 5.816 114.759 5.46 114.575 5.164C114.391 4.86 114.139 4.632 113.819 4.48C113.507 4.32 113.159 4.24 112.775 4.24C112.223 4.24 111.751 4.416 111.359 4.768C110.975 5.12 110.755 5.608 110.699 6.232H114.851ZM126.955 4.06C126.723 3.572 126.387 3.196 125.947 2.932C125.507 2.66 124.995 2.524 124.411 2.524C123.827 2.524 123.299 2.66 122.827 2.932C122.363 3.196 121.995 3.58 121.723 4.084C121.459 4.58 121.327 5.156 121.327 5.812C121.327 6.468 121.459 7.044 121.723 7.54C121.995 8.036 122.363 8.42 122.827 8.692C123.299 8.956 123.827 9.088 124.411 9.088C125.227 9.088 125.899 8.844 126.427 8.356C126.955 7.868 127.263 7.208 127.351 6.376H124.015V5.488H128.515V6.328C128.451 7.016 128.235 7.648 127.867 8.224C127.499 8.792 127.015 9.244 126.415 9.58C125.815 9.908 125.147 10.072 124.411 10.072C123.635 10.072 122.927 9.892 122.287 9.532C121.647 9.164 121.139 8.656 120.763 8.008C120.395 7.36 120.211 6.628 120.211 5.812C120.211 4.996 120.395 4.264 120.763 3.616C121.139 2.96 121.647 2.452 122.287 2.092C122.927 1.724 123.635 1.54 124.411 1.54C125.299 1.54 126.083 1.76 126.763 2.2C127.451 2.64 127.951 3.26 128.263 4.06H126.955ZM129.551 6.688C129.551 6.016 129.687 5.428 129.959 4.924C130.231 4.412 130.603 4.016 131.075 3.736C131.555 3.456 132.087 3.316 132.671 3.316C133.247 3.316 133.747 3.44 134.171 3.688C134.595 3.936 134.911 4.248 135.119 4.624V3.424H136.223V10H135.119V8.776C134.903 9.16 134.579 9.48 134.147 9.736C133.723 9.984 133.227 10.108 132.659 10.108C132.075 10.108 131.547 9.964 131.075 9.676C130.603 9.388 130.231 8.984 129.959 8.464C129.687 7.944 129.551 7.352 129.551 6.688ZM135.119 6.7C135.119 6.204 135.019 5.772 134.819 5.404C134.619 5.036 134.347 4.756 134.003 4.564C133.667 4.364 133.295 4.264 132.887 4.264C132.479 4.264 132.107 4.36 131.771 4.552C131.435 4.744 131.167 5.024 130.967 5.392C130.767 5.76 130.667 6.192 130.667 6.688C130.667 7.192 130.767 7.632 130.967 8.008C131.167 8.376 131.435 8.66 131.771 8.86C132.107 9.052 132.479 9.148 132.887 9.148C133.295 9.148 133.667 9.052 134.003 8.86C134.347 8.66 134.619 8.376 134.819 8.008C135.019 7.632 135.119 7.196 135.119 6.7ZM139.161 4.492C139.353 4.116 139.625 3.824 139.977 3.616C140.337 3.408 140.773 3.304 141.285 3.304V4.432H140.997C139.773 4.432 139.161 5.096 139.161 6.424V10H138.069V3.424H139.161V4.492ZM142.137 6.688C142.137 6.016 142.273 5.428 142.545 4.924C142.817 4.412 143.189 4.016 143.661 3.736C144.141 3.456 144.677 3.316 145.269 3.316C145.781 3.316 146.257 3.436 146.697 3.676C147.137 3.908 147.473 4.216 147.705 4.6V1.12H148.809V10H147.705V8.764C147.489 9.156 147.169 9.48 146.745 9.736C146.321 9.984 145.825 10.108 145.257 10.108C144.673 10.108 144.141 9.964 143.661 9.676C143.189 9.388 142.817 8.984 142.545 8.464C142.273 7.944 142.137 7.352 142.137 6.688ZM147.705 6.7C147.705 6.204 147.605 5.772 147.405 5.404C147.205 5.036 146.933 4.756 146.589 4.564C146.253 4.364 145.881 4.264 145.473 4.264C145.065 4.264 144.693 4.36 144.357 4.552C144.021 4.744 143.753 5.024 143.553 5.392C143.353 5.76 143.253 6.192 143.253 6.688C143.253 7.192 143.353 7.632 143.553 8.008C143.753 8.376 144.021 8.66 144.357 8.86C144.693 9.052 145.065 9.148 145.473 9.148C145.881 9.148 146.253 9.052 146.589 8.86C146.933 8.66 147.205 8.376 147.405 8.008C147.605 7.632 147.705 7.196 147.705 6.7ZM156.654 6.46C156.654 6.668 156.642 6.888 156.618 7.12H151.362C151.402 7.768 151.622 8.276 152.022 8.644C152.43 9.004 152.922 9.184 153.498 9.184C153.97 9.184 154.362 9.076 154.674 8.86C154.994 8.636 155.218 8.34 155.346 7.972H156.522C156.346 8.604 155.994 9.12 155.466 9.52C154.938 9.912 154.282 10.108 153.498 10.108C152.874 10.108 152.314 9.968 151.818 9.688C151.33 9.408 150.946 9.012 150.666 8.5C150.386 7.98 150.246 7.38 150.246 6.7C150.246 6.02 150.382 5.424 150.654 4.912C150.926 4.4 151.306 4.008 151.794 3.736C152.29 3.456 152.858 3.316 153.498 3.316C154.122 3.316 154.674 3.452 155.154 3.724C155.634 3.996 156.002 4.372 156.258 4.852C156.522 5.324 156.654 5.86 156.654 6.46ZM155.526 6.232C155.526 5.816 155.434 5.46 155.25 5.164C155.066 4.86 154.814 4.632 154.494 4.48C154.182 4.32 153.834 4.24 153.45 4.24C152.898 4.24 152.426 4.416 152.034 4.768C151.65 5.12 151.43 5.608 151.374 6.232H155.526ZM161.3 3.304C162.1 3.304 162.748 3.548 163.244 4.036C163.74 4.516 163.988 5.212 163.988 6.124V10H162.908V6.28C162.908 5.624 162.744 5.124 162.416 4.78C162.088 4.428 161.64 4.252 161.072 4.252C160.496 4.252 160.036 4.432 159.692 4.792C159.356 5.152 159.188 5.676 159.188 6.364V10H158.096V3.424H159.188V4.36C159.404 4.024 159.696 3.764 160.064 3.58C160.44 3.396 160.852 3.304 161.3 3.304ZM175.391 10L174.299 8.896C173.891 9.32 173.455 9.636 172.991 9.844C172.527 10.044 172.003 10.144 171.419 10.144C170.843 10.144 170.331 10.04 169.883 9.832C169.443 9.624 169.099 9.328 168.851 8.944C168.611 8.56 168.491 8.112 168.491 7.6C168.491 7.016 168.655 6.504 168.983 6.064C169.319 5.616 169.811 5.264 170.459 5.008C170.203 4.704 170.019 4.424 169.907 4.168C169.795 3.912 169.739 3.632 169.739 3.328C169.739 2.976 169.827 2.66 170.003 2.38C170.187 2.092 170.447 1.868 170.783 1.708C171.119 1.548 171.507 1.468 171.947 1.468C172.379 1.468 172.755 1.552 173.075 1.72C173.395 1.888 173.635 2.124 173.795 2.428C173.955 2.724 174.027 3.056 174.011 3.424H172.919C172.927 3.096 172.835 2.84 172.643 2.656C172.451 2.464 172.203 2.368 171.899 2.368C171.579 2.368 171.319 2.46 171.119 2.644C170.927 2.82 170.831 3.048 170.831 3.328C170.831 3.568 170.895 3.8 171.023 4.024C171.159 4.248 171.383 4.524 171.695 4.852L174.191 7.36L174.407 7.024L175.223 5.656H176.399L175.415 7.36C175.279 7.6 175.119 7.852 174.935 8.116L176.819 10H175.391ZM171.419 9.208C171.851 9.208 172.239 9.124 172.583 8.956C172.935 8.788 173.267 8.528 173.579 8.176L171.119 5.704C170.095 6.096 169.583 6.716 169.583 7.564C169.583 8.036 169.751 8.428 170.087 8.74C170.431 9.052 170.875 9.208 171.419 9.208ZM182.133 9.112H185.061V10H181.041V1.636H182.133V9.112ZM185.813 6.688C185.813 6.016 185.949 5.428 186.221 4.924C186.493 4.412 186.865 4.016 187.337 3.736C187.817 3.456 188.349 3.316 188.933 3.316C189.509 3.316 190.009 3.44 190.433 3.688C190.857 3.936 191.173 4.248 191.381 4.624V3.424H192.485V10H191.381V8.776C191.165 9.16 190.841 9.48 190.409 9.736C189.985 9.984 189.489 10.108 188.921 10.108C188.337 10.108 187.809 9.964 187.337 9.676C186.865 9.388 186.493 8.984 186.221 8.464C185.949 7.944 185.813 7.352 185.813 6.688ZM191.381 6.7C191.381 6.204 191.281 5.772 191.081 5.404C190.881 5.036 190.609 4.756 190.265 4.564C189.929 4.364 189.557 4.264 189.149 4.264C188.741 4.264 188.369 4.36 188.033 4.552C187.697 4.744 187.429 5.024 187.229 5.392C187.029 5.76 186.929 6.192 186.929 6.688C186.929 7.192 187.029 7.632 187.229 8.008C187.429 8.376 187.697 8.66 188.033 8.86C188.369 9.052 188.741 9.148 189.149 9.148C189.557 9.148 189.929 9.052 190.265 8.86C190.609 8.66 190.881 8.376 191.081 8.008C191.281 7.632 191.381 7.196 191.381 6.7ZM197.534 3.304C198.334 3.304 198.982 3.548 199.478 4.036C199.974 4.516 200.222 5.212 200.222 6.124V10H199.142V6.28C199.142 5.624 198.978 5.124 198.65 4.78C198.322 4.428 197.874 4.252 197.306 4.252C196.73 4.252 196.27 4.432 195.926 4.792C195.59 5.152 195.422 5.676 195.422 6.364V10H194.33V3.424H195.422V4.36C195.638 4.024 195.93 3.764 196.298 3.58C196.674 3.396 197.086 3.304 197.534 3.304ZM201.598 6.688C201.598 6.016 201.734 5.428 202.006 4.924C202.278 4.412 202.65 4.016 203.122 3.736C203.602 3.456 204.138 3.316 204.73 3.316C205.242 3.316 205.718 3.436 206.158 3.676C206.598 3.908 206.934 4.216 207.166 4.6V1.12H208.27V10H207.166V8.764C206.95 9.156 206.63 9.48 206.206 9.736C205.782 9.984 205.286 10.108 204.718 10.108C204.134 10.108 203.602 9.964 203.122 9.676C202.65 9.388 202.278 8.984 202.006 8.464C201.734 7.944 201.598 7.352 201.598 6.688ZM207.166 6.7C207.166 6.204 207.066 5.772 206.866 5.404C206.666 5.036 206.394 4.756 206.05 4.564C205.714 4.364 205.342 4.264 204.934 4.264C204.526 4.264 204.154 4.36 203.818 4.552C203.482 4.744 203.214 5.024 203.014 5.392C202.814 5.76 202.714 6.192 202.714 6.688C202.714 7.192 202.814 7.632 203.014 8.008C203.214 8.376 203.482 8.66 203.818 8.86C204.154 9.052 204.526 9.148 204.934 9.148C205.342 9.148 205.714 9.052 206.05 8.86C206.394 8.66 206.666 8.376 206.866 8.008C207.066 7.632 207.166 7.196 207.166 6.7ZM212.443 10.108C211.939 10.108 211.487 10.024 211.087 9.856C210.687 9.68 210.371 9.44 210.139 9.136C209.907 8.824 209.779 8.468 209.755 8.068H210.883C210.915 8.396 211.067 8.664 211.339 8.872C211.619 9.08 211.983 9.184 212.431 9.184C212.847 9.184 213.175 9.092 213.415 8.908C213.655 8.724 213.775 8.492 213.775 8.212C213.775 7.924 213.647 7.712 213.391 7.576C213.135 7.432 212.739 7.292 212.203 7.156C211.715 7.028 211.315 6.9 211.003 6.772C210.699 6.636 210.435 6.44 210.211 6.184C209.995 5.92 209.887 5.576 209.887 5.152C209.887 4.816 209.987 4.508 210.187 4.228C210.387 3.948 210.671 3.728 211.039 3.568C211.407 3.4 211.827 3.316 212.299 3.316C213.027 3.316 213.615 3.5 214.063 3.868C214.511 4.236 214.751 4.74 214.783 5.38H213.691C213.667 5.036 213.527 4.76 213.271 4.552C213.023 4.344 212.687 4.24 212.263 4.24C211.871 4.24 211.559 4.324 211.327 4.492C211.095 4.66 210.979 4.88 210.979 5.152C210.979 5.368 211.047 5.548 211.183 5.692C211.327 5.828 211.503 5.94 211.711 6.028C211.927 6.108 212.223 6.2 212.599 6.304C213.071 6.432 213.455 6.56 213.751 6.688C214.047 6.808 214.299 6.992 214.507 7.24C214.723 7.488 214.835 7.812 214.843 8.212C214.843 8.572 214.743 8.896 214.543 9.184C214.343 9.472 214.059 9.7 213.691 9.868C213.331 10.028 212.915 10.108 212.443 10.108ZM215.977 6.7C215.977 6.02 216.113 5.428 216.385 4.924C216.657 4.412 217.033 4.016 217.513 3.736C218.001 3.456 218.557 3.316 219.181 3.316C219.989 3.316 220.653 3.512 221.173 3.904C221.701 4.296 222.049 4.84 222.217 5.536H221.041C220.929 5.136 220.709 4.82 220.381 4.588C220.061 4.356 219.661 4.24 219.181 4.24C218.557 4.24 218.053 4.456 217.669 4.888C217.285 5.312 217.093 5.916 217.093 6.7C217.093 7.492 217.285 8.104 217.669 8.536C218.053 8.968 218.557 9.184 219.181 9.184C219.661 9.184 220.061 9.072 220.381 8.848C220.701 8.624 220.921 8.304 221.041 7.888H222.217C222.041 8.56 221.689 9.1 221.161 9.508C220.633 9.908 219.973 10.108 219.181 10.108C218.557 10.108 218.001 9.968 217.513 9.688C217.033 9.408 216.657 9.012 216.385 8.5C216.113 7.988 215.977 7.388 215.977 6.7ZM223.266 6.688C223.266 6.016 223.402 5.428 223.674 4.924C223.946 4.412 224.318 4.016 224.79 3.736C225.27 3.456 225.802 3.316 226.386 3.316C226.962 3.316 227.462 3.44 227.886 3.688C228.31 3.936 228.626 4.248 228.834 4.624V3.424H229.938V10H228.834V8.776C228.618 9.16 228.294 9.48 227.862 9.736C227.438 9.984 226.942 10.108 226.374 10.108C225.79 10.108 225.262 9.964 224.79 9.676C224.318 9.388 223.946 8.984 223.674 8.464C223.402 7.944 223.266 7.352 223.266 6.688ZM228.834 6.7C228.834 6.204 228.734 5.772 228.534 5.404C228.334 5.036 228.062 4.756 227.718 4.564C227.382 4.364 227.01 4.264 226.602 4.264C226.194 4.264 225.822 4.36 225.486 4.552C225.15 4.744 224.882 5.024 224.682 5.392C224.482 5.76 224.382 6.192 224.382 6.688C224.382 7.192 224.482 7.632 224.682 8.008C224.882 8.376 225.15 8.66 225.486 8.86C225.822 9.052 226.194 9.148 226.602 9.148C227.01 9.148 227.382 9.052 227.718 8.86C228.062 8.66 228.334 8.376 228.534 8.008C228.734 7.632 228.834 7.196 228.834 6.7ZM232.875 4.636C233.091 4.26 233.411 3.948 233.835 3.7C234.267 3.444 234.767 3.316 235.335 3.316C235.919 3.316 236.447 3.456 236.919 3.736C237.399 4.016 237.775 4.412 238.047 4.924C238.319 5.428 238.455 6.016 238.455 6.688C238.455 7.352 238.319 7.944 238.047 8.464C237.775 8.984 237.399 9.388 236.919 9.676C236.447 9.964 235.919 10.108 235.335 10.108C234.775 10.108 234.279 9.984 233.847 9.736C233.423 9.48 233.099 9.164 232.875 8.788V13.12H231.783V3.424H232.875V4.636ZM237.339 6.688C237.339 6.192 237.239 5.76 237.039 5.392C236.839 5.024 236.567 4.744 236.223 4.552C235.887 4.36 235.515 4.264 235.107 4.264C234.707 4.264 234.335 4.364 233.991 4.564C233.655 4.756 233.383 5.04 233.175 5.416C232.975 5.784 232.875 6.212 232.875 6.7C232.875 7.196 232.975 7.632 233.175 8.008C233.383 8.376 233.655 8.66 233.991 8.86C234.335 9.052 234.707 9.148 235.107 9.148C235.515 9.148 235.887 9.052 236.223 8.86C236.567 8.66 236.839 8.376 237.039 8.008C237.239 7.632 237.339 7.192 237.339 6.688ZM240.457 2.356C240.249 2.356 240.073 2.284 239.929 2.14C239.785 1.996 239.713 1.82 239.713 1.612C239.713 1.404 239.785 1.228 239.929 1.084C240.073 0.94 240.249 0.868 240.457 0.868C240.657 0.868 240.825 0.94 240.961 1.084C241.105 1.228 241.177 1.404 241.177 1.612C241.177 1.82 241.105 1.996 240.961 2.14C240.825 2.284 240.657 2.356 240.457 2.356ZM240.985 3.424V10H239.893V3.424H240.985ZM246.05 3.304C246.85 3.304 247.498 3.548 247.994 4.036C248.49 4.516 248.738 5.212 248.738 6.124V10H247.658V6.28C247.658 5.624 247.494 5.124 247.166 4.78C246.838 4.428 246.39 4.252 245.822 4.252C245.246 4.252 244.786 4.432 244.442 4.792C244.106 5.152 243.938 5.676 243.938 6.364V10H242.846V3.424H243.938V4.36C244.154 4.024 244.446 3.764 244.814 3.58C245.19 3.396 245.602 3.304 246.05 3.304ZM253.234 3.316C253.802 3.316 254.298 3.44 254.722 3.688C255.154 3.936 255.474 4.248 255.682 4.624V3.424H256.786V10.144C256.786 10.744 256.658 11.276 256.402 11.74C256.146 12.212 255.778 12.58 255.298 12.844C254.826 13.108 254.274 13.24 253.642 13.24C252.778 13.24 252.058 13.036 251.482 12.628C250.906 12.22 250.566 11.664 250.462 10.96H251.542C251.662 11.36 251.91 11.68 252.286 11.92C252.662 12.168 253.114 12.292 253.642 12.292C254.242 12.292 254.73 12.104 255.106 11.728C255.49 11.352 255.682 10.824 255.682 10.144V8.764C255.466 9.148 255.146 9.468 254.722 9.724C254.298 9.98 253.802 10.108 253.234 10.108C252.65 10.108 252.118 9.964 251.638 9.676C251.166 9.388 250.794 8.984 250.522 8.464C250.25 7.944 250.114 7.352 250.114 6.688C250.114 6.016 250.25 5.428 250.522 4.924C250.794 4.412 251.166 4.016 251.638 3.736C252.118 3.456 252.65 3.316 253.234 3.316ZM255.682 6.7C255.682 6.204 255.582 5.772 255.382 5.404C255.182 5.036 254.91 4.756 254.566 4.564C254.23 4.364 253.858 4.264 253.45 4.264C253.042 4.264 252.67 4.36 252.334 4.552C251.998 4.744 251.73 5.024 251.53 5.392C251.33 5.76 251.23 6.192 251.23 6.688C251.23 7.192 251.33 7.632 251.53 8.008C251.73 8.376 251.998 8.66 252.334 8.86C252.67 9.052 253.042 9.148 253.45 9.148C253.858 9.148 254.23 9.052 254.566 8.86C254.91 8.66 255.182 8.376 255.382 8.008C255.582 7.632 255.682 7.196 255.682 6.7ZM268.55 10.456V11.464H262.166V10.456H268.55ZM280.274 1.636V10H279.182V6.208H274.922V10H273.83V1.636H274.922V5.308H279.182V1.636H280.274ZM281.731 6.688C281.731 6.016 281.867 5.428 282.139 4.924C282.411 4.412 282.783 4.016 283.255 3.736C283.735 3.456 284.267 3.316 284.851 3.316C285.427 3.316 285.927 3.44 286.351 3.688C286.775 3.936 287.091 4.248 287.299 4.624V3.424H288.403V10H287.299V8.776C287.083 9.16 286.759 9.48 286.327 9.736C285.903 9.984 285.407 10.108 284.839 10.108C284.255 10.108 283.727 9.964 283.255 9.676C282.783 9.388 282.411 8.984 282.139 8.464C281.867 7.944 281.731 7.352 281.731 6.688ZM287.299 6.7C287.299 6.204 287.199 5.772 286.999 5.404C286.799 5.036 286.527 4.756 286.183 4.564C285.847 4.364 285.475 4.264 285.067 4.264C284.659 4.264 284.287 4.36 283.951 4.552C283.615 4.744 283.347 5.024 283.147 5.392C282.947 5.76 282.847 6.192 282.847 6.688C282.847 7.192 282.947 7.632 283.147 8.008C283.347 8.376 283.615 8.66 283.951 8.86C284.287 9.052 284.659 9.148 285.067 9.148C285.475 9.148 285.847 9.052 286.183 8.86C286.527 8.66 286.799 8.376 286.999 8.008C287.199 7.632 287.299 7.196 287.299 6.7ZM291.34 4.492C291.532 4.116 291.804 3.824 292.156 3.616C292.516 3.408 292.952 3.304 293.464 3.304V4.432H293.176C291.952 4.432 291.34 5.096 291.34 6.424V10H290.248V3.424H291.34V4.492ZM297.173 8.992L299.213 3.424H300.377L297.797 10H296.525L293.945 3.424H295.121L297.173 8.992ZM307.451 6.46C307.451 6.668 307.439 6.888 307.415 7.12H302.159C302.199 7.768 302.419 8.276 302.819 8.644C303.227 9.004 303.719 9.184 304.295 9.184C304.767 9.184 305.159 9.076 305.471 8.86C305.791 8.636 306.015 8.34 306.143 7.972H307.319C307.143 8.604 306.791 9.12 306.263 9.52C305.735 9.912 305.079 10.108 304.295 10.108C303.671 10.108 303.111 9.968 302.615 9.688C302.127 9.408 301.743 9.012 301.463 8.5C301.183 7.98 301.043 7.38 301.043 6.7C301.043 6.02 301.179 5.424 301.451 4.912C301.723 4.4 302.103 4.008 302.591 3.736C303.087 3.456 303.655 3.316 304.295 3.316C304.919 3.316 305.471 3.452 305.951 3.724C306.431 3.996 306.799 4.372 307.055 4.852C307.319 5.324 307.451 5.86 307.451 6.46ZM306.323 6.232C306.323 5.816 306.231 5.46 306.047 5.164C305.863 4.86 305.611 4.632 305.291 4.48C304.979 4.32 304.631 4.24 304.247 4.24C303.695 4.24 303.223 4.416 302.831 4.768C302.447 5.12 302.227 5.608 302.171 6.232H306.323ZM311.221 10.108C310.717 10.108 310.265 10.024 309.865 9.856C309.465 9.68 309.149 9.44 308.917 9.136C308.685 8.824 308.557 8.468 308.533 8.068H309.661C309.693 8.396 309.845 8.664 310.117 8.872C310.397 9.08 310.761 9.184 311.209 9.184C311.625 9.184 311.953 9.092 312.193 8.908C312.433 8.724 312.553 8.492 312.553 8.212C312.553 7.924 312.425 7.712 312.169 7.576C311.913 7.432 311.517 7.292 310.981 7.156C310.493 7.028 310.093 6.9 309.781 6.772C309.477 6.636 309.213 6.44 308.989 6.184C308.773 5.92 308.665 5.576 308.665 5.152C308.665 4.816 308.765 4.508 308.965 4.228C309.165 3.948 309.449 3.728 309.817 3.568C310.185 3.4 310.605 3.316 311.077 3.316C311.805 3.316 312.393 3.5 312.841 3.868C313.289 4.236 313.529 4.74 313.561 5.38H312.469C312.445 5.036 312.305 4.76 312.049 4.552C311.801 4.344 311.465 4.24 311.041 4.24C310.649 4.24 310.337 4.324 310.105 4.492C309.873 4.66 309.757 4.88 309.757 5.152C309.757 5.368 309.825 5.548 309.961 5.692C310.105 5.828 310.281 5.94 310.489 6.028C310.705 6.108 311.001 6.2 311.377 6.304C311.849 6.432 312.233 6.56 312.529 6.688C312.825 6.808 313.077 6.992 313.285 7.24C313.501 7.488 313.613 7.812 313.621 8.212C313.621 8.572 313.521 8.896 313.321 9.184C313.121 9.472 312.837 9.7 312.469 9.868C312.109 10.028 311.693 10.108 311.221 10.108ZM316.494 4.324V8.2C316.494 8.52 316.562 8.748 316.698 8.884C316.834 9.012 317.07 9.076 317.406 9.076H318.21V10H317.226C316.618 10 316.162 9.86 315.858 9.58C315.554 9.3 315.402 8.84 315.402 8.2V4.324H314.55V3.424H315.402V1.768H316.494V3.424H318.21V4.324H316.494ZM325.533 6.46C325.533 6.668 325.521 6.888 325.497 7.12H320.241C320.281 7.768 320.501 8.276 320.901 8.644C321.309 9.004 321.801 9.184 322.377 9.184C322.849 9.184 323.241 9.076 323.553 8.86C323.873 8.636 324.097 8.34 324.225 7.972H325.401C325.225 8.604 324.873 9.12 324.345 9.52C323.817 9.912 323.161 10.108 322.377 10.108C321.753 10.108 321.193 9.968 320.697 9.688C320.209 9.408 319.825 9.012 319.545 8.5C319.265 7.98 319.125 7.38 319.125 6.7C319.125 6.02 319.261 5.424 319.533 4.912C319.805 4.4 320.185 4.008 320.673 3.736C321.169 3.456 321.737 3.316 322.377 3.316C323.001 3.316 323.553 3.452 324.033 3.724C324.513 3.996 324.881 4.372 325.137 4.852C325.401 5.324 325.533 5.86 325.533 6.46ZM324.405 6.232C324.405 5.816 324.313 5.46 324.129 5.164C323.945 4.86 323.693 4.632 323.373 4.48C323.061 4.32 322.713 4.24 322.329 4.24C321.777 4.24 321.305 4.416 320.913 4.768C320.529 5.12 320.309 5.608 320.253 6.232H324.405ZM328.067 4.492C328.259 4.116 328.531 3.824 328.883 3.616C329.243 3.408 329.679 3.304 330.191 3.304V4.432H329.903C328.679 4.432 328.067 5.096 328.067 6.424V10H326.975V3.424H328.067V4.492ZM341.371 10.456V11.464H334.987V10.456H341.371ZM346.243 5.812C346.243 4.996 346.427 4.264 346.795 3.616C347.163 2.96 347.663 2.448 348.295 2.08C348.935 1.712 349.643 1.528 350.419 1.528C351.331 1.528 352.127 1.748 352.807 2.188C353.487 2.628 353.983 3.252 354.295 4.06H352.987C352.755 3.556 352.419 3.168 351.979 2.896C351.547 2.624 351.027 2.488 350.419 2.488C349.835 2.488 349.311 2.624 348.847 2.896C348.383 3.168 348.019 3.556 347.755 4.06C347.491 4.556 347.359 5.14 347.359 5.812C347.359 6.476 347.491 7.06 347.755 7.564C348.019 8.06 348.383 8.444 348.847 8.716C349.311 8.988 349.835 9.124 350.419 9.124C351.027 9.124 351.547 8.992 351.979 8.728C352.419 8.456 352.755 8.068 352.987 7.564H354.295C353.983 8.364 353.487 8.984 352.807 9.424C352.127 9.856 351.331 10.072 350.419 10.072C349.643 10.072 348.935 9.892 348.295 9.532C347.663 9.164 347.163 8.656 346.795 8.008C346.427 7.36 346.243 6.628 346.243 5.812ZM361.752 3.424V10H360.66V9.028C360.452 9.364 360.16 9.628 359.784 9.82C359.416 10.004 359.008 10.096 358.56 10.096C358.048 10.096 357.588 9.992 357.18 9.784C356.772 9.568 356.448 9.248 356.208 8.824C355.976 8.4 355.86 7.884 355.86 7.276V3.424H356.94V7.132C356.94 7.78 357.104 8.28 357.432 8.632C357.76 8.976 358.208 9.148 358.776 9.148C359.36 9.148 359.82 8.968 360.156 8.608C360.492 8.248 360.66 7.724 360.66 7.036V3.424H361.752ZM364.688 1.12V10H363.596V1.12H364.688ZM367.881 4.324V8.2C367.881 8.52 367.949 8.748 368.085 8.884C368.221 9.012 368.457 9.076 368.793 9.076H369.597V10H368.613C368.005 10 367.549 9.86 367.245 9.58C366.941 9.3 366.789 8.84 366.789 8.2V4.324H365.937V3.424H366.789V1.768H367.881V3.424H369.597V4.324H367.881ZM371.484 2.356C371.276 2.356 371.1 2.284 370.956 2.14C370.812 1.996 370.74 1.82 370.74 1.612C370.74 1.404 370.812 1.228 370.956 1.084C371.1 0.94 371.276 0.868 371.484 0.868C371.684 0.868 371.852 0.94 371.988 1.084C372.132 1.228 372.204 1.404 372.204 1.612C372.204 1.82 372.132 1.996 371.988 2.14C371.852 2.284 371.684 2.356 371.484 2.356ZM372.012 3.424V10H370.92V3.424H372.012ZM376.321 8.992L378.361 3.424H379.525L376.945 10H375.673L373.093 3.424H374.269L376.321 8.992ZM380.192 6.688C380.192 6.016 380.328 5.428 380.6 4.924C380.872 4.412 381.244 4.016 381.716 3.736C382.196 3.456 382.728 3.316 383.312 3.316C383.888 3.316 384.388 3.44 384.812 3.688C385.236 3.936 385.552 4.248 385.76 4.624V3.424H386.864V10H385.76V8.776C385.544 9.16 385.22 9.48 384.788 9.736C384.364 9.984 383.868 10.108 383.3 10.108C382.716 10.108 382.188 9.964 381.716 9.676C381.244 9.388 380.872 8.984 380.6 8.464C380.328 7.944 380.192 7.352 380.192 6.688ZM385.76 6.7C385.76 6.204 385.66 5.772 385.46 5.404C385.26 5.036 384.988 4.756 384.644 4.564C384.308 4.364 383.936 4.264 383.528 4.264C383.12 4.264 382.748 4.36 382.412 4.552C382.076 4.744 381.808 5.024 381.608 5.392C381.408 5.76 381.308 6.192 381.308 6.688C381.308 7.192 381.408 7.632 381.608 8.008C381.808 8.376 382.076 8.66 382.412 8.86C382.748 9.052 383.12 9.148 383.528 9.148C383.936 9.148 384.308 9.052 384.644 8.86C384.988 8.66 385.26 8.376 385.46 8.008C385.66 7.632 385.76 7.196 385.76 6.7ZM390.041 4.324V8.2C390.041 8.52 390.109 8.748 390.245 8.884C390.381 9.012 390.617 9.076 390.953 9.076H391.757V10H390.773C390.165 10 389.709 9.86 389.405 9.58C389.101 9.3 388.949 8.84 388.949 8.2V4.324H388.097V3.424H388.949V1.768H390.041V3.424H391.757V4.324H390.041ZM395.948 10.108C395.332 10.108 394.772 9.968 394.268 9.688C393.772 9.408 393.38 9.012 393.092 8.5C392.812 7.98 392.672 7.38 392.672 6.7C392.672 6.028 392.816 5.436 393.104 4.924C393.4 4.404 393.8 4.008 394.304 3.736C394.808 3.456 395.372 3.316 395.996 3.316C396.62 3.316 397.184 3.456 397.688 3.736C398.192 4.008 398.588 4.4 398.876 4.912C399.172 5.424 399.32 6.02 399.32 6.7C399.32 7.38 399.168 7.98 398.864 8.5C398.568 9.012 398.164 9.408 397.652 9.688C397.14 9.968 396.572 10.108 395.948 10.108ZM395.948 9.148C396.34 9.148 396.708 9.056 397.052 8.872C397.396 8.688 397.672 8.412 397.88 8.044C398.096 7.676 398.204 7.228 398.204 6.7C398.204 6.172 398.1 5.724 397.892 5.356C397.684 4.988 397.412 4.716 397.076 4.54C396.74 4.356 396.376 4.264 395.984 4.264C395.584 4.264 395.216 4.356 394.88 4.54C394.552 4.716 394.288 4.988 394.088 5.356C393.888 5.724 393.788 6.172 393.788 6.7C393.788 7.236 393.884 7.688 394.076 8.056C394.276 8.424 394.54 8.7 394.868 8.884C395.196 9.06 395.556 9.148 395.948 9.148ZM401.848 4.492C402.04 4.116 402.312 3.824 402.664 3.616C403.024 3.408 403.46 3.304 403.972 3.304V4.432H403.684C402.46 4.432 401.848 5.096 401.848 6.424V10H400.756V3.424H401.848V4.492ZM415.152 10.456V11.464H408.768V10.456H415.152ZM425.376 8.14H421.728L421.056 10H419.904L422.928 1.684H424.188L427.2 10H426.048L425.376 8.14ZM425.064 7.252L423.552 3.028L422.04 7.252H425.064ZM431.23 3.316C431.798 3.316 432.294 3.44 432.718 3.688C433.15 3.936 433.47 4.248 433.678 4.624V3.424H434.782V10.144C434.782 10.744 434.654 11.276 434.398 11.74C434.142 12.212 433.774 12.58 433.294 12.844C432.822 13.108 432.27 13.24 431.638 13.24C430.774 13.24 430.054 13.036 429.478 12.628C428.902 12.22 428.562 11.664 428.458 10.96H429.538C429.658 11.36 429.906 11.68 430.282 11.92C430.658 12.168 431.11 12.292 431.638 12.292C432.238 12.292 432.726 12.104 433.102 11.728C433.486 11.352 433.678 10.824 433.678 10.144V8.764C433.462 9.148 433.142 9.468 432.718 9.724C432.294 9.98 431.798 10.108 431.23 10.108C430.646 10.108 430.114 9.964 429.634 9.676C429.162 9.388 428.79 8.984 428.518 8.464C428.246 7.944 428.11 7.352 428.11 6.688C428.11 6.016 428.246 5.428 428.518 4.924C428.79 4.412 429.162 4.016 429.634 3.736C430.114 3.456 430.646 3.316 431.23 3.316ZM433.678 6.7C433.678 6.204 433.578 5.772 433.378 5.404C433.178 5.036 432.906 4.756 432.562 4.564C432.226 4.364 431.854 4.264 431.446 4.264C431.038 4.264 430.666 4.36 430.33 4.552C429.994 4.744 429.726 5.024 429.526 5.392C429.326 5.76 429.226 6.192 429.226 6.688C429.226 7.192 429.326 7.632 429.526 8.008C429.726 8.376 429.994 8.66 430.33 8.86C430.666 9.052 431.038 9.148 431.446 9.148C431.854 9.148 432.226 9.052 432.562 8.86C432.906 8.66 433.178 8.376 433.378 8.008C433.578 7.632 433.678 7.196 433.678 6.7ZM437.719 4.492C437.911 4.116 438.183 3.824 438.535 3.616C438.895 3.408 439.331 3.304 439.843 3.304V4.432H439.555C438.331 4.432 437.719 5.096 437.719 6.424V10H436.627V3.424H437.719V4.492ZM441.668 2.356C441.46 2.356 441.284 2.284 441.14 2.14C440.996 1.996 440.924 1.82 440.924 1.612C440.924 1.404 440.996 1.228 441.14 1.084C441.284 0.94 441.46 0.868 441.668 0.868C441.868 0.868 442.036 0.94 442.172 1.084C442.316 1.228 442.388 1.404 442.388 1.612C442.388 1.82 442.316 1.996 442.172 2.14C442.036 2.284 441.868 2.356 441.668 2.356ZM442.196 3.424V10H441.104V3.424H442.196ZM445.149 4.636C445.365 4.26 445.685 3.948 446.109 3.7C446.541 3.444 447.041 3.316 447.609 3.316C448.193 3.316 448.721 3.456 449.193 3.736C449.673 4.016 450.049 4.412 450.321 4.924C450.593 5.428 450.729 6.016 450.729 6.688C450.729 7.352 450.593 7.944 450.321 8.464C450.049 8.984 449.673 9.388 449.193 9.676C448.721 9.964 448.193 10.108 447.609 10.108C447.049 10.108 446.553 9.984 446.121 9.736C445.697 9.48 445.373 9.164 445.149 8.788V13.12H444.057V3.424H445.149V4.636ZM449.613 6.688C449.613 6.192 449.513 5.76 449.313 5.392C449.113 5.024 448.841 4.744 448.497 4.552C448.161 4.36 447.789 4.264 447.381 4.264C446.981 4.264 446.609 4.364 446.265 4.564C445.929 4.756 445.657 5.04 445.449 5.416C445.249 5.784 445.149 6.212 445.149 6.7C445.149 7.196 445.249 7.632 445.449 8.008C445.657 8.376 445.929 8.66 446.265 8.86C446.609 9.052 446.981 9.148 447.381 9.148C447.789 9.148 448.161 9.052 448.497 8.86C448.841 8.66 449.113 8.376 449.313 8.008C449.513 7.632 449.613 7.192 449.613 6.688ZM453.258 4.492C453.45 4.116 453.722 3.824 454.074 3.616C454.434 3.408 454.87 3.304 455.382 3.304V4.432H455.094C453.87 4.432 453.258 5.096 453.258 6.424V10H452.166V3.424H453.258V4.492ZM459.511 10.108C458.895 10.108 458.335 9.968 457.831 9.688C457.335 9.408 456.943 9.012 456.655 8.5C456.375 7.98 456.235 7.38 456.235 6.7C456.235 6.028 456.379 5.436 456.667 4.924C456.963 4.404 457.363 4.008 457.867 3.736C458.371 3.456 458.935 3.316 459.559 3.316C460.183 3.316 460.747 3.456 461.251 3.736C461.755 4.008 462.151 4.4 462.439 4.912C462.735 5.424 462.883 6.02 462.883 6.7C462.883 7.38 462.731 7.98 462.427 8.5C462.131 9.012 461.727 9.408 461.215 9.688C460.703 9.968 460.135 10.108 459.511 10.108ZM459.511 9.148C459.903 9.148 460.271 9.056 460.615 8.872C460.959 8.688 461.235 8.412 461.443 8.044C461.659 7.676 461.767 7.228 461.767 6.7C461.767 6.172 461.663 5.724 461.455 5.356C461.247 4.988 460.975 4.716 460.639 4.54C460.303 4.356 459.939 4.264 459.547 4.264C459.147 4.264 458.779 4.356 458.443 4.54C458.115 4.716 457.851 4.988 457.651 5.356C457.451 5.724 457.351 6.172 457.351 6.7C457.351 7.236 457.447 7.688 457.639 8.056C457.839 8.424 458.103 8.7 458.431 8.884C458.759 9.06 459.119 9.148 459.511 9.148ZM473.11 4.084C473.11 4.78 472.87 5.36 472.39 5.824C471.918 6.28 471.194 6.508 470.218 6.508H468.61V10H467.518V1.636H470.218C471.162 1.636 471.878 1.864 472.366 2.32C472.862 2.776 473.11 3.364 473.11 4.084ZM470.218 5.608C470.826 5.608 471.274 5.476 471.562 5.212C471.85 4.948 471.994 4.572 471.994 4.084C471.994 3.052 471.402 2.536 470.218 2.536H468.61V5.608H470.218ZM477.335 10.108C476.719 10.108 476.159 9.968 475.655 9.688C475.159 9.408 474.767 9.012 474.479 8.5C474.199 7.98 474.059 7.38 474.059 6.7C474.059 6.028 474.203 5.436 474.491 4.924C474.787 4.404 475.187 4.008 475.691 3.736C476.195 3.456 476.759 3.316 477.383 3.316C478.007 3.316 478.571 3.456 479.075 3.736C479.579 4.008 479.975 4.4 480.263 4.912C480.559 5.424 480.707 6.02 480.707 6.7C480.707 7.38 480.555 7.98 480.251 8.5C479.955 9.012 479.551 9.408 479.039 9.688C478.527 9.968 477.959 10.108 477.335 10.108ZM477.335 9.148C477.727 9.148 478.095 9.056 478.439 8.872C478.783 8.688 479.059 8.412 479.267 8.044C479.483 7.676 479.591 7.228 479.591 6.7C479.591 6.172 479.487 5.724 479.279 5.356C479.071 4.988 478.799 4.716 478.463 4.54C478.127 4.356 477.763 4.264 477.371 4.264C476.971 4.264 476.603 4.356 476.267 4.54C475.939 4.716 475.675 4.988 475.475 5.356C475.275 5.724 475.175 6.172 475.175 6.7C475.175 7.236 475.271 7.688 475.463 8.056C475.663 8.424 475.927 8.7 476.255 8.884C476.583 9.06 476.943 9.148 477.335 9.148ZM490.903 3.424L488.851 10H487.723L486.139 4.78L484.555 10H483.427L481.363 3.424H482.479L483.991 8.944L485.623 3.424H486.739L488.335 8.956L489.823 3.424H490.903ZM497.987 6.46C497.987 6.668 497.975 6.888 497.951 7.12H492.695C492.735 7.768 492.955 8.276 493.355 8.644C493.763 9.004 494.255 9.184 494.831 9.184C495.303 9.184 495.695 9.076 496.007 8.86C496.327 8.636 496.551 8.34 496.679 7.972H497.855C497.679 8.604 497.327 9.12 496.799 9.52C496.271 9.912 495.615 10.108 494.831 10.108C494.207 10.108 493.647 9.968 493.151 9.688C492.663 9.408 492.279 9.012 491.999 8.5C491.719 7.98 491.579 7.38 491.579 6.7C491.579 6.02 491.715 5.424 491.987 4.912C492.259 4.4 492.639 4.008 493.127 3.736C493.623 3.456 494.191 3.316 494.831 3.316C495.455 3.316 496.007 3.452 496.487 3.724C496.967 3.996 497.335 4.372 497.591 4.852C497.855 5.324 497.987 5.86 497.987 6.46ZM496.859 6.232C496.859 5.816 496.767 5.46 496.583 5.164C496.399 4.86 496.147 4.632 495.827 4.48C495.515 4.32 495.167 4.24 494.783 4.24C494.231 4.24 493.759 4.416 493.367 4.768C492.983 5.12 492.763 5.608 492.707 6.232H496.859ZM500.52 4.492C500.712 4.116 500.984 3.824 501.336 3.616C501.696 3.408 502.132 3.304 502.644 3.304V4.432H502.356C501.132 4.432 500.52 5.096 500.52 6.424V10H499.428V3.424H500.52V4.492ZM506.696 5.812C506.696 4.996 506.88 4.264 507.248 3.616C507.616 2.96 508.116 2.448 508.748 2.08C509.388 1.712 510.096 1.528 510.872 1.528C511.784 1.528 512.58 1.748 513.26 2.188C513.94 2.628 514.436 3.252 514.748 4.06H513.44C513.208 3.556 512.872 3.168 512.432 2.896C512 2.624 511.48 2.488 510.872 2.488C510.288 2.488 509.764 2.624 509.3 2.896C508.836 3.168 508.472 3.556 508.208 4.06C507.944 4.556 507.812 5.14 507.812 5.812C507.812 6.476 507.944 7.06 508.208 7.564C508.472 8.06 508.836 8.444 509.3 8.716C509.764 8.988 510.288 9.124 510.872 9.124C511.48 9.124 512 8.992 512.432 8.728C512.872 8.456 513.208 8.068 513.44 7.564H514.748C514.436 8.364 513.94 8.984 513.26 9.424C512.58 9.856 511.784 10.072 510.872 10.072C510.096 10.072 509.388 9.892 508.748 9.532C508.116 9.164 507.616 8.656 507.248 8.008C506.88 7.36 506.696 6.628 506.696 5.812ZM522.205 3.424V10H521.113V9.028C520.905 9.364 520.613 9.628 520.237 9.82C519.869 10.004 519.461 10.096 519.013 10.096C518.501 10.096 518.041 9.992 517.633 9.784C517.225 9.568 516.901 9.248 516.661 8.824C516.429 8.4 516.313 7.884 516.313 7.276V3.424H517.393V7.132C517.393 7.78 517.557 8.28 517.885 8.632C518.213 8.976 518.661 9.148 519.229 9.148C519.813 9.148 520.273 8.968 520.609 8.608C520.945 8.248 521.113 7.724 521.113 7.036V3.424H522.205ZM525.141 1.12V10H524.049V1.12H525.141ZM528.334 4.324V8.2C528.334 8.52 528.402 8.748 528.538 8.884C528.674 9.012 528.91 9.076 529.246 9.076H530.05V10H529.066C528.458 10 528.002 9.86 527.698 9.58C527.394 9.3 527.242 8.84 527.242 8.2V4.324H526.39V3.424H527.242V1.768H528.334V3.424H530.05V4.324H528.334ZM531.937 2.356C531.729 2.356 531.553 2.284 531.409 2.14C531.265 1.996 531.193 1.82 531.193 1.612C531.193 1.404 531.265 1.228 531.409 1.084C531.553 0.94 531.729 0.868 531.937 0.868C532.137 0.868 532.305 0.94 532.441 1.084C532.585 1.228 532.657 1.404 532.657 1.612C532.657 1.82 532.585 1.996 532.441 2.14C532.305 2.284 532.137 2.356 531.937 2.356ZM532.465 3.424V10H531.373V3.424H532.465ZM536.774 8.992L538.814 3.424H539.978L537.398 10H536.126L533.546 3.424H534.722L536.774 8.992ZM540.645 6.688C540.645 6.016 540.781 5.428 541.053 4.924C541.325 4.412 541.697 4.016 542.169 3.736C542.649 3.456 543.181 3.316 543.765 3.316C544.341 3.316 544.841 3.44 545.265 3.688C545.689 3.936 546.005 4.248 546.213 4.624V3.424H547.317V10H546.213V8.776C545.997 9.16 545.673 9.48 545.241 9.736C544.817 9.984 544.321 10.108 543.753 10.108C543.169 10.108 542.641 9.964 542.169 9.676C541.697 9.388 541.325 8.984 541.053 8.464C540.781 7.944 540.645 7.352 540.645 6.688ZM546.213 6.7C546.213 6.204 546.113 5.772 545.913 5.404C545.713 5.036 545.441 4.756 545.097 4.564C544.761 4.364 544.389 4.264 543.981 4.264C543.573 4.264 543.201 4.36 542.865 4.552C542.529 4.744 542.261 5.024 542.061 5.392C541.861 5.76 541.761 6.192 541.761 6.688C541.761 7.192 541.861 7.632 542.061 8.008C542.261 8.376 542.529 8.66 542.865 8.86C543.201 9.052 543.573 9.148 543.981 9.148C544.389 9.148 544.761 9.052 545.097 8.86C545.441 8.66 545.713 8.376 545.913 8.008C546.113 7.632 546.213 7.196 546.213 6.7ZM550.494 4.324V8.2C550.494 8.52 550.562 8.748 550.698 8.884C550.834 9.012 551.07 9.076 551.406 9.076H552.21V10H551.226C550.618 10 550.162 9.86 549.858 9.58C549.554 9.3 549.402 8.84 549.402 8.2V4.324H548.55V3.424H549.402V1.768H550.494V3.424H552.21V4.324H550.494ZM556.401 10.108C555.785 10.108 555.225 9.968 554.721 9.688C554.225 9.408 553.833 9.012 553.545 8.5C553.265 7.98 553.125 7.38 553.125 6.7C553.125 6.028 553.269 5.436 553.557 4.924C553.853 4.404 554.253 4.008 554.757 3.736C555.261 3.456 555.825 3.316 556.449 3.316C557.073 3.316 557.637 3.456 558.141 3.736C558.645 4.008 559.041 4.4 559.329 4.912C559.625 5.424 559.773 6.02 559.773 6.7C559.773 7.38 559.621 7.98 559.317 8.5C559.021 9.012 558.617 9.408 558.105 9.688C557.593 9.968 557.025 10.108 556.401 10.108ZM556.401 9.148C556.793 9.148 557.161 9.056 557.505 8.872C557.849 8.688 558.125 8.412 558.333 8.044C558.549 7.676 558.657 7.228 558.657 6.7C558.657 6.172 558.553 5.724 558.345 5.356C558.137 4.988 557.865 4.716 557.529 4.54C557.193 4.356 556.829 4.264 556.437 4.264C556.037 4.264 555.669 4.356 555.333 4.54C555.005 4.716 554.741 4.988 554.541 5.356C554.341 5.724 554.241 6.172 554.241 6.7C554.241 7.236 554.337 7.688 554.529 8.056C554.729 8.424 554.993 8.7 555.321 8.884C555.649 9.06 556.009 9.148 556.401 9.148ZM562.301 4.492C562.493 4.116 562.765 3.824 563.117 3.616C563.477 3.408 563.913 3.304 564.425 3.304V4.432H564.137C562.913 4.432 562.301 5.096 562.301 6.424V10H561.209V3.424H562.301V4.492Z" fill="#A7A8AB"/>
</svg>
