<svg width="500" height="64" viewBox="0 0 500 64" fill="none" xmlns="http://www.w3.org/2000/svg">
<rect width="500" height="64" rx="8" fill="white"/>
<path d="M18.688 28.032V31.76H22.752V32.96H18.688V36.8H23.232V38H17.232V26.832H23.232V28.032H18.688ZM29.7071 29.072C30.7738 29.072 31.6378 29.3973 32.2991 30.048C32.9605 30.688 33.2911 31.616 33.2911 32.832V38H31.8511V33.04C31.8511 32.1653 31.6325 31.4987 31.1951 31.04C30.7578 30.5707 30.1605 30.336 29.4031 30.336C28.6351 30.336 28.0218 30.576 27.5631 31.056C27.1151 31.536 26.8911 32.2347 26.8911 33.152V38H25.4351V29.232H26.8911V30.48C27.1791 30.032 27.5685 29.6853 28.0591 29.44C28.5605 29.1947 29.1098 29.072 29.7071 29.072ZM37.4455 30.432V35.6C37.4455 36.0267 37.5362 36.3307 37.7175 36.512C37.8988 36.6827 38.2135 36.768 38.6615 36.768H39.7335V38H38.4215C37.6108 38 37.0028 37.8133 36.5975 37.44C36.1922 37.0667 35.9895 36.4533 35.9895 35.6V30.432H34.8535V29.232H35.9895V27.024H37.4455V29.232H39.7335V30.432H37.4455ZM49.4976 33.28C49.4976 33.5573 49.4816 33.8507 49.4496 34.16H42.4416C42.495 35.024 42.7883 35.7013 43.3216 36.192C43.8656 36.672 44.5216 36.912 45.2896 36.912C45.919 36.912 46.4416 36.768 46.8576 36.48C47.2843 36.1813 47.583 35.7867 47.7536 35.296H49.3216C49.087 36.1387 48.6176 36.8267 47.9136 37.36C47.2096 37.8827 46.335 38.144 45.2896 38.144C44.4576 38.144 43.711 37.9573 43.0496 37.584C42.399 37.2107 41.887 36.6827 41.5136 36C41.1403 35.3067 40.9536 34.5067 40.9536 33.6C40.9536 32.6933 41.135 31.8987 41.4976 31.216C41.8603 30.5333 42.367 30.0107 43.0176 29.648C43.679 29.2747 44.4363 29.088 45.2896 29.088C46.1216 29.088 46.8576 29.2693 47.4976 29.632C48.1376 29.9947 48.6283 30.496 48.9696 31.136C49.3216 31.7653 49.4976 32.48 49.4976 33.28ZM47.9936 32.976C47.9936 32.4213 47.871 31.9467 47.6256 31.552C47.3803 31.1467 47.0443 30.8427 46.6176 30.64C46.2016 30.4267 45.7376 30.32 45.2256 30.32C44.4896 30.32 43.8603 30.5547 43.3376 31.024C42.8256 31.4933 42.5323 32.144 42.4576 32.976H47.9936ZM52.8755 30.656C53.1315 30.1547 53.4942 29.7653 53.9635 29.488C54.4435 29.2107 55.0248 29.072 55.7075 29.072V30.576H55.3235C53.6915 30.576 52.8755 31.4613 52.8755 33.232V38H51.4195V29.232H52.8755V30.656ZM69.4619 26.848L65.8299 33.792V38H64.3739V33.792L60.7259 26.848H62.3419L65.0939 32.496L67.8459 26.848H69.4619ZM74.8216 38.144C74.0003 38.144 73.2536 37.9573 72.5816 37.584C71.9203 37.2107 71.3976 36.6827 71.0136 36C70.6403 35.3067 70.4536 34.5067 70.4536 33.6C70.4536 32.704 70.6456 31.9147 71.0296 31.232C71.4243 30.5387 71.9576 30.0107 72.6296 29.648C73.3016 29.2747 74.0536 29.088 74.8856 29.088C75.7176 29.088 76.4696 29.2747 77.1416 29.648C77.8136 30.0107 78.3416 30.5333 78.7256 31.216C79.1203 31.8987 79.3176 32.6933 79.3176 33.6C79.3176 34.5067 79.115 35.3067 78.7096 36C78.315 36.6827 77.7763 37.2107 77.0936 37.584C76.411 37.9573 75.6536 38.144 74.8216 38.144ZM74.8216 36.864C75.3443 36.864 75.835 36.7413 76.2936 36.496C76.7523 36.2507 77.1203 35.8827 77.3976 35.392C77.6856 34.9013 77.8296 34.304 77.8296 33.6C77.8296 32.896 77.691 32.2987 77.4136 31.808C77.1363 31.3173 76.7736 30.9547 76.3256 30.72C75.8776 30.4747 75.3923 30.352 74.8696 30.352C74.3363 30.352 73.8456 30.4747 73.3976 30.72C72.9603 30.9547 72.6083 31.3173 72.3416 31.808C72.075 32.2987 71.9416 32.896 71.9416 33.6C71.9416 34.3147 72.0696 34.9173 72.3256 35.408C72.5923 35.8987 72.9443 36.2667 73.3816 36.512C73.819 36.7467 74.299 36.864 74.8216 36.864ZM89.008 29.232V38H87.552V36.704C87.2747 37.152 86.8853 37.504 86.384 37.76C85.8933 38.0053 85.3493 38.128 84.752 38.128C84.0693 38.128 83.456 37.9893 82.912 37.712C82.368 37.424 81.936 36.9973 81.616 36.432C81.3067 35.8667 81.152 35.1787 81.152 34.368V29.232H82.592V34.176C82.592 35.04 82.8107 35.7067 83.248 36.176C83.6853 36.6347 84.2827 36.864 85.04 36.864C85.8187 36.864 86.432 36.624 86.88 36.144C87.328 35.664 87.552 34.9653 87.552 34.048V29.232H89.008ZM92.9224 30.656C93.1784 30.1547 93.541 29.7653 94.0104 29.488C94.4904 29.2107 95.0717 29.072 95.7544 29.072V30.576H95.3704C93.7384 30.576 92.9224 31.4613 92.9224 33.232V38H91.4664V29.232H92.9224V30.656ZM103.157 28.032V31.76H107.221V32.96H103.157V36.8H107.701V38H101.701V26.832H107.701V28.032H103.157ZM120.448 29.072C121.131 29.072 121.739 29.216 122.272 29.504C122.805 29.7813 123.227 30.2027 123.536 30.768C123.845 31.3333 124 32.0213 124 32.832V38H122.56V33.04C122.56 32.1653 122.341 31.4987 121.904 31.04C121.477 30.5707 120.896 30.336 120.16 30.336C119.403 30.336 118.8 30.5813 118.352 31.072C117.904 31.552 117.68 32.2507 117.68 33.168V38H116.24V33.04C116.24 32.1653 116.021 31.4987 115.584 31.04C115.157 30.5707 114.576 30.336 113.84 30.336C113.083 30.336 112.48 30.5813 112.032 31.072C111.584 31.552 111.36 32.2507 111.36 33.168V38H109.904V29.232H111.36V30.496C111.648 30.0373 112.032 29.6853 112.512 29.44C113.003 29.1947 113.541 29.072 114.128 29.072C114.864 29.072 115.515 29.2373 116.08 29.568C116.645 29.8987 117.067 30.384 117.344 31.024C117.589 30.4053 117.995 29.9253 118.56 29.584C119.125 29.2427 119.755 29.072 120.448 29.072ZM125.844 33.584C125.844 32.688 126.026 31.904 126.388 31.232C126.751 30.5493 127.247 30.0213 127.876 29.648C128.516 29.2747 129.226 29.088 130.004 29.088C130.772 29.088 131.439 29.2533 132.004 29.584C132.57 29.9147 132.991 30.3307 133.268 30.832V29.232H134.74V38H133.268V36.368C132.98 36.88 132.548 37.3067 131.972 37.648C131.407 37.9787 130.746 38.144 129.988 38.144C129.21 38.144 128.506 37.952 127.876 37.568C127.247 37.184 126.751 36.6453 126.388 35.952C126.026 35.2587 125.844 34.4693 125.844 33.584ZM133.268 33.6C133.268 32.9387 133.135 32.3627 132.868 31.872C132.602 31.3813 132.239 31.008 131.78 30.752C131.332 30.4853 130.836 30.352 130.292 30.352C129.748 30.352 129.252 30.48 128.804 30.736C128.356 30.992 127.999 31.3653 127.732 31.856C127.466 32.3467 127.332 32.9227 127.332 33.584C127.332 34.256 127.466 34.8427 127.732 35.344C127.999 35.8347 128.356 36.2133 128.804 36.48C129.252 36.736 129.748 36.864 130.292 36.864C130.836 36.864 131.332 36.736 131.78 36.48C132.239 36.2133 132.602 35.8347 132.868 35.344C133.135 34.8427 133.268 34.2613 133.268 33.6ZM137.953 27.808C137.675 27.808 137.441 27.712 137.249 27.52C137.057 27.328 136.961 27.0933 136.961 26.816C136.961 26.5387 137.057 26.304 137.249 26.112C137.441 25.92 137.675 25.824 137.953 25.824C138.219 25.824 138.443 25.92 138.625 26.112C138.817 26.304 138.913 26.5387 138.913 26.816C138.913 27.0933 138.817 27.328 138.625 27.52C138.443 27.712 138.219 27.808 137.953 27.808ZM138.657 29.232V38H137.201V29.232H138.657ZM142.594 26.16V38H141.138V26.16H142.594ZM155.933 35.52H151.069L150.173 38H148.637L152.669 26.912H154.349L158.365 38H156.829L155.933 35.52ZM155.517 34.336L153.501 28.704L151.485 34.336H155.517ZM159.579 33.584C159.579 32.688 159.76 31.904 160.123 31.232C160.485 30.5493 160.981 30.0213 161.611 29.648C162.251 29.2747 162.965 29.088 163.755 29.088C164.437 29.088 165.072 29.248 165.659 29.568C166.245 29.8773 166.693 30.288 167.003 30.8V26.16H168.475V38H167.003V36.352C166.715 36.8747 166.288 37.3067 165.723 37.648C165.157 37.9787 164.496 38.144 163.739 38.144C162.96 38.144 162.251 37.952 161.611 37.568C160.981 37.184 160.485 36.6453 160.123 35.952C159.76 35.2587 159.579 34.4693 159.579 33.584ZM167.003 33.6C167.003 32.9387 166.869 32.3627 166.603 31.872C166.336 31.3813 165.973 31.008 165.515 30.752C165.067 30.4853 164.571 30.352 164.027 30.352C163.483 30.352 162.987 30.48 162.539 30.736C162.091 30.992 161.733 31.3653 161.467 31.856C161.2 32.3467 161.067 32.9227 161.067 33.584C161.067 34.256 161.2 34.8427 161.467 35.344C161.733 35.8347 162.091 36.2133 162.539 36.48C162.987 36.736 163.483 36.864 164.027 36.864C164.571 36.864 165.067 36.736 165.515 36.48C165.973 36.2133 166.336 35.8347 166.603 35.344C166.869 34.8427 167.003 34.2613 167.003 33.6ZM170.391 33.584C170.391 32.688 170.572 31.904 170.935 31.232C171.298 30.5493 171.794 30.0213 172.423 29.648C173.063 29.2747 173.778 29.088 174.567 29.088C175.25 29.088 175.884 29.248 176.471 29.568C177.058 29.8773 177.506 30.288 177.815 30.8V26.16H179.287V38H177.815V36.352C177.527 36.8747 177.1 37.3067 176.535 37.648C175.97 37.9787 175.308 38.144 174.551 38.144C173.772 38.144 173.063 37.952 172.423 37.568C171.794 37.184 171.298 36.6453 170.935 35.952C170.572 35.2587 170.391 34.4693 170.391 33.584ZM177.815 33.6C177.815 32.9387 177.682 32.3627 177.415 31.872C177.148 31.3813 176.786 31.008 176.327 30.752C175.879 30.4853 175.383 30.352 174.839 30.352C174.295 30.352 173.799 30.48 173.351 30.736C172.903 30.992 172.546 31.3653 172.279 31.856C172.012 32.3467 171.879 32.9227 171.879 33.584C171.879 34.256 172.012 34.8427 172.279 35.344C172.546 35.8347 172.903 36.2133 173.351 36.48C173.799 36.736 174.295 36.864 174.839 36.864C175.383 36.864 175.879 36.736 176.327 36.48C176.786 36.2133 177.148 35.8347 177.415 35.344C177.682 34.8427 177.815 34.2613 177.815 33.6ZM183.204 30.656C183.46 30.1547 183.822 29.7653 184.292 29.488C184.772 29.2107 185.353 29.072 186.036 29.072V30.576H185.652C184.02 30.576 183.204 31.4613 183.204 33.232V38H181.748V29.232H183.204V30.656ZM195.716 33.28C195.716 33.5573 195.7 33.8507 195.668 34.16H188.66C188.714 35.024 189.007 35.7013 189.54 36.192C190.084 36.672 190.74 36.912 191.508 36.912C192.138 36.912 192.66 36.768 193.076 36.48C193.503 36.1813 193.802 35.7867 193.972 35.296H195.54C195.306 36.1387 194.836 36.8267 194.132 37.36C193.428 37.8827 192.554 38.144 191.508 38.144C190.676 38.144 189.93 37.9573 189.268 37.584C188.618 37.2107 188.106 36.6827 187.732 36C187.359 35.3067 187.172 34.5067 187.172 33.6C187.172 32.6933 187.354 31.8987 187.716 31.216C188.079 30.5333 188.586 30.0107 189.236 29.648C189.898 29.2747 190.655 29.088 191.508 29.088C192.34 29.088 193.076 29.2693 193.716 29.632C194.356 29.9947 194.847 30.496 195.188 31.136C195.54 31.7653 195.716 32.48 195.716 33.28ZM194.212 32.976C194.212 32.4213 194.09 31.9467 193.844 31.552C193.599 31.1467 193.263 30.8427 192.836 30.64C192.42 30.4267 191.956 30.32 191.444 30.32C190.708 30.32 190.079 30.5547 189.556 31.024C189.044 31.4933 188.751 32.144 188.676 32.976H194.212ZM200.742 38.144C200.07 38.144 199.468 38.032 198.934 37.808C198.401 37.5733 197.98 37.2533 197.67 36.848C197.361 36.432 197.19 35.9573 197.158 35.424H198.662C198.705 35.8613 198.908 36.2187 199.27 36.496C199.644 36.7733 200.129 36.912 200.726 36.912C201.281 36.912 201.718 36.7893 202.038 36.544C202.358 36.2987 202.518 35.9893 202.518 35.616C202.518 35.232 202.348 34.9493 202.006 34.768C201.665 34.576 201.137 34.3893 200.422 34.208C199.772 34.0373 199.238 33.8667 198.822 33.696C198.417 33.5147 198.065 33.2533 197.766 32.912C197.478 32.56 197.334 32.1013 197.334 31.536C197.334 31.088 197.468 30.6773 197.734 30.304C198.001 29.9307 198.38 29.6373 198.87 29.424C199.361 29.2 199.921 29.088 200.55 29.088C201.521 29.088 202.305 29.3333 202.902 29.824C203.5 30.3147 203.82 30.9867 203.862 31.84H202.406C202.374 31.3813 202.188 31.0133 201.846 30.736C201.516 30.4587 201.068 30.32 200.502 30.32C199.98 30.32 199.564 30.432 199.254 30.656C198.945 30.88 198.79 31.1733 198.79 31.536C198.79 31.824 198.881 32.064 199.062 32.256C199.254 32.4373 199.489 32.5867 199.766 32.704C200.054 32.8107 200.449 32.9333 200.95 33.072C201.58 33.2427 202.092 33.4133 202.486 33.584C202.881 33.744 203.217 33.9893 203.494 34.32C203.782 34.6507 203.932 35.0827 203.942 35.616C203.942 36.096 203.809 36.528 203.542 36.912C203.276 37.296 202.897 37.6 202.406 37.824C201.926 38.0373 201.372 38.144 200.742 38.144ZM209.102 38.144C208.43 38.144 207.827 38.032 207.294 37.808C206.76 37.5733 206.339 37.2533 206.03 36.848C205.72 36.432 205.55 35.9573 205.518 35.424H207.022C207.064 35.8613 207.267 36.2187 207.63 36.496C208.003 36.7733 208.488 36.912 209.086 36.912C209.64 36.912 210.078 36.7893 210.398 36.544C210.718 36.2987 210.878 35.9893 210.878 35.616C210.878 35.232 210.707 34.9493 210.366 34.768C210.024 34.576 209.496 34.3893 208.782 34.208C208.131 34.0373 207.598 33.8667 207.182 33.696C206.776 33.5147 206.424 33.2533 206.126 32.912C205.838 32.56 205.694 32.1013 205.694 31.536C205.694 31.088 205.827 30.6773 206.094 30.304C206.36 29.9307 206.739 29.6373 207.23 29.424C207.72 29.2 208.28 29.088 208.91 29.088C209.88 29.088 210.664 29.3333 211.262 29.824C211.859 30.3147 212.179 30.9867 212.222 31.84H210.766C210.734 31.3813 210.547 31.0133 210.206 30.736C209.875 30.4587 209.427 30.32 208.862 30.32C208.339 30.32 207.923 30.432 207.614 30.656C207.304 30.88 207.15 31.1733 207.15 31.536C207.15 31.824 207.24 32.064 207.422 32.256C207.614 32.4373 207.848 32.5867 208.126 32.704C208.414 32.8107 208.808 32.9333 209.31 33.072C209.939 33.2427 210.451 33.4133 210.846 33.584C211.24 33.744 211.576 33.9893 211.854 34.32C212.142 34.6507 212.291 35.0827 212.302 35.616C212.302 36.096 212.168 36.528 211.902 36.912C211.635 37.296 211.256 37.6 210.766 37.824C210.286 38.0373 209.731 38.144 209.102 38.144Z" fill="#A7A8AB"/>
<rect width="126" height="64" transform="translate(374)" fill="#56E20A"/>
<path d="M423.256 36.598C422.603 36.598 422.015 36.486 421.492 36.262C420.969 36.0287 420.559 35.702 420.26 35.282C419.961 34.862 419.812 34.372 419.812 33.812H421.52C421.557 34.232 421.721 34.5773 422.01 34.848C422.309 35.1187 422.724 35.254 423.256 35.254C423.807 35.254 424.236 35.1233 424.544 34.862C424.852 34.5913 425.006 34.246 425.006 33.826C425.006 33.4993 424.908 33.2333 424.712 33.028C424.525 32.8227 424.287 32.664 423.998 32.552C423.718 32.44 423.326 32.3187 422.822 32.188C422.187 32.02 421.669 31.852 421.268 31.684C420.876 31.5067 420.54 31.236 420.26 30.872C419.98 30.508 419.84 30.0227 419.84 29.416C419.84 28.856 419.98 28.366 420.26 27.946C420.54 27.526 420.932 27.204 421.436 26.98C421.94 26.756 422.523 26.644 423.186 26.644C424.129 26.644 424.899 26.882 425.496 27.358C426.103 27.8247 426.439 28.4687 426.504 29.29H424.74C424.712 28.9353 424.544 28.632 424.236 28.38C423.928 28.128 423.522 28.002 423.018 28.002C422.561 28.002 422.187 28.1187 421.898 28.352C421.609 28.5853 421.464 28.9213 421.464 29.36C421.464 29.6587 421.553 29.906 421.73 30.102C421.917 30.2887 422.15 30.438 422.43 30.55C422.71 30.662 423.093 30.7833 423.578 30.914C424.222 31.0913 424.745 31.2687 425.146 31.446C425.557 31.6233 425.902 31.8987 426.182 32.272C426.471 32.636 426.616 33.126 426.616 33.742C426.616 34.2367 426.481 34.7033 426.21 35.142C425.949 35.5807 425.561 35.9353 425.048 36.206C424.544 36.4673 423.947 36.598 423.256 36.598ZM435.569 32.454C435.569 32.7433 435.551 33.0047 435.513 33.238H429.619C429.666 33.854 429.895 34.3487 430.305 34.722C430.716 35.0953 431.22 35.282 431.817 35.282C432.676 35.282 433.283 34.9227 433.637 34.204H435.359C435.126 34.9133 434.701 35.4967 434.085 35.954C433.479 36.402 432.723 36.626 431.817 36.626C431.08 36.626 430.417 36.4627 429.829 36.136C429.251 35.8 428.793 35.3333 428.457 34.736C428.131 34.1293 427.967 33.4293 427.967 32.636C427.967 31.8427 428.126 31.1473 428.443 30.55C428.77 29.9433 429.223 29.4767 429.801 29.15C430.389 28.8233 431.061 28.66 431.817 28.66C432.545 28.66 433.194 28.8187 433.763 29.136C434.333 29.4533 434.776 29.9013 435.093 30.48C435.411 31.0493 435.569 31.7073 435.569 32.454ZM433.903 31.95C433.894 31.362 433.684 30.8907 433.273 30.536C432.863 30.1813 432.354 30.004 431.747 30.004C431.197 30.004 430.725 30.1813 430.333 30.536C429.941 30.8813 429.708 31.3527 429.633 31.95H433.903ZM441.032 28.66C441.639 28.66 442.18 28.786 442.656 29.038C443.141 29.29 443.519 29.6633 443.79 30.158C444.061 30.6527 444.196 31.25 444.196 31.95V36.5H442.614V32.188C442.614 31.4973 442.441 30.97 442.096 30.606C441.751 30.2327 441.279 30.046 440.682 30.046C440.085 30.046 439.609 30.2327 439.254 30.606C438.909 30.97 438.736 31.4973 438.736 32.188V36.5H437.14V28.786H438.736V29.668C438.997 29.3507 439.329 29.1033 439.73 28.926C440.141 28.7487 440.575 28.66 441.032 28.66ZM445.7 32.608C445.7 31.8333 445.858 31.1473 446.176 30.55C446.502 29.9527 446.941 29.4907 447.492 29.164C448.052 28.828 448.672 28.66 449.354 28.66C449.858 28.66 450.352 28.772 450.838 28.996C451.332 29.2107 451.724 29.5 452.014 29.864V26.14H453.624V36.5H452.014V35.338C451.752 35.7113 451.388 36.0193 450.922 36.262C450.464 36.5047 449.937 36.626 449.34 36.626C448.668 36.626 448.052 36.458 447.492 36.122C446.941 35.7767 446.502 35.3007 446.176 34.694C445.858 34.078 445.7 33.3827 445.7 32.608ZM452.014 32.636C452.014 32.104 451.902 31.642 451.678 31.25C451.463 30.858 451.178 30.5593 450.824 30.354C450.469 30.1487 450.086 30.046 449.676 30.046C449.265 30.046 448.882 30.1487 448.528 30.354C448.173 30.55 447.884 30.844 447.66 31.236C447.445 31.6187 447.338 32.076 447.338 32.608C447.338 33.14 447.445 33.6067 447.66 34.008C447.884 34.4093 448.173 34.7173 448.528 34.932C448.892 35.1373 449.274 35.24 449.676 35.24C450.086 35.24 450.469 35.1373 450.824 34.932C451.178 34.7267 451.463 34.428 451.678 34.036C451.902 33.6347 452.014 33.168 452.014 32.636Z" fill="white"/>
</svg>
