<svg width="325" height="24" viewBox="0 0 325 24" fill="none" xmlns="http://www.w3.org/2000/svg">
<path d="M21.97 18.33C21.97 18.69 21.89 19.06 21.72 19.42C21.55 19.78 21.33 20.12 21.04 20.44C20.55 20.98 20.01 21.37 19.4 21.62C18.8 21.87 18.15 22 17.45 22C16.43 22 15.34 21.76 14.19 21.27C13.04 20.78 11.89 20.12 10.75 19.29C9.6 18.45 8.51 17.52 7.47 16.49C6.44 15.45 5.51 14.36 4.68 13.22C3.86 12.08 3.2 10.94 2.72 9.81C2.24 8.67 2 7.58 2 6.54C2 5.86 2.12 5.21 2.36 4.61C2.6 4 2.98 3.44 3.51 2.94C4.15 2.31 4.85 2 5.59 2C5.87 2 6.15 2.06 6.4 2.18C6.66 2.3 6.89 2.48 7.07 2.74L9.39 6.01C9.57 6.26 9.7 6.49 9.79 6.71C9.88 6.92 9.93 7.13 9.93 7.32C9.93 7.56 9.86 7.8 9.72 8.03C9.59 8.26 9.4 8.5 9.16 8.74L8.4 9.53C8.29 9.64 8.24 9.77 8.24 9.93C8.24 10.01 8.25 10.08 8.27 10.16C8.3 10.24 8.33 10.3 8.35 10.36C8.53 10.69 8.84 11.12 9.28 11.64C9.73 12.16 10.21 12.69 10.73 13.22C11.27 13.75 11.79 14.24 12.32 14.69C12.84 15.13 13.27 15.43 13.61 15.61C13.66 15.63 13.72 15.66 13.79 15.69C13.87 15.72 13.95 15.73 14.04 15.73C14.21 15.73 14.34 15.67 14.45 15.56L15.21 14.81C15.46 14.56 15.7 14.37 15.93 14.25C16.16 14.11 16.39 14.04 16.64 14.04C16.83 14.04 17.03 14.08 17.25 14.17C17.47 14.26 17.7 14.39 17.95 14.56L21.26 16.91C21.52 17.09 21.7 17.3 21.81 17.55C21.91 17.8 21.97 18.05 21.97 18.33Z" stroke="white" stroke-width="1.5" stroke-miterlimit="10"/>
<path d="M18.5 9C18.5 8.4 18.03 7.48 17.33 6.73C16.69 6.04 15.84 5.5 15 5.5" stroke="#56E20A" stroke-width="1.5" stroke-linecap="round" stroke-linejoin="round"/>
<path d="M22 9C22 5.13 18.87 2 15 2" stroke="#56E20A" stroke-width="1.5" stroke-linecap="round" stroke-linejoin="round"/>
<path d="M49.824 6.848V18H48.368V12.944H42.688V18H41.232V6.848H42.688V11.744H48.368V6.848H49.824ZM60.3101 13.28C60.3101 13.5573 60.2941 13.8507 60.2621 14.16H53.2541C53.3075 15.024 53.6008 15.7013 54.1341 16.192C54.6781 16.672 55.3341 16.912 56.1021 16.912C56.7315 16.912 57.2541 16.768 57.6701 16.48C58.0968 16.1813 58.3955 15.7867 58.5661 15.296H60.1341C59.8995 16.1387 59.4301 16.8267 58.7261 17.36C58.0221 17.8827 57.1475 18.144 56.1021 18.144C55.2701 18.144 54.5235 17.9573 53.8621 17.584C53.2115 17.2107 52.6995 16.6827 52.3261 16C51.9528 15.3067 51.7661 14.5067 51.7661 13.6C51.7661 12.6933 51.9475 11.8987 52.3101 11.216C52.6728 10.5333 53.1795 10.0107 53.8301 9.648C54.4915 9.27467 55.2488 9.088 56.1021 9.088C56.9341 9.088 57.6701 9.26933 58.3101 9.632C58.9501 9.99467 59.4408 10.496 59.7821 11.136C60.1341 11.7653 60.3101 12.48 60.3101 13.28ZM58.8061 12.976C58.8061 12.4213 58.6835 11.9467 58.4381 11.552C58.1928 11.1467 57.8568 10.8427 57.4301 10.64C57.0141 10.4267 56.5501 10.32 56.0381 10.32C55.3021 10.32 54.6728 10.5547 54.1501 11.024C53.6381 11.4933 53.3448 12.144 53.2701 12.976H58.8061ZM63.688 6.16V18H62.232V6.16H63.688ZM67.6255 10.848C67.9135 10.3467 68.3402 9.93067 68.9055 9.6C69.4815 9.25867 70.1482 9.088 70.9055 9.088C71.6842 9.088 72.3882 9.27467 73.0175 9.648C73.6575 10.0213 74.1588 10.5493 74.5215 11.232C74.8842 11.904 75.0655 12.688 75.0655 13.584C75.0655 14.4693 74.8842 15.2587 74.5215 15.952C74.1588 16.6453 73.6575 17.184 73.0175 17.568C72.3882 17.952 71.6842 18.144 70.9055 18.144C70.1588 18.144 69.4975 17.9787 68.9215 17.648C68.3562 17.3067 67.9242 16.8853 67.6255 16.384V22.16H66.1695V9.232H67.6255V10.848ZM73.5775 13.584C73.5775 12.9227 73.4442 12.3467 73.1775 11.856C72.9108 11.3653 72.5482 10.992 72.0895 10.736C71.6415 10.48 71.1455 10.352 70.6015 10.352C70.0682 10.352 69.5722 10.4853 69.1135 10.752C68.6655 11.008 68.3028 11.3867 68.0255 11.888C67.7588 12.3787 67.6255 12.9493 67.6255 13.6C67.6255 14.2613 67.7588 14.8427 68.0255 15.344C68.3028 15.8347 68.6655 16.2133 69.1135 16.48C69.5722 16.736 70.0682 16.864 70.6015 16.864C71.1455 16.864 71.6415 16.736 72.0895 16.48C72.5482 16.2133 72.9108 15.8347 73.1775 15.344C73.4442 14.8427 73.5775 14.256 73.5775 13.584ZM78.438 6.16V18H76.982V6.16H78.438ZM81.6715 7.808C81.3942 7.808 81.1595 7.712 80.9675 7.52C80.7755 7.328 80.6795 7.09333 80.6795 6.816C80.6795 6.53867 80.7755 6.304 80.9675 6.112C81.1595 5.92 81.3942 5.824 81.6715 5.824C81.9382 5.824 82.1622 5.92 82.3435 6.112C82.5355 6.304 82.6315 6.53867 82.6315 6.816C82.6315 7.09333 82.5355 7.328 82.3435 7.52C82.1622 7.712 81.9382 7.808 81.6715 7.808ZM82.3755 9.232V18H80.9195V9.232H82.3755ZM89.129 9.072C90.1957 9.072 91.0597 9.39733 91.721 10.048C92.3823 10.688 92.713 11.616 92.713 12.832V18H91.273V13.04C91.273 12.1653 91.0543 11.4987 90.617 11.04C90.1797 10.5707 89.5823 10.336 88.825 10.336C88.057 10.336 87.4437 10.576 86.985 11.056C86.537 11.536 86.313 12.2347 86.313 13.152V18H84.857V9.232H86.313V10.48C86.601 10.032 86.9903 9.68533 87.481 9.44C87.9823 9.19467 88.5317 9.072 89.129 9.072ZM103.091 13.28C103.091 13.5573 103.075 13.8507 103.043 14.16H96.0354C96.0887 15.024 96.382 15.7013 96.9154 16.192C97.4594 16.672 98.1154 16.912 98.8834 16.912C99.5127 16.912 100.035 16.768 100.451 16.48C100.878 16.1813 101.177 15.7867 101.347 15.296H102.915C102.681 16.1387 102.211 16.8267 101.507 17.36C100.803 17.8827 99.9287 18.144 98.8834 18.144C98.0514 18.144 97.3047 17.9573 96.6434 17.584C95.9927 17.2107 95.4807 16.6827 95.1074 16C94.734 15.3067 94.5474 14.5067 94.5474 13.6C94.5474 12.6933 94.7287 11.8987 95.0914 11.216C95.454 10.5333 95.9607 10.0107 96.6114 9.648C97.2727 9.27467 98.03 9.088 98.8834 9.088C99.7154 9.088 100.451 9.26933 101.091 9.632C101.731 9.99467 102.222 10.496 102.563 11.136C102.915 11.7653 103.091 12.48 103.091 13.28ZM101.587 12.976C101.587 12.4213 101.465 11.9467 101.219 11.552C100.974 11.1467 100.638 10.8427 100.211 10.64C99.7954 10.4267 99.3314 10.32 98.8194 10.32C98.0834 10.32 97.454 10.5547 96.9314 11.024C96.4194 11.4933 96.126 12.144 96.0514 12.976H101.587ZM118.047 18H116.591L110.735 9.12V18H109.279V6.832H110.735L116.591 15.696V6.832H118.047V18ZM128.305 9.232V18H126.849V16.704C126.572 17.152 126.182 17.504 125.681 17.76C125.19 18.0053 124.646 18.128 124.049 18.128C123.366 18.128 122.753 17.9893 122.209 17.712C121.665 17.424 121.233 16.9973 120.913 16.432C120.604 15.8667 120.449 15.1787 120.449 14.368V9.232H121.889V14.176C121.889 15.04 122.108 15.7067 122.545 16.176C122.982 16.6347 123.58 16.864 124.337 16.864C125.116 16.864 125.729 16.624 126.177 16.144C126.625 15.664 126.849 14.9653 126.849 14.048V9.232H128.305ZM141.307 9.072C141.99 9.072 142.598 9.216 143.131 9.504C143.665 9.78133 144.086 10.2027 144.395 10.768C144.705 11.3333 144.859 12.0213 144.859 12.832V18H143.419V13.04C143.419 12.1653 143.201 11.4987 142.763 11.04C142.337 10.5707 141.755 10.336 141.019 10.336C140.262 10.336 139.659 10.5813 139.211 11.072C138.763 11.552 138.539 12.2507 138.539 13.168V18H137.099V13.04C137.099 12.1653 136.881 11.4987 136.443 11.04C136.017 10.5707 135.435 10.336 134.699 10.336C133.942 10.336 133.339 10.5813 132.891 11.072C132.443 11.552 132.219 12.2507 132.219 13.168V18H130.763V9.232H132.219V10.496C132.507 10.0373 132.891 9.68533 133.371 9.44C133.862 9.19467 134.401 9.072 134.987 9.072C135.723 9.072 136.374 9.23733 136.939 9.568C137.505 9.89867 137.926 10.384 138.203 11.024C138.449 10.4053 138.854 9.92533 139.419 9.584C139.985 9.24267 140.614 9.072 141.307 9.072ZM148.704 10.864C149.002 10.3413 149.44 9.91467 150.016 9.584C150.592 9.25333 151.248 9.088 151.984 9.088C152.773 9.088 153.482 9.27467 154.112 9.648C154.741 10.0213 155.237 10.5493 155.6 11.232C155.962 11.904 156.144 12.688 156.144 13.584C156.144 14.4693 155.962 15.2587 155.6 15.952C155.237 16.6453 154.736 17.184 154.096 17.568C153.466 17.952 152.762 18.144 151.984 18.144C151.226 18.144 150.56 17.9787 149.984 17.648C149.418 17.3173 148.992 16.896 148.704 16.384V18H147.248V6.16H148.704V10.864ZM154.656 13.584C154.656 12.9227 154.522 12.3467 154.256 11.856C153.989 11.3653 153.626 10.992 153.168 10.736C152.72 10.48 152.224 10.352 151.68 10.352C151.146 10.352 150.65 10.4853 150.192 10.752C149.744 11.008 149.381 11.3867 149.104 11.888C148.837 12.3787 148.704 12.9493 148.704 13.6C148.704 14.2613 148.837 14.8427 149.104 15.344C149.381 15.8347 149.744 16.2133 150.192 16.48C150.65 16.736 151.146 16.864 151.68 16.864C152.224 16.864 152.72 16.736 153.168 16.48C153.626 16.2133 153.989 15.8347 154.256 15.344C154.522 14.8427 154.656 14.256 154.656 13.584ZM166.06 13.28C166.06 13.5573 166.044 13.8507 166.012 14.16H159.004C159.057 15.024 159.351 15.7013 159.884 16.192C160.428 16.672 161.084 16.912 161.852 16.912C162.481 16.912 163.004 16.768 163.42 16.48C163.847 16.1813 164.145 15.7867 164.316 15.296H165.884C165.649 16.1387 165.18 16.8267 164.476 17.36C163.772 17.8827 162.897 18.144 161.852 18.144C161.02 18.144 160.273 17.9573 159.612 17.584C158.961 17.2107 158.449 16.6827 158.076 16C157.703 15.3067 157.516 14.5067 157.516 13.6C157.516 12.6933 157.697 11.8987 158.06 11.216C158.423 10.5333 158.929 10.0107 159.58 9.648C160.241 9.27467 160.999 9.088 161.852 9.088C162.684 9.088 163.42 9.26933 164.06 9.632C164.7 9.99467 165.191 10.496 165.532 11.136C165.884 11.7653 166.06 12.48 166.06 13.28ZM164.556 12.976C164.556 12.4213 164.433 11.9467 164.188 11.552C163.943 11.1467 163.607 10.8427 163.18 10.64C162.764 10.4267 162.3 10.32 161.788 10.32C161.052 10.32 160.423 10.5547 159.9 11.024C159.388 11.4933 159.095 12.144 159.02 12.976H164.556ZM169.438 10.656C169.694 10.1547 170.057 9.76533 170.526 9.488C171.006 9.21067 171.587 9.072 172.27 9.072V10.576H171.886C170.254 10.576 169.438 11.4613 169.438 13.232V18H167.982V9.232H169.438V10.656ZM178.68 18.096C178.403 18.096 178.168 18 177.976 17.808C177.784 17.616 177.688 17.3813 177.688 17.104C177.688 16.8267 177.784 16.592 177.976 16.4C178.168 16.208 178.403 16.112 178.68 16.112C178.947 16.112 179.171 16.208 179.352 16.4C179.544 16.592 179.64 16.8267 179.64 17.104C179.64 17.3813 179.544 17.616 179.352 17.808C179.171 18 178.947 18.096 178.68 18.096ZM178.68 11.248C178.403 11.248 178.168 11.152 177.976 10.96C177.784 10.768 177.688 10.5333 177.688 10.256C177.688 9.97867 177.784 9.744 177.976 9.552C178.168 9.36 178.403 9.264 178.68 9.264C178.947 9.264 179.171 9.36 179.352 9.552C179.544 9.744 179.64 9.97867 179.64 10.256C179.64 10.5333 179.544 10.768 179.352 10.96C179.171 11.152 178.947 11.248 178.68 11.248ZM198.474 12.768H195.066V16.224H193.706V12.768H190.314V11.536H193.706V8.064H195.066V11.536H198.474V12.768ZM202.708 14.896C202.814 15.504 203.06 15.9733 203.444 16.304C203.838 16.6347 204.366 16.8 205.028 16.8C205.913 16.8 206.564 16.4533 206.98 15.76C207.406 15.0667 207.609 13.8987 207.588 12.256C207.364 12.736 206.99 13.1147 206.468 13.392C205.945 13.6587 205.364 13.792 204.724 13.792C204.009 13.792 203.369 13.648 202.804 13.36C202.249 13.0613 201.812 12.6293 201.492 12.064C201.172 11.4987 201.012 10.816 201.012 10.016C201.012 8.87467 201.342 7.95733 202.004 7.264C202.665 6.56 203.604 6.208 204.82 6.208C206.313 6.208 207.358 6.69333 207.956 7.664C208.564 8.63467 208.868 10.08 208.868 12C208.868 13.344 208.745 14.4533 208.5 15.328C208.265 16.2027 207.86 16.8693 207.284 17.328C206.718 17.7867 205.94 18.016 204.948 18.016C203.86 18.016 203.012 17.7227 202.404 17.136C201.796 16.5493 201.449 15.8027 201.364 14.896H202.708ZM204.964 12.56C205.678 12.56 206.265 12.3413 206.724 11.904C207.182 11.456 207.412 10.8533 207.412 10.096C207.412 9.296 207.188 8.65067 206.74 8.16C206.292 7.66933 205.662 7.424 204.852 7.424C204.105 7.424 203.508 7.65867 203.06 8.128C202.622 8.59733 202.404 9.216 202.404 9.984C202.404 10.7627 202.622 11.3867 203.06 11.856C203.497 12.3253 204.132 12.56 204.964 12.56ZM210.53 7.76V6.432H213.538V18H212.066V7.76H210.53ZM220.305 12.096C220.305 10.2613 220.603 8.832 221.201 7.808C221.798 6.77333 222.843 6.256 224.337 6.256C225.819 6.256 226.859 6.77333 227.457 7.808C228.054 8.832 228.352 10.2613 228.352 12.096C228.352 13.9627 228.054 15.4133 227.457 16.448C226.859 17.4827 225.819 18 224.337 18C222.843 18 221.798 17.4827 221.201 16.448C220.603 15.4133 220.305 13.9627 220.305 12.096ZM226.913 12.096C226.913 11.168 226.849 10.384 226.721 9.744C226.603 9.09333 226.353 8.57067 225.969 8.176C225.595 7.78133 225.051 7.584 224.337 7.584C223.611 7.584 223.057 7.78133 222.673 8.176C222.299 8.57067 222.049 9.09333 221.921 9.744C221.803 10.384 221.745 11.168 221.745 12.096C221.745 13.056 221.803 13.8613 221.921 14.512C222.049 15.1627 222.299 15.6853 222.673 16.08C223.057 16.4747 223.611 16.672 224.337 16.672C225.051 16.672 225.595 16.4747 225.969 16.08C226.353 15.6853 226.603 15.1627 226.721 14.512C226.849 13.8613 226.913 13.056 226.913 12.096ZM230.351 12.096C230.351 10.2613 230.65 8.832 231.247 7.808C231.845 6.77333 232.89 6.256 234.383 6.256C235.866 6.256 236.906 6.77333 237.503 7.808C238.101 8.832 238.399 10.2613 238.399 12.096C238.399 13.9627 238.101 15.4133 237.503 16.448C236.906 17.4827 235.866 18 234.383 18C232.89 18 231.845 17.4827 231.247 16.448C230.65 15.4133 230.351 13.9627 230.351 12.096ZM236.959 12.096C236.959 11.168 236.895 10.384 236.767 9.744C236.65 9.09333 236.399 8.57067 236.015 8.176C235.642 7.78133 235.098 7.584 234.383 7.584C233.658 7.584 233.103 7.78133 232.719 8.176C232.346 8.57067 232.095 9.09333 231.967 9.744C231.85 10.384 231.791 11.168 231.791 12.096C231.791 13.056 231.85 13.8613 231.967 14.512C232.095 15.1627 232.346 15.6853 232.719 16.08C233.103 16.4747 233.658 16.672 234.383 16.672C235.098 16.672 235.642 16.4747 236.015 16.08C236.399 15.6853 236.65 15.1627 236.767 14.512C236.895 13.8613 236.959 13.056 236.959 12.096ZM240.398 12.096C240.398 10.2613 240.697 8.832 241.294 7.808C241.892 6.77333 242.937 6.256 244.43 6.256C245.913 6.256 246.953 6.77333 247.55 7.808C248.148 8.832 248.446 10.2613 248.446 12.096C248.446 13.9627 248.148 15.4133 247.55 16.448C246.953 17.4827 245.913 18 244.43 18C242.937 18 241.892 17.4827 241.294 16.448C240.697 15.4133 240.398 13.9627 240.398 12.096ZM247.006 12.096C247.006 11.168 246.942 10.384 246.814 9.744C246.697 9.09333 246.446 8.57067 246.062 8.176C245.689 7.78133 245.145 7.584 244.43 7.584C243.705 7.584 243.15 7.78133 242.766 8.176C242.393 8.57067 242.142 9.09333 242.014 9.744C241.897 10.384 241.838 11.168 241.838 12.096C241.838 13.056 241.897 13.8613 242.014 14.512C242.142 15.1627 242.393 15.6853 242.766 16.08C243.15 16.4747 243.705 16.672 244.43 16.672C245.145 16.672 245.689 16.4747 246.062 16.08C246.446 15.6853 246.697 15.1627 246.814 14.512C246.942 13.8613 247.006 13.056 247.006 12.096ZM250.445 12.096C250.445 10.2613 250.744 8.832 251.341 7.808C251.938 6.77333 252.984 6.256 254.477 6.256C255.96 6.256 257 6.77333 257.597 7.808C258.194 8.832 258.493 10.2613 258.493 12.096C258.493 13.9627 258.194 15.4133 257.597 16.448C257 17.4827 255.96 18 254.477 18C252.984 18 251.938 17.4827 251.341 16.448C250.744 15.4133 250.445 13.9627 250.445 12.096ZM257.053 12.096C257.053 11.168 256.989 10.384 256.861 9.744C256.744 9.09333 256.493 8.57067 256.109 8.176C255.736 7.78133 255.192 7.584 254.477 7.584C253.752 7.584 253.197 7.78133 252.813 8.176C252.44 8.57067 252.189 9.09333 252.061 9.744C251.944 10.384 251.885 11.168 251.885 12.096C251.885 13.056 251.944 13.8613 252.061 14.512C252.189 15.1627 252.44 15.6853 252.813 16.08C253.197 16.4747 253.752 16.672 254.477 16.672C255.192 16.672 255.736 16.4747 256.109 16.08C256.493 15.6853 256.744 15.1627 256.861 14.512C256.989 13.8613 257.053 13.056 257.053 12.096ZM260.492 12.096C260.492 10.2613 260.791 8.832 261.388 7.808C261.985 6.77333 263.031 6.256 264.524 6.256C266.007 6.256 267.047 6.77333 267.644 7.808C268.241 8.832 268.54 10.2613 268.54 12.096C268.54 13.9627 268.241 15.4133 267.644 16.448C267.047 17.4827 266.007 18 264.524 18C263.031 18 261.985 17.4827 261.388 16.448C260.791 15.4133 260.492 13.9627 260.492 12.096ZM267.1 12.096C267.1 11.168 267.036 10.384 266.908 9.744C266.791 9.09333 266.54 8.57067 266.156 8.176C265.783 7.78133 265.239 7.584 264.524 7.584C263.799 7.584 263.244 7.78133 262.86 8.176C262.487 8.57067 262.236 9.09333 262.108 9.744C261.991 10.384 261.932 11.168 261.932 12.096C261.932 13.056 261.991 13.8613 262.108 14.512C262.236 15.1627 262.487 15.6853 262.86 16.08C263.244 16.4747 263.799 16.672 264.524 16.672C265.239 16.672 265.783 16.4747 266.156 16.08C266.54 15.6853 266.791 15.1627 266.908 14.512C267.036 13.8613 267.1 13.056 267.1 12.096ZM274.805 12.096C274.805 10.2613 275.103 8.832 275.701 7.808C276.298 6.77333 277.343 6.256 278.837 6.256C280.319 6.256 281.359 6.77333 281.957 7.808C282.554 8.832 282.852 10.2613 282.852 12.096C282.852 13.9627 282.554 15.4133 281.957 16.448C281.359 17.4827 280.319 18 278.837 18C277.343 18 276.298 17.4827 275.701 16.448C275.103 15.4133 274.805 13.9627 274.805 12.096ZM281.413 12.096C281.413 11.168 281.349 10.384 281.221 9.744C281.103 9.09333 280.853 8.57067 280.469 8.176C280.095 7.78133 279.551 7.584 278.837 7.584C278.111 7.584 277.557 7.78133 277.173 8.176C276.799 8.57067 276.549 9.09333 276.421 9.744C276.303 10.384 276.245 11.168 276.245 12.096C276.245 13.056 276.303 13.8613 276.421 14.512C276.549 15.1627 276.799 15.6853 277.173 16.08C277.557 16.4747 278.111 16.672 278.837 16.672C279.551 16.672 280.095 16.4747 280.469 16.08C280.853 15.6853 281.103 15.1627 281.221 14.512C281.349 13.8613 281.413 13.056 281.413 12.096ZM284.851 12.096C284.851 10.2613 285.15 8.832 285.747 7.808C286.345 6.77333 287.39 6.256 288.883 6.256C290.366 6.256 291.406 6.77333 292.003 7.808C292.601 8.832 292.899 10.2613 292.899 12.096C292.899 13.9627 292.601 15.4133 292.003 16.448C291.406 17.4827 290.366 18 288.883 18C287.39 18 286.345 17.4827 285.747 16.448C285.15 15.4133 284.851 13.9627 284.851 12.096ZM291.459 12.096C291.459 11.168 291.395 10.384 291.267 9.744C291.15 9.09333 290.899 8.57067 290.515 8.176C290.142 7.78133 289.598 7.584 288.883 7.584C288.158 7.584 287.603 7.78133 287.219 8.176C286.846 8.57067 286.595 9.09333 286.467 9.744C286.35 10.384 286.291 11.168 286.291 12.096C286.291 13.056 286.35 13.8613 286.467 14.512C286.595 15.1627 286.846 15.6853 287.219 16.08C287.603 16.4747 288.158 16.672 288.883 16.672C289.598 16.672 290.142 16.4747 290.515 16.08C290.899 15.6853 291.15 15.1627 291.267 14.512C291.395 13.8613 291.459 13.056 291.459 12.096ZM294.898 12.096C294.898 10.2613 295.197 8.832 295.794 7.808C296.392 6.77333 297.437 6.256 298.93 6.256C300.413 6.256 301.453 6.77333 302.05 7.808C302.648 8.832 302.946 10.2613 302.946 12.096C302.946 13.9627 302.648 15.4133 302.05 16.448C301.453 17.4827 300.413 18 298.93 18C297.437 18 296.392 17.4827 295.794 16.448C295.197 15.4133 294.898 13.9627 294.898 12.096ZM301.506 12.096C301.506 11.168 301.442 10.384 301.314 9.744C301.197 9.09333 300.946 8.57067 300.562 8.176C300.189 7.78133 299.645 7.584 298.93 7.584C298.205 7.584 297.65 7.78133 297.266 8.176C296.893 8.57067 296.642 9.09333 296.514 9.744C296.397 10.384 296.338 11.168 296.338 12.096C296.338 13.056 296.397 13.8613 296.514 14.512C296.642 15.1627 296.893 15.6853 297.266 16.08C297.65 16.4747 298.205 16.672 298.93 16.672C299.645 16.672 300.189 16.4747 300.562 16.08C300.946 15.6853 301.197 15.1627 301.314 14.512C301.442 13.8613 301.506 13.056 301.506 12.096ZM304.945 12.096C304.945 10.2613 305.244 8.832 305.841 7.808C306.438 6.77333 307.484 6.256 308.977 6.256C310.46 6.256 311.5 6.77333 312.097 7.808C312.694 8.832 312.993 10.2613 312.993 12.096C312.993 13.9627 312.694 15.4133 312.097 16.448C311.5 17.4827 310.46 18 308.977 18C307.484 18 306.438 17.4827 305.841 16.448C305.244 15.4133 304.945 13.9627 304.945 12.096ZM311.553 12.096C311.553 11.168 311.489 10.384 311.361 9.744C311.244 9.09333 310.993 8.57067 310.609 8.176C310.236 7.78133 309.692 7.584 308.977 7.584C308.252 7.584 307.697 7.78133 307.313 8.176C306.94 8.57067 306.689 9.09333 306.561 9.744C306.444 10.384 306.385 11.168 306.385 12.096C306.385 13.056 306.444 13.8613 306.561 14.512C306.689 15.1627 306.94 15.6853 307.313 16.08C307.697 16.4747 308.252 16.672 308.977 16.672C309.692 16.672 310.236 16.4747 310.609 16.08C310.993 15.6853 311.244 15.1627 311.361 14.512C311.489 13.8613 311.553 13.056 311.553 12.096ZM314.992 12.096C314.992 10.2613 315.291 8.832 315.888 7.808C316.485 6.77333 317.531 6.256 319.024 6.256C320.507 6.256 321.547 6.77333 322.144 7.808C322.741 8.832 323.04 10.2613 323.04 12.096C323.04 13.9627 322.741 15.4133 322.144 16.448C321.547 17.4827 320.507 18 319.024 18C317.531 18 316.485 17.4827 315.888 16.448C315.291 15.4133 314.992 13.9627 314.992 12.096ZM321.6 12.096C321.6 11.168 321.536 10.384 321.408 9.744C321.291 9.09333 321.04 8.57067 320.656 8.176C320.283 7.78133 319.739 7.584 319.024 7.584C318.299 7.584 317.744 7.78133 317.36 8.176C316.987 8.57067 316.736 9.09333 316.608 9.744C316.491 10.384 316.432 11.168 316.432 12.096C316.432 13.056 316.491 13.8613 316.608 14.512C316.736 15.1627 316.987 15.6853 317.36 16.08C317.744 16.4747 318.299 16.672 319.024 16.672C319.739 16.672 320.283 16.4747 320.656 16.08C321.04 15.6853 321.291 15.1627 321.408 14.512C321.536 13.8613 321.6 13.056 321.6 12.096Z" fill="white"/>
</svg>
