<svg width="65" height="40" viewBox="0 0 65 40" fill="none" xmlns="http://www.w3.org/2000/svg">
<path d="M60.7273 0.620117H4.01484C2.00246 0.620117 0.371094 2.15471 0.371094 4.04774V35.9677C0.371094 37.8607 2.00246 39.3953 4.01484 39.3953H60.7273C62.7397 39.3953 64.3711 37.8607 64.3711 35.9677V4.04774C64.3711 2.15471 62.7397 0.620117 60.7273 0.620117Z" fill="#56E20A"/>
<path d="M16.4737 20.3642L11.1055 13.2632C10.901 12.9922 10.703 12.7165 10.5118 12.4365C10.3566 12.2098 10.2078 11.9789 10.0658 11.7442H10.0234C10.0451 12.1061 10.0609 12.487 10.0717 12.8832C10.0815 13.2804 10.0874 13.7146 10.0874 14.1861V20.3642H5.84375V5.64893H10.1721L15.3177 12.4013C15.3807 12.4899 15.4585 12.5956 15.5511 12.7194C15.7361 12.9681 15.9147 13.2212 16.0867 13.4785C16.1684 13.6023 16.2295 13.7108 16.2728 13.807H16.3151C16.2785 13.5399 16.2588 13.2708 16.2561 13.0013C16.2529 12.7499 16.2512 12.4985 16.2511 12.247V5.64893H20.4948V20.3632L16.4737 20.3642ZM23.4969 20.3642V5.64893H32.9709V9.11654H28.0803V11.2613H32.6745V14.7299H28.0803V16.8956H33.3214V20.3642H23.4969ZM43.1991 9.11654V20.3642H38.594V9.11654H34.3405V5.64893H47.5058V9.11654H43.1991Z" fill="white"/>
<path d="M13.3591 30.602C13.3591 31.0011 13.2882 31.3725 13.1444 31.7144C12.9996 32.0596 12.7697 32.3652 12.4749 32.6049C12.1716 32.8563 11.7827 33.0525 11.3071 33.1954C10.8325 33.3382 10.2605 33.4087 9.59193 33.4087H5.27734V24.2582H9.29458C10.5578 24.2582 11.5001 24.443 12.1253 24.8134C12.7496 25.1839 13.0627 25.7372 13.0627 26.4725C13.0686 26.8608 12.9365 27.2394 12.6885 27.5449C12.5784 27.6831 12.4496 27.8065 12.3055 27.9116C11.9314 28.1858 11.4966 28.3726 11.0354 28.4573V28.483C11.4056 28.5249 11.7345 28.6163 12.022 28.7535C12.3105 28.8925 12.5537 29.0582 12.7506 29.2515C12.9495 29.4449 13.1001 29.6592 13.2035 29.8925C13.3069 30.1268 13.3581 30.363 13.3581 30.6011L13.3591 30.602ZM10.034 26.9516C10.034 26.6487 9.91094 26.4325 9.66479 26.3001C9.41864 26.1687 9.0819 26.102 8.65556 26.102H8.12781V27.8315H8.95193C9.11538 27.8315 9.26307 27.8096 9.39796 27.7649C9.53187 27.7201 9.64609 27.6582 9.74061 27.5801C9.83375 27.5032 9.90808 27.4072 9.95821 27.2992C10.0089 27.1899 10.0348 27.0713 10.034 26.9516ZM10.3314 30.5887C10.3342 30.399 10.2724 30.2136 10.1555 30.0613C10.0386 29.909 9.87304 29.7981 9.68449 29.7458C9.54393 29.702 9.39696 29.6804 9.24929 29.682H8.12683V31.5515H9.07796C9.26208 31.5515 9.43242 31.5306 9.58602 31.4877C9.73962 31.4458 9.87156 31.3839 9.98184 31.303C10.0956 31.2202 10.1868 31.112 10.2477 30.9875C10.3086 30.8631 10.3373 30.7262 10.3314 30.5887ZM18.1098 33.4087V32.4134H18.0833C17.8867 32.7601 17.6016 33.0522 17.2552 33.262C16.9135 33.4668 16.5039 33.5687 16.0244 33.5687C15.6818 33.5687 15.3825 33.5163 15.1274 33.4125C14.8866 33.3176 14.6705 33.1722 14.4948 32.9867C14.3191 32.8013 14.1881 32.5804 14.1113 32.3401C14.0262 32.0854 13.984 31.8192 13.9863 31.5515C13.9863 31.3134 14.0188 31.0754 14.0847 30.8373C14.1507 30.5992 14.2728 30.3782 14.451 30.1735C14.6282 29.9696 14.8773 29.7925 15.1964 29.6401C15.5154 29.4896 15.9279 29.383 16.433 29.3182L18.1089 29.1087C18.1107 29.003 18.0824 28.8989 18.0271 28.8077C17.9693 28.7162 17.8913 28.6382 17.7987 28.5792C17.6931 28.5112 17.5762 28.4613 17.4531 28.4315C17.3096 28.3963 17.162 28.379 17.014 28.3801C16.7895 28.3801 16.5669 28.3992 16.3444 28.4344C16.1282 28.4693 15.9144 28.5173 15.7044 28.5782C15.5072 28.6351 15.3133 28.7022 15.1235 28.7792C14.9526 28.8485 14.7844 28.9242 14.6194 29.0058V27.2382C14.7818 27.1706 14.9768 27.1049 15.2033 27.0401C15.4297 26.9763 15.669 26.9211 15.922 26.8744C16.1751 26.8277 16.4291 26.7887 16.6841 26.7601C16.9401 26.7296 17.1794 26.7153 17.4029 26.7153C18.0193 26.7153 18.5352 26.7801 18.9537 26.9096C19.3711 27.0392 19.7079 27.2334 19.9629 27.4906C20.2189 27.7477 20.401 28.0687 20.5103 28.4544C20.6206 28.8391 20.6757 29.2887 20.6757 29.8039V33.4087H18.1098ZM17.1597 30.5439C16.9709 30.567 16.7921 30.6387 16.6418 30.7515C16.5767 30.805 16.5253 30.8723 16.4915 30.9481C16.4577 31.0239 16.4424 31.1062 16.4468 31.1887C16.4468 31.2601 16.4586 31.3325 16.4833 31.4049C16.5081 31.4811 16.5499 31.551 16.6057 31.6099C16.6615 31.6688 16.7299 31.7152 16.8062 31.7458C16.9056 31.7848 17.0121 31.8036 17.1193 31.8011C17.2547 31.8022 17.3887 31.7749 17.5122 31.7211C17.6329 31.668 17.7398 31.5896 17.8253 31.4916C17.9139 31.3916 17.9828 31.2716 18.033 31.1306C18.0842 30.9906 18.1089 30.8354 18.1089 30.6649V30.4163L17.1597 30.5439ZM26.3166 33.4087V29.842C26.3166 29.6287 26.2999 29.4506 26.2674 29.3058C26.2424 29.1797 26.1904 29.06 26.1148 28.9544C26.0517 28.8693 25.965 28.8033 25.8647 28.7639C25.754 28.7237 25.6363 28.7043 25.5181 28.7068C25.3961 28.703 25.2753 28.7313 25.1685 28.7887C25.0725 28.843 24.9908 28.9184 24.9303 29.0087C24.8692 29.1001 24.8229 29.2049 24.7924 29.322C24.7615 29.4397 24.746 29.5606 24.7461 29.682V33.4087H21.9361V26.8753H24.7461V27.8954H24.7727C24.8643 27.743 24.9795 27.5944 25.1154 27.4525C25.2522 27.3097 25.4088 27.1839 25.588 27.0753C25.984 26.8352 26.4429 26.7099 26.9103 26.7144C27.2264 26.7144 27.5208 26.7601 27.7906 26.8487C28.0613 26.9382 28.2957 27.0887 28.4936 27.2992C28.6905 27.5087 28.8461 27.7877 28.9583 28.1344C29.0706 28.482 29.1257 28.9106 29.1257 29.4201V33.4087H26.3166ZM34.7479 33.4087L33.2434 30.0525H33.2168V33.4087H30.4067V23.7354H33.2168V29.9439H33.2434L34.609 26.8744H37.7756L35.9481 29.8677L37.8809 33.4087H34.7479ZM41.4039 25.1134C41.4039 25.2915 41.3684 25.4601 41.2985 25.6182C41.2292 25.7738 41.1258 25.9129 40.9953 26.0258C40.8633 26.1401 40.6999 26.2325 40.5029 26.3001C40.2875 26.3712 40.061 26.4057 39.8334 26.402C39.5922 26.402 39.3746 26.3677 39.1806 26.2973C39 26.2344 38.8333 26.1391 38.6893 26.0163C38.558 25.9026 38.4529 25.7635 38.3808 25.6079C38.3087 25.4524 38.2712 25.2839 38.2708 25.1134C38.2708 24.9172 38.3102 24.742 38.389 24.5868C38.4677 24.4316 38.577 24.3001 38.7159 24.1915C38.8537 24.083 39.0191 24.0001 39.2101 23.942C39.4021 23.8849 39.6099 23.8563 39.8344 23.8563C40.0707 23.8563 40.2873 23.8868 40.4803 23.9487C40.6743 24.0106 40.8387 24.0963 40.9756 24.2068C41.1124 24.3174 41.2219 24.4562 41.296 24.6131C41.3701 24.77 41.407 24.941 41.4039 25.1134ZM38.4284 33.4087V26.8753H41.2394V33.4087H38.4284ZM46.9788 33.4087V29.842C46.9788 29.6287 46.962 29.4506 46.9295 29.3058C46.9049 29.1797 46.8532 29.06 46.7779 28.9544C46.7145 28.8692 46.6275 28.8031 46.5268 28.7639C46.4161 28.7237 46.2985 28.7043 46.1802 28.7068C46.0582 28.703 45.9374 28.7313 45.8307 28.7887C45.735 28.8431 45.6537 28.9185 45.5934 29.0087C45.5314 29.1001 45.4851 29.2049 45.4556 29.322C45.4243 29.4396 45.4085 29.5606 45.4083 29.682V33.4087H42.5982V26.8753H45.4083V27.8954H45.4349C45.5274 27.743 45.6417 27.5944 45.7785 27.4525C45.9144 27.3097 46.0719 27.1839 46.2501 27.0753C46.6462 26.8352 47.1051 26.7099 47.5725 26.7144C47.8895 26.7144 48.1829 26.7601 48.4537 26.8487C48.7235 26.9382 48.9578 27.0887 49.1557 27.2992C49.3537 27.5087 49.5092 27.7877 49.6205 28.1344C49.7327 28.482 49.7889 28.9106 49.7889 29.4201V33.4087H46.9788ZM58.3924 32.4963C58.3924 32.8449 58.357 33.1858 58.2861 33.5173C58.2178 33.8435 58.1035 34.1592 57.9464 34.4554C57.6125 35.0825 57.0825 35.5917 56.4321 35.9106C56.0404 36.1014 55.6247 36.2419 55.1954 36.3287C54.6692 36.4341 54.1327 36.4842 53.5954 36.4782C53.1845 36.4784 52.7742 36.4465 52.3685 36.383C52.1996 36.3562 52.032 36.3219 51.8664 36.2801C51.7177 36.242 51.6005 36.2039 51.5178 36.1658V34.0344C51.7803 34.1872 52.0606 34.3093 52.3528 34.3982C52.53 34.4535 52.7191 34.5001 52.9199 34.5382C53.1198 34.5763 53.3187 34.5954 53.5166 34.5954C53.8593 34.5954 54.1596 34.5534 54.4175 34.4687C54.6735 34.383 54.8901 34.2668 55.0674 34.1201C55.2426 33.9734 55.3746 33.8039 55.4632 33.6096C55.5508 33.4163 55.5951 33.2096 55.5951 32.9877V32.5858H55.5685C55.3784 32.856 55.1281 33.0815 54.836 33.2458C54.4609 33.4614 54.0317 33.5728 53.5954 33.5677C53.1562 33.5677 52.7614 33.4916 52.4119 33.3392C52.0665 33.1894 51.7616 32.9645 51.5208 32.682C51.2647 32.3747 51.0752 32.0207 50.9635 31.6411C50.8308 31.1954 50.7664 30.7334 50.7725 30.2696C50.7725 29.6782 50.8581 29.1601 51.0295 28.7154C51.2008 28.2706 51.4282 27.9011 51.7118 27.6049C51.9964 27.3096 52.3223 27.0868 52.6885 26.9382C53.0487 26.7909 53.4357 26.7151 53.8268 26.7153C54.0641 26.7153 54.2757 26.7392 54.4599 26.7887C54.645 26.8373 54.8074 26.9011 54.9482 26.9792C55.089 27.0582 55.2101 27.1477 55.3106 27.2477C55.412 27.3477 55.4977 27.4487 55.5685 27.5506H55.5951V26.8744H58.3914L58.3924 32.4963ZM55.6414 29.9563C55.6414 29.8201 55.6257 29.6792 55.5951 29.5325C55.5663 29.3908 55.5126 29.2549 55.4366 29.1306C55.3615 29.0087 55.2588 28.9048 55.1363 28.8268C54.9948 28.7416 54.8302 28.6995 54.6637 28.7058C54.5099 28.7036 54.3584 28.7422 54.2255 28.8173C54.0919 28.8955 53.979 29.0028 53.8957 29.1306C53.8061 29.2639 53.7381 29.423 53.6919 29.6058C53.6456 29.7887 53.6229 29.9887 53.6229 30.2058C53.6229 30.6268 53.7017 30.9611 53.8593 31.2077C54.0178 31.4544 54.2689 31.5773 54.6115 31.5773C54.7789 31.5773 54.9266 31.542 55.0575 31.4725C55.1881 31.4014 55.299 31.3008 55.3805 31.1792C55.4661 31.0535 55.5311 30.9058 55.5754 30.7354C55.6208 30.5536 55.643 30.3671 55.6414 30.1801V29.9563Z" fill="white"/>
</svg>
