<svg width="65" height="40" viewBox="0 0 65 40" fill="none" xmlns="http://www.w3.org/2000/svg">
<g clip-path="url(#clip0_82_6592)">
<path fill-rule="evenodd" clip-rule="evenodd" d="M60.5253 -0.466797H5.0596C2.70335 -0.466797 0.792969 1.42268 0.792969 3.74794V35.3185C0.792969 37.6464 2.70815 39.5332 5.06013 39.5332H60.5258C62.8826 39.5332 64.793 37.6437 64.793 35.3185V3.74794C64.7924 1.42005 62.8773 -0.466797 60.5253 -0.466797Z" fill="#C3FFA3"/>
<path opacity="0.938" fill-rule="evenodd" clip-rule="evenodd" d="M11.0548 22.6323C11.0121 22.6044 11.3081 21.4781 12.0148 18.9839C12.5764 16.9997 13.1054 15.1434 13.1892 14.8586L13.3422 14.3418L15.5508 14.3818C18.1331 14.4281 18.5305 14.4618 18.9459 14.6692C19.6819 15.0371 19.8846 15.6023 19.6313 16.5818C19.4147 17.4155 19.0019 17.9834 18.2035 18.5439C18.0521 18.6502 17.9198 18.7802 17.9102 18.8323C17.8985 18.8907 17.9929 19.0192 18.1518 19.1623C18.2958 19.2913 18.4478 19.4639 18.491 19.5455C18.6062 19.7665 18.5865 20.2076 18.4259 20.9734C18.3475 21.3486 18.2686 21.885 18.2499 22.165L18.2179 22.6744H17.1486C16.3913 22.6744 16.0601 22.6555 16.0126 22.6086C15.9081 22.5055 15.9316 22.2428 16.1129 21.4902C16.3145 20.6528 16.3268 20.3239 16.1636 20.1197C15.9486 19.8492 15.7529 19.7913 14.9806 19.7655C14.3566 19.745 14.2526 19.7544 14.1582 19.8386C14.011 19.9702 13.8916 20.3092 13.5428 21.5865L13.2462 22.6744L12.1817 22.6739C11.5961 22.6734 11.0889 22.655 11.0548 22.6323ZM16.6745 17.9586C17.1817 17.8102 17.3955 17.4834 17.3966 16.8555C17.3966 16.6665 17.3646 16.5339 17.299 16.4555C17.1449 16.2723 16.6809 16.2102 15.8105 16.2555L15.0537 16.296L14.9433 16.6623C14.7732 17.2276 14.6542 17.7744 14.6729 17.9034C14.6846 17.9876 14.7438 18.0302 14.8852 18.0576C15.194 18.1176 16.3507 18.0534 16.6745 17.9586ZM20.2547 22.7939C19.9166 22.675 19.6505 22.4518 19.539 22.1944C19.3267 21.705 19.5219 20.6165 20.2969 17.9686C20.4825 17.335 20.6344 16.8097 20.6344 16.8023C20.6344 16.7944 20.6739 16.7497 20.7219 16.7023C20.7934 16.6313 20.9566 16.6155 21.6115 16.6155C22.0526 16.6155 22.4755 16.6386 22.5518 16.6671L22.6904 16.7197L22.5523 17.2039C22.2131 18.3934 21.8606 19.8365 21.8003 20.2876C21.7448 20.6976 21.747 20.806 21.8126 20.9418C21.9624 21.2507 22.507 21.3155 22.9699 21.0807C23.5134 20.805 23.6152 20.5686 24.4883 17.5628C24.6163 17.1223 24.7144 16.8928 24.8232 16.7781L24.9773 16.615H25.8499C26.5245 16.615 26.7288 16.6318 26.7507 16.6886C26.772 16.745 25.6637 20.8186 25.1965 22.3992L25.1229 22.6471L24.1902 22.6744C23.6771 22.6902 23.2579 22.6865 23.2579 22.6676C23.2579 22.6486 23.2958 22.5271 23.3422 22.3971C23.531 21.8692 23.2958 21.8365 22.6088 22.2939C21.9299 22.746 21.6456 22.8528 21.0579 22.8776C20.6606 22.8939 20.4862 22.876 20.2547 22.7939ZM26.4557 22.6307C26.4061 22.5992 26.6936 21.5065 27.5443 18.4865L28.7005 14.3844L30.6541 14.4002C33.0914 14.4207 33.589 14.4634 34.0605 14.6923C34.4477 14.8802 34.6322 15.0486 34.8045 15.3713C35.0946 15.9134 35.0898 16.5423 34.789 17.405C34.3271 18.7313 33.4647 19.6028 32.3282 19.8934C32.1442 19.9407 31.5666 20.0039 31.0445 20.035C29.3202 20.1365 29.4242 20.1176 29.332 20.3507C29.2877 20.4623 29.1154 21.0313 28.949 21.6139L28.6466 22.6744L27.5853 22.6739C27.0008 22.6734 26.4931 22.6539 26.4557 22.6307ZM31.4829 18.2155C32.0509 18.1434 32.3496 17.9702 32.5389 17.6034C32.7426 17.2097 32.7965 16.7802 32.6669 16.585C32.4898 16.3181 32.2472 16.2602 31.3346 16.265C30.8802 16.2671 30.4856 16.2913 30.4584 16.3181C30.396 16.3802 30.012 17.8776 30.012 18.0597C30.012 18.1334 30.0285 18.2107 30.0493 18.2313C30.1021 18.2834 31.029 18.2734 31.4829 18.2155ZM34.6727 22.8165C34.0157 22.545 33.845 22.096 34.0594 21.1992C34.3586 19.946 35.0183 19.5271 37.2828 19.1513C38.6503 18.9239 38.9916 18.7581 39.0898 18.2728C39.1628 17.9139 38.8508 17.7181 38.2071 17.7171C37.805 17.7171 37.6546 17.775 37.3058 18.0629L37.0247 18.2955L36.3004 18.3139C35.4615 18.335 35.2034 18.3018 35.2034 18.1739C35.2034 18.0244 35.5325 17.5681 35.8397 17.2907C36.1703 16.9928 36.6076 16.7644 37.0812 16.6434C38.0754 16.3876 39.7874 16.4171 40.3756 16.7002C40.6903 16.8518 40.9703 17.1034 41.1036 17.355C41.2295 17.5928 41.1847 17.8397 40.59 20.1655C40.2983 21.3076 40.0594 22.3392 40.0594 22.4581V22.6744H39.3698C38.9906 22.6744 38.5644 22.6902 38.422 22.7097L38.1644 22.7444L38.0508 22.4834C37.9175 22.1765 37.902 22.1765 37.2002 22.4886C36.438 22.8265 36.1586 22.9023 35.5666 22.9297C35.0626 22.9528 34.9751 22.9418 34.6727 22.8165ZM37.6732 21.5297C38.0578 21.3613 38.493 20.6739 38.4951 20.2292L38.4967 20.0144L38.142 20.0471C37.7495 20.0839 36.9196 20.3476 36.6156 20.5328C36.3586 20.6897 36.2082 20.9423 36.2087 21.215C36.2098 21.4765 36.2487 21.5481 36.4327 21.6255C36.6428 21.7139 37.382 21.6571 37.6732 21.5297ZM40.7473 25.2839C40.5233 25.2344 40.5153 25.1523 40.6705 24.5471C40.8785 23.7376 40.8652 23.7544 41.3799 23.6755C41.9345 23.5902 42.1825 23.4702 42.3063 23.2255C42.4433 22.9544 42.4332 21.8913 42.2673 19.0392C42.1751 17.4518 42.1521 16.7318 42.1927 16.6839C42.2343 16.6339 42.5169 16.6155 43.2444 16.6155H44.2391L44.2566 18.4576C44.2684 19.7155 44.294 20.3202 44.3356 20.3618C44.4375 20.4618 44.8108 19.8386 46.3414 17.0144L46.558 16.6155H47.4358C47.919 16.6155 48.326 16.6344 48.3404 16.6576C48.3686 16.7023 47.038 19.0429 45.703 21.2976C43.8055 24.5023 43.4481 24.9439 42.558 25.1886C42.2673 25.2686 40.982 25.336 40.7473 25.2839Z" fill="#56E20A"/>
<path fill-rule="evenodd" clip-rule="evenodd" d="M48.9727 24.5489L51.5822 15.1152L54.0665 19.9905L48.9727 24.5489Z" fill="#56E20A"/>
<path fill-rule="evenodd" clip-rule="evenodd" d="M47.3574 24.5831L49.967 15.1499L52.4512 20.0246L47.3574 24.5831Z" fill="#3BA900"/>
<path fill-rule="evenodd" clip-rule="evenodd" d="M54.5488 14.9389V14.2957H54.3008V14.1836H54.9258V14.2957H54.6762V14.9389H54.5488ZM55.0112 14.9389V14.1836H55.1989L55.3925 14.7868L55.5792 14.1836H55.7632V14.9389H55.6469V14.3052L55.4496 14.9389H55.3344L55.1285 14.2957V14.9389H55.0112Z" fill="black"/>
<path opacity="0.938" fill-rule="evenodd" clip-rule="evenodd" d="M56.1461 14.5474C56.1461 14.8251 56.0343 15.0916 55.8352 15.288C55.6362 15.4844 55.3662 15.5947 55.0848 15.5947C54.8033 15.5947 54.5333 15.4844 54.3343 15.288C54.1353 15.0916 54.0234 14.8251 54.0234 14.5474C54.0234 14.2696 54.1353 14.0032 54.3343 13.8068C54.5333 13.6103 54.8033 13.5 55.0848 13.5C55.3662 13.5 55.6362 13.6103 55.8352 13.8068C56.0343 14.0032 56.1461 14.2696 56.1461 14.5474Z" stroke="black" stroke-width="0.5"/>
</g>
<defs>
<clipPath id="clip0_82_6592">
<rect width="64" height="40" fill="white" transform="translate(0.371094)"/>
</clipPath>
</defs>
</svg>
