<svg width="131" height="40" viewBox="0 0 131 40" fill="none" xmlns="http://www.w3.org/2000/svg">
<path d="M25.084 20.5988L21.5356 3.44461C21.2866 2.44413 20.6782 1.57024 19.8263 0.989429C18.9745 0.408621 17.9387 0.161494 16.9164 0.295129H0.497073L0.371094 1.11399C13.137 4.17949 21.5776 11.6123 25.084 20.5988ZM37.0101 0.673068L26.6378 27.1497L25.567 23.1604C22.1872 16.5862 17.1132 11.0339 10.8694 7.07702L20.3388 39.4327H31.53L48.2013 0.673068H37.0101ZM52.5056 0.673068L45.8916 39.5167H56.3899L63.0248 0.673068H52.5056ZM121.983 0.673068H113.753C112.601 0.523013 111.432 0.759001 110.429 1.3441C109.426 1.92919 108.646 2.83036 108.209 3.90654L92.567 39.4747H103.674C103.674 39.4747 105.48 34.6875 105.9 33.6377H119.443C119.758 34.9814 120.723 39.4327 120.723 39.4327H130.55L121.983 0.673068ZM108.944 25.701C109.826 23.4753 113.144 14.8457 113.144 14.8457C113.144 14.8457 114.025 12.6201 114.55 11.1504L115.285 14.4888L117.721 25.701H108.944ZM84.3573 16.2315C80.6829 14.4468 78.4153 13.229 78.4363 11.4233C78.4573 9.6176 80.347 8.08485 84.4833 8.08485C87.1979 8.01234 89.8967 8.52061 92.399 9.57561L93.3649 10.0165L94.7926 1.61791C91.7578 0.518638 88.5508 -0.0288983 85.3232 0.00117476C74.8249 0.00117476 67.4971 5.25032 67.4341 12.8091C67.4341 18.3732 72.6833 21.5017 76.6936 23.3074C80.7039 25.1131 82.2577 26.4358 82.2577 28.1366C82.2577 30.7401 78.9612 31.9369 75.9587 31.9369C72.5235 32.0162 69.1168 31.2975 66.0063 29.8373L64.6416 29.2074L63.1508 37.9C66.9249 39.3073 70.923 40.0187 74.9509 39.9996C86.0581 39.9996 93.2809 34.7925 93.3649 26.7298C93.3439 22.3625 90.5303 19.0031 84.3573 16.2315Z" fill="#56E20A"/>
<path d="M21.5356 3.44517C21.2866 2.44469 20.6782 1.5708 19.8263 0.989989C18.9745 0.409181 17.9387 0.162054 16.9164 0.295689H0.497073L0.371094 1.11455C13.137 4.20105 21.5776 11.6128 25.084 20.6204L21.5356 3.44517Z" fill="#C3FFA3"/>
</svg>
