<svg width="170" height="130" viewBox="0 0 170 130" fill="none" xmlns="http://www.w3.org/2000/svg">
<path d="M163.737 5.18972L163.548 6.7055C163.463 7.47743 163.049 7.75112 162.306 7.52656C156.832 5.91252 151.337 5.89147 145.821 7.4634C145.541 7.53358 145.309 7.68094 145.127 7.9055L144.516 8.62129C144.011 9.19673 143.379 9.47744 142.621 9.4634C139.197 9.4213 135.786 9.63182 132.39 10.095C132.369 10.0973 132.345 10.1028 132.323 10.1104C132.301 10.118 132.282 10.1269 132.271 10.1353C132.26 10.1437 132.257 10.1508 132.263 10.1551C132.27 10.1593 132.285 10.1605 132.306 10.1581C132.376 10.1862 132.439 10.2283 132.495 10.2845C132.734 10.495 132.972 10.5932 133.211 10.5792C140.256 10.0318 144.025 12.2774 144.516 17.316C138.804 23.0704 134.818 29.8002 132.558 37.5055C132.348 38.2353 132.558 38.8108 133.19 39.2318L144.495 46.895C152.509 53.8002 160.706 55.1827 169.084 51.0423C170.291 72.8669 162.284 82.109 145.063 78.7687C141.33 78.0529 136.614 75.9827 130.916 72.5581C122.748 67.6459 114.235 63.3792 105.379 59.7581C104.706 59.4915 104.032 59.4845 103.358 59.7371C102.193 60.1722 101.155 60.8669 100.242 61.8213C100.734 59.4634 101.428 57.9055 102.327 57.1476C102.579 56.9298 102.758 56.6404 102.842 56.318C102.926 55.9956 102.909 55.6553 102.795 55.3424C102.681 55.0295 102.474 54.7587 102.203 54.566C101.931 54.3732 101.607 54.2677 101.274 54.2634C98.5792 54.2353 97.4704 52.8529 97.9476 50.116C97.9716 49.9665 97.951 49.8124 97.8886 49.6739C97.8262 49.5353 97.7248 49.4187 97.5976 49.3393C97.4705 49.2598 97.3234 49.2211 97.1756 49.2282C97.0277 49.2353 96.8859 49.2879 96.7687 49.3792C95.7301 50.1652 94.7195 50.1722 93.7371 49.4002C92.7687 48.6423 92.2634 48.2002 92.2213 48.0739C91.716 46.7687 90.7546 45.8353 89.3371 45.2739C88.6213 44.9932 87.9406 45.0774 87.295 45.5266C85.2739 46.9441 83.0845 47.7581 80.7266 47.9687L87.4213 40.9792C93.6809 36.6283 100.607 33.4564 108.2 31.4634C116.509 19.0143 126.656 9.8634 138.642 4.01077C147.835 -0.466424 156.2 -0.0734422 163.737 5.18972Z" fill="#56E20A"/>
<path d="M108.2 31.4632C100.607 33.4562 93.6808 36.6281 87.4211 40.979L71.0211 24.1579C70.7696 23.8983 70.4454 23.721 70.0911 23.6492C69.7368 23.5775 69.3691 23.6147 69.0364 23.756C68.7037 23.8973 68.4216 24.136 68.2272 24.4407C68.0328 24.7455 67.9353 25.1019 67.9474 25.4632L68.4527 44.3264C68.565 42.0386 67.6667 39.9474 65.758 38.0527C65.379 37.6737 65.0351 37.7018 64.7264 38.1369L64.3053 38.7474C64.1229 39.0141 63.9053 39.0422 63.6527 38.8316C56.593 32.8808 50.3895 32.3123 45.0422 37.1264C44.8878 31.9755 45.4071 26.7615 46.6001 21.4843C49.5895 8.09479 61.2316 -0.0104759 74.558 2.70531C80.6492 3.9404 86.972 7.77198 93.5264 14.2001C98.7194 19.2808 103.611 25.0351 108.2 31.4632Z" fill="#17469C"/>
<path d="M163.737 5.18945C172.242 15.4842 168.726 34.7052 169.084 51.0421C160.705 55.1824 152.509 53.8 144.495 46.8947C146.867 37.0281 146.874 27.1684 144.516 17.3158C144.025 12.2772 140.256 10.0316 133.211 10.5789C132.972 10.593 132.733 10.4947 132.495 10.2842C132.439 10.228 132.375 10.1859 132.305 10.1579C132.285 10.1602 132.27 10.1591 132.263 10.1548C132.257 10.1505 132.259 10.1434 132.271 10.135C132.282 10.1266 132.301 10.1177 132.323 10.1101C132.345 10.1026 132.369 10.097 132.39 10.0947C135.786 9.63156 139.197 9.42103 142.621 9.46314C143.379 9.47717 144.011 9.19647 144.516 8.62103L145.126 7.90524C145.309 7.68068 145.54 7.53331 145.821 7.46314C151.337 5.89121 156.832 5.91226 162.305 7.5263C163.049 7.75086 163.463 7.47717 163.547 6.70524L163.737 5.18945Z" fill="url(#paint0_linear_82_6533)"/>
<path d="M144.515 17.3164C146.873 27.169 146.866 37.0287 144.494 46.8954L133.189 39.2322C132.557 38.8111 132.347 38.2357 132.557 37.5059C134.817 29.8006 138.803 23.0708 144.515 17.3164Z" fill="black"/>
<path d="M68.4515 44.3267C69.5603 49.4635 69.0972 52.9934 67.0621 54.9162C60.0305 61.5127 53.2866 68.1934 46.8305 74.9583C45.6796 76.1793 45.1042 75.9548 45.1042 74.2846L45.041 37.1267C50.3884 32.3127 56.5919 32.8811 63.6515 38.832C63.9042 39.0425 64.1217 39.0144 64.3042 38.7477L64.7252 38.1372C65.034 37.7021 65.3779 37.6741 65.7568 38.053C67.6656 39.9477 68.5638 42.039 68.4515 44.3267Z" fill="url(#paint1_linear_82_6533)"/>
<path d="M100.241 61.8187L34.515 128.029C33.9417 128.603 33.2599 129.058 32.5086 129.369C31.7572 129.68 30.951 129.84 30.136 129.84L1.39917 129.692C1.24544 129.694 1.09559 129.649 0.968325 129.563C0.841063 129.478 0.742041 129.356 0.683636 129.212C0.625232 129.068 0.610035 128.909 0.639944 128.755C0.669853 128.601 0.743541 128.458 0.8518 128.345L80.7255 47.9661C83.0834 47.7555 85.2729 46.9415 87.2939 45.5239C87.9395 45.0748 88.6202 44.9906 89.336 45.2713C90.7536 45.8327 91.715 46.7661 92.2202 48.0713C92.2623 48.1976 92.7676 48.6397 93.736 49.3976C94.7185 50.1696 95.729 50.1625 96.7676 49.3766C96.8849 49.2853 97.0266 49.2327 97.1745 49.2256C97.3223 49.2185 97.4694 49.2572 97.5966 49.3366C97.7237 49.4161 97.8251 49.5327 97.8875 49.6712C97.95 49.8098 97.9705 49.9639 97.9465 50.1134C97.4694 52.8503 98.5781 54.2327 101.273 54.2608C101.606 54.2651 101.93 54.3706 102.202 54.5633C102.473 54.7561 102.68 55.0269 102.794 55.3398C102.908 55.6527 102.925 55.9929 102.841 56.3154C102.757 56.6378 102.577 56.9271 102.325 57.145C101.427 57.9029 100.733 59.4608 100.241 61.8187Z" fill="url(#paint2_linear_82_6533)"/>
<path d="M134.22 121.887L136.725 128.118C136.78 128.256 136.801 128.405 136.785 128.552C136.769 128.699 136.717 128.84 136.634 128.963C136.551 129.086 136.439 129.186 136.308 129.255C136.177 129.324 136.031 129.361 135.883 129.36C128.83 129.36 129.672 121.276 128.809 116.434C128.687 115.77 128.792 115.083 129.107 114.486C129.423 113.889 129.929 113.414 130.547 113.14C131.164 112.865 131.855 112.806 132.51 112.972C133.165 113.138 133.745 113.52 134.157 114.055L136.62 117.192C136.716 117.315 136.787 117.455 136.828 117.605C136.87 117.756 136.881 117.913 136.862 118.067C136.842 118.222 136.792 118.371 136.714 118.506C136.637 118.642 136.533 118.76 136.409 118.855L134.662 120.202C134.086 120.637 133.939 121.199 134.22 121.887Z" fill="#1F64CA"/>
<path d="M150.282 125.084L150.325 117.694C150.311 117.203 150.492 116.726 150.83 116.369C151.168 116.011 151.633 115.803 152.125 115.789C152.616 115.775 153.093 115.957 153.45 116.294C153.807 116.632 154.016 117.098 154.03 117.589L154.619 127.273C154.634 127.463 154.608 127.655 154.546 127.835C154.483 128.016 154.383 128.182 154.253 128.324C154.123 128.465 153.966 128.58 153.79 128.66C153.614 128.739 153.423 128.784 153.23 128.789L144.261 129.041C143.964 129.048 143.67 128.98 143.405 128.844C143.14 128.708 142.914 128.508 142.746 128.263C140.093 124.361 139.756 120.234 141.735 115.884C141.857 115.623 142.061 115.409 142.316 115.276C142.572 115.143 142.864 115.099 143.147 115.149C143.431 115.2 143.69 115.342 143.883 115.555C144.077 115.768 144.195 116.039 144.219 116.326L144.83 124.62C144.842 124.849 144.926 125.068 145.069 125.248C145.212 125.429 145.408 125.563 145.63 125.631L148.493 126.431C149.686 126.768 150.282 126.319 150.282 125.084Z" fill="#1F64CA"/>
<path d="M162.515 120.917L168.03 122.412C168.241 122.467 168.438 122.565 168.61 122.699C168.782 122.833 168.924 123.001 169.029 123.192C169.133 123.383 169.197 123.594 169.218 123.811C169.238 124.028 169.214 124.247 169.146 124.454C167.743 128.833 164.606 130.334 159.736 128.959C158.571 128.636 158.037 127.963 158.136 126.938C158.157 126.707 158.268 126.494 158.446 126.344C158.623 126.194 158.852 126.12 159.083 126.138L163.988 126.496C164.256 126.524 164.525 126.452 164.744 126.294C164.962 126.136 165.115 125.903 165.172 125.64C165.229 125.377 165.187 125.102 165.055 124.867C164.922 124.633 164.707 124.456 164.452 124.37L159.925 122.791C159.374 122.597 158.886 122.256 158.516 121.804C158.146 121.352 157.908 120.807 157.827 120.228C157.747 119.65 157.827 119.06 158.06 118.524C158.293 117.988 158.668 117.527 159.146 117.191C161.153 115.759 163.49 115.254 166.157 115.675C166.999 115.815 167.56 116.166 167.841 116.727C168.037 117.134 168.08 117.563 167.967 118.012C167.813 118.601 167.434 118.847 166.83 118.748L163.146 118.096C162.789 118.052 162.428 118.144 162.133 118.351C161.839 118.559 161.632 118.869 161.554 119.221C161.475 119.572 161.53 119.94 161.707 120.254C161.885 120.567 162.173 120.804 162.515 120.917Z" fill="#1F64CA"/>
<path d="M88.0316 122.579L89.4842 118.284C89.7228 117.582 90.207 117.147 90.9369 116.979L91.9263 116.726C92.1013 116.684 92.2846 116.691 92.4557 116.747C92.6267 116.803 92.7787 116.906 92.8946 117.044C93.0104 117.182 93.0856 117.349 93.1117 117.527C93.1378 117.705 93.1137 117.887 93.0421 118.052L88.8737 127.842C88.6904 128.267 88.3881 128.63 88.0032 128.887C87.6184 129.144 87.1674 129.284 86.7047 129.291C86.2419 129.297 85.7871 129.17 85.395 128.924C85.0029 128.678 84.6903 128.324 84.4948 127.905L79.6527 117.358C79.5494 117.144 79.5179 116.904 79.563 116.671C79.6082 116.439 79.7274 116.227 79.903 116.068C80.0785 115.909 80.3008 115.812 80.5365 115.79C80.7723 115.768 81.0088 115.823 81.2106 115.947C83.5263 117.308 84.8456 119.414 85.1685 122.263C85.2032 122.598 85.3516 122.91 85.5889 123.149C85.8262 123.388 86.1381 123.538 86.4727 123.575C86.8073 123.612 87.1445 123.533 87.4281 123.352C87.7117 123.171 87.9247 122.898 88.0316 122.579Z" fill="#1F64CA"/>
<path d="M99.6948 119.99L99.8633 125.547C99.8913 126.558 100.397 126.944 101.379 126.705L105.463 125.737C106.109 125.583 106.53 125.828 106.726 126.474L106.916 127.126C107.154 127.912 106.881 128.439 106.095 128.705C101.569 130.242 95.4001 128.684 95.358 123C95.2738 115.337 104.537 114.053 108.095 119.4C108.488 120.004 108.579 120.649 108.369 121.337C107.849 122.951 106.762 123.639 105.105 123.4C104.936 123.378 104.774 123.318 104.63 123.226C104.486 123.134 104.365 123.011 104.274 122.866C104.184 122.721 104.126 122.558 104.106 122.388C104.086 122.218 104.104 122.046 104.158 121.884C104.397 121.14 104.418 120.319 104.221 119.421C104.09 118.872 103.76 118.39 103.296 118.068C102.831 117.746 102.264 117.607 101.703 117.678C101.143 117.748 100.628 118.023 100.257 118.45C99.8865 118.876 99.6863 119.425 99.6948 119.99Z" fill="#1F64CA"/>
<path d="M61.2934 118.746L59.2934 119.209C58.9365 119.29 58.6223 119.501 58.4122 119.801C58.2021 120.1 58.1109 120.467 58.1566 120.83L58.9566 127.504C58.9931 127.79 58.9178 128.079 58.7458 128.314C58.5739 128.548 58.3181 128.71 58.0303 128.767L56.725 129.02C55.7004 129.216 55.1741 128.795 55.146 127.757L54.9566 119.336C54.9145 117.595 55.7636 116.732 57.5039 116.746L74.6829 116.788C75.0963 116.787 75.4957 116.941 75.8032 117.221C76.1107 117.502 76.3042 117.888 76.346 118.304L77.2513 127.104C77.2831 127.376 77.2609 127.652 77.1861 127.916C77.1113 128.18 76.9852 128.426 76.8151 128.641C76.6451 128.856 76.4343 129.036 76.1949 129.169C75.9554 129.303 75.6921 129.388 75.4197 129.42C75.1474 129.452 74.8715 129.43 74.6077 129.355C74.344 129.28 74.0975 129.154 73.8825 128.984C73.6675 128.814 73.488 128.603 73.3544 128.364C73.2209 128.124 73.1357 127.861 73.1039 127.588L72.0724 119.736C71.918 118.543 71.3004 118.206 70.2197 118.725L68.1987 119.715C67.3145 120.136 66.9425 120.823 67.0829 121.778L67.8618 127.483C67.9741 128.325 67.6092 128.816 66.7671 128.957L65.6303 129.146C64.9145 129.259 64.4934 128.964 64.3671 128.262L62.9145 119.82C62.8851 119.642 62.8191 119.471 62.7205 119.32C62.6219 119.168 62.4927 119.038 62.3409 118.937C62.1892 118.837 62.018 118.768 61.8378 118.735C61.6577 118.702 61.4724 118.706 61.2934 118.746Z" fill="#1F64CA"/>
<path d="M121.252 119.757C121.022 119.098 120.551 118.555 119.934 118.238C119.317 117.92 118.601 117.852 117.93 118.048C117.259 118.243 116.683 118.686 116.319 119.289C115.955 119.892 115.829 120.608 115.968 121.294C116.473 123.174 116.635 125.041 116.452 126.894C116.375 127.457 116.085 127.969 115.643 128.326C115.201 128.683 114.639 128.858 114.073 128.815C113.506 128.772 112.977 128.514 112.594 128.095C112.21 127.675 112.002 127.125 112.01 126.557L112.431 117.883C112.473 117.069 112.894 116.662 113.694 116.662L123.357 116.515C123.82 116.508 124.268 116.679 124.608 116.992C124.949 117.306 125.157 117.737 125.189 118.199L125.905 127.336C125.92 127.562 125.885 127.79 125.801 128C125.717 128.211 125.587 128.4 125.421 128.552C125.254 128.704 125.056 128.816 124.841 128.879C124.625 128.942 124.399 128.954 124.178 128.915L122.894 128.683C122.548 128.62 122.24 128.428 122.036 128.149C121.831 127.87 121.746 127.525 121.799 127.189C122.122 124.746 121.94 122.269 121.252 119.757Z" fill="#1F64CA"/>
<defs>
<linearGradient id="paint0_linear_82_6533" x1="150.884" y1="5.18945" x2="150.884" y2="53.37" gradientUnits="userSpaceOnUse">
<stop stop-color="#5EF30E"/>
<stop offset="1" stop-color="#4DD106"/>
</linearGradient>
<linearGradient id="paint1_linear_82_6533" x1="57.0396" y1="33.8975" x2="57.0396" y2="75.7318" gradientUnits="userSpaceOnUse">
<stop stop-color="#17469C"/>
<stop offset="1" stop-color="#4C8AE6"/>
</linearGradient>
<linearGradient id="paint2_linear_82_6533" x1="94.9992" y1="47.6292" x2="14.736" y2="131.84" gradientUnits="userSpaceOnUse">
<stop stop-color="#5EF30E"/>
<stop offset="1" stop-color="#4DD106"/>
</linearGradient>
</defs>
</svg>
